<?xml version="1.0" encoding="utf-8" standalone="no"?>
<!DOCTYPE svg PUBLIC "-//W3C//DTD SVG 1.1//EN"
  "http://www.w3.org/Graphics/SVG/1.1/DTD/svg11.dtd">
<svg height="408pt" version="1.1" viewBox="0 0 276 408" width="276pt" xmlns="http://www.w3.org/2000/svg" xmlns:xlink="http://www.w3.org/1999/xlink">
 <metadata>
  <rdf:RDF xmlns:cc="http://creativecommons.org/ns#" xmlns:dc="http://purl.org/dc/elements/1.1/" xmlns:rdf="http://www.w3.org/1999/02/22-rdf-syntax-ns#">
   <cc:Work>
    <dc:type rdf:resource="http://purl.org/dc/dcmitype/StillImage"/>
    <dc:date>2025-01-19T22:54:15.008206</dc:date>
    <dc:format>image/svg+xml</dc:format>
    <dc:creator>
     <cc:Agent>
      <dc:title>Matplotlib v3.4.3, https://matplotlib.org/</dc:title>
     </cc:Agent>
    </dc:creator>
   </cc:Work>
  </rdf:RDF>
 </metadata>
 <defs>
  <style type="text/css">*{stroke-linecap:butt;stroke-linejoin:round;}</style>
 </defs>
 <g id="figure_1">
  <g id="patch_1">
   <path d="M 0 408 
L 276 408 
L 276 0 
L 0 0 
z
" style="fill:#ffffff;"/>
  </g>
  <g id="axes_1">
   <g id="patch_2">
    <path d="M 36.8875 380.521875 
L 265.2 380.521875 
L 265.2 10.8 
L 36.8875 10.8 
z
" style="fill:#ffffff;"/>
   </g>
   <g id="matplotlib.axis_1">
    <g id="xtick_1">
     <g id="line2d_1">
      <defs>
       <path d="M 0 0 
L 0 3.5 
" id="m767beb9a18" style="stroke:#000000;stroke-width:0.8;"/>
      </defs>
      <g>
       <use style="stroke:#000000;stroke-width:0.8;" x="47.265341" xlink:href="#m767beb9a18" y="380.521875"/>
      </g>
     </g>
     <g id="text_1">
      <!-- 0 -->
      <g transform="translate(44.084091 395.120313)scale(0.1 -0.1)">
       <defs>
        <path d="M 2034 4250 
Q 1547 4250 1301 3770 
Q 1056 3291 1056 2328 
Q 1056 1369 1301 889 
Q 1547 409 2034 409 
Q 2525 409 2770 889 
Q 3016 1369 3016 2328 
Q 3016 3291 2770 3770 
Q 2525 4250 2034 4250 
z
M 2034 4750 
Q 2819 4750 3233 4129 
Q 3647 3509 3647 2328 
Q 3647 1150 3233 529 
Q 2819 -91 2034 -91 
Q 1250 -91 836 529 
Q 422 1150 422 2328 
Q 422 3509 836 4129 
Q 1250 4750 2034 4750 
z
" id="DejaVuSans-30" transform="scale(0.015625)"/>
       </defs>
       <use xlink:href="#DejaVuSans-30"/>
      </g>
     </g>
    </g>
    <g id="xtick_2">
     <g id="line2d_2">
      <g>
       <use style="stroke:#000000;stroke-width:0.8;" x="88.776705" xlink:href="#m767beb9a18" y="380.521875"/>
      </g>
     </g>
     <g id="text_2">
      <!-- 20 -->
      <g transform="translate(82.414205 395.120313)scale(0.1 -0.1)">
       <defs>
        <path d="M 1228 531 
L 3431 531 
L 3431 0 
L 469 0 
L 469 531 
Q 828 903 1448 1529 
Q 2069 2156 2228 2338 
Q 2531 2678 2651 2914 
Q 2772 3150 2772 3378 
Q 2772 3750 2511 3984 
Q 2250 4219 1831 4219 
Q 1534 4219 1204 4116 
Q 875 4013 500 3803 
L 500 4441 
Q 881 4594 1212 4672 
Q 1544 4750 1819 4750 
Q 2544 4750 2975 4387 
Q 3406 4025 3406 3419 
Q 3406 3131 3298 2873 
Q 3191 2616 2906 2266 
Q 2828 2175 2409 1742 
Q 1991 1309 1228 531 
z
" id="DejaVuSans-32" transform="scale(0.015625)"/>
       </defs>
       <use xlink:href="#DejaVuSans-32"/>
       <use x="63.623047" xlink:href="#DejaVuSans-30"/>
      </g>
     </g>
    </g>
    <g id="xtick_3">
     <g id="line2d_3">
      <g>
       <use style="stroke:#000000;stroke-width:0.8;" x="130.288068" xlink:href="#m767beb9a18" y="380.521875"/>
      </g>
     </g>
     <g id="text_3">
      <!-- 40 -->
      <g transform="translate(123.925568 395.120313)scale(0.1 -0.1)">
       <defs>
        <path d="M 2419 4116 
L 825 1625 
L 2419 1625 
L 2419 4116 
z
M 2253 4666 
L 3047 4666 
L 3047 1625 
L 3713 1625 
L 3713 1100 
L 3047 1100 
L 3047 0 
L 2419 0 
L 2419 1100 
L 313 1100 
L 313 1709 
L 2253 4666 
z
" id="DejaVuSans-34" transform="scale(0.015625)"/>
       </defs>
       <use xlink:href="#DejaVuSans-34"/>
       <use x="63.623047" xlink:href="#DejaVuSans-30"/>
      </g>
     </g>
    </g>
    <g id="xtick_4">
     <g id="line2d_4">
      <g>
       <use style="stroke:#000000;stroke-width:0.8;" x="171.799432" xlink:href="#m767beb9a18" y="380.521875"/>
      </g>
     </g>
     <g id="text_4">
      <!-- 60 -->
      <g transform="translate(165.436932 395.120313)scale(0.1 -0.1)">
       <defs>
        <path d="M 2113 2584 
Q 1688 2584 1439 2293 
Q 1191 2003 1191 1497 
Q 1191 994 1439 701 
Q 1688 409 2113 409 
Q 2538 409 2786 701 
Q 3034 994 3034 1497 
Q 3034 2003 2786 2293 
Q 2538 2584 2113 2584 
z
M 3366 4563 
L 3366 3988 
Q 3128 4100 2886 4159 
Q 2644 4219 2406 4219 
Q 1781 4219 1451 3797 
Q 1122 3375 1075 2522 
Q 1259 2794 1537 2939 
Q 1816 3084 2150 3084 
Q 2853 3084 3261 2657 
Q 3669 2231 3669 1497 
Q 3669 778 3244 343 
Q 2819 -91 2113 -91 
Q 1303 -91 875 529 
Q 447 1150 447 2328 
Q 447 3434 972 4092 
Q 1497 4750 2381 4750 
Q 2619 4750 2861 4703 
Q 3103 4656 3366 4563 
z
" id="DejaVuSans-36" transform="scale(0.015625)"/>
       </defs>
       <use xlink:href="#DejaVuSans-36"/>
       <use x="63.623047" xlink:href="#DejaVuSans-30"/>
      </g>
     </g>
    </g>
    <g id="xtick_5">
     <g id="line2d_5">
      <g>
       <use style="stroke:#000000;stroke-width:0.8;" x="213.310795" xlink:href="#m767beb9a18" y="380.521875"/>
      </g>
     </g>
     <g id="text_5">
      <!-- 80 -->
      <g transform="translate(206.948295 395.120313)scale(0.1 -0.1)">
       <defs>
        <path d="M 2034 2216 
Q 1584 2216 1326 1975 
Q 1069 1734 1069 1313 
Q 1069 891 1326 650 
Q 1584 409 2034 409 
Q 2484 409 2743 651 
Q 3003 894 3003 1313 
Q 3003 1734 2745 1975 
Q 2488 2216 2034 2216 
z
M 1403 2484 
Q 997 2584 770 2862 
Q 544 3141 544 3541 
Q 544 4100 942 4425 
Q 1341 4750 2034 4750 
Q 2731 4750 3128 4425 
Q 3525 4100 3525 3541 
Q 3525 3141 3298 2862 
Q 3072 2584 2669 2484 
Q 3125 2378 3379 2068 
Q 3634 1759 3634 1313 
Q 3634 634 3220 271 
Q 2806 -91 2034 -91 
Q 1263 -91 848 271 
Q 434 634 434 1313 
Q 434 1759 690 2068 
Q 947 2378 1403 2484 
z
M 1172 3481 
Q 1172 3119 1398 2916 
Q 1625 2713 2034 2713 
Q 2441 2713 2670 2916 
Q 2900 3119 2900 3481 
Q 2900 3844 2670 4047 
Q 2441 4250 2034 4250 
Q 1625 4250 1398 4047 
Q 1172 3844 1172 3481 
z
" id="DejaVuSans-38" transform="scale(0.015625)"/>
       </defs>
       <use xlink:href="#DejaVuSans-38"/>
       <use x="63.623047" xlink:href="#DejaVuSans-30"/>
      </g>
     </g>
    </g>
    <g id="xtick_6">
     <g id="line2d_6">
      <g>
       <use style="stroke:#000000;stroke-width:0.8;" x="254.822159" xlink:href="#m767beb9a18" y="380.521875"/>
      </g>
     </g>
     <g id="text_6">
      <!-- 100 -->
      <g transform="translate(245.278409 395.120313)scale(0.1 -0.1)">
       <defs>
        <path d="M 794 531 
L 1825 531 
L 1825 4091 
L 703 3866 
L 703 4441 
L 1819 4666 
L 2450 4666 
L 2450 531 
L 3481 531 
L 3481 0 
L 794 0 
L 794 531 
z
" id="DejaVuSans-31" transform="scale(0.015625)"/>
       </defs>
       <use xlink:href="#DejaVuSans-31"/>
       <use x="63.623047" xlink:href="#DejaVuSans-30"/>
       <use x="127.246094" xlink:href="#DejaVuSans-30"/>
      </g>
     </g>
    </g>
   </g>
   <g id="matplotlib.axis_2">
    <g id="ytick_1">
     <g id="line2d_7">
      <defs>
       <path d="M 0 0 
L -3.5 0 
" id="m4303a68526" style="stroke:#000000;stroke-width:0.8;"/>
      </defs>
      <g>
       <use style="stroke:#000000;stroke-width:0.8;" x="36.8875" xlink:href="#m4303a68526" y="363.716335"/>
      </g>
     </g>
     <g id="text_7">
      <!-- 0 -->
      <g transform="translate(23.525 367.515554)scale(0.1 -0.1)">
       <use xlink:href="#DejaVuSans-30"/>
      </g>
     </g>
    </g>
    <g id="ytick_2">
     <g id="line2d_8">
      <g>
       <use style="stroke:#000000;stroke-width:0.8;" x="36.8875" xlink:href="#m4303a68526" y="306.261498"/>
      </g>
     </g>
     <g id="text_8">
      <!-- 20 -->
      <g transform="translate(17.1625 310.060717)scale(0.1 -0.1)">
       <use xlink:href="#DejaVuSans-32"/>
       <use x="63.623047" xlink:href="#DejaVuSans-30"/>
      </g>
     </g>
    </g>
    <g id="ytick_3">
     <g id="line2d_9">
      <g>
       <use style="stroke:#000000;stroke-width:0.8;" x="36.8875" xlink:href="#m4303a68526" y="248.806662"/>
      </g>
     </g>
     <g id="text_9">
      <!-- 40 -->
      <g transform="translate(17.1625 252.60588)scale(0.1 -0.1)">
       <use xlink:href="#DejaVuSans-34"/>
       <use x="63.623047" xlink:href="#DejaVuSans-30"/>
      </g>
     </g>
    </g>
    <g id="ytick_4">
     <g id="line2d_10">
      <g>
       <use style="stroke:#000000;stroke-width:0.8;" x="36.8875" xlink:href="#m4303a68526" y="191.351825"/>
      </g>
     </g>
     <g id="text_10">
      <!-- 60 -->
      <g transform="translate(17.1625 195.151043)scale(0.1 -0.1)">
       <use xlink:href="#DejaVuSans-36"/>
       <use x="63.623047" xlink:href="#DejaVuSans-30"/>
      </g>
     </g>
    </g>
    <g id="ytick_5">
     <g id="line2d_11">
      <g>
       <use style="stroke:#000000;stroke-width:0.8;" x="36.8875" xlink:href="#m4303a68526" y="133.896988"/>
      </g>
     </g>
     <g id="text_11">
      <!-- 80 -->
      <g transform="translate(17.1625 137.696207)scale(0.1 -0.1)">
       <use xlink:href="#DejaVuSans-38"/>
       <use x="63.623047" xlink:href="#DejaVuSans-30"/>
      </g>
     </g>
    </g>
    <g id="ytick_6">
     <g id="line2d_12">
      <g>
       <use style="stroke:#000000;stroke-width:0.8;" x="36.8875" xlink:href="#m4303a68526" y="76.442151"/>
      </g>
     </g>
     <g id="text_12">
      <!-- 100 -->
      <g transform="translate(10.8 80.24137)scale(0.1 -0.1)">
       <use xlink:href="#DejaVuSans-31"/>
       <use x="63.623047" xlink:href="#DejaVuSans-30"/>
       <use x="127.246094" xlink:href="#DejaVuSans-30"/>
      </g>
     </g>
    </g>
    <g id="ytick_7">
     <g id="line2d_13">
      <g>
       <use style="stroke:#000000;stroke-width:0.8;" x="36.8875" xlink:href="#m4303a68526" y="18.987314"/>
      </g>
     </g>
     <g id="text_13">
      <!-- 120 -->
      <g transform="translate(10.8 22.786533)scale(0.1 -0.1)">
       <use xlink:href="#DejaVuSans-31"/>
       <use x="63.623047" xlink:href="#DejaVuSans-32"/>
       <use x="127.246094" xlink:href="#DejaVuSans-30"/>
      </g>
     </g>
    </g>
   </g>
   <g id="line2d_14">
    <path clip-path="url(#pcae5bc98b4)" d="M 47.265341 363.716335 
L 49.340909 360.843593 
L 51.416477 363.716335 
L 53.492045 360.843593 
L 55.567614 363.716335 
L 57.643182 363.716335 
L 59.71875 363.716335 
L 61.794318 360.843593 
L 63.869886 357.970852 
L 65.945455 355.09811 
L 68.021023 352.225368 
L 70.096591 349.352626 
L 72.172159 352.225368 
L 74.247727 355.09811 
L 76.323295 352.225368 
L 78.398864 355.09811 
L 80.474432 352.225368 
L 82.55 349.352626 
L 84.625568 346.479884 
L 86.701136 343.607142 
L 88.776705 340.7344 
L 90.852273 337.861659 
L 92.927841 334.988917 
L 95.003409 332.116175 
L 97.078977 320.625208 
L 99.154545 317.752466 
L 101.230114 320.625208 
L 103.305682 314.879724 
L 105.38125 317.752466 
L 107.456818 314.879724 
L 109.532386 312.006982 
L 111.607955 314.879724 
L 113.683523 312.006982 
L 115.759091 309.13424 
L 117.834659 303.388757 
L 119.910227 300.516015 
L 121.985795 297.643273 
L 124.061364 300.516015 
L 126.136932 297.643273 
L 128.2125 294.770531 
L 130.288068 297.643273 
L 132.363636 294.770531 
L 134.439205 291.897789 
L 136.514773 289.025047 
L 138.590341 277.53408 
L 140.665909 271.788596 
L 142.741477 266.043113 
L 144.817045 251.679403 
L 146.892614 248.806662 
L 148.968182 245.93392 
L 151.04375 363.716335 
L 153.119318 360.843593 
L 155.194886 357.970852 
L 157.270455 360.843593 
L 159.346023 363.716335 
L 161.421591 360.843593 
L 163.497159 343.607142 
L 165.572727 346.479884 
L 167.648295 349.352626 
L 169.723864 346.479884 
L 171.799432 343.607142 
L 173.875 329.243433 
L 175.950568 332.116175 
L 178.026136 334.988917 
L 180.101705 337.861659 
L 182.177273 363.716335 
L 184.252841 360.843593 
L 186.328409 355.09811 
L 188.403977 352.225368 
L 190.479545 355.09811 
L 192.555114 352.225368 
L 194.630682 349.352626 
L 196.70625 346.479884 
L 198.781818 343.607142 
L 200.857386 346.479884 
L 202.932955 343.607142 
L 205.008523 332.116175 
L 207.084091 334.988917 
L 209.159659 332.116175 
L 211.235227 334.988917 
L 213.310795 337.861659 
L 215.386364 340.7344 
L 217.461932 343.607142 
L 219.5375 340.7344 
L 221.613068 337.861659 
L 223.688636 334.988917 
L 225.764205 332.116175 
L 227.839773 326.370691 
L 229.915341 323.497949 
L 231.990909 326.370691 
L 234.066477 329.243433 
L 236.142045 326.370691 
L 238.217614 323.497949 
L 240.293182 320.625208 
L 242.36875 314.879724 
L 244.444318 312.006982 
L 246.519886 314.879724 
L 248.595455 312.006982 
L 250.671023 309.13424 
L 252.746591 312.006982 
L 254.822159 309.13424 
" style="fill:none;stroke:#1f77b4;stroke-linecap:square;stroke-width:1.5;"/>
   </g>
   <g id="line2d_15">
    <path clip-path="url(#pcae5bc98b4)" d="M 47.265341 363.716335 
L 49.340909 349.352626 
L 51.416477 352.225368 
L 53.492045 355.09811 
L 55.567614 352.225368 
L 57.643182 349.352626 
L 59.71875 346.479884 
L 61.794318 343.607142 
L 63.869886 340.7344 
L 65.945455 337.861659 
L 68.021023 340.7344 
L 70.096591 323.497949 
L 72.172159 326.370691 
L 74.247727 323.497949 
L 76.323295 312.006982 
L 78.398864 300.516015 
L 80.474432 294.770531 
L 82.55 289.025047 
L 84.625568 280.406822 
L 86.701136 277.53408 
L 88.776705 280.406822 
L 90.852273 277.53408 
L 92.927841 274.661338 
L 95.003409 271.788596 
L 97.078977 274.661338 
L 99.154545 271.788596 
L 101.230114 254.552145 
L 103.305682 257.424887 
L 105.38125 254.552145 
L 107.456818 251.679403 
L 109.532386 245.93392 
L 111.607955 248.806662 
L 113.683523 245.93392 
L 115.759091 228.697469 
L 117.834659 225.824727 
L 119.910227 222.951985 
L 121.985795 220.079243 
L 124.061364 222.951985 
L 126.136932 225.824727 
L 128.2125 222.951985 
L 130.288068 220.079243 
L 132.363636 222.951985 
L 134.439205 211.461018 
L 136.514773 214.333759 
L 138.590341 211.461018 
L 140.665909 208.588276 
L 142.741477 205.715534 
L 144.817045 194.224567 
L 146.892614 191.351825 
L 148.968182 194.224567 
L 151.04375 188.479083 
L 153.119318 191.351825 
L 155.194886 194.224567 
L 157.270455 191.351825 
L 159.346023 194.224567 
L 161.421591 197.097308 
L 163.497159 194.224567 
L 165.572727 179.860857 
L 167.648295 182.733599 
L 169.723864 185.606341 
L 171.799432 174.115374 
L 173.875 165.497148 
L 175.950568 162.624406 
L 178.026136 156.878923 
L 180.101705 154.006181 
L 182.177273 156.878923 
L 184.252841 159.751664 
L 186.328409 156.878923 
L 188.403977 154.006181 
L 190.479545 156.878923 
L 192.555114 159.751664 
L 194.630682 145.387955 
L 196.70625 142.515213 
L 198.781818 139.642472 
L 200.857386 142.515213 
L 202.932955 145.387955 
L 205.008523 142.515213 
L 207.084091 139.642472 
L 209.159659 122.406021 
L 211.235227 119.533279 
L 213.310795 116.660537 
L 215.386364 113.787795 
L 217.461932 110.915053 
L 219.5375 113.787795 
L 221.613068 116.660537 
L 223.688636 113.787795 
L 225.764205 110.915053 
L 227.839773 113.787795 
L 229.915341 116.660537 
L 231.990909 113.787795 
L 234.066477 110.915053 
L 236.142045 113.787795 
L 238.217614 110.915053 
L 240.293182 108.042311 
L 242.36875 105.169569 
L 244.444318 108.042311 
L 246.519886 105.169569 
L 248.595455 102.296828 
L 250.671023 105.169569 
L 252.746591 96.551344 
L 254.822159 93.678602 
" style="fill:none;stroke:#ff7f0e;stroke-linecap:square;stroke-width:1.5;"/>
   </g>
   <g id="line2d_16">
    <path clip-path="url(#pcae5bc98b4)" d="M 47.265341 363.716335 
L 49.340909 363.716335 
L 51.416477 360.843593 
L 53.492045 357.970852 
L 55.567614 352.225368 
L 57.643182 355.09811 
L 59.71875 357.970852 
L 61.794318 355.09811 
L 63.869886 343.607142 
L 65.945455 340.7344 
L 68.021023 337.861659 
L 70.096591 329.243433 
L 72.172159 326.370691 
L 74.247727 323.497949 
L 76.323295 326.370691 
L 78.398864 329.243433 
L 80.474432 312.006982 
L 82.55 309.13424 
L 84.625568 312.006982 
L 86.701136 314.879724 
L 88.776705 312.006982 
L 90.852273 309.13424 
L 92.927841 312.006982 
L 95.003409 309.13424 
L 97.078977 294.770531 
L 99.154545 291.897789 
L 101.230114 274.661338 
L 103.305682 257.424887 
L 105.38125 251.679403 
L 107.456818 248.806662 
L 109.532386 231.570211 
L 111.607955 234.442952 
L 113.683523 231.570211 
L 115.759091 234.442952 
L 117.834659 231.570211 
L 119.910227 225.824727 
L 121.985795 222.951985 
L 124.061364 225.824727 
L 126.136932 222.951985 
L 128.2125 211.461018 
L 130.288068 214.333759 
L 132.363636 217.206501 
L 134.439205 214.333759 
L 136.514773 211.461018 
L 138.590341 208.588276 
L 140.665909 211.461018 
L 142.741477 214.333759 
L 144.817045 211.461018 
L 146.892614 214.333759 
L 148.968182 217.206501 
L 151.04375 214.333759 
L 153.119318 217.206501 
L 155.194886 214.333759 
L 157.270455 211.461018 
L 159.346023 214.333759 
L 161.421591 211.461018 
L 163.497159 208.588276 
L 165.572727 205.715534 
L 167.648295 202.842792 
L 169.723864 205.715534 
L 171.799432 208.588276 
L 173.875 205.715534 
L 175.950568 197.097308 
L 178.026136 194.224567 
L 180.101705 191.351825 
L 182.177273 179.860857 
L 184.252841 176.988116 
L 186.328409 179.860857 
L 188.403977 176.988116 
L 190.479545 179.860857 
L 192.555114 182.733599 
L 194.630682 179.860857 
L 196.70625 176.988116 
L 198.781818 179.860857 
L 200.857386 168.36989 
L 202.932955 162.624406 
L 205.008523 159.751664 
L 207.084091 156.878923 
L 209.159659 154.006181 
L 211.235227 156.878923 
L 213.310795 154.006181 
L 215.386364 151.133439 
L 217.461932 148.260697 
L 219.5375 145.387955 
L 221.613068 148.260697 
L 223.688636 145.387955 
L 225.764205 148.260697 
L 227.839773 145.387955 
L 229.915341 148.260697 
L 231.990909 151.133439 
L 234.066477 148.260697 
L 236.142045 145.387955 
L 238.217614 142.515213 
L 240.293182 136.76973 
L 242.36875 139.642472 
L 244.444318 131.024246 
L 246.519886 128.151504 
L 248.595455 131.024246 
L 250.671023 133.896988 
L 252.746591 131.024246 
L 254.822159 128.151504 
" style="fill:none;stroke:#2ca02c;stroke-linecap:square;stroke-width:1.5;"/>
   </g>
   <g id="line2d_17">
    <path clip-path="url(#pcae5bc98b4)" d="M 47.265341 363.716335 
L 49.340909 360.843593 
L 51.416477 363.716335 
L 53.492045 360.843593 
L 55.567614 363.716335 
L 57.643182 360.843593 
L 59.71875 363.716335 
L 61.794318 360.843593 
L 63.869886 355.09811 
L 65.945455 357.970852 
L 68.021023 340.7344 
L 70.096591 343.607142 
L 72.172159 340.7344 
L 74.247727 343.607142 
L 76.323295 346.479884 
L 78.398864 343.607142 
L 80.474432 332.116175 
L 82.55 329.243433 
L 84.625568 332.116175 
L 86.701136 329.243433 
L 88.776705 326.370691 
L 90.852273 323.497949 
L 92.927841 320.625208 
L 95.003409 323.497949 
L 97.078977 326.370691 
L 99.154545 323.497949 
L 101.230114 320.625208 
L 103.305682 309.13424 
L 105.38125 306.261498 
L 107.456818 309.13424 
L 109.532386 294.770531 
L 111.607955 297.643273 
L 113.683523 294.770531 
L 115.759091 297.643273 
L 117.834659 300.516015 
L 119.910227 297.643273 
L 121.985795 294.770531 
L 124.061364 297.643273 
L 126.136932 300.516015 
L 128.2125 289.025047 
L 130.288068 286.152306 
L 132.363636 268.915854 
L 134.439205 266.043113 
L 136.514773 263.170371 
L 138.590341 260.297629 
L 140.665909 257.424887 
L 142.741477 260.297629 
L 144.817045 257.424887 
L 146.892614 251.679403 
L 148.968182 248.806662 
L 151.04375 245.93392 
L 153.119318 248.806662 
L 155.194886 245.93392 
L 157.270455 248.806662 
L 159.346023 245.93392 
L 161.421591 248.806662 
L 163.497159 245.93392 
L 165.572727 243.061178 
L 167.648295 245.93392 
L 169.723864 243.061178 
L 171.799432 240.188436 
L 173.875 225.824727 
L 175.950568 222.951985 
L 178.026136 225.824727 
L 180.101705 222.951985 
L 182.177273 225.824727 
L 184.252841 222.951985 
L 186.328409 211.461018 
L 188.403977 214.333759 
L 190.479545 217.206501 
L 192.555114 220.079243 
L 194.630682 208.588276 
L 196.70625 205.715534 
L 198.781818 208.588276 
L 200.857386 205.715534 
L 202.932955 202.842792 
L 205.008523 205.715534 
L 207.084091 202.842792 
L 209.159659 199.97005 
L 211.235227 197.097308 
L 213.310795 194.224567 
L 215.386364 191.351825 
L 217.461932 194.224567 
L 219.5375 191.351825 
L 221.613068 194.224567 
L 223.688636 197.097308 
L 225.764205 194.224567 
L 227.839773 197.097308 
L 229.915341 185.606341 
L 231.990909 182.733599 
L 234.066477 179.860857 
L 236.142045 182.733599 
L 238.217614 179.860857 
L 240.293182 176.988116 
L 242.36875 174.115374 
L 244.444318 171.242632 
L 246.519886 174.115374 
L 248.595455 176.988116 
L 250.671023 174.115374 
L 252.746591 171.242632 
L 254.822159 174.115374 
" style="fill:none;stroke:#d62728;stroke-linecap:square;stroke-width:1.5;"/>
   </g>
   <g id="line2d_18">
    <path clip-path="url(#pcae5bc98b4)" d="M 47.265341 363.716335 
L 49.340909 360.843593 
L 51.416477 357.970852 
L 53.492045 349.352626 
L 55.567614 352.225368 
L 57.643182 349.352626 
L 59.71875 346.479884 
L 61.794318 343.607142 
L 63.869886 346.479884 
L 65.945455 343.607142 
L 68.021023 332.116175 
L 70.096591 326.370691 
L 72.172159 323.497949 
L 74.247727 320.625208 
L 76.323295 323.497949 
L 78.398864 326.370691 
L 80.474432 323.497949 
L 82.55 320.625208 
L 84.625568 323.497949 
L 86.701136 320.625208 
L 88.776705 317.752466 
L 90.852273 314.879724 
L 92.927841 312.006982 
L 95.003409 309.13424 
L 97.078977 306.261498 
L 99.154545 303.388757 
L 101.230114 286.152306 
L 103.305682 289.025047 
L 105.38125 277.53408 
L 107.456818 274.661338 
L 109.532386 277.53408 
L 111.607955 260.297629 
L 113.683523 257.424887 
L 115.759091 254.552145 
L 117.834659 257.424887 
L 119.910227 254.552145 
L 121.985795 257.424887 
L 124.061364 254.552145 
L 126.136932 243.061178 
L 128.2125 240.188436 
L 130.288068 222.951985 
L 132.363636 220.079243 
L 134.439205 217.206501 
L 136.514773 214.333759 
L 138.590341 211.461018 
L 140.665909 214.333759 
L 142.741477 211.461018 
L 144.817045 214.333759 
L 146.892614 211.461018 
L 148.968182 208.588276 
L 151.04375 211.461018 
L 153.119318 208.588276 
L 155.194886 205.715534 
L 157.270455 202.842792 
L 159.346023 199.97005 
L 161.421591 197.097308 
L 163.497159 199.97005 
L 165.572727 197.097308 
L 167.648295 185.606341 
L 169.723864 182.733599 
L 171.799432 179.860857 
L 173.875 182.733599 
L 175.950568 179.860857 
L 178.026136 168.36989 
L 180.101705 165.497148 
L 182.177273 162.624406 
L 184.252841 159.751664 
L 186.328409 162.624406 
L 188.403977 165.497148 
L 190.479545 162.624406 
L 192.555114 165.497148 
L 194.630682 162.624406 
L 196.70625 165.497148 
L 198.781818 162.624406 
L 200.857386 159.751664 
L 202.932955 156.878923 
L 205.008523 154.006181 
L 207.084091 151.133439 
L 209.159659 148.260697 
L 211.235227 133.896988 
L 213.310795 119.533279 
L 215.386364 116.660537 
L 217.461932 119.533279 
L 219.5375 113.787795 
L 221.613068 116.660537 
L 223.688636 113.787795 
L 225.764205 110.915053 
L 227.839773 108.042311 
L 229.915341 110.915053 
L 231.990909 105.169569 
L 234.066477 108.042311 
L 236.142045 105.169569 
L 238.217614 102.296828 
L 240.293182 99.424086 
L 242.36875 85.060377 
L 244.444318 82.187635 
L 246.519886 73.569409 
L 248.595455 76.442151 
L 250.671023 62.078442 
L 252.746591 59.2057 
L 254.822159 56.332958 
" style="fill:none;stroke:#9467bd;stroke-linecap:square;stroke-width:1.5;"/>
   </g>
   <g id="line2d_19">
    <path clip-path="url(#pcae5bc98b4)" d="M 47.265341 363.716335 
L 49.340909 360.843593 
L 51.416477 357.970852 
L 53.492045 352.225368 
L 55.567614 349.352626 
L 57.643182 346.479884 
L 59.71875 332.116175 
L 61.794318 334.988917 
L 63.869886 337.861659 
L 65.945455 334.988917 
L 68.021023 337.861659 
L 70.096591 334.988917 
L 72.172159 337.861659 
L 74.247727 334.988917 
L 76.323295 332.116175 
L 78.398864 329.243433 
L 80.474432 326.370691 
L 82.55 323.497949 
L 84.625568 320.625208 
L 86.701136 317.752466 
L 88.776705 320.625208 
L 90.852273 317.752466 
L 92.927841 314.879724 
L 95.003409 312.006982 
L 97.078977 309.13424 
L 99.154545 306.261498 
L 101.230114 309.13424 
L 103.305682 312.006982 
L 105.38125 314.879724 
L 107.456818 306.261498 
L 109.532386 303.388757 
L 111.607955 306.261498 
L 113.683523 303.388757 
L 115.759091 300.516015 
L 117.834659 291.897789 
L 119.910227 289.025047 
L 121.985795 286.152306 
L 124.061364 289.025047 
L 126.136932 286.152306 
L 128.2125 283.279564 
L 130.288068 286.152306 
L 132.363636 283.279564 
L 134.439205 286.152306 
L 136.514773 289.025047 
L 138.590341 291.897789 
L 140.665909 289.025047 
L 142.741477 291.897789 
L 144.817045 294.770531 
L 146.892614 297.643273 
L 148.968182 286.152306 
L 151.04375 283.279564 
L 153.119318 286.152306 
L 155.194886 289.025047 
L 157.270455 286.152306 
L 159.346023 283.279564 
L 161.421591 286.152306 
L 163.497159 283.279564 
L 165.572727 280.406822 
L 167.648295 283.279564 
L 169.723864 286.152306 
L 171.799432 289.025047 
L 173.875 286.152306 
L 175.950568 283.279564 
L 178.026136 280.406822 
L 180.101705 277.53408 
L 182.177273 280.406822 
L 184.252841 277.53408 
L 186.328409 274.661338 
L 188.403977 277.53408 
L 190.479545 271.788596 
L 192.555114 274.661338 
L 194.630682 266.043113 
L 196.70625 268.915854 
L 198.781818 260.297629 
L 200.857386 257.424887 
L 202.932955 260.297629 
L 205.008523 257.424887 
L 207.084091 254.552145 
L 209.159659 251.679403 
L 211.235227 248.806662 
L 213.310795 245.93392 
L 215.386364 248.806662 
L 217.461932 245.93392 
L 219.5375 243.061178 
L 221.613068 240.188436 
L 223.688636 237.315694 
L 225.764205 240.188436 
L 227.839773 237.315694 
L 229.915341 240.188436 
L 231.990909 243.061178 
L 234.066477 240.188436 
L 236.142045 237.315694 
L 238.217614 234.442952 
L 240.293182 237.315694 
L 242.36875 234.442952 
L 244.444318 231.570211 
L 246.519886 228.697469 
L 248.595455 225.824727 
L 250.671023 228.697469 
L 252.746591 225.824727 
L 254.822159 222.951985 
" style="fill:none;stroke:#8c564b;stroke-linecap:square;stroke-width:1.5;"/>
   </g>
   <g id="line2d_20">
    <path clip-path="url(#pcae5bc98b4)" d="M 47.265341 363.716335 
L 49.340909 363.716335 
L 51.416477 363.716335 
L 53.492045 346.479884 
L 55.567614 349.352626 
L 57.643182 337.861659 
L 59.71875 340.7344 
L 61.794318 343.607142 
L 63.869886 346.479884 
L 65.945455 332.116175 
L 68.021023 320.625208 
L 70.096591 317.752466 
L 72.172159 314.879724 
L 74.247727 317.752466 
L 76.323295 314.879724 
L 78.398864 317.752466 
L 80.474432 314.879724 
L 82.55 317.752466 
L 84.625568 314.879724 
L 86.701136 312.006982 
L 88.776705 306.261498 
L 90.852273 303.388757 
L 92.927841 306.261498 
L 95.003409 291.897789 
L 97.078977 289.025047 
L 99.154545 291.897789 
L 101.230114 289.025047 
L 103.305682 286.152306 
L 105.38125 283.279564 
L 107.456818 286.152306 
L 109.532386 289.025047 
L 111.607955 291.897789 
L 113.683523 294.770531 
L 115.759091 291.897789 
L 117.834659 289.025047 
L 119.910227 291.897789 
L 121.985795 294.770531 
L 124.061364 291.897789 
L 126.136932 289.025047 
L 128.2125 291.897789 
L 130.288068 294.770531 
L 132.363636 286.152306 
L 134.439205 283.279564 
L 136.514773 286.152306 
L 138.590341 289.025047 
L 140.665909 277.53408 
L 142.741477 280.406822 
L 144.817045 283.279564 
L 146.892614 280.406822 
L 148.968182 277.53408 
L 151.04375 280.406822 
L 153.119318 277.53408 
L 155.194886 274.661338 
L 157.270455 277.53408 
L 159.346023 274.661338 
L 161.421591 257.424887 
L 163.497159 260.297629 
L 165.572727 257.424887 
L 167.648295 254.552145 
L 169.723864 251.679403 
L 171.799432 254.552145 
L 173.875 251.679403 
L 175.950568 248.806662 
L 178.026136 245.93392 
L 180.101705 243.061178 
L 182.177273 240.188436 
L 184.252841 222.951985 
L 186.328409 225.824727 
L 188.403977 228.697469 
L 190.479545 225.824727 
L 192.555114 222.951985 
L 194.630682 220.079243 
L 196.70625 222.951985 
L 198.781818 220.079243 
L 200.857386 217.206501 
L 202.932955 214.333759 
L 205.008523 211.461018 
L 207.084091 208.588276 
L 209.159659 199.97005 
L 211.235227 202.842792 
L 213.310795 199.97005 
L 215.386364 202.842792 
L 217.461932 199.97005 
L 219.5375 197.097308 
L 221.613068 194.224567 
L 223.688636 191.351825 
L 225.764205 188.479083 
L 227.839773 185.606341 
L 229.915341 188.479083 
L 231.990909 179.860857 
L 234.066477 176.988116 
L 236.142045 174.115374 
L 238.217614 156.878923 
L 240.293182 363.716335 
L 242.36875 360.843593 
L 244.444318 363.716335 
L 246.519886 363.716335 
L 248.595455 363.716335 
L 250.671023 360.843593 
L 252.746591 357.970852 
L 254.822159 355.09811 
" style="fill:none;stroke:#e377c2;stroke-linecap:square;stroke-width:1.5;"/>
   </g>
   <g id="line2d_21">
    <path clip-path="url(#pcae5bc98b4)" d="M 47.265341 363.716335 
L 49.340909 346.479884 
L 51.416477 337.861659 
L 53.492045 334.988917 
L 55.567614 337.861659 
L 57.643182 329.243433 
L 59.71875 326.370691 
L 61.794318 329.243433 
L 63.869886 332.116175 
L 65.945455 314.879724 
L 68.021023 312.006982 
L 70.096591 309.13424 
L 72.172159 306.261498 
L 74.247727 303.388757 
L 76.323295 286.152306 
L 78.398864 268.915854 
L 80.474432 260.297629 
L 82.55 257.424887 
L 84.625568 260.297629 
L 86.701136 251.679403 
L 88.776705 248.806662 
L 90.852273 245.93392 
L 92.927841 243.061178 
L 95.003409 245.93392 
L 97.078977 243.061178 
L 99.154545 245.93392 
L 101.230114 248.806662 
L 103.305682 245.93392 
L 105.38125 243.061178 
L 107.456818 240.188436 
L 109.532386 243.061178 
L 111.607955 240.188436 
L 113.683523 237.315694 
L 115.759091 240.188436 
L 117.834659 243.061178 
L 119.910227 240.188436 
L 121.985795 237.315694 
L 124.061364 240.188436 
L 126.136932 237.315694 
L 128.2125 240.188436 
L 130.288068 237.315694 
L 132.363636 234.442952 
L 134.439205 231.570211 
L 136.514773 225.824727 
L 138.590341 222.951985 
L 140.665909 220.079243 
L 142.741477 222.951985 
L 144.817045 225.824727 
L 146.892614 228.697469 
L 148.968182 225.824727 
L 151.04375 208.588276 
L 153.119318 205.715534 
L 155.194886 202.842792 
L 157.270455 191.351825 
L 159.346023 188.479083 
L 161.421591 185.606341 
L 163.497159 182.733599 
L 165.572727 179.860857 
L 167.648295 182.733599 
L 169.723864 185.606341 
L 171.799432 182.733599 
L 173.875 179.860857 
L 175.950568 176.988116 
L 178.026136 174.115374 
L 180.101705 171.242632 
L 182.177273 168.36989 
L 184.252841 165.497148 
L 186.328409 168.36989 
L 188.403977 159.751664 
L 190.479545 162.624406 
L 192.555114 148.260697 
L 194.630682 131.024246 
L 196.70625 128.151504 
L 198.781818 131.024246 
L 200.857386 128.151504 
L 202.932955 110.915053 
L 205.008523 108.042311 
L 207.084091 105.169569 
L 209.159659 102.296828 
L 211.235227 99.424086 
L 213.310795 82.187635 
L 215.386364 85.060377 
L 217.461932 82.187635 
L 219.5375 79.314893 
L 221.613068 76.442151 
L 223.688636 79.314893 
L 225.764205 76.442151 
L 227.839773 73.569409 
L 229.915341 76.442151 
L 231.990909 79.314893 
L 234.066477 82.187635 
L 236.142045 70.696667 
L 238.217614 56.332958 
L 240.293182 39.096507 
L 242.36875 41.969249 
L 244.444318 39.096507 
L 246.519886 36.223765 
L 248.595455 33.351023 
L 250.671023 30.478282 
L 252.746591 27.60554 
L 254.822159 30.478282 
" style="fill:none;stroke:#7f7f7f;stroke-linecap:square;stroke-width:1.5;"/>
   </g>
   <g id="line2d_22">
    <path clip-path="url(#pcae5bc98b4)" d="M 47.265341 363.716335 
L 49.340909 363.716335 
L 51.416477 346.479884 
L 53.492045 343.607142 
L 55.567614 340.7344 
L 57.643182 334.988917 
L 59.71875 332.116175 
L 61.794318 329.243433 
L 63.869886 332.116175 
L 65.945455 329.243433 
L 68.021023 312.006982 
L 70.096591 309.13424 
L 72.172159 312.006982 
L 74.247727 309.13424 
L 76.323295 306.261498 
L 78.398864 303.388757 
L 80.474432 306.261498 
L 82.55 289.025047 
L 84.625568 291.897789 
L 86.701136 294.770531 
L 88.776705 291.897789 
L 90.852273 294.770531 
L 92.927841 297.643273 
L 95.003409 294.770531 
L 97.078977 297.643273 
L 99.154545 300.516015 
L 101.230114 297.643273 
L 103.305682 294.770531 
L 105.38125 297.643273 
L 107.456818 294.770531 
L 109.532386 291.897789 
L 111.607955 294.770531 
L 113.683523 291.897789 
L 115.759091 289.025047 
L 117.834659 286.152306 
L 119.910227 289.025047 
L 121.985795 286.152306 
L 124.061364 274.661338 
L 126.136932 277.53408 
L 128.2125 274.661338 
L 130.288068 277.53408 
L 132.363636 280.406822 
L 134.439205 277.53408 
L 136.514773 280.406822 
L 138.590341 268.915854 
L 140.665909 266.043113 
L 142.741477 263.170371 
L 144.817045 260.297629 
L 146.892614 263.170371 
L 148.968182 260.297629 
L 151.04375 257.424887 
L 153.119318 260.297629 
L 155.194886 263.170371 
L 157.270455 260.297629 
L 159.346023 263.170371 
L 161.421591 260.297629 
L 163.497159 263.170371 
L 165.572727 266.043113 
L 167.648295 268.915854 
L 169.723864 271.788596 
L 171.799432 268.915854 
L 173.875 266.043113 
L 175.950568 263.170371 
L 178.026136 260.297629 
L 180.101705 257.424887 
L 182.177273 260.297629 
L 184.252841 248.806662 
L 186.328409 234.442952 
L 188.403977 237.315694 
L 190.479545 234.442952 
L 192.555114 225.824727 
L 194.630682 228.697469 
L 196.70625 225.824727 
L 198.781818 228.697469 
L 200.857386 225.824727 
L 202.932955 228.697469 
L 205.008523 225.824727 
L 207.084091 222.951985 
L 209.159659 220.079243 
L 211.235227 222.951985 
L 213.310795 225.824727 
L 215.386364 222.951985 
L 217.461932 220.079243 
L 219.5375 222.951985 
L 221.613068 225.824727 
L 223.688636 222.951985 
L 225.764205 225.824727 
L 227.839773 228.697469 
L 229.915341 231.570211 
L 231.990909 228.697469 
L 234.066477 220.079243 
L 236.142045 208.588276 
L 238.217614 194.224567 
L 240.293182 197.097308 
L 242.36875 188.479083 
L 244.444318 191.351825 
L 246.519886 188.479083 
L 248.595455 191.351825 
L 250.671023 182.733599 
L 252.746591 179.860857 
L 254.822159 176.988116 
" style="fill:none;stroke:#bcbd22;stroke-linecap:square;stroke-width:1.5;"/>
   </g>
   <g id="line2d_23">
    <path clip-path="url(#pcae5bc98b4)" d="M 47.265341 363.716335 
L 49.340909 363.716335 
L 51.416477 363.716335 
L 53.492045 360.843593 
L 55.567614 357.970852 
L 57.643182 355.09811 
L 59.71875 352.225368 
L 61.794318 349.352626 
L 63.869886 346.479884 
L 65.945455 349.352626 
L 68.021023 346.479884 
L 70.096591 349.352626 
L 72.172159 352.225368 
L 74.247727 349.352626 
L 76.323295 352.225368 
L 78.398864 349.352626 
L 80.474432 343.607142 
L 82.55 346.479884 
L 84.625568 343.607142 
L 86.701136 340.7344 
L 88.776705 337.861659 
L 90.852273 334.988917 
L 92.927841 329.243433 
L 95.003409 326.370691 
L 97.078977 323.497949 
L 99.154545 320.625208 
L 101.230114 317.752466 
L 103.305682 312.006982 
L 105.38125 303.388757 
L 107.456818 300.516015 
L 109.532386 303.388757 
L 111.607955 300.516015 
L 113.683523 294.770531 
L 115.759091 297.643273 
L 117.834659 294.770531 
L 119.910227 291.897789 
L 121.985795 289.025047 
L 124.061364 286.152306 
L 126.136932 289.025047 
L 128.2125 277.53408 
L 130.288068 274.661338 
L 132.363636 277.53408 
L 134.439205 274.661338 
L 136.514773 271.788596 
L 138.590341 274.661338 
L 140.665909 271.788596 
L 142.741477 274.661338 
L 144.817045 271.788596 
L 146.892614 274.661338 
L 148.968182 277.53408 
L 151.04375 280.406822 
L 153.119318 277.53408 
L 155.194886 280.406822 
L 157.270455 283.279564 
L 159.346023 286.152306 
L 161.421591 289.025047 
L 163.497159 286.152306 
L 165.572727 283.279564 
L 167.648295 274.661338 
L 169.723864 271.788596 
L 171.799432 263.170371 
L 173.875 260.297629 
L 175.950568 263.170371 
L 178.026136 266.043113 
L 180.101705 263.170371 
L 182.177273 260.297629 
L 184.252841 257.424887 
L 186.328409 245.93392 
L 188.403977 243.061178 
L 190.479545 231.570211 
L 192.555114 228.697469 
L 194.630682 225.824727 
L 196.70625 222.951985 
L 198.781818 225.824727 
L 200.857386 220.079243 
L 202.932955 217.206501 
L 205.008523 220.079243 
L 207.084091 222.951985 
L 209.159659 214.333759 
L 211.235227 208.588276 
L 213.310795 211.461018 
L 215.386364 214.333759 
L 217.461932 211.461018 
L 219.5375 208.588276 
L 221.613068 211.461018 
L 223.688636 208.588276 
L 225.764205 191.351825 
L 227.839773 188.479083 
L 229.915341 191.351825 
L 231.990909 188.479083 
L 234.066477 185.606341 
L 236.142045 182.733599 
L 238.217614 165.497148 
L 240.293182 168.36989 
L 242.36875 165.497148 
L 244.444318 168.36989 
L 246.519886 165.497148 
L 248.595455 162.624406 
L 250.671023 159.751664 
L 252.746591 148.260697 
L 254.822159 139.642472 
" style="fill:none;stroke:#17becf;stroke-linecap:square;stroke-width:1.5;"/>
   </g>
   <g id="line2d_24">
    <path clip-path="url(#pcae5bc98b4)" d="M 47.265341 363.716335 
L 49.340909 363.716335 
L 51.416477 363.716335 
L 53.492045 363.716335 
L 55.567614 360.843593 
L 57.643182 357.970852 
L 59.71875 360.843593 
L 61.794318 343.607142 
L 63.869886 340.7344 
L 65.945455 343.607142 
L 68.021023 346.479884 
L 70.096591 343.607142 
L 72.172159 334.988917 
L 74.247727 332.116175 
L 76.323295 329.243433 
L 78.398864 332.116175 
L 80.474432 329.243433 
L 82.55 326.370691 
L 84.625568 312.006982 
L 86.701136 309.13424 
L 88.776705 300.516015 
L 90.852273 303.388757 
L 92.927841 300.516015 
L 95.003409 297.643273 
L 97.078977 291.897789 
L 99.154545 289.025047 
L 101.230114 286.152306 
L 103.305682 283.279564 
L 105.38125 286.152306 
L 107.456818 283.279564 
L 109.532386 280.406822 
L 111.607955 274.661338 
L 113.683523 277.53408 
L 115.759091 274.661338 
L 117.834659 271.788596 
L 119.910227 274.661338 
L 121.985795 277.53408 
L 124.061364 266.043113 
L 126.136932 263.170371 
L 128.2125 260.297629 
L 130.288068 263.170371 
L 132.363636 266.043113 
L 134.439205 268.915854 
L 136.514773 271.788596 
L 138.590341 268.915854 
L 140.665909 271.788596 
L 142.741477 274.661338 
L 144.817045 271.788596 
L 146.892614 268.915854 
L 148.968182 266.043113 
L 151.04375 268.915854 
L 153.119318 266.043113 
L 155.194886 263.170371 
L 157.270455 260.297629 
L 159.346023 257.424887 
L 161.421591 240.188436 
L 163.497159 237.315694 
L 165.572727 234.442952 
L 167.648295 228.697469 
L 169.723864 225.824727 
L 171.799432 222.951985 
L 173.875 220.079243 
L 175.950568 222.951985 
L 178.026136 220.079243 
L 180.101705 217.206501 
L 182.177273 220.079243 
L 184.252841 222.951985 
L 186.328409 220.079243 
L 188.403977 217.206501 
L 190.479545 214.333759 
L 192.555114 211.461018 
L 194.630682 208.588276 
L 196.70625 205.715534 
L 198.781818 202.842792 
L 200.857386 199.97005 
L 202.932955 197.097308 
L 205.008523 199.97005 
L 207.084091 182.733599 
L 209.159659 165.497148 
L 211.235227 148.260697 
L 213.310795 151.133439 
L 215.386364 148.260697 
L 217.461932 136.76973 
L 219.5375 139.642472 
L 221.613068 136.76973 
L 223.688636 139.642472 
L 225.764205 142.515213 
L 227.839773 139.642472 
L 229.915341 136.76973 
L 231.990909 139.642472 
L 234.066477 136.76973 
L 236.142045 133.896988 
L 238.217614 136.76973 
L 240.293182 133.896988 
L 242.36875 119.533279 
L 244.444318 116.660537 
L 246.519886 113.787795 
L 248.595455 110.915053 
L 250.671023 113.787795 
L 252.746591 110.915053 
L 254.822159 113.787795 
" style="fill:none;stroke:#1f77b4;stroke-linecap:square;stroke-width:1.5;"/>
   </g>
   <g id="line2d_25">
    <path clip-path="url(#pcae5bc98b4)" d="M 47.265341 363.716335 
L 49.340909 363.716335 
L 51.416477 363.716335 
L 53.492045 363.716335 
L 55.567614 360.843593 
L 57.643182 363.716335 
L 59.71875 363.716335 
L 61.794318 360.843593 
L 63.869886 357.970852 
L 65.945455 355.09811 
L 68.021023 352.225368 
L 70.096591 355.09811 
L 72.172159 357.970852 
L 74.247727 355.09811 
L 76.323295 352.225368 
L 78.398864 355.09811 
L 80.474432 357.970852 
L 82.55 360.843593 
L 84.625568 363.716335 
L 86.701136 355.09811 
L 88.776705 357.970852 
L 90.852273 360.843593 
L 92.927841 346.479884 
L 95.003409 349.352626 
L 97.078977 352.225368 
L 99.154545 349.352626 
L 101.230114 346.479884 
L 103.305682 343.607142 
L 105.38125 340.7344 
L 107.456818 337.861659 
L 109.532386 340.7344 
L 111.607955 343.607142 
L 113.683523 337.861659 
L 115.759091 340.7344 
L 117.834659 337.861659 
L 119.910227 340.7344 
L 121.985795 337.861659 
L 124.061364 340.7344 
L 126.136932 337.861659 
L 128.2125 334.988917 
L 130.288068 337.861659 
L 132.363636 340.7344 
L 134.439205 334.988917 
L 136.514773 332.116175 
L 138.590341 334.988917 
L 140.665909 337.861659 
L 142.741477 334.988917 
L 144.817045 317.752466 
L 146.892614 320.625208 
L 148.968182 323.497949 
L 151.04375 312.006982 
L 153.119318 309.13424 
L 155.194886 306.261498 
L 157.270455 303.388757 
L 159.346023 300.516015 
L 161.421591 303.388757 
L 163.497159 300.516015 
L 165.572727 297.643273 
L 167.648295 300.516015 
L 169.723864 303.388757 
L 171.799432 306.261498 
L 173.875 303.388757 
L 175.950568 300.516015 
L 178.026136 297.643273 
L 180.101705 294.770531 
L 182.177273 280.406822 
L 184.252841 277.53408 
L 186.328409 274.661338 
L 188.403977 271.788596 
L 190.479545 268.915854 
L 192.555114 271.788596 
L 194.630682 274.661338 
L 196.70625 277.53408 
L 198.781818 274.661338 
L 200.857386 268.915854 
L 202.932955 257.424887 
L 205.008523 254.552145 
L 207.084091 251.679403 
L 209.159659 248.806662 
L 211.235227 251.679403 
L 213.310795 248.806662 
L 215.386364 245.93392 
L 217.461932 243.061178 
L 219.5375 240.188436 
L 221.613068 243.061178 
L 223.688636 245.93392 
L 225.764205 228.697469 
L 227.839773 225.824727 
L 229.915341 222.951985 
L 231.990909 220.079243 
L 234.066477 222.951985 
L 236.142045 225.824727 
L 238.217614 228.697469 
L 240.293182 225.824727 
L 242.36875 222.951985 
L 244.444318 225.824727 
L 246.519886 228.697469 
L 248.595455 231.570211 
L 250.671023 234.442952 
L 252.746591 231.570211 
L 254.822159 228.697469 
" style="fill:none;stroke:#ff7f0e;stroke-linecap:square;stroke-width:1.5;"/>
   </g>
   <g id="line2d_26">
    <path clip-path="url(#pcae5bc98b4)" d="M 47.265341 363.716335 
L 49.340909 360.843593 
L 51.416477 357.970852 
L 53.492045 355.09811 
L 55.567614 352.225368 
L 57.643182 349.352626 
L 59.71875 346.479884 
L 61.794318 343.607142 
L 63.869886 340.7344 
L 65.945455 343.607142 
L 68.021023 340.7344 
L 70.096591 337.861659 
L 72.172159 340.7344 
L 74.247727 337.861659 
L 76.323295 334.988917 
L 78.398864 337.861659 
L 80.474432 332.116175 
L 82.55 334.988917 
L 84.625568 337.861659 
L 86.701136 334.988917 
L 88.776705 329.243433 
L 90.852273 332.116175 
L 92.927841 334.988917 
L 95.003409 337.861659 
L 97.078977 334.988917 
L 99.154545 329.243433 
L 101.230114 326.370691 
L 103.305682 309.13424 
L 105.38125 312.006982 
L 107.456818 314.879724 
L 109.532386 312.006982 
L 111.607955 309.13424 
L 113.683523 306.261498 
L 115.759091 303.388757 
L 117.834659 300.516015 
L 119.910227 297.643273 
L 121.985795 300.516015 
L 124.061364 297.643273 
L 126.136932 300.516015 
L 128.2125 303.388757 
L 130.288068 300.516015 
L 132.363636 303.388757 
L 134.439205 306.261498 
L 136.514773 303.388757 
L 138.590341 306.261498 
L 140.665909 303.388757 
L 142.741477 300.516015 
L 144.817045 283.279564 
L 146.892614 280.406822 
L 148.968182 277.53408 
L 151.04375 280.406822 
L 153.119318 277.53408 
L 155.194886 263.170371 
L 157.270455 260.297629 
L 159.346023 251.679403 
L 161.421591 254.552145 
L 163.497159 245.93392 
L 165.572727 234.442952 
L 167.648295 228.697469 
L 169.723864 225.824727 
L 171.799432 217.206501 
L 173.875 220.079243 
L 175.950568 217.206501 
L 178.026136 220.079243 
L 180.101705 222.951985 
L 182.177273 225.824727 
L 184.252841 217.206501 
L 186.328409 214.333759 
L 188.403977 217.206501 
L 190.479545 214.333759 
L 192.555114 211.461018 
L 194.630682 214.333759 
L 196.70625 217.206501 
L 198.781818 220.079243 
L 200.857386 217.206501 
L 202.932955 214.333759 
L 205.008523 211.461018 
L 207.084091 208.588276 
L 209.159659 205.715534 
L 211.235227 202.842792 
L 213.310795 205.715534 
L 215.386364 208.588276 
L 217.461932 205.715534 
L 219.5375 202.842792 
L 221.613068 199.97005 
L 223.688636 202.842792 
L 225.764205 185.606341 
L 227.839773 188.479083 
L 229.915341 182.733599 
L 231.990909 179.860857 
L 234.066477 363.716335 
L 236.142045 355.09811 
L 238.217614 352.225368 
L 240.293182 334.988917 
L 242.36875 326.370691 
L 244.444318 323.497949 
L 246.519886 326.370691 
L 248.595455 329.243433 
L 250.671023 326.370691 
L 252.746591 329.243433 
L 254.822159 326.370691 
" style="fill:none;stroke:#2ca02c;stroke-linecap:square;stroke-width:1.5;"/>
   </g>
   <g id="line2d_27">
    <path clip-path="url(#pcae5bc98b4)" d="M 47.265341 363.716335 
L 49.340909 352.225368 
L 51.416477 349.352626 
L 53.492045 346.479884 
L 55.567614 343.607142 
L 57.643182 340.7344 
L 59.71875 343.607142 
L 61.794318 340.7344 
L 63.869886 337.861659 
L 65.945455 334.988917 
L 68.021023 332.116175 
L 70.096591 329.243433 
L 72.172159 326.370691 
L 74.247727 323.497949 
L 76.323295 326.370691 
L 78.398864 329.243433 
L 80.474432 326.370691 
L 82.55 309.13424 
L 84.625568 306.261498 
L 86.701136 297.643273 
L 88.776705 294.770531 
L 90.852273 291.897789 
L 92.927841 289.025047 
L 95.003409 286.152306 
L 97.078977 289.025047 
L 99.154545 286.152306 
L 101.230114 283.279564 
L 103.305682 286.152306 
L 105.38125 274.661338 
L 107.456818 271.788596 
L 109.532386 268.915854 
L 111.607955 266.043113 
L 113.683523 263.170371 
L 115.759091 266.043113 
L 117.834659 268.915854 
L 119.910227 266.043113 
L 121.985795 263.170371 
L 124.061364 254.552145 
L 126.136932 257.424887 
L 128.2125 260.297629 
L 130.288068 263.170371 
L 132.363636 266.043113 
L 134.439205 263.170371 
L 136.514773 266.043113 
L 138.590341 263.170371 
L 140.665909 266.043113 
L 142.741477 263.170371 
L 144.817045 260.297629 
L 146.892614 257.424887 
L 148.968182 260.297629 
L 151.04375 263.170371 
L 153.119318 260.297629 
L 155.194886 257.424887 
L 157.270455 254.552145 
L 159.346023 251.679403 
L 161.421591 248.806662 
L 163.497159 245.93392 
L 165.572727 243.061178 
L 167.648295 245.93392 
L 169.723864 243.061178 
L 171.799432 240.188436 
L 173.875 243.061178 
L 175.950568 240.188436 
L 178.026136 237.315694 
L 180.101705 234.442952 
L 182.177273 231.570211 
L 184.252841 228.697469 
L 186.328409 225.824727 
L 188.403977 222.951985 
L 190.479545 225.824727 
L 192.555114 211.461018 
L 194.630682 208.588276 
L 196.70625 205.715534 
L 198.781818 202.842792 
L 200.857386 199.97005 
L 202.932955 197.097308 
L 205.008523 194.224567 
L 207.084091 191.351825 
L 209.159659 188.479083 
L 211.235227 191.351825 
L 213.310795 188.479083 
L 215.386364 191.351825 
L 217.461932 194.224567 
L 219.5375 176.988116 
L 221.613068 179.860857 
L 223.688636 176.988116 
L 225.764205 174.115374 
L 227.839773 176.988116 
L 229.915341 174.115374 
L 231.990909 176.988116 
L 234.066477 174.115374 
L 236.142045 171.242632 
L 238.217614 168.36989 
L 240.293182 165.497148 
L 242.36875 162.624406 
L 244.444318 159.751664 
L 246.519886 148.260697 
L 248.595455 145.387955 
L 250.671023 148.260697 
L 252.746591 145.387955 
L 254.822159 148.260697 
" style="fill:none;stroke:#d62728;stroke-linecap:square;stroke-width:1.5;"/>
   </g>
   <g id="line2d_28">
    <path clip-path="url(#pcae5bc98b4)" d="M 47.265341 363.716335 
L 49.340909 363.716335 
L 51.416477 363.716335 
L 53.492045 360.843593 
L 55.567614 357.970852 
L 57.643182 355.09811 
L 59.71875 352.225368 
L 61.794318 355.09811 
L 63.869886 352.225368 
L 65.945455 349.352626 
L 68.021023 352.225368 
L 70.096591 349.352626 
L 72.172159 352.225368 
L 74.247727 355.09811 
L 76.323295 352.225368 
L 78.398864 349.352626 
L 80.474432 334.988917 
L 82.55 337.861659 
L 84.625568 340.7344 
L 86.701136 337.861659 
L 88.776705 334.988917 
L 90.852273 337.861659 
L 92.927841 340.7344 
L 95.003409 343.607142 
L 97.078977 334.988917 
L 99.154545 332.116175 
L 101.230114 334.988917 
L 103.305682 337.861659 
L 105.38125 340.7344 
L 107.456818 329.243433 
L 109.532386 332.116175 
L 111.607955 329.243433 
L 113.683523 326.370691 
L 115.759091 323.497949 
L 117.834659 320.625208 
L 119.910227 317.752466 
L 121.985795 320.625208 
L 124.061364 323.497949 
L 126.136932 320.625208 
L 128.2125 317.752466 
L 130.288068 309.13424 
L 132.363636 306.261498 
L 134.439205 309.13424 
L 136.514773 306.261498 
L 138.590341 309.13424 
L 140.665909 312.006982 
L 142.741477 300.516015 
L 144.817045 289.025047 
L 146.892614 286.152306 
L 148.968182 283.279564 
L 151.04375 286.152306 
L 153.119318 283.279564 
L 155.194886 286.152306 
L 157.270455 289.025047 
L 159.346023 286.152306 
L 161.421591 289.025047 
L 163.497159 291.897789 
L 165.572727 289.025047 
L 167.648295 286.152306 
L 169.723864 289.025047 
L 171.799432 291.897789 
L 173.875 289.025047 
L 175.950568 291.897789 
L 178.026136 289.025047 
L 180.101705 280.406822 
L 182.177273 283.279564 
L 184.252841 280.406822 
L 186.328409 283.279564 
L 188.403977 286.152306 
L 190.479545 283.279564 
L 192.555114 286.152306 
L 194.630682 283.279564 
L 196.70625 286.152306 
L 198.781818 274.661338 
L 200.857386 277.53408 
L 202.932955 280.406822 
L 205.008523 277.53408 
L 207.084091 274.661338 
L 209.159659 271.788596 
L 211.235227 274.661338 
L 213.310795 271.788596 
L 215.386364 274.661338 
L 217.461932 277.53408 
L 219.5375 274.661338 
L 221.613068 277.53408 
L 223.688636 274.661338 
L 225.764205 257.424887 
L 227.839773 254.552145 
L 229.915341 243.061178 
L 231.990909 240.188436 
L 234.066477 243.061178 
L 236.142045 228.697469 
L 238.217614 225.824727 
L 240.293182 222.951985 
L 242.36875 220.079243 
L 244.444318 217.206501 
L 246.519886 214.333759 
L 248.595455 211.461018 
L 250.671023 208.588276 
L 252.746591 205.715534 
L 254.822159 202.842792 
" style="fill:none;stroke:#9467bd;stroke-linecap:square;stroke-width:1.5;"/>
   </g>
   <g id="line2d_29">
    <path clip-path="url(#pcae5bc98b4)" d="M 47.265341 363.716335 
L 49.340909 349.352626 
L 51.416477 346.479884 
L 53.492045 343.607142 
L 55.567614 346.479884 
L 57.643182 349.352626 
L 59.71875 346.479884 
L 61.794318 343.607142 
L 63.869886 340.7344 
L 65.945455 337.861659 
L 68.021023 334.988917 
L 70.096591 337.861659 
L 72.172159 334.988917 
L 74.247727 332.116175 
L 76.323295 320.625208 
L 78.398864 323.497949 
L 80.474432 326.370691 
L 82.55 323.497949 
L 84.625568 320.625208 
L 86.701136 317.752466 
L 88.776705 300.516015 
L 90.852273 303.388757 
L 92.927841 300.516015 
L 95.003409 297.643273 
L 97.078977 300.516015 
L 99.154545 297.643273 
L 101.230114 294.770531 
L 103.305682 291.897789 
L 105.38125 289.025047 
L 107.456818 363.716335 
L 109.532386 360.843593 
L 111.607955 357.970852 
L 113.683523 355.09811 
L 115.759091 349.352626 
L 117.834659 346.479884 
L 119.910227 343.607142 
L 121.985795 346.479884 
L 124.061364 349.352626 
L 126.136932 346.479884 
L 128.2125 343.607142 
L 130.288068 340.7344 
L 132.363636 343.607142 
L 134.439205 346.479884 
L 136.514773 343.607142 
L 138.590341 340.7344 
L 140.665909 337.861659 
L 142.741477 334.988917 
L 144.817045 337.861659 
L 146.892614 334.988917 
L 148.968182 337.861659 
L 151.04375 320.625208 
L 153.119318 317.752466 
L 155.194886 314.879724 
L 157.270455 306.261498 
L 159.346023 303.388757 
L 161.421591 300.516015 
L 163.497159 297.643273 
L 165.572727 294.770531 
L 167.648295 297.643273 
L 169.723864 300.516015 
L 171.799432 291.897789 
L 173.875 289.025047 
L 175.950568 286.152306 
L 178.026136 283.279564 
L 180.101705 286.152306 
L 182.177273 283.279564 
L 184.252841 286.152306 
L 186.328409 283.279564 
L 188.403977 280.406822 
L 190.479545 277.53408 
L 192.555114 280.406822 
L 194.630682 277.53408 
L 196.70625 274.661338 
L 198.781818 277.53408 
L 200.857386 280.406822 
L 202.932955 283.279564 
L 205.008523 286.152306 
L 207.084091 283.279564 
L 209.159659 280.406822 
L 211.235227 271.788596 
L 213.310795 274.661338 
L 215.386364 271.788596 
L 217.461932 268.915854 
L 219.5375 266.043113 
L 221.613068 268.915854 
L 223.688636 266.043113 
L 225.764205 268.915854 
L 227.839773 271.788596 
L 229.915341 268.915854 
L 231.990909 266.043113 
L 234.066477 263.170371 
L 236.142045 260.297629 
L 238.217614 263.170371 
L 240.293182 260.297629 
L 242.36875 257.424887 
L 244.444318 260.297629 
L 246.519886 245.93392 
L 248.595455 231.570211 
L 250.671023 228.697469 
L 252.746591 231.570211 
L 254.822159 234.442952 
" style="fill:none;stroke:#8c564b;stroke-linecap:square;stroke-width:1.5;"/>
   </g>
   <g id="line2d_30">
    <path clip-path="url(#pcae5bc98b4)" d="M 47.265341 363.716335 
L 49.340909 360.843593 
L 51.416477 363.716335 
L 53.492045 360.843593 
L 55.567614 352.225368 
L 57.643182 349.352626 
L 59.71875 346.479884 
L 61.794318 329.243433 
L 63.869886 326.370691 
L 65.945455 329.243433 
L 68.021023 326.370691 
L 70.096591 323.497949 
L 72.172159 326.370691 
L 74.247727 329.243433 
L 76.323295 326.370691 
L 78.398864 323.497949 
L 80.474432 326.370691 
L 82.55 329.243433 
L 84.625568 323.497949 
L 86.701136 326.370691 
L 88.776705 329.243433 
L 90.852273 326.370691 
L 92.927841 323.497949 
L 95.003409 320.625208 
L 97.078977 317.752466 
L 99.154545 314.879724 
L 101.230114 312.006982 
L 103.305682 314.879724 
L 105.38125 317.752466 
L 107.456818 314.879724 
L 109.532386 297.643273 
L 111.607955 300.516015 
L 113.683523 297.643273 
L 115.759091 300.516015 
L 117.834659 297.643273 
L 119.910227 300.516015 
L 121.985795 289.025047 
L 124.061364 291.897789 
L 126.136932 274.661338 
L 128.2125 271.788596 
L 130.288068 274.661338 
L 132.363636 266.043113 
L 134.439205 268.915854 
L 136.514773 266.043113 
L 138.590341 263.170371 
L 140.665909 251.679403 
L 142.741477 248.806662 
L 144.817045 251.679403 
L 146.892614 254.552145 
L 148.968182 251.679403 
L 151.04375 254.552145 
L 153.119318 257.424887 
L 155.194886 260.297629 
L 157.270455 257.424887 
L 159.346023 254.552145 
L 161.421591 245.93392 
L 163.497159 243.061178 
L 165.572727 245.93392 
L 167.648295 243.061178 
L 169.723864 231.570211 
L 171.799432 228.697469 
L 173.875 225.824727 
L 175.950568 228.697469 
L 178.026136 225.824727 
L 180.101705 222.951985 
L 182.177273 225.824727 
L 184.252841 228.697469 
L 186.328409 225.824727 
L 188.403977 222.951985 
L 190.479545 225.824727 
L 192.555114 214.333759 
L 194.630682 211.461018 
L 196.70625 194.224567 
L 198.781818 191.351825 
L 200.857386 188.479083 
L 202.932955 185.606341 
L 205.008523 188.479083 
L 207.084091 185.606341 
L 209.159659 188.479083 
L 211.235227 191.351825 
L 213.310795 194.224567 
L 215.386364 191.351825 
L 217.461932 188.479083 
L 219.5375 185.606341 
L 221.613068 182.733599 
L 223.688636 185.606341 
L 225.764205 182.733599 
L 227.839773 179.860857 
L 229.915341 176.988116 
L 231.990909 174.115374 
L 234.066477 159.751664 
L 236.142045 156.878923 
L 238.217614 159.751664 
L 240.293182 156.878923 
L 242.36875 154.006181 
L 244.444318 151.133439 
L 246.519886 154.006181 
L 248.595455 151.133439 
L 250.671023 363.716335 
L 252.746591 360.843593 
L 254.822159 357.970852 
" style="fill:none;stroke:#e377c2;stroke-linecap:square;stroke-width:1.5;"/>
   </g>
   <g id="line2d_31">
    <path clip-path="url(#pcae5bc98b4)" d="M 47.265341 363.716335 
L 49.340909 360.843593 
L 51.416477 349.352626 
L 53.492045 352.225368 
L 55.567614 349.352626 
L 57.643182 352.225368 
L 59.71875 349.352626 
L 61.794318 346.479884 
L 63.869886 332.116175 
L 65.945455 326.370691 
L 68.021023 323.497949 
L 70.096591 320.625208 
L 72.172159 323.497949 
L 74.247727 320.625208 
L 76.323295 317.752466 
L 78.398864 320.625208 
L 80.474432 317.752466 
L 82.55 320.625208 
L 84.625568 323.497949 
L 86.701136 326.370691 
L 88.776705 329.243433 
L 90.852273 326.370691 
L 92.927841 323.497949 
L 95.003409 326.370691 
L 97.078977 329.243433 
L 99.154545 332.116175 
L 101.230114 334.988917 
L 103.305682 332.116175 
L 105.38125 329.243433 
L 107.456818 326.370691 
L 109.532386 323.497949 
L 111.607955 320.625208 
L 113.683523 314.879724 
L 115.759091 317.752466 
L 117.834659 314.879724 
L 119.910227 317.752466 
L 121.985795 314.879724 
L 124.061364 317.752466 
L 126.136932 303.388757 
L 128.2125 300.516015 
L 130.288068 297.643273 
L 132.363636 300.516015 
L 134.439205 297.643273 
L 136.514773 283.279564 
L 138.590341 268.915854 
L 140.665909 266.043113 
L 142.741477 263.170371 
L 144.817045 266.043113 
L 146.892614 263.170371 
L 148.968182 260.297629 
L 151.04375 263.170371 
L 153.119318 245.93392 
L 155.194886 243.061178 
L 157.270455 225.824727 
L 159.346023 222.951985 
L 161.421591 225.824727 
L 163.497159 222.951985 
L 165.572727 225.824727 
L 167.648295 228.697469 
L 169.723864 225.824727 
L 171.799432 222.951985 
L 173.875 214.333759 
L 175.950568 205.715534 
L 178.026136 202.842792 
L 180.101705 199.97005 
L 182.177273 197.097308 
L 184.252841 194.224567 
L 186.328409 191.351825 
L 188.403977 188.479083 
L 190.479545 191.351825 
L 192.555114 188.479083 
L 194.630682 174.115374 
L 196.70625 176.988116 
L 198.781818 159.751664 
L 200.857386 162.624406 
L 202.932955 165.497148 
L 205.008523 162.624406 
L 207.084091 165.497148 
L 209.159659 168.36989 
L 211.235227 165.497148 
L 213.310795 162.624406 
L 215.386364 156.878923 
L 217.461932 154.006181 
L 219.5375 151.133439 
L 221.613068 148.260697 
L 223.688636 145.387955 
L 225.764205 148.260697 
L 227.839773 145.387955 
L 229.915341 133.896988 
L 231.990909 136.76973 
L 234.066477 128.151504 
L 236.142045 113.787795 
L 238.217614 110.915053 
L 240.293182 113.787795 
L 242.36875 110.915053 
L 244.444318 113.787795 
L 246.519886 116.660537 
L 248.595455 119.533279 
L 250.671023 116.660537 
L 252.746591 113.787795 
L 254.822159 110.915053 
" style="fill:none;stroke:#7f7f7f;stroke-linecap:square;stroke-width:1.5;"/>
   </g>
   <g id="line2d_32">
    <path clip-path="url(#pcae5bc98b4)" d="M 47.265341 363.716335 
L 49.340909 363.716335 
L 51.416477 360.843593 
L 53.492045 357.970852 
L 55.567614 360.843593 
L 57.643182 357.970852 
L 59.71875 360.843593 
L 61.794318 357.970852 
L 63.869886 360.843593 
L 65.945455 357.970852 
L 68.021023 355.09811 
L 70.096591 352.225368 
L 72.172159 349.352626 
L 74.247727 352.225368 
L 76.323295 355.09811 
L 78.398864 357.970852 
L 80.474432 355.09811 
L 82.55 352.225368 
L 84.625568 355.09811 
L 86.701136 357.970852 
L 88.776705 355.09811 
L 90.852273 352.225368 
L 92.927841 355.09811 
L 95.003409 357.970852 
L 97.078977 355.09811 
L 99.154545 352.225368 
L 101.230114 349.352626 
L 103.305682 352.225368 
L 105.38125 346.479884 
L 107.456818 343.607142 
L 109.532386 340.7344 
L 111.607955 343.607142 
L 113.683523 326.370691 
L 115.759091 329.243433 
L 117.834659 332.116175 
L 119.910227 329.243433 
L 121.985795 326.370691 
L 124.061364 329.243433 
L 126.136932 326.370691 
L 128.2125 329.243433 
L 130.288068 326.370691 
L 132.363636 323.497949 
L 134.439205 320.625208 
L 136.514773 317.752466 
L 138.590341 314.879724 
L 140.665909 303.388757 
L 142.741477 306.261498 
L 144.817045 303.388757 
L 146.892614 300.516015 
L 148.968182 283.279564 
L 151.04375 271.788596 
L 153.119318 268.915854 
L 155.194886 266.043113 
L 157.270455 254.552145 
L 159.346023 257.424887 
L 161.421591 254.552145 
L 163.497159 257.424887 
L 165.572727 260.297629 
L 167.648295 248.806662 
L 169.723864 245.93392 
L 171.799432 248.806662 
L 173.875 251.679403 
L 175.950568 248.806662 
L 178.026136 251.679403 
L 180.101705 248.806662 
L 182.177273 245.93392 
L 184.252841 243.061178 
L 186.328409 245.93392 
L 188.403977 243.061178 
L 190.479545 245.93392 
L 192.555114 243.061178 
L 194.630682 240.188436 
L 196.70625 243.061178 
L 198.781818 240.188436 
L 200.857386 237.315694 
L 202.932955 240.188436 
L 205.008523 237.315694 
L 207.084091 240.188436 
L 209.159659 237.315694 
L 211.235227 240.188436 
L 213.310795 234.442952 
L 215.386364 231.570211 
L 217.461932 234.442952 
L 219.5375 237.315694 
L 221.613068 240.188436 
L 223.688636 228.697469 
L 225.764205 231.570211 
L 227.839773 228.697469 
L 229.915341 225.824727 
L 231.990909 208.588276 
L 234.066477 205.715534 
L 236.142045 202.842792 
L 238.217614 205.715534 
L 240.293182 202.842792 
L 242.36875 205.715534 
L 244.444318 208.588276 
L 246.519886 211.461018 
L 248.595455 214.333759 
L 250.671023 211.461018 
L 252.746591 202.842792 
L 254.822159 205.715534 
" style="fill:none;stroke:#bcbd22;stroke-linecap:square;stroke-width:1.5;"/>
   </g>
   <g id="line2d_33">
    <path clip-path="url(#pcae5bc98b4)" d="M 47.265341 363.716335 
L 49.340909 363.716335 
L 51.416477 360.843593 
L 53.492045 357.970852 
L 55.567614 352.225368 
L 57.643182 355.09811 
L 59.71875 340.7344 
L 61.794318 337.861659 
L 63.869886 340.7344 
L 65.945455 343.607142 
L 68.021023 346.479884 
L 70.096591 343.607142 
L 72.172159 346.479884 
L 74.247727 349.352626 
L 76.323295 346.479884 
L 78.398864 337.861659 
L 80.474432 334.988917 
L 82.55 332.116175 
L 84.625568 334.988917 
L 86.701136 332.116175 
L 88.776705 329.243433 
L 90.852273 332.116175 
L 92.927841 314.879724 
L 95.003409 317.752466 
L 97.078977 306.261498 
L 99.154545 303.388757 
L 101.230114 300.516015 
L 103.305682 297.643273 
L 105.38125 294.770531 
L 107.456818 297.643273 
L 109.532386 294.770531 
L 111.607955 297.643273 
L 113.683523 294.770531 
L 115.759091 297.643273 
L 117.834659 300.516015 
L 119.910227 303.388757 
L 121.985795 300.516015 
L 124.061364 303.388757 
L 126.136932 300.516015 
L 128.2125 303.388757 
L 130.288068 306.261498 
L 132.363636 303.388757 
L 134.439205 306.261498 
L 136.514773 297.643273 
L 138.590341 294.770531 
L 140.665909 289.025047 
L 142.741477 274.661338 
L 144.817045 271.788596 
L 146.892614 274.661338 
L 148.968182 277.53408 
L 151.04375 280.406822 
L 153.119318 283.279564 
L 155.194886 280.406822 
L 157.270455 277.53408 
L 159.346023 274.661338 
L 161.421591 271.788596 
L 163.497159 268.915854 
L 165.572727 266.043113 
L 167.648295 363.716335 
L 169.723864 360.843593 
L 171.799432 357.970852 
L 173.875 355.09811 
L 175.950568 357.970852 
L 178.026136 360.843593 
L 180.101705 357.970852 
L 182.177273 355.09811 
L 184.252841 357.970852 
L 186.328409 360.843593 
L 188.403977 363.716335 
L 190.479545 360.843593 
L 192.555114 357.970852 
L 194.630682 360.843593 
L 196.70625 357.970852 
L 198.781818 355.09811 
L 200.857386 357.970852 
L 202.932955 355.09811 
L 205.008523 352.225368 
L 207.084091 340.7344 
L 209.159659 337.861659 
L 211.235227 340.7344 
L 213.310795 337.861659 
L 215.386364 340.7344 
L 217.461932 337.861659 
L 219.5375 334.988917 
L 221.613068 337.861659 
L 223.688636 340.7344 
L 225.764205 337.861659 
L 227.839773 340.7344 
L 229.915341 343.607142 
L 231.990909 346.479884 
L 234.066477 343.607142 
L 236.142045 346.479884 
L 238.217614 349.352626 
L 240.293182 346.479884 
L 242.36875 343.607142 
L 244.444318 340.7344 
L 246.519886 337.861659 
L 248.595455 334.988917 
L 250.671023 337.861659 
L 252.746591 340.7344 
L 254.822159 343.607142 
" style="fill:none;stroke:#17becf;stroke-linecap:square;stroke-width:1.5;"/>
   </g>
   <g id="patch_3">
    <path d="M 36.8875 380.521875 
L 36.8875 10.8 
" style="fill:none;stroke:#000000;stroke-linecap:square;stroke-linejoin:miter;stroke-width:0.8;"/>
   </g>
   <g id="patch_4">
    <path d="M 265.2 380.521875 
L 265.2 10.8 
" style="fill:none;stroke:#000000;stroke-linecap:square;stroke-linejoin:miter;stroke-width:0.8;"/>
   </g>
   <g id="patch_5">
    <path d="M 36.8875 380.521875 
L 265.2 380.521875 
" style="fill:none;stroke:#000000;stroke-linecap:square;stroke-linejoin:miter;stroke-width:0.8;"/>
   </g>
   <g id="patch_6">
    <path d="M 36.8875 10.8 
L 265.2 10.8 
" style="fill:none;stroke:#000000;stroke-linecap:square;stroke-linejoin:miter;stroke-width:0.8;"/>
   </g>
  </g>
 </g>
 <defs>
  <clipPath id="pcae5bc98b4">
   <rect height="369.721875" width="228.3125" x="36.8875" y="10.8"/>
  </clipPath>
 </defs>
</svg>
