<?xml version="1.0" encoding="utf-8" standalone="no"?>
<!DOCTYPE svg PUBLIC "-//W3C//DTD SVG 1.1//EN"
  "http://www.w3.org/Graphics/SVG/1.1/DTD/svg11.dtd">
<svg height="407pt" version="1.1" viewBox="0 0 562 407" width="562pt" xmlns="http://www.w3.org/2000/svg" xmlns:xlink="http://www.w3.org/1999/xlink">
 <metadata>
  <rdf:RDF xmlns:cc="http://creativecommons.org/ns#" xmlns:dc="http://purl.org/dc/elements/1.1/" xmlns:rdf="http://www.w3.org/1999/02/22-rdf-syntax-ns#">
   <cc:Work>
    <dc:type rdf:resource="http://purl.org/dc/dcmitype/StillImage"/>
    <dc:date>2025-03-10T17:52:41.128756</dc:date>
    <dc:format>image/svg+xml</dc:format>
    <dc:creator>
     <cc:Agent>
      <dc:title>Matplotlib v3.4.3, https://matplotlib.org/</dc:title>
     </cc:Agent>
    </dc:creator>
   </cc:Work>
  </rdf:RDF>
 </metadata>
 <defs>
  <style type="text/css">*{stroke-linecap:butt;stroke-linejoin:round;}</style>
 </defs>
 <g id="figure_1">
  <g id="patch_1">
   <path d="M 0 407 
L 562 407 
L 562 0 
L 0 0 
z
" style="fill:#ffffff;"/>
  </g>
  <g id="axes_1">
   <g id="patch_2">
    <path d="M 36.8875 379.521875 
L 551.2 379.521875 
L 551.2 10.8 
L 36.8875 10.8 
z
" style="fill:#ffffff;"/>
   </g>
   <g id="patch_3">
    <path clip-path="url(#p2ce9e9c91b)" d="M 60.265341 379.521875 
L 64.940909 379.521875 
L 64.940909 379.521875 
L 60.265341 379.521875 
z
" style="fill:#1f77b4;"/>
   </g>
   <g id="patch_4">
    <path clip-path="url(#p2ce9e9c91b)" d="M 64.940909 379.521875 
L 69.616477 379.521875 
L 69.616477 379.521875 
L 64.940909 379.521875 
z
" style="fill:#1f77b4;"/>
   </g>
   <g id="patch_5">
    <path clip-path="url(#p2ce9e9c91b)" d="M 69.616477 379.521875 
L 74.292045 379.521875 
L 74.292045 379.521875 
L 69.616477 379.521875 
z
" style="fill:#1f77b4;"/>
   </g>
   <g id="patch_6">
    <path clip-path="url(#p2ce9e9c91b)" d="M 74.292045 379.521875 
L 78.967614 379.521875 
L 78.967614 379.521875 
L 74.292045 379.521875 
z
" style="fill:#1f77b4;"/>
   </g>
   <g id="patch_7">
    <path clip-path="url(#p2ce9e9c91b)" d="M 78.967614 379.521875 
L 83.643182 379.521875 
L 83.643182 379.521875 
L 78.967614 379.521875 
z
" style="fill:#1f77b4;"/>
   </g>
   <g id="patch_8">
    <path clip-path="url(#p2ce9e9c91b)" d="M 83.643182 379.521875 
L 88.31875 379.521875 
L 88.31875 379.521875 
L 83.643182 379.521875 
z
" style="fill:#1f77b4;"/>
   </g>
   <g id="patch_9">
    <path clip-path="url(#p2ce9e9c91b)" d="M 88.31875 379.521875 
L 92.994318 379.521875 
L 92.994318 379.521875 
L 88.31875 379.521875 
z
" style="fill:#1f77b4;"/>
   </g>
   <g id="patch_10">
    <path clip-path="url(#p2ce9e9c91b)" d="M 92.994318 379.521875 
L 97.669886 379.521875 
L 97.669886 379.521875 
L 92.994318 379.521875 
z
" style="fill:#1f77b4;"/>
   </g>
   <g id="patch_11">
    <path clip-path="url(#p2ce9e9c91b)" d="M 97.669886 379.521875 
L 102.345455 379.521875 
L 102.345455 379.521875 
L 97.669886 379.521875 
z
" style="fill:#1f77b4;"/>
   </g>
   <g id="patch_12">
    <path clip-path="url(#p2ce9e9c91b)" d="M 102.345455 379.521875 
L 107.021023 379.521875 
L 107.021023 379.521875 
L 102.345455 379.521875 
z
" style="fill:#1f77b4;"/>
   </g>
   <g id="patch_13">
    <path clip-path="url(#p2ce9e9c91b)" d="M 107.021023 379.521875 
L 111.696591 379.521875 
L 111.696591 379.521875 
L 107.021023 379.521875 
z
" style="fill:#1f77b4;"/>
   </g>
   <g id="patch_14">
    <path clip-path="url(#p2ce9e9c91b)" d="M 111.696591 379.521875 
L 116.372159 379.521875 
L 116.372159 379.521875 
L 111.696591 379.521875 
z
" style="fill:#1f77b4;"/>
   </g>
   <g id="patch_15">
    <path clip-path="url(#p2ce9e9c91b)" d="M 116.372159 379.521875 
L 121.047727 379.521875 
L 121.047727 379.521875 
L 116.372159 379.521875 
z
" style="fill:#1f77b4;"/>
   </g>
   <g id="patch_16">
    <path clip-path="url(#p2ce9e9c91b)" d="M 121.047727 379.521875 
L 125.723295 379.521875 
L 125.723295 379.521875 
L 121.047727 379.521875 
z
" style="fill:#1f77b4;"/>
   </g>
   <g id="patch_17">
    <path clip-path="url(#p2ce9e9c91b)" d="M 125.723295 379.521875 
L 130.398864 379.521875 
L 130.398864 379.521875 
L 125.723295 379.521875 
z
" style="fill:#1f77b4;"/>
   </g>
   <g id="patch_18">
    <path clip-path="url(#p2ce9e9c91b)" d="M 130.398864 379.521875 
L 135.074432 379.521875 
L 135.074432 379.521875 
L 130.398864 379.521875 
z
" style="fill:#1f77b4;"/>
   </g>
   <g id="patch_19">
    <path clip-path="url(#p2ce9e9c91b)" d="M 135.074432 379.521875 
L 139.75 379.521875 
L 139.75 379.521875 
L 135.074432 379.521875 
z
" style="fill:#1f77b4;"/>
   </g>
   <g id="patch_20">
    <path clip-path="url(#p2ce9e9c91b)" d="M 139.75 379.521875 
L 144.425568 379.521875 
L 144.425568 379.521875 
L 139.75 379.521875 
z
" style="fill:#1f77b4;"/>
   </g>
   <g id="patch_21">
    <path clip-path="url(#p2ce9e9c91b)" d="M 144.425568 379.521875 
L 149.101136 379.521875 
L 149.101136 379.521875 
L 144.425568 379.521875 
z
" style="fill:#1f77b4;"/>
   </g>
   <g id="patch_22">
    <path clip-path="url(#p2ce9e9c91b)" d="M 149.101136 379.521875 
L 153.776705 379.521875 
L 153.776705 379.521875 
L 149.101136 379.521875 
z
" style="fill:#1f77b4;"/>
   </g>
   <g id="patch_23">
    <path clip-path="url(#p2ce9e9c91b)" d="M 153.776705 379.521875 
L 158.452273 379.521875 
L 158.452273 379.521875 
L 153.776705 379.521875 
z
" style="fill:#1f77b4;"/>
   </g>
   <g id="patch_24">
    <path clip-path="url(#p2ce9e9c91b)" d="M 158.452273 379.521875 
L 163.127841 379.521875 
L 163.127841 379.521875 
L 158.452273 379.521875 
z
" style="fill:#1f77b4;"/>
   </g>
   <g id="patch_25">
    <path clip-path="url(#p2ce9e9c91b)" d="M 163.127841 379.521875 
L 167.803409 379.521875 
L 167.803409 379.521875 
L 163.127841 379.521875 
z
" style="fill:#1f77b4;"/>
   </g>
   <g id="patch_26">
    <path clip-path="url(#p2ce9e9c91b)" d="M 167.803409 379.521875 
L 172.478977 379.521875 
L 172.478977 379.521875 
L 167.803409 379.521875 
z
" style="fill:#1f77b4;"/>
   </g>
   <g id="patch_27">
    <path clip-path="url(#p2ce9e9c91b)" d="M 172.478977 379.521875 
L 177.154545 379.521875 
L 177.154545 379.521875 
L 172.478977 379.521875 
z
" style="fill:#1f77b4;"/>
   </g>
   <g id="patch_28">
    <path clip-path="url(#p2ce9e9c91b)" d="M 177.154545 379.521875 
L 181.830114 379.521875 
L 181.830114 379.521875 
L 177.154545 379.521875 
z
" style="fill:#1f77b4;"/>
   </g>
   <g id="patch_29">
    <path clip-path="url(#p2ce9e9c91b)" d="M 181.830114 379.521875 
L 186.505682 379.521875 
L 186.505682 379.521875 
L 181.830114 379.521875 
z
" style="fill:#1f77b4;"/>
   </g>
   <g id="patch_30">
    <path clip-path="url(#p2ce9e9c91b)" d="M 186.505682 379.521875 
L 191.18125 379.521875 
L 191.18125 379.521875 
L 186.505682 379.521875 
z
" style="fill:#1f77b4;"/>
   </g>
   <g id="patch_31">
    <path clip-path="url(#p2ce9e9c91b)" d="M 191.18125 379.521875 
L 195.856818 379.521875 
L 195.856818 379.521875 
L 191.18125 379.521875 
z
" style="fill:#1f77b4;"/>
   </g>
   <g id="patch_32">
    <path clip-path="url(#p2ce9e9c91b)" d="M 195.856818 379.521875 
L 200.532386 379.521875 
L 200.532386 379.521875 
L 195.856818 379.521875 
z
" style="fill:#1f77b4;"/>
   </g>
   <g id="patch_33">
    <path clip-path="url(#p2ce9e9c91b)" d="M 200.532386 379.521875 
L 205.207955 379.521875 
L 205.207955 379.521875 
L 200.532386 379.521875 
z
" style="fill:#1f77b4;"/>
   </g>
   <g id="patch_34">
    <path clip-path="url(#p2ce9e9c91b)" d="M 205.207955 379.521875 
L 209.883523 379.521875 
L 209.883523 379.521875 
L 205.207955 379.521875 
z
" style="fill:#1f77b4;"/>
   </g>
   <g id="patch_35">
    <path clip-path="url(#p2ce9e9c91b)" d="M 209.883523 379.521875 
L 214.559091 379.521875 
L 214.559091 379.521875 
L 209.883523 379.521875 
z
" style="fill:#1f77b4;"/>
   </g>
   <g id="patch_36">
    <path clip-path="url(#p2ce9e9c91b)" d="M 214.559091 379.521875 
L 219.234659 379.521875 
L 219.234659 379.521875 
L 214.559091 379.521875 
z
" style="fill:#1f77b4;"/>
   </g>
   <g id="patch_37">
    <path clip-path="url(#p2ce9e9c91b)" d="M 219.234659 379.521875 
L 223.910227 379.521875 
L 223.910227 379.521875 
L 219.234659 379.521875 
z
" style="fill:#1f77b4;"/>
   </g>
   <g id="patch_38">
    <path clip-path="url(#p2ce9e9c91b)" d="M 223.910227 379.521875 
L 228.585795 379.521875 
L 228.585795 379.521875 
L 223.910227 379.521875 
z
" style="fill:#1f77b4;"/>
   </g>
   <g id="patch_39">
    <path clip-path="url(#p2ce9e9c91b)" d="M 228.585795 379.521875 
L 233.261364 379.521875 
L 233.261364 379.521875 
L 228.585795 379.521875 
z
" style="fill:#1f77b4;"/>
   </g>
   <g id="patch_40">
    <path clip-path="url(#p2ce9e9c91b)" d="M 233.261364 379.521875 
L 237.936932 379.521875 
L 237.936932 379.521875 
L 233.261364 379.521875 
z
" style="fill:#1f77b4;"/>
   </g>
   <g id="patch_41">
    <path clip-path="url(#p2ce9e9c91b)" d="M 237.936932 379.521875 
L 242.6125 379.521875 
L 242.6125 379.521875 
L 237.936932 379.521875 
z
" style="fill:#1f77b4;"/>
   </g>
   <g id="patch_42">
    <path clip-path="url(#p2ce9e9c91b)" d="M 242.6125 379.521875 
L 247.288068 379.521875 
L 247.288068 379.521875 
L 242.6125 379.521875 
z
" style="fill:#1f77b4;"/>
   </g>
   <g id="patch_43">
    <path clip-path="url(#p2ce9e9c91b)" d="M 247.288068 379.521875 
L 251.963636 379.521875 
L 251.963636 379.521875 
L 247.288068 379.521875 
z
" style="fill:#1f77b4;"/>
   </g>
   <g id="patch_44">
    <path clip-path="url(#p2ce9e9c91b)" d="M 251.963636 379.521875 
L 256.639205 379.521875 
L 256.639205 379.521875 
L 251.963636 379.521875 
z
" style="fill:#1f77b4;"/>
   </g>
   <g id="patch_45">
    <path clip-path="url(#p2ce9e9c91b)" d="M 256.639205 379.521875 
L 261.314773 379.521875 
L 261.314773 379.521875 
L 256.639205 379.521875 
z
" style="fill:#1f77b4;"/>
   </g>
   <g id="patch_46">
    <path clip-path="url(#p2ce9e9c91b)" d="M 261.314773 379.521875 
L 265.990341 379.521875 
L 265.990341 379.521875 
L 261.314773 379.521875 
z
" style="fill:#1f77b4;"/>
   </g>
   <g id="patch_47">
    <path clip-path="url(#p2ce9e9c91b)" d="M 265.990341 379.521875 
L 270.665909 379.521875 
L 270.665909 379.521875 
L 265.990341 379.521875 
z
" style="fill:#1f77b4;"/>
   </g>
   <g id="patch_48">
    <path clip-path="url(#p2ce9e9c91b)" d="M 270.665909 379.521875 
L 275.341477 379.521875 
L 275.341477 379.521875 
L 270.665909 379.521875 
z
" style="fill:#1f77b4;"/>
   </g>
   <g id="patch_49">
    <path clip-path="url(#p2ce9e9c91b)" d="M 275.341477 379.521875 
L 280.017045 379.521875 
L 280.017045 379.521875 
L 275.341477 379.521875 
z
" style="fill:#1f77b4;"/>
   </g>
   <g id="patch_50">
    <path clip-path="url(#p2ce9e9c91b)" d="M 280.017045 379.521875 
L 284.692614 379.521875 
L 284.692614 379.521875 
L 280.017045 379.521875 
z
" style="fill:#1f77b4;"/>
   </g>
   <g id="patch_51">
    <path clip-path="url(#p2ce9e9c91b)" d="M 284.692614 379.521875 
L 289.368182 379.521875 
L 289.368182 379.521875 
L 284.692614 379.521875 
z
" style="fill:#1f77b4;"/>
   </g>
   <g id="patch_52">
    <path clip-path="url(#p2ce9e9c91b)" d="M 289.368182 379.521875 
L 294.04375 379.521875 
L 294.04375 379.521875 
L 289.368182 379.521875 
z
" style="fill:#1f77b4;"/>
   </g>
   <g id="patch_53">
    <path clip-path="url(#p2ce9e9c91b)" d="M 294.04375 379.521875 
L 298.719318 379.521875 
L 298.719318 379.521875 
L 294.04375 379.521875 
z
" style="fill:#1f77b4;"/>
   </g>
   <g id="patch_54">
    <path clip-path="url(#p2ce9e9c91b)" d="M 298.719318 379.521875 
L 303.394886 379.521875 
L 303.394886 379.521875 
L 298.719318 379.521875 
z
" style="fill:#1f77b4;"/>
   </g>
   <g id="patch_55">
    <path clip-path="url(#p2ce9e9c91b)" d="M 303.394886 379.521875 
L 308.070455 379.521875 
L 308.070455 379.521875 
L 303.394886 379.521875 
z
" style="fill:#1f77b4;"/>
   </g>
   <g id="patch_56">
    <path clip-path="url(#p2ce9e9c91b)" d="M 308.070455 379.521875 
L 312.746023 379.521875 
L 312.746023 379.521875 
L 308.070455 379.521875 
z
" style="fill:#1f77b4;"/>
   </g>
   <g id="patch_57">
    <path clip-path="url(#p2ce9e9c91b)" d="M 312.746023 379.521875 
L 317.421591 379.521875 
L 317.421591 379.521875 
L 312.746023 379.521875 
z
" style="fill:#1f77b4;"/>
   </g>
   <g id="patch_58">
    <path clip-path="url(#p2ce9e9c91b)" d="M 317.421591 379.521875 
L 322.097159 379.521875 
L 322.097159 379.521875 
L 317.421591 379.521875 
z
" style="fill:#1f77b4;"/>
   </g>
   <g id="patch_59">
    <path clip-path="url(#p2ce9e9c91b)" d="M 322.097159 379.521875 
L 326.772727 379.521875 
L 326.772727 379.521875 
L 322.097159 379.521875 
z
" style="fill:#1f77b4;"/>
   </g>
   <g id="patch_60">
    <path clip-path="url(#p2ce9e9c91b)" d="M 326.772727 379.521875 
L 331.448295 379.521875 
L 331.448295 379.521875 
L 326.772727 379.521875 
z
" style="fill:#1f77b4;"/>
   </g>
   <g id="patch_61">
    <path clip-path="url(#p2ce9e9c91b)" d="M 331.448295 379.521875 
L 336.123864 379.521875 
L 336.123864 379.521875 
L 331.448295 379.521875 
z
" style="fill:#1f77b4;"/>
   </g>
   <g id="patch_62">
    <path clip-path="url(#p2ce9e9c91b)" d="M 336.123864 379.521875 
L 340.799432 379.521875 
L 340.799432 379.521875 
L 336.123864 379.521875 
z
" style="fill:#1f77b4;"/>
   </g>
   <g id="patch_63">
    <path clip-path="url(#p2ce9e9c91b)" d="M 340.799432 379.521875 
L 345.475 379.521875 
L 345.475 379.521875 
L 340.799432 379.521875 
z
" style="fill:#1f77b4;"/>
   </g>
   <g id="patch_64">
    <path clip-path="url(#p2ce9e9c91b)" d="M 345.475 379.521875 
L 350.150568 379.521875 
L 350.150568 379.521875 
L 345.475 379.521875 
z
" style="fill:#1f77b4;"/>
   </g>
   <g id="patch_65">
    <path clip-path="url(#p2ce9e9c91b)" d="M 350.150568 379.521875 
L 354.826136 379.521875 
L 354.826136 379.521875 
L 350.150568 379.521875 
z
" style="fill:#1f77b4;"/>
   </g>
   <g id="patch_66">
    <path clip-path="url(#p2ce9e9c91b)" d="M 354.826136 379.521875 
L 359.501705 379.521875 
L 359.501705 379.521875 
L 354.826136 379.521875 
z
" style="fill:#1f77b4;"/>
   </g>
   <g id="patch_67">
    <path clip-path="url(#p2ce9e9c91b)" d="M 359.501705 379.521875 
L 364.177273 379.521875 
L 364.177273 379.521875 
L 359.501705 379.521875 
z
" style="fill:#1f77b4;"/>
   </g>
   <g id="patch_68">
    <path clip-path="url(#p2ce9e9c91b)" d="M 364.177273 379.521875 
L 368.852841 379.521875 
L 368.852841 379.521875 
L 364.177273 379.521875 
z
" style="fill:#1f77b4;"/>
   </g>
   <g id="patch_69">
    <path clip-path="url(#p2ce9e9c91b)" d="M 368.852841 379.521875 
L 373.528409 379.521875 
L 373.528409 379.521875 
L 368.852841 379.521875 
z
" style="fill:#1f77b4;"/>
   </g>
   <g id="patch_70">
    <path clip-path="url(#p2ce9e9c91b)" d="M 373.528409 379.521875 
L 378.203977 379.521875 
L 378.203977 379.521875 
L 373.528409 379.521875 
z
" style="fill:#1f77b4;"/>
   </g>
   <g id="patch_71">
    <path clip-path="url(#p2ce9e9c91b)" d="M 378.203977 379.521875 
L 382.879545 379.521875 
L 382.879545 379.521875 
L 378.203977 379.521875 
z
" style="fill:#1f77b4;"/>
   </g>
   <g id="patch_72">
    <path clip-path="url(#p2ce9e9c91b)" d="M 382.879545 379.521875 
L 387.555114 379.521875 
L 387.555114 379.521875 
L 382.879545 379.521875 
z
" style="fill:#1f77b4;"/>
   </g>
   <g id="patch_73">
    <path clip-path="url(#p2ce9e9c91b)" d="M 387.555114 379.521875 
L 392.230682 379.521875 
L 392.230682 379.521875 
L 387.555114 379.521875 
z
" style="fill:#1f77b4;"/>
   </g>
   <g id="patch_74">
    <path clip-path="url(#p2ce9e9c91b)" d="M 392.230682 379.521875 
L 396.90625 379.521875 
L 396.90625 379.521875 
L 392.230682 379.521875 
z
" style="fill:#1f77b4;"/>
   </g>
   <g id="patch_75">
    <path clip-path="url(#p2ce9e9c91b)" d="M 396.90625 379.521875 
L 401.581818 379.521875 
L 401.581818 379.521875 
L 396.90625 379.521875 
z
" style="fill:#1f77b4;"/>
   </g>
   <g id="patch_76">
    <path clip-path="url(#p2ce9e9c91b)" d="M 401.581818 379.521875 
L 406.257386 379.521875 
L 406.257386 379.521875 
L 401.581818 379.521875 
z
" style="fill:#1f77b4;"/>
   </g>
   <g id="patch_77">
    <path clip-path="url(#p2ce9e9c91b)" d="M 406.257386 379.521875 
L 410.932955 379.521875 
L 410.932955 379.521875 
L 406.257386 379.521875 
z
" style="fill:#1f77b4;"/>
   </g>
   <g id="patch_78">
    <path clip-path="url(#p2ce9e9c91b)" d="M 410.932955 379.521875 
L 415.608523 379.521875 
L 415.608523 379.521875 
L 410.932955 379.521875 
z
" style="fill:#1f77b4;"/>
   </g>
   <g id="patch_79">
    <path clip-path="url(#p2ce9e9c91b)" d="M 415.608523 379.521875 
L 420.284091 379.521875 
L 420.284091 379.521875 
L 415.608523 379.521875 
z
" style="fill:#1f77b4;"/>
   </g>
   <g id="patch_80">
    <path clip-path="url(#p2ce9e9c91b)" d="M 420.284091 379.521875 
L 424.959659 379.521875 
L 424.959659 379.521875 
L 420.284091 379.521875 
z
" style="fill:#1f77b4;"/>
   </g>
   <g id="patch_81">
    <path clip-path="url(#p2ce9e9c91b)" d="M 424.959659 379.521875 
L 429.635227 379.521875 
L 429.635227 379.521875 
L 424.959659 379.521875 
z
" style="fill:#1f77b4;"/>
   </g>
   <g id="patch_82">
    <path clip-path="url(#p2ce9e9c91b)" d="M 429.635227 379.521875 
L 434.310795 379.521875 
L 434.310795 379.521875 
L 429.635227 379.521875 
z
" style="fill:#1f77b4;"/>
   </g>
   <g id="patch_83">
    <path clip-path="url(#p2ce9e9c91b)" d="M 434.310795 379.521875 
L 438.986364 379.521875 
L 438.986364 379.521875 
L 434.310795 379.521875 
z
" style="fill:#1f77b4;"/>
   </g>
   <g id="patch_84">
    <path clip-path="url(#p2ce9e9c91b)" d="M 438.986364 379.521875 
L 443.661932 379.521875 
L 443.661932 379.521875 
L 438.986364 379.521875 
z
" style="fill:#1f77b4;"/>
   </g>
   <g id="patch_85">
    <path clip-path="url(#p2ce9e9c91b)" d="M 443.661932 379.521875 
L 448.3375 379.521875 
L 448.3375 379.521875 
L 443.661932 379.521875 
z
" style="fill:#1f77b4;"/>
   </g>
   <g id="patch_86">
    <path clip-path="url(#p2ce9e9c91b)" d="M 448.3375 379.521875 
L 453.013068 379.521875 
L 453.013068 379.521875 
L 448.3375 379.521875 
z
" style="fill:#1f77b4;"/>
   </g>
   <g id="patch_87">
    <path clip-path="url(#p2ce9e9c91b)" d="M 453.013068 379.521875 
L 457.688636 379.521875 
L 457.688636 379.521875 
L 453.013068 379.521875 
z
" style="fill:#1f77b4;"/>
   </g>
   <g id="patch_88">
    <path clip-path="url(#p2ce9e9c91b)" d="M 457.688636 379.521875 
L 462.364205 379.521875 
L 462.364205 379.521875 
L 457.688636 379.521875 
z
" style="fill:#1f77b4;"/>
   </g>
   <g id="patch_89">
    <path clip-path="url(#p2ce9e9c91b)" d="M 462.364205 379.521875 
L 467.039773 379.521875 
L 467.039773 379.521875 
L 462.364205 379.521875 
z
" style="fill:#1f77b4;"/>
   </g>
   <g id="patch_90">
    <path clip-path="url(#p2ce9e9c91b)" d="M 467.039773 379.521875 
L 471.715341 379.521875 
L 471.715341 379.521875 
L 467.039773 379.521875 
z
" style="fill:#1f77b4;"/>
   </g>
   <g id="patch_91">
    <path clip-path="url(#p2ce9e9c91b)" d="M 471.715341 379.521875 
L 476.390909 379.521875 
L 476.390909 379.521875 
L 471.715341 379.521875 
z
" style="fill:#1f77b4;"/>
   </g>
   <g id="patch_92">
    <path clip-path="url(#p2ce9e9c91b)" d="M 476.390909 379.521875 
L 481.066477 379.521875 
L 481.066477 379.521875 
L 476.390909 379.521875 
z
" style="fill:#1f77b4;"/>
   </g>
   <g id="patch_93">
    <path clip-path="url(#p2ce9e9c91b)" d="M 481.066477 379.521875 
L 485.742045 379.521875 
L 485.742045 379.521875 
L 481.066477 379.521875 
z
" style="fill:#1f77b4;"/>
   </g>
   <g id="patch_94">
    <path clip-path="url(#p2ce9e9c91b)" d="M 485.742045 379.521875 
L 490.417614 379.521875 
L 490.417614 379.521875 
L 485.742045 379.521875 
z
" style="fill:#1f77b4;"/>
   </g>
   <g id="patch_95">
    <path clip-path="url(#p2ce9e9c91b)" d="M 490.417614 379.521875 
L 495.093182 379.521875 
L 495.093182 379.521875 
L 490.417614 379.521875 
z
" style="fill:#1f77b4;"/>
   </g>
   <g id="patch_96">
    <path clip-path="url(#p2ce9e9c91b)" d="M 495.093182 379.521875 
L 499.76875 379.521875 
L 499.76875 379.521875 
L 495.093182 379.521875 
z
" style="fill:#1f77b4;"/>
   </g>
   <g id="patch_97">
    <path clip-path="url(#p2ce9e9c91b)" d="M 499.76875 379.521875 
L 504.444318 379.521875 
L 504.444318 379.521875 
L 499.76875 379.521875 
z
" style="fill:#1f77b4;"/>
   </g>
   <g id="patch_98">
    <path clip-path="url(#p2ce9e9c91b)" d="M 504.444318 379.521875 
L 509.119886 379.521875 
L 509.119886 210.064978 
L 504.444318 210.064978 
z
" style="fill:#1f77b4;"/>
   </g>
   <g id="patch_99">
    <path clip-path="url(#p2ce9e9c91b)" d="M 509.119886 379.521875 
L 513.795455 379.521875 
L 513.795455 210.064978 
L 509.119886 210.064978 
z
" style="fill:#1f77b4;"/>
   </g>
   <g id="patch_100">
    <path clip-path="url(#p2ce9e9c91b)" d="M 513.795455 379.521875 
L 518.471023 379.521875 
L 518.471023 175.356939 
L 513.795455 175.356939 
z
" style="fill:#1f77b4;"/>
   </g>
   <g id="patch_101">
    <path clip-path="url(#p2ce9e9c91b)" d="M 518.471023 379.521875 
L 523.146591 379.521875 
L 523.146591 143.711374 
L 518.471023 143.711374 
z
" style="fill:#1f77b4;"/>
   </g>
   <g id="patch_102">
    <path clip-path="url(#p2ce9e9c91b)" d="M 523.146591 379.521875 
L 527.822159 379.521875 
L 527.822159 28.358185 
L 523.146591 28.358185 
z
" style="fill:#1f77b4;"/>
   </g>
   <g id="matplotlib.axis_1">
    <g id="xtick_1">
     <g id="line2d_1">
      <path clip-path="url(#p2ce9e9c91b)" d="M 60.265341 379.521875 
L 60.265341 10.8 
" style="fill:none;stroke:#b0b0b0;stroke-linecap:square;stroke-width:0.8;"/>
     </g>
     <g id="line2d_2">
      <defs>
       <path d="M 0 0 
L 0 3.5 
" id="m0d1f525af2" style="stroke:#000000;stroke-width:0.8;"/>
      </defs>
      <g>
       <use style="stroke:#000000;stroke-width:0.8;" x="60.265341" xlink:href="#m0d1f525af2" y="379.521875"/>
      </g>
     </g>
     <g id="text_1">
      <!-- 0.0 -->
      <g transform="translate(52.313778 394.120313)scale(0.1 -0.1)">
       <defs>
        <path d="M 2034 4250 
Q 1547 4250 1301 3770 
Q 1056 3291 1056 2328 
Q 1056 1369 1301 889 
Q 1547 409 2034 409 
Q 2525 409 2770 889 
Q 3016 1369 3016 2328 
Q 3016 3291 2770 3770 
Q 2525 4250 2034 4250 
z
M 2034 4750 
Q 2819 4750 3233 4129 
Q 3647 3509 3647 2328 
Q 3647 1150 3233 529 
Q 2819 -91 2034 -91 
Q 1250 -91 836 529 
Q 422 1150 422 2328 
Q 422 3509 836 4129 
Q 1250 4750 2034 4750 
z
" id="DejaVuSans-30" transform="scale(0.015625)"/>
        <path d="M 684 794 
L 1344 794 
L 1344 0 
L 684 0 
L 684 794 
z
" id="DejaVuSans-2e" transform="scale(0.015625)"/>
       </defs>
       <use xlink:href="#DejaVuSans-30"/>
       <use x="63.623047" xlink:href="#DejaVuSans-2e"/>
       <use x="95.410156" xlink:href="#DejaVuSans-30"/>
      </g>
     </g>
    </g>
    <g id="xtick_2">
     <g id="line2d_3">
      <path clip-path="url(#p2ce9e9c91b)" d="M 153.776705 379.521875 
L 153.776705 10.8 
" style="fill:none;stroke:#b0b0b0;stroke-linecap:square;stroke-width:0.8;"/>
     </g>
     <g id="line2d_4">
      <g>
       <use style="stroke:#000000;stroke-width:0.8;" x="153.776705" xlink:href="#m0d1f525af2" y="379.521875"/>
      </g>
     </g>
     <g id="text_2">
      <!-- 0.2 -->
      <g transform="translate(145.825142 394.120313)scale(0.1 -0.1)">
       <defs>
        <path d="M 1228 531 
L 3431 531 
L 3431 0 
L 469 0 
L 469 531 
Q 828 903 1448 1529 
Q 2069 2156 2228 2338 
Q 2531 2678 2651 2914 
Q 2772 3150 2772 3378 
Q 2772 3750 2511 3984 
Q 2250 4219 1831 4219 
Q 1534 4219 1204 4116 
Q 875 4013 500 3803 
L 500 4441 
Q 881 4594 1212 4672 
Q 1544 4750 1819 4750 
Q 2544 4750 2975 4387 
Q 3406 4025 3406 3419 
Q 3406 3131 3298 2873 
Q 3191 2616 2906 2266 
Q 2828 2175 2409 1742 
Q 1991 1309 1228 531 
z
" id="DejaVuSans-32" transform="scale(0.015625)"/>
       </defs>
       <use xlink:href="#DejaVuSans-30"/>
       <use x="63.623047" xlink:href="#DejaVuSans-2e"/>
       <use x="95.410156" xlink:href="#DejaVuSans-32"/>
      </g>
     </g>
    </g>
    <g id="xtick_3">
     <g id="line2d_5">
      <path clip-path="url(#p2ce9e9c91b)" d="M 247.288068 379.521875 
L 247.288068 10.8 
" style="fill:none;stroke:#b0b0b0;stroke-linecap:square;stroke-width:0.8;"/>
     </g>
     <g id="line2d_6">
      <g>
       <use style="stroke:#000000;stroke-width:0.8;" x="247.288068" xlink:href="#m0d1f525af2" y="379.521875"/>
      </g>
     </g>
     <g id="text_3">
      <!-- 0.4 -->
      <g transform="translate(239.336506 394.120313)scale(0.1 -0.1)">
       <defs>
        <path d="M 2419 4116 
L 825 1625 
L 2419 1625 
L 2419 4116 
z
M 2253 4666 
L 3047 4666 
L 3047 1625 
L 3713 1625 
L 3713 1100 
L 3047 1100 
L 3047 0 
L 2419 0 
L 2419 1100 
L 313 1100 
L 313 1709 
L 2253 4666 
z
" id="DejaVuSans-34" transform="scale(0.015625)"/>
       </defs>
       <use xlink:href="#DejaVuSans-30"/>
       <use x="63.623047" xlink:href="#DejaVuSans-2e"/>
       <use x="95.410156" xlink:href="#DejaVuSans-34"/>
      </g>
     </g>
    </g>
    <g id="xtick_4">
     <g id="line2d_7">
      <path clip-path="url(#p2ce9e9c91b)" d="M 340.799432 379.521875 
L 340.799432 10.8 
" style="fill:none;stroke:#b0b0b0;stroke-linecap:square;stroke-width:0.8;"/>
     </g>
     <g id="line2d_8">
      <g>
       <use style="stroke:#000000;stroke-width:0.8;" x="340.799432" xlink:href="#m0d1f525af2" y="379.521875"/>
      </g>
     </g>
     <g id="text_4">
      <!-- 0.6 -->
      <g transform="translate(332.847869 394.120313)scale(0.1 -0.1)">
       <defs>
        <path d="M 2113 2584 
Q 1688 2584 1439 2293 
Q 1191 2003 1191 1497 
Q 1191 994 1439 701 
Q 1688 409 2113 409 
Q 2538 409 2786 701 
Q 3034 994 3034 1497 
Q 3034 2003 2786 2293 
Q 2538 2584 2113 2584 
z
M 3366 4563 
L 3366 3988 
Q 3128 4100 2886 4159 
Q 2644 4219 2406 4219 
Q 1781 4219 1451 3797 
Q 1122 3375 1075 2522 
Q 1259 2794 1537 2939 
Q 1816 3084 2150 3084 
Q 2853 3084 3261 2657 
Q 3669 2231 3669 1497 
Q 3669 778 3244 343 
Q 2819 -91 2113 -91 
Q 1303 -91 875 529 
Q 447 1150 447 2328 
Q 447 3434 972 4092 
Q 1497 4750 2381 4750 
Q 2619 4750 2861 4703 
Q 3103 4656 3366 4563 
z
" id="DejaVuSans-36" transform="scale(0.015625)"/>
       </defs>
       <use xlink:href="#DejaVuSans-30"/>
       <use x="63.623047" xlink:href="#DejaVuSans-2e"/>
       <use x="95.410156" xlink:href="#DejaVuSans-36"/>
      </g>
     </g>
    </g>
    <g id="xtick_5">
     <g id="line2d_9">
      <path clip-path="url(#p2ce9e9c91b)" d="M 434.310795 379.521875 
L 434.310795 10.8 
" style="fill:none;stroke:#b0b0b0;stroke-linecap:square;stroke-width:0.8;"/>
     </g>
     <g id="line2d_10">
      <g>
       <use style="stroke:#000000;stroke-width:0.8;" x="434.310795" xlink:href="#m0d1f525af2" y="379.521875"/>
      </g>
     </g>
     <g id="text_5">
      <!-- 0.8 -->
      <g transform="translate(426.359233 394.120313)scale(0.1 -0.1)">
       <defs>
        <path d="M 2034 2216 
Q 1584 2216 1326 1975 
Q 1069 1734 1069 1313 
Q 1069 891 1326 650 
Q 1584 409 2034 409 
Q 2484 409 2743 651 
Q 3003 894 3003 1313 
Q 3003 1734 2745 1975 
Q 2488 2216 2034 2216 
z
M 1403 2484 
Q 997 2584 770 2862 
Q 544 3141 544 3541 
Q 544 4100 942 4425 
Q 1341 4750 2034 4750 
Q 2731 4750 3128 4425 
Q 3525 4100 3525 3541 
Q 3525 3141 3298 2862 
Q 3072 2584 2669 2484 
Q 3125 2378 3379 2068 
Q 3634 1759 3634 1313 
Q 3634 634 3220 271 
Q 2806 -91 2034 -91 
Q 1263 -91 848 271 
Q 434 634 434 1313 
Q 434 1759 690 2068 
Q 947 2378 1403 2484 
z
M 1172 3481 
Q 1172 3119 1398 2916 
Q 1625 2713 2034 2713 
Q 2441 2713 2670 2916 
Q 2900 3119 2900 3481 
Q 2900 3844 2670 4047 
Q 2441 4250 2034 4250 
Q 1625 4250 1398 4047 
Q 1172 3844 1172 3481 
z
" id="DejaVuSans-38" transform="scale(0.015625)"/>
       </defs>
       <use xlink:href="#DejaVuSans-30"/>
       <use x="63.623047" xlink:href="#DejaVuSans-2e"/>
       <use x="95.410156" xlink:href="#DejaVuSans-38"/>
      </g>
     </g>
    </g>
    <g id="xtick_6">
     <g id="line2d_11">
      <path clip-path="url(#p2ce9e9c91b)" d="M 527.822159 379.521875 
L 527.822159 10.8 
" style="fill:none;stroke:#b0b0b0;stroke-linecap:square;stroke-width:0.8;"/>
     </g>
     <g id="line2d_12">
      <g>
       <use style="stroke:#000000;stroke-width:0.8;" x="527.822159" xlink:href="#m0d1f525af2" y="379.521875"/>
      </g>
     </g>
     <g id="text_6">
      <!-- 1.0 -->
      <g transform="translate(519.870597 394.120313)scale(0.1 -0.1)">
       <defs>
        <path d="M 794 531 
L 1825 531 
L 1825 4091 
L 703 3866 
L 703 4441 
L 1819 4666 
L 2450 4666 
L 2450 531 
L 3481 531 
L 3481 0 
L 794 0 
L 794 531 
z
" id="DejaVuSans-31" transform="scale(0.015625)"/>
       </defs>
       <use xlink:href="#DejaVuSans-31"/>
       <use x="63.623047" xlink:href="#DejaVuSans-2e"/>
       <use x="95.410156" xlink:href="#DejaVuSans-30"/>
      </g>
     </g>
    </g>
   </g>
   <g id="matplotlib.axis_2">
    <g id="ytick_1">
     <g id="line2d_13">
      <path clip-path="url(#p2ce9e9c91b)" d="M 36.8875 379.521875 
L 551.2 379.521875 
" style="fill:none;stroke:#b0b0b0;stroke-linecap:square;stroke-width:0.8;"/>
     </g>
     <g id="line2d_14">
      <defs>
       <path d="M 0 0 
L -3.5 0 
" id="m2f083f3091" style="stroke:#000000;stroke-width:0.8;"/>
      </defs>
      <g>
       <use style="stroke:#000000;stroke-width:0.8;" x="36.8875" xlink:href="#m2f083f3091" y="379.521875"/>
      </g>
     </g>
     <g id="text_7">
      <!-- 0 -->
      <g transform="translate(23.525 383.321094)scale(0.1 -0.1)">
       <use xlink:href="#DejaVuSans-30"/>
      </g>
     </g>
    </g>
    <g id="ytick_2">
     <g id="line2d_15">
      <path clip-path="url(#p2ce9e9c91b)" d="M 36.8875 328.480641 
L 551.2 328.480641 
" style="fill:none;stroke:#b0b0b0;stroke-linecap:square;stroke-width:0.8;"/>
     </g>
     <g id="line2d_16">
      <g>
       <use style="stroke:#000000;stroke-width:0.8;" x="36.8875" xlink:href="#m2f083f3091" y="328.480641"/>
      </g>
     </g>
     <g id="text_8">
      <!-- 50 -->
      <g transform="translate(17.1625 332.27986)scale(0.1 -0.1)">
       <defs>
        <path d="M 691 4666 
L 3169 4666 
L 3169 4134 
L 1269 4134 
L 1269 2991 
Q 1406 3038 1543 3061 
Q 1681 3084 1819 3084 
Q 2600 3084 3056 2656 
Q 3513 2228 3513 1497 
Q 3513 744 3044 326 
Q 2575 -91 1722 -91 
Q 1428 -91 1123 -41 
Q 819 9 494 109 
L 494 744 
Q 775 591 1075 516 
Q 1375 441 1709 441 
Q 2250 441 2565 725 
Q 2881 1009 2881 1497 
Q 2881 1984 2565 2268 
Q 2250 2553 1709 2553 
Q 1456 2553 1204 2497 
Q 953 2441 691 2322 
L 691 4666 
z
" id="DejaVuSans-35" transform="scale(0.015625)"/>
       </defs>
       <use xlink:href="#DejaVuSans-35"/>
       <use x="63.623047" xlink:href="#DejaVuSans-30"/>
      </g>
     </g>
    </g>
    <g id="ytick_3">
     <g id="line2d_17">
      <path clip-path="url(#p2ce9e9c91b)" d="M 36.8875 277.439407 
L 551.2 277.439407 
" style="fill:none;stroke:#b0b0b0;stroke-linecap:square;stroke-width:0.8;"/>
     </g>
     <g id="line2d_18">
      <g>
       <use style="stroke:#000000;stroke-width:0.8;" x="36.8875" xlink:href="#m2f083f3091" y="277.439407"/>
      </g>
     </g>
     <g id="text_9">
      <!-- 100 -->
      <g transform="translate(10.8 281.238626)scale(0.1 -0.1)">
       <use xlink:href="#DejaVuSans-31"/>
       <use x="63.623047" xlink:href="#DejaVuSans-30"/>
       <use x="127.246094" xlink:href="#DejaVuSans-30"/>
      </g>
     </g>
    </g>
    <g id="ytick_4">
     <g id="line2d_19">
      <path clip-path="url(#p2ce9e9c91b)" d="M 36.8875 226.398173 
L 551.2 226.398173 
" style="fill:none;stroke:#b0b0b0;stroke-linecap:square;stroke-width:0.8;"/>
     </g>
     <g id="line2d_20">
      <g>
       <use style="stroke:#000000;stroke-width:0.8;" x="36.8875" xlink:href="#m2f083f3091" y="226.398173"/>
      </g>
     </g>
     <g id="text_10">
      <!-- 150 -->
      <g transform="translate(10.8 230.197392)scale(0.1 -0.1)">
       <use xlink:href="#DejaVuSans-31"/>
       <use x="63.623047" xlink:href="#DejaVuSans-35"/>
       <use x="127.246094" xlink:href="#DejaVuSans-30"/>
      </g>
     </g>
    </g>
    <g id="ytick_5">
     <g id="line2d_21">
      <path clip-path="url(#p2ce9e9c91b)" d="M 36.8875 175.356939 
L 551.2 175.356939 
" style="fill:none;stroke:#b0b0b0;stroke-linecap:square;stroke-width:0.8;"/>
     </g>
     <g id="line2d_22">
      <g>
       <use style="stroke:#000000;stroke-width:0.8;" x="36.8875" xlink:href="#m2f083f3091" y="175.356939"/>
      </g>
     </g>
     <g id="text_11">
      <!-- 200 -->
      <g transform="translate(10.8 179.156157)scale(0.1 -0.1)">
       <use xlink:href="#DejaVuSans-32"/>
       <use x="63.623047" xlink:href="#DejaVuSans-30"/>
       <use x="127.246094" xlink:href="#DejaVuSans-30"/>
      </g>
     </g>
    </g>
    <g id="ytick_6">
     <g id="line2d_23">
      <path clip-path="url(#p2ce9e9c91b)" d="M 36.8875 124.315705 
L 551.2 124.315705 
" style="fill:none;stroke:#b0b0b0;stroke-linecap:square;stroke-width:0.8;"/>
     </g>
     <g id="line2d_24">
      <g>
       <use style="stroke:#000000;stroke-width:0.8;" x="36.8875" xlink:href="#m2f083f3091" y="124.315705"/>
      </g>
     </g>
     <g id="text_12">
      <!-- 250 -->
      <g transform="translate(10.8 128.114923)scale(0.1 -0.1)">
       <use xlink:href="#DejaVuSans-32"/>
       <use x="63.623047" xlink:href="#DejaVuSans-35"/>
       <use x="127.246094" xlink:href="#DejaVuSans-30"/>
      </g>
     </g>
    </g>
    <g id="ytick_7">
     <g id="line2d_25">
      <path clip-path="url(#p2ce9e9c91b)" d="M 36.8875 73.274471 
L 551.2 73.274471 
" style="fill:none;stroke:#b0b0b0;stroke-linecap:square;stroke-width:0.8;"/>
     </g>
     <g id="line2d_26">
      <g>
       <use style="stroke:#000000;stroke-width:0.8;" x="36.8875" xlink:href="#m2f083f3091" y="73.274471"/>
      </g>
     </g>
     <g id="text_13">
      <!-- 300 -->
      <g transform="translate(10.8 77.073689)scale(0.1 -0.1)">
       <defs>
        <path d="M 2597 2516 
Q 3050 2419 3304 2112 
Q 3559 1806 3559 1356 
Q 3559 666 3084 287 
Q 2609 -91 1734 -91 
Q 1441 -91 1130 -33 
Q 819 25 488 141 
L 488 750 
Q 750 597 1062 519 
Q 1375 441 1716 441 
Q 2309 441 2620 675 
Q 2931 909 2931 1356 
Q 2931 1769 2642 2001 
Q 2353 2234 1838 2234 
L 1294 2234 
L 1294 2753 
L 1863 2753 
Q 2328 2753 2575 2939 
Q 2822 3125 2822 3475 
Q 2822 3834 2567 4026 
Q 2313 4219 1838 4219 
Q 1578 4219 1281 4162 
Q 984 4106 628 3988 
L 628 4550 
Q 988 4650 1302 4700 
Q 1616 4750 1894 4750 
Q 2613 4750 3031 4423 
Q 3450 4097 3450 3541 
Q 3450 3153 3228 2886 
Q 3006 2619 2597 2516 
z
" id="DejaVuSans-33" transform="scale(0.015625)"/>
       </defs>
       <use xlink:href="#DejaVuSans-33"/>
       <use x="63.623047" xlink:href="#DejaVuSans-30"/>
       <use x="127.246094" xlink:href="#DejaVuSans-30"/>
      </g>
     </g>
    </g>
    <g id="ytick_8">
     <g id="line2d_27">
      <path clip-path="url(#p2ce9e9c91b)" d="M 36.8875 22.233236 
L 551.2 22.233236 
" style="fill:none;stroke:#b0b0b0;stroke-linecap:square;stroke-width:0.8;"/>
     </g>
     <g id="line2d_28">
      <g>
       <use style="stroke:#000000;stroke-width:0.8;" x="36.8875" xlink:href="#m2f083f3091" y="22.233236"/>
      </g>
     </g>
     <g id="text_14">
      <!-- 350 -->
      <g transform="translate(10.8 26.032455)scale(0.1 -0.1)">
       <use xlink:href="#DejaVuSans-33"/>
       <use x="63.623047" xlink:href="#DejaVuSans-35"/>
       <use x="127.246094" xlink:href="#DejaVuSans-30"/>
      </g>
     </g>
    </g>
   </g>
   <g id="patch_103">
    <path d="M 36.8875 379.521875 
L 36.8875 10.8 
" style="fill:none;stroke:#000000;stroke-linecap:square;stroke-linejoin:miter;stroke-width:0.8;"/>
   </g>
   <g id="patch_104">
    <path d="M 551.2 379.521875 
L 551.2 10.8 
" style="fill:none;stroke:#000000;stroke-linecap:square;stroke-linejoin:miter;stroke-width:0.8;"/>
   </g>
   <g id="patch_105">
    <path d="M 36.8875 379.521875 
L 551.2 379.521875 
" style="fill:none;stroke:#000000;stroke-linecap:square;stroke-linejoin:miter;stroke-width:0.8;"/>
   </g>
   <g id="patch_106">
    <path d="M 36.8875 10.8 
L 551.2 10.8 
" style="fill:none;stroke:#000000;stroke-linecap:square;stroke-linejoin:miter;stroke-width:0.8;"/>
   </g>
  </g>
 </g>
 <defs>
  <clipPath id="p2ce9e9c91b">
   <rect height="368.721875" width="514.3125" x="36.8875" y="10.8"/>
  </clipPath>
 </defs>
</svg>
