<?xml version="1.0" encoding="utf-8" standalone="no"?>
<!DOCTYPE svg PUBLIC "-//W3C//DTD SVG 1.1//EN"
  "http://www.w3.org/Graphics/SVG/1.1/DTD/svg11.dtd">
<svg height="407pt" version="1.1" viewBox="0 0 562 407" width="562pt" xmlns="http://www.w3.org/2000/svg" xmlns:xlink="http://www.w3.org/1999/xlink">
 <metadata>
  <rdf:RDF xmlns:cc="http://creativecommons.org/ns#" xmlns:dc="http://purl.org/dc/elements/1.1/" xmlns:rdf="http://www.w3.org/1999/02/22-rdf-syntax-ns#">
   <cc:Work>
    <dc:type rdf:resource="http://purl.org/dc/dcmitype/StillImage"/>
    <dc:date>2025-03-03T14:30:27.319814</dc:date>
    <dc:format>image/svg+xml</dc:format>
    <dc:creator>
     <cc:Agent>
      <dc:title>Matplotlib v3.4.3, https://matplotlib.org/</dc:title>
     </cc:Agent>
    </dc:creator>
   </cc:Work>
  </rdf:RDF>
 </metadata>
 <defs>
  <style type="text/css">*{stroke-linecap:butt;stroke-linejoin:round;}</style>
 </defs>
 <g id="figure_1">
  <g id="patch_1">
   <path d="M 0 407 
L 562 407 
L 562 0 
L 0 0 
z
" style="fill:#ffffff;"/>
  </g>
  <g id="axes_1">
   <g id="patch_2">
    <path d="M 44.203125 365.84375 
L 551.2 365.84375 
L 551.2 10.8 
L 44.203125 10.8 
z
" style="fill:#ffffff;"/>
   </g>
   <g id="patch_3">
    <path clip-path="url(#pceb63e6625)" d="M 67.248438 365.84375 
L 80.804504 365.84375 
L 80.804504 315.749394 
L 67.248438 315.749394 
z
" style="fill:#1f77b4;fill-opacity:0.75;stroke:#000000;stroke-linejoin:miter;stroke-width:0.954866;"/>
   </g>
   <g id="patch_4">
    <path clip-path="url(#pceb63e6625)" d="M 80.804504 365.84375 
L 94.36057 365.84375 
L 94.36057 240.607859 
L 80.804504 240.607859 
z
" style="fill:#1f77b4;fill-opacity:0.75;stroke:#000000;stroke-linejoin:miter;stroke-width:0.954866;"/>
   </g>
   <g id="patch_5">
    <path clip-path="url(#pceb63e6625)" d="M 94.36057 365.84375 
L 107.916636 365.84375 
L 107.916636 228.08427 
L 94.36057 228.08427 
z
" style="fill:#1f77b4;fill-opacity:0.75;stroke:#000000;stroke-linejoin:miter;stroke-width:0.954866;"/>
   </g>
   <g id="patch_6">
    <path clip-path="url(#pceb63e6625)" d="M 107.916636 365.84375 
L 121.472702 365.84375 
L 121.472702 115.371969 
L 107.916636 115.371969 
z
" style="fill:#1f77b4;fill-opacity:0.75;stroke:#000000;stroke-linejoin:miter;stroke-width:0.954866;"/>
   </g>
   <g id="patch_7">
    <path clip-path="url(#pceb63e6625)" d="M 121.472702 365.84375 
L 135.028768 365.84375 
L 135.028768 27.706845 
L 121.472702 27.706845 
z
" style="fill:#1f77b4;fill-opacity:0.75;stroke:#000000;stroke-linejoin:miter;stroke-width:0.954866;"/>
   </g>
   <g id="patch_8">
    <path clip-path="url(#pceb63e6625)" d="M 135.028768 365.84375 
L 148.584835 365.84375 
L 148.584835 190.513503 
L 135.028768 190.513503 
z
" style="fill:#1f77b4;fill-opacity:0.75;stroke:#000000;stroke-linejoin:miter;stroke-width:0.954866;"/>
   </g>
   <g id="patch_9">
    <path clip-path="url(#pceb63e6625)" d="M 148.584835 365.84375 
L 162.140901 365.84375 
L 162.140901 165.466325 
L 148.584835 165.466325 
z
" style="fill:#1f77b4;fill-opacity:0.75;stroke:#000000;stroke-linejoin:miter;stroke-width:0.954866;"/>
   </g>
   <g id="patch_10">
    <path clip-path="url(#pceb63e6625)" d="M 162.140901 365.84375 
L 175.696967 365.84375 
L 175.696967 215.560681 
L 162.140901 215.560681 
z
" style="fill:#1f77b4;fill-opacity:0.75;stroke:#000000;stroke-linejoin:miter;stroke-width:0.954866;"/>
   </g>
   <g id="patch_11">
    <path clip-path="url(#pceb63e6625)" d="M 175.696967 365.84375 
L 189.253033 365.84375 
L 189.253033 215.560681 
L 175.696967 215.560681 
z
" style="fill:#1f77b4;fill-opacity:0.75;stroke:#000000;stroke-linejoin:miter;stroke-width:0.954866;"/>
   </g>
   <g id="patch_12">
    <path clip-path="url(#pceb63e6625)" d="M 189.253033 365.84375 
L 202.809099 365.84375 
L 202.809099 290.702216 
L 189.253033 290.702216 
z
" style="fill:#1f77b4;fill-opacity:0.75;stroke:#000000;stroke-linejoin:miter;stroke-width:0.954866;"/>
   </g>
   <g id="patch_13">
    <path clip-path="url(#pceb63e6625)" d="M 202.809099 365.84375 
L 216.365165 365.84375 
L 216.365165 290.702216 
L 202.809099 290.702216 
z
" style="fill:#1f77b4;fill-opacity:0.75;stroke:#000000;stroke-linejoin:miter;stroke-width:0.954866;"/>
   </g>
   <g id="patch_14">
    <path clip-path="url(#pceb63e6625)" d="M 216.365165 365.84375 
L 229.921232 365.84375 
L 229.921232 290.702216 
L 216.365165 290.702216 
z
" style="fill:#1f77b4;fill-opacity:0.75;stroke:#000000;stroke-linejoin:miter;stroke-width:0.954866;"/>
   </g>
   <g id="patch_15">
    <path clip-path="url(#pceb63e6625)" d="M 229.921232 365.84375 
L 243.477298 365.84375 
L 243.477298 328.272983 
L 229.921232 328.272983 
z
" style="fill:#1f77b4;fill-opacity:0.75;stroke:#000000;stroke-linejoin:miter;stroke-width:0.954866;"/>
   </g>
   <g id="patch_16">
    <path clip-path="url(#pceb63e6625)" d="M 243.477298 365.84375 
L 257.033364 365.84375 
L 257.033364 303.225805 
L 243.477298 303.225805 
z
" style="fill:#1f77b4;fill-opacity:0.75;stroke:#000000;stroke-linejoin:miter;stroke-width:0.954866;"/>
   </g>
   <g id="patch_17">
    <path clip-path="url(#pceb63e6625)" d="M 257.033364 365.84375 
L 270.58943 365.84375 
L 270.58943 290.702216 
L 257.033364 290.702216 
z
" style="fill:#1f77b4;fill-opacity:0.75;stroke:#000000;stroke-linejoin:miter;stroke-width:0.954866;"/>
   </g>
   <g id="patch_18">
    <path clip-path="url(#pceb63e6625)" d="M 270.58943 365.84375 
L 284.145496 365.84375 
L 284.145496 315.749394 
L 270.58943 315.749394 
z
" style="fill:#1f77b4;fill-opacity:0.75;stroke:#000000;stroke-linejoin:miter;stroke-width:0.954866;"/>
   </g>
   <g id="patch_19">
    <path clip-path="url(#pceb63e6625)" d="M 284.145496 365.84375 
L 297.701563 365.84375 
L 297.701563 315.749394 
L 284.145496 315.749394 
z
" style="fill:#1f77b4;fill-opacity:0.75;stroke:#000000;stroke-linejoin:miter;stroke-width:0.954866;"/>
   </g>
   <g id="patch_20">
    <path clip-path="url(#pceb63e6625)" d="M 297.701562 365.84375 
L 311.257629 365.84375 
L 311.257629 365.84375 
L 297.701562 365.84375 
z
" style="fill:#1f77b4;fill-opacity:0.75;stroke:#000000;stroke-linejoin:miter;stroke-width:0.954866;"/>
   </g>
   <g id="patch_21">
    <path clip-path="url(#pceb63e6625)" d="M 311.257629 365.84375 
L 324.813695 365.84375 
L 324.813695 340.796572 
L 311.257629 340.796572 
z
" style="fill:#1f77b4;fill-opacity:0.75;stroke:#000000;stroke-linejoin:miter;stroke-width:0.954866;"/>
   </g>
   <g id="patch_22">
    <path clip-path="url(#pceb63e6625)" d="M 324.813695 365.84375 
L 338.369761 365.84375 
L 338.369761 328.272983 
L 324.813695 328.272983 
z
" style="fill:#1f77b4;fill-opacity:0.75;stroke:#000000;stroke-linejoin:miter;stroke-width:0.954866;"/>
   </g>
   <g id="patch_23">
    <path clip-path="url(#pceb63e6625)" d="M 338.369761 365.84375 
L 351.925827 365.84375 
L 351.925827 353.320161 
L 338.369761 353.320161 
z
" style="fill:#1f77b4;fill-opacity:0.75;stroke:#000000;stroke-linejoin:miter;stroke-width:0.954866;"/>
   </g>
   <g id="patch_24">
    <path clip-path="url(#pceb63e6625)" d="M 351.925827 365.84375 
L 365.481893 365.84375 
L 365.481893 340.796572 
L 351.925827 340.796572 
z
" style="fill:#1f77b4;fill-opacity:0.75;stroke:#000000;stroke-linejoin:miter;stroke-width:0.954866;"/>
   </g>
   <g id="patch_25">
    <path clip-path="url(#pceb63e6625)" d="M 365.481893 365.84375 
L 379.03796 365.84375 
L 379.03796 340.796572 
L 365.481893 340.796572 
z
" style="fill:#1f77b4;fill-opacity:0.75;stroke:#000000;stroke-linejoin:miter;stroke-width:0.954866;"/>
   </g>
   <g id="patch_26">
    <path clip-path="url(#pceb63e6625)" d="M 379.03796 365.84375 
L 392.594026 365.84375 
L 392.594026 365.84375 
L 379.03796 365.84375 
z
" style="fill:#1f77b4;fill-opacity:0.75;stroke:#000000;stroke-linejoin:miter;stroke-width:0.954866;"/>
   </g>
   <g id="patch_27">
    <path clip-path="url(#pceb63e6625)" d="M 392.594026 365.84375 
L 406.150092 365.84375 
L 406.150092 328.272983 
L 392.594026 328.272983 
z
" style="fill:#1f77b4;fill-opacity:0.75;stroke:#000000;stroke-linejoin:miter;stroke-width:0.954866;"/>
   </g>
   <g id="patch_28">
    <path clip-path="url(#pceb63e6625)" d="M 406.150092 365.84375 
L 419.706158 365.84375 
L 419.706158 353.320161 
L 406.150092 353.320161 
z
" style="fill:#1f77b4;fill-opacity:0.75;stroke:#000000;stroke-linejoin:miter;stroke-width:0.954866;"/>
   </g>
   <g id="patch_29">
    <path clip-path="url(#pceb63e6625)" d="M 419.706158 365.84375 
L 433.262224 365.84375 
L 433.262224 365.84375 
L 419.706158 365.84375 
z
" style="fill:#1f77b4;fill-opacity:0.75;stroke:#000000;stroke-linejoin:miter;stroke-width:0.954866;"/>
   </g>
   <g id="patch_30">
    <path clip-path="url(#pceb63e6625)" d="M 433.262224 365.84375 
L 446.81829 365.84375 
L 446.81829 365.84375 
L 433.262224 365.84375 
z
" style="fill:#1f77b4;fill-opacity:0.75;stroke:#000000;stroke-linejoin:miter;stroke-width:0.954866;"/>
   </g>
   <g id="patch_31">
    <path clip-path="url(#pceb63e6625)" d="M 446.81829 365.84375 
L 460.374357 365.84375 
L 460.374357 353.320161 
L 446.81829 353.320161 
z
" style="fill:#1f77b4;fill-opacity:0.75;stroke:#000000;stroke-linejoin:miter;stroke-width:0.954866;"/>
   </g>
   <g id="patch_32">
    <path clip-path="url(#pceb63e6625)" d="M 460.374357 365.84375 
L 473.930423 365.84375 
L 473.930423 365.84375 
L 460.374357 365.84375 
z
" style="fill:#1f77b4;fill-opacity:0.75;stroke:#000000;stroke-linejoin:miter;stroke-width:0.954866;"/>
   </g>
   <g id="patch_33">
    <path clip-path="url(#pceb63e6625)" d="M 473.930423 365.84375 
L 487.486489 365.84375 
L 487.486489 365.84375 
L 473.930423 365.84375 
z
" style="fill:#1f77b4;fill-opacity:0.75;stroke:#000000;stroke-linejoin:miter;stroke-width:0.954866;"/>
   </g>
   <g id="patch_34">
    <path clip-path="url(#pceb63e6625)" d="M 487.486489 365.84375 
L 501.042555 365.84375 
L 501.042555 365.84375 
L 487.486489 365.84375 
z
" style="fill:#1f77b4;fill-opacity:0.75;stroke:#000000;stroke-linejoin:miter;stroke-width:0.954866;"/>
   </g>
   <g id="patch_35">
    <path clip-path="url(#pceb63e6625)" d="M 501.042555 365.84375 
L 514.598621 365.84375 
L 514.598621 365.84375 
L 501.042555 365.84375 
z
" style="fill:#1f77b4;fill-opacity:0.75;stroke:#000000;stroke-linejoin:miter;stroke-width:0.954866;"/>
   </g>
   <g id="patch_36">
    <path clip-path="url(#pceb63e6625)" d="M 514.598621 365.84375 
L 528.154687 365.84375 
L 528.154687 353.320161 
L 514.598621 353.320161 
z
" style="fill:#1f77b4;fill-opacity:0.75;stroke:#000000;stroke-linejoin:miter;stroke-width:0.954866;"/>
   </g>
   <g id="matplotlib.axis_1">
    <g id="xtick_1">
     <g id="line2d_1">
      <defs>
       <path d="M 0 0 
L 0 3.5 
" id="m7c9ad37089" style="stroke:#000000;stroke-width:0.8;"/>
      </defs>
      <g>
       <use style="stroke:#000000;stroke-width:0.8;" x="63.72386" xlink:href="#m7c9ad37089" y="365.84375"/>
      </g>
     </g>
     <g id="text_1">
      <!-- 0 -->
      <g transform="translate(60.54261 380.442187)scale(0.1 -0.1)">
       <defs>
        <path d="M 2034 4250 
Q 1547 4250 1301 3770 
Q 1056 3291 1056 2328 
Q 1056 1369 1301 889 
Q 1547 409 2034 409 
Q 2525 409 2770 889 
Q 3016 1369 3016 2328 
Q 3016 3291 2770 3770 
Q 2525 4250 2034 4250 
z
M 2034 4750 
Q 2819 4750 3233 4129 
Q 3647 3509 3647 2328 
Q 3647 1150 3233 529 
Q 2819 -91 2034 -91 
Q 1250 -91 836 529 
Q 422 1150 422 2328 
Q 422 3509 836 4129 
Q 1250 4750 2034 4750 
z
" id="DejaVuSans-30" transform="scale(0.015625)"/>
       </defs>
       <use xlink:href="#DejaVuSans-30"/>
      </g>
     </g>
    </g>
    <g id="xtick_2">
     <g id="line2d_2">
      <g>
       <use style="stroke:#000000;stroke-width:0.8;" x="131.504191" xlink:href="#m7c9ad37089" y="365.84375"/>
      </g>
     </g>
     <g id="text_2">
      <!-- 5 -->
      <g transform="translate(128.322941 380.442187)scale(0.1 -0.1)">
       <defs>
        <path d="M 691 4666 
L 3169 4666 
L 3169 4134 
L 1269 4134 
L 1269 2991 
Q 1406 3038 1543 3061 
Q 1681 3084 1819 3084 
Q 2600 3084 3056 2656 
Q 3513 2228 3513 1497 
Q 3513 744 3044 326 
Q 2575 -91 1722 -91 
Q 1428 -91 1123 -41 
Q 819 9 494 109 
L 494 744 
Q 775 591 1075 516 
Q 1375 441 1709 441 
Q 2250 441 2565 725 
Q 2881 1009 2881 1497 
Q 2881 1984 2565 2268 
Q 2250 2553 1709 2553 
Q 1456 2553 1204 2497 
Q 953 2441 691 2322 
L 691 4666 
z
" id="DejaVuSans-35" transform="scale(0.015625)"/>
       </defs>
       <use xlink:href="#DejaVuSans-35"/>
      </g>
     </g>
    </g>
    <g id="xtick_3">
     <g id="line2d_3">
      <g>
       <use style="stroke:#000000;stroke-width:0.8;" x="199.284522" xlink:href="#m7c9ad37089" y="365.84375"/>
      </g>
     </g>
     <g id="text_3">
      <!-- 10 -->
      <g transform="translate(192.922022 380.442187)scale(0.1 -0.1)">
       <defs>
        <path d="M 794 531 
L 1825 531 
L 1825 4091 
L 703 3866 
L 703 4441 
L 1819 4666 
L 2450 4666 
L 2450 531 
L 3481 531 
L 3481 0 
L 794 0 
L 794 531 
z
" id="DejaVuSans-31" transform="scale(0.015625)"/>
       </defs>
       <use xlink:href="#DejaVuSans-31"/>
       <use x="63.623047" xlink:href="#DejaVuSans-30"/>
      </g>
     </g>
    </g>
    <g id="xtick_4">
     <g id="line2d_4">
      <g>
       <use style="stroke:#000000;stroke-width:0.8;" x="267.064853" xlink:href="#m7c9ad37089" y="365.84375"/>
      </g>
     </g>
     <g id="text_4">
      <!-- 15 -->
      <g transform="translate(260.702353 380.442187)scale(0.1 -0.1)">
       <use xlink:href="#DejaVuSans-31"/>
       <use x="63.623047" xlink:href="#DejaVuSans-35"/>
      </g>
     </g>
    </g>
    <g id="xtick_5">
     <g id="line2d_5">
      <g>
       <use style="stroke:#000000;stroke-width:0.8;" x="334.845184" xlink:href="#m7c9ad37089" y="365.84375"/>
      </g>
     </g>
     <g id="text_5">
      <!-- 20 -->
      <g transform="translate(328.482684 380.442187)scale(0.1 -0.1)">
       <defs>
        <path d="M 1228 531 
L 3431 531 
L 3431 0 
L 469 0 
L 469 531 
Q 828 903 1448 1529 
Q 2069 2156 2228 2338 
Q 2531 2678 2651 2914 
Q 2772 3150 2772 3378 
Q 2772 3750 2511 3984 
Q 2250 4219 1831 4219 
Q 1534 4219 1204 4116 
Q 875 4013 500 3803 
L 500 4441 
Q 881 4594 1212 4672 
Q 1544 4750 1819 4750 
Q 2544 4750 2975 4387 
Q 3406 4025 3406 3419 
Q 3406 3131 3298 2873 
Q 3191 2616 2906 2266 
Q 2828 2175 2409 1742 
Q 1991 1309 1228 531 
z
" id="DejaVuSans-32" transform="scale(0.015625)"/>
       </defs>
       <use xlink:href="#DejaVuSans-32"/>
       <use x="63.623047" xlink:href="#DejaVuSans-30"/>
      </g>
     </g>
    </g>
    <g id="xtick_6">
     <g id="line2d_6">
      <g>
       <use style="stroke:#000000;stroke-width:0.8;" x="402.625515" xlink:href="#m7c9ad37089" y="365.84375"/>
      </g>
     </g>
     <g id="text_6">
      <!-- 25 -->
      <g transform="translate(396.263015 380.442187)scale(0.1 -0.1)">
       <use xlink:href="#DejaVuSans-32"/>
       <use x="63.623047" xlink:href="#DejaVuSans-35"/>
      </g>
     </g>
    </g>
    <g id="xtick_7">
     <g id="line2d_7">
      <g>
       <use style="stroke:#000000;stroke-width:0.8;" x="470.405846" xlink:href="#m7c9ad37089" y="365.84375"/>
      </g>
     </g>
     <g id="text_7">
      <!-- 30 -->
      <g transform="translate(464.043346 380.442187)scale(0.1 -0.1)">
       <defs>
        <path d="M 2597 2516 
Q 3050 2419 3304 2112 
Q 3559 1806 3559 1356 
Q 3559 666 3084 287 
Q 2609 -91 1734 -91 
Q 1441 -91 1130 -33 
Q 819 25 488 141 
L 488 750 
Q 750 597 1062 519 
Q 1375 441 1716 441 
Q 2309 441 2620 675 
Q 2931 909 2931 1356 
Q 2931 1769 2642 2001 
Q 2353 2234 1838 2234 
L 1294 2234 
L 1294 2753 
L 1863 2753 
Q 2328 2753 2575 2939 
Q 2822 3125 2822 3475 
Q 2822 3834 2567 4026 
Q 2313 4219 1838 4219 
Q 1578 4219 1281 4162 
Q 984 4106 628 3988 
L 628 4550 
Q 988 4650 1302 4700 
Q 1616 4750 1894 4750 
Q 2613 4750 3031 4423 
Q 3450 4097 3450 3541 
Q 3450 3153 3228 2886 
Q 3006 2619 2597 2516 
z
" id="DejaVuSans-33" transform="scale(0.015625)"/>
       </defs>
       <use xlink:href="#DejaVuSans-33"/>
       <use x="63.623047" xlink:href="#DejaVuSans-30"/>
      </g>
     </g>
    </g>
    <g id="xtick_8">
     <g id="line2d_8">
      <g>
       <use style="stroke:#000000;stroke-width:0.8;" x="538.186176" xlink:href="#m7c9ad37089" y="365.84375"/>
      </g>
     </g>
     <g id="text_8">
      <!-- 35 -->
      <g transform="translate(531.823676 380.442187)scale(0.1 -0.1)">
       <use xlink:href="#DejaVuSans-33"/>
       <use x="63.623047" xlink:href="#DejaVuSans-35"/>
      </g>
     </g>
    </g>
    <g id="text_9">
     <!-- 2021 -->
     <g transform="translate(284.976562 394.120313)scale(0.1 -0.1)">
      <use xlink:href="#DejaVuSans-32"/>
      <use x="63.623047" xlink:href="#DejaVuSans-30"/>
      <use x="127.246094" xlink:href="#DejaVuSans-32"/>
      <use x="190.869141" xlink:href="#DejaVuSans-31"/>
     </g>
    </g>
   </g>
   <g id="matplotlib.axis_2">
    <g id="ytick_1">
     <g id="line2d_9">
      <defs>
       <path d="M 0 0 
L -3.5 0 
" id="mca86f6f34c" style="stroke:#000000;stroke-width:0.8;"/>
      </defs>
      <g>
       <use style="stroke:#000000;stroke-width:0.8;" x="44.203125" xlink:href="#mca86f6f34c" y="365.84375"/>
      </g>
     </g>
     <g id="text_10">
      <!-- 0 -->
      <g transform="translate(30.840625 369.642969)scale(0.1 -0.1)">
       <use xlink:href="#DejaVuSans-30"/>
      </g>
     </g>
    </g>
    <g id="ytick_2">
     <g id="line2d_10">
      <g>
       <use style="stroke:#000000;stroke-width:0.8;" x="44.203125" xlink:href="#mca86f6f34c" y="303.225805"/>
      </g>
     </g>
     <g id="text_11">
      <!-- 5 -->
      <g transform="translate(30.840625 307.025023)scale(0.1 -0.1)">
       <use xlink:href="#DejaVuSans-35"/>
      </g>
     </g>
    </g>
    <g id="ytick_3">
     <g id="line2d_11">
      <g>
       <use style="stroke:#000000;stroke-width:0.8;" x="44.203125" xlink:href="#mca86f6f34c" y="240.607859"/>
      </g>
     </g>
     <g id="text_12">
      <!-- 10 -->
      <g transform="translate(24.478125 244.407078)scale(0.1 -0.1)">
       <use xlink:href="#DejaVuSans-31"/>
       <use x="63.623047" xlink:href="#DejaVuSans-30"/>
      </g>
     </g>
    </g>
    <g id="ytick_4">
     <g id="line2d_12">
      <g>
       <use style="stroke:#000000;stroke-width:0.8;" x="44.203125" xlink:href="#mca86f6f34c" y="177.989914"/>
      </g>
     </g>
     <g id="text_13">
      <!-- 15 -->
      <g transform="translate(24.478125 181.789133)scale(0.1 -0.1)">
       <use xlink:href="#DejaVuSans-31"/>
       <use x="63.623047" xlink:href="#DejaVuSans-35"/>
      </g>
     </g>
    </g>
    <g id="ytick_5">
     <g id="line2d_13">
      <g>
       <use style="stroke:#000000;stroke-width:0.8;" x="44.203125" xlink:href="#mca86f6f34c" y="115.371969"/>
      </g>
     </g>
     <g id="text_14">
      <!-- 20 -->
      <g transform="translate(24.478125 119.171187)scale(0.1 -0.1)">
       <use xlink:href="#DejaVuSans-32"/>
       <use x="63.623047" xlink:href="#DejaVuSans-30"/>
      </g>
     </g>
    </g>
    <g id="ytick_6">
     <g id="line2d_14">
      <g>
       <use style="stroke:#000000;stroke-width:0.8;" x="44.203125" xlink:href="#mca86f6f34c" y="52.754023"/>
      </g>
     </g>
     <g id="text_15">
      <!-- 25 -->
      <g transform="translate(24.478125 56.553242)scale(0.1 -0.1)">
       <use xlink:href="#DejaVuSans-32"/>
       <use x="63.623047" xlink:href="#DejaVuSans-35"/>
      </g>
     </g>
    </g>
    <g id="text_16">
     <!-- Count -->
     <g transform="translate(18.398438 203.170312)rotate(-90)scale(0.1 -0.1)">
      <defs>
       <path d="M 4122 4306 
L 4122 3641 
Q 3803 3938 3442 4084 
Q 3081 4231 2675 4231 
Q 1875 4231 1450 3742 
Q 1025 3253 1025 2328 
Q 1025 1406 1450 917 
Q 1875 428 2675 428 
Q 3081 428 3442 575 
Q 3803 722 4122 1019 
L 4122 359 
Q 3791 134 3420 21 
Q 3050 -91 2638 -91 
Q 1578 -91 968 557 
Q 359 1206 359 2328 
Q 359 3453 968 4101 
Q 1578 4750 2638 4750 
Q 3056 4750 3426 4639 
Q 3797 4528 4122 4306 
z
" id="DejaVuSans-43" transform="scale(0.015625)"/>
       <path d="M 1959 3097 
Q 1497 3097 1228 2736 
Q 959 2375 959 1747 
Q 959 1119 1226 758 
Q 1494 397 1959 397 
Q 2419 397 2687 759 
Q 2956 1122 2956 1747 
Q 2956 2369 2687 2733 
Q 2419 3097 1959 3097 
z
M 1959 3584 
Q 2709 3584 3137 3096 
Q 3566 2609 3566 1747 
Q 3566 888 3137 398 
Q 2709 -91 1959 -91 
Q 1206 -91 779 398 
Q 353 888 353 1747 
Q 353 2609 779 3096 
Q 1206 3584 1959 3584 
z
" id="DejaVuSans-6f" transform="scale(0.015625)"/>
       <path d="M 544 1381 
L 544 3500 
L 1119 3500 
L 1119 1403 
Q 1119 906 1312 657 
Q 1506 409 1894 409 
Q 2359 409 2629 706 
Q 2900 1003 2900 1516 
L 2900 3500 
L 3475 3500 
L 3475 0 
L 2900 0 
L 2900 538 
Q 2691 219 2414 64 
Q 2138 -91 1772 -91 
Q 1169 -91 856 284 
Q 544 659 544 1381 
z
M 1991 3584 
L 1991 3584 
z
" id="DejaVuSans-75" transform="scale(0.015625)"/>
       <path d="M 3513 2113 
L 3513 0 
L 2938 0 
L 2938 2094 
Q 2938 2591 2744 2837 
Q 2550 3084 2163 3084 
Q 1697 3084 1428 2787 
Q 1159 2491 1159 1978 
L 1159 0 
L 581 0 
L 581 3500 
L 1159 3500 
L 1159 2956 
Q 1366 3272 1645 3428 
Q 1925 3584 2291 3584 
Q 2894 3584 3203 3211 
Q 3513 2838 3513 2113 
z
" id="DejaVuSans-6e" transform="scale(0.015625)"/>
       <path d="M 1172 4494 
L 1172 3500 
L 2356 3500 
L 2356 3053 
L 1172 3053 
L 1172 1153 
Q 1172 725 1289 603 
Q 1406 481 1766 481 
L 2356 481 
L 2356 0 
L 1766 0 
Q 1100 0 847 248 
Q 594 497 594 1153 
L 594 3053 
L 172 3053 
L 172 3500 
L 594 3500 
L 594 4494 
L 1172 4494 
z
" id="DejaVuSans-74" transform="scale(0.015625)"/>
      </defs>
      <use xlink:href="#DejaVuSans-43"/>
      <use x="69.824219" xlink:href="#DejaVuSans-6f"/>
      <use x="131.005859" xlink:href="#DejaVuSans-75"/>
      <use x="194.384766" xlink:href="#DejaVuSans-6e"/>
      <use x="257.763672" xlink:href="#DejaVuSans-74"/>
     </g>
    </g>
   </g>
   <g id="patch_37">
    <path d="M 44.203125 365.84375 
L 44.203125 10.8 
" style="fill:none;stroke:#000000;stroke-linecap:square;stroke-linejoin:miter;stroke-width:0.8;"/>
   </g>
   <g id="patch_38">
    <path d="M 551.2 365.84375 
L 551.2 10.8 
" style="fill:none;stroke:#000000;stroke-linecap:square;stroke-linejoin:miter;stroke-width:0.8;"/>
   </g>
   <g id="patch_39">
    <path d="M 44.203125 365.84375 
L 551.2 365.84375 
" style="fill:none;stroke:#000000;stroke-linecap:square;stroke-linejoin:miter;stroke-width:0.8;"/>
   </g>
   <g id="patch_40">
    <path d="M 44.203125 10.8 
L 551.2 10.8 
" style="fill:none;stroke:#000000;stroke-linecap:square;stroke-linejoin:miter;stroke-width:0.8;"/>
   </g>
  </g>
 </g>
 <defs>
  <clipPath id="pceb63e6625">
   <rect height="355.04375" width="506.996875" x="44.203125" y="10.8"/>
  </clipPath>
 </defs>
</svg>
