<?xml version="1.0" encoding="utf-8" standalone="no"?>
<!DOCTYPE svg PUBLIC "-//W3C//DTD SVG 1.1//EN"
  "http://www.w3.org/Graphics/SVG/1.1/DTD/svg11.dtd">
<svg height="408pt" version="1.1" viewBox="0 0 276 408" width="276pt" xmlns="http://www.w3.org/2000/svg" xmlns:xlink="http://www.w3.org/1999/xlink">
 <metadata>
  <rdf:RDF xmlns:cc="http://creativecommons.org/ns#" xmlns:dc="http://purl.org/dc/elements/1.1/" xmlns:rdf="http://www.w3.org/1999/02/22-rdf-syntax-ns#">
   <cc:Work>
    <dc:type rdf:resource="http://purl.org/dc/dcmitype/StillImage"/>
    <dc:date>2025-01-16T13:43:01.794441</dc:date>
    <dc:format>image/svg+xml</dc:format>
    <dc:creator>
     <cc:Agent>
      <dc:title>Matplotlib v3.4.3, https://matplotlib.org/</dc:title>
     </cc:Agent>
    </dc:creator>
   </cc:Work>
  </rdf:RDF>
 </metadata>
 <defs>
  <style type="text/css">*{stroke-linecap:butt;stroke-linejoin:round;}</style>
 </defs>
 <g id="figure_1">
  <g id="patch_1">
   <path d="M 0 408 
L 276 408 
L 276 0 
L 0 0 
z
" style="fill:#ffffff;"/>
  </g>
  <g id="axes_1">
   <g id="patch_2">
    <path d="M 30.525 380.521875 
L 265.2 380.521875 
L 265.2 10.8 
L 30.525 10.8 
z
" style="fill:#ffffff;"/>
   </g>
   <g id="PathCollection_1">
    <defs>
     <path d="M 0 3 
C 0.795609 3 1.55874 2.683901 2.12132 2.12132 
C 2.683901 1.55874 3 0.795609 3 0 
C 3 -0.795609 2.683901 -1.55874 2.12132 -2.12132 
C 1.55874 -2.683901 0.795609 -3 0 -3 
C -0.795609 -3 -1.55874 -2.683901 -2.12132 -2.12132 
C -2.683901 -1.55874 -3 -0.795609 -3 0 
C -3 0.795609 -2.683901 1.55874 -2.12132 2.12132 
C -1.55874 2.683901 -0.795609 3 0 3 
z
" id="mdb92bb845b" style="stroke:#1f77b4;"/>
    </defs>
    <g clip-path="url(#p1ea1426e3d)">
     <use style="fill:#1f77b4;stroke:#1f77b4;" x="46.31979" xlink:href="#mdb92bb845b" y="330.761997"/>
     <use style="fill:#1f77b4;stroke:#1f77b4;" x="41.742345" xlink:href="#mdb92bb845b" y="75.922933"/>
     <use style="fill:#1f77b4;stroke:#1f77b4;" x="46.553326" xlink:href="#mdb92bb845b" y="108.150164"/>
     <use style="fill:#1f77b4;stroke:#1f77b4;" x="43.169482" xlink:href="#mdb92bb845b" y="339.338725"/>
     <use style="fill:#1f77b4;stroke:#1f77b4;" x="47.680918" xlink:href="#mdb92bb845b" y="84.546571"/>
     <use style="fill:#1f77b4;stroke:#1f77b4;" x="44.466161" xlink:href="#mdb92bb845b" y="38.30104"/>
     <use style="fill:#1f77b4;stroke:#1f77b4;" x="42.486541" xlink:href="#mdb92bb845b" y="49.293638"/>
     <use style="fill:#1f77b4;stroke:#1f77b4;" x="41.274405" xlink:href="#mdb92bb845b" y="82.083791"/>
     <use style="fill:#1f77b4;stroke:#1f77b4;" x="65.503466" xlink:href="#mdb92bb845b" y="172.565536"/>
     <use style="fill:#1f77b4;stroke:#1f77b4;" x="42.841295" xlink:href="#mdb92bb845b" y="52.327157"/>
     <use style="fill:#1f77b4;stroke:#1f77b4;" x="42.466886" xlink:href="#mdb92bb845b" y="229.905303"/>
     <use style="fill:#1f77b4;stroke:#1f77b4;" x="42.635302" xlink:href="#mdb92bb845b" y="160.900561"/>
     <use style="fill:#1f77b4;stroke:#1f77b4;" x="41.896333" xlink:href="#mdb92bb845b" y="88.205558"/>
     <use style="fill:#1f77b4;stroke:#1f77b4;" x="41.424976" xlink:href="#mdb92bb845b" y="276.815393"/>
     <use style="fill:#1f77b4;stroke:#1f77b4;" x="71.904956" xlink:href="#mdb92bb845b" y="107.454331"/>
     <use style="fill:#1f77b4;stroke:#1f77b4;" x="42.344648" xlink:href="#mdb92bb845b" y="102.646047"/>
     <use style="fill:#1f77b4;stroke:#1f77b4;" x="43.477843" xlink:href="#mdb92bb845b" y="264.564041"/>
     <use style="fill:#1f77b4;stroke:#1f77b4;" x="42.517401" xlink:href="#mdb92bb845b" y="285.790857"/>
     <use style="fill:#1f77b4;stroke:#1f77b4;" x="43.446397" xlink:href="#mdb92bb845b" y="206.48935"/>
     <use style="fill:#1f77b4;stroke:#1f77b4;" x="44.02315" xlink:href="#mdb92bb845b" y="279.145261"/>
     <use style="fill:#1f77b4;stroke:#1f77b4;" x="46.562537" xlink:href="#mdb92bb845b" y="42.851319"/>
     <use style="fill:#1f77b4;stroke:#1f77b4;" x="41.866696" xlink:href="#mdb92bb845b" y="323.623845"/>
     <use style="fill:#1f77b4;stroke:#1f77b4;" x="42.816471" xlink:href="#mdb92bb845b" y="277.417406"/>
     <use style="fill:#1f77b4;stroke:#1f77b4;" x="43.79475" xlink:href="#mdb92bb845b" y="59.269851"/>
     <use style="fill:#1f77b4;stroke:#1f77b4;" x="254.532955" xlink:href="#mdb92bb845b" y="102.990055"/>
     <use style="fill:#1f77b4;stroke:#1f77b4;" x="48.316114" xlink:href="#mdb92bb845b" y="103.552976"/>
     <use style="fill:#1f77b4;stroke:#1f77b4;" x="41.274791" xlink:href="#mdb92bb845b" y="164.043537"/>
     <use style="fill:#1f77b4;stroke:#1f77b4;" x="51.613629" xlink:href="#mdb92bb845b" y="310.168467"/>
     <use style="fill:#1f77b4;stroke:#1f77b4;" x="41.77472" xlink:href="#mdb92bb845b" y="240.897901"/>
     <use style="fill:#1f77b4;stroke:#1f77b4;" x="41.828647" xlink:href="#mdb92bb845b" y="57.479449"/>
     <use style="fill:#1f77b4;stroke:#1f77b4;" x="44.074462" xlink:href="#mdb92bb845b" y="295.579429"/>
     <use style="fill:#1f77b4;stroke:#1f77b4;" x="41.886805" xlink:href="#mdb92bb845b" y="81.200318"/>
     <use style="fill:#1f77b4;stroke:#1f77b4;" x="43.007109" xlink:href="#mdb92bb845b" y="61.458988"/>
     <use style="fill:#1f77b4;stroke:#1f77b4;" x="42.814843" xlink:href="#mdb92bb845b" y="75.430377"/>
     <use style="fill:#1f77b4;stroke:#1f77b4;" x="42.044536" xlink:href="#mdb92bb845b" y="60.997706"/>
     <use style="fill:#1f77b4;stroke:#1f77b4;" x="41.240069" xlink:href="#mdb92bb845b" y="245.049444"/>
     <use style="fill:#1f77b4;stroke:#1f77b4;" x="42.667739" xlink:href="#mdb92bb845b" y="108.666175"/>
     <use style="fill:#1f77b4;stroke:#1f77b4;" x="43.385528" xlink:href="#mdb92bb845b" y="87.095352"/>
     <use style="fill:#1f77b4;stroke:#1f77b4;" x="54.147181" xlink:href="#mdb92bb845b" y="115.679234"/>
     <use style="fill:#1f77b4;stroke:#1f77b4;" x="42.282648" xlink:href="#mdb92bb845b" y="111.457326"/>
     <use style="fill:#1f77b4;stroke:#1f77b4;" x="41.248941" xlink:href="#mdb92bb845b" y="270.161979"/>
     <use style="fill:#1f77b4;stroke:#1f77b4;" x="41.953676" xlink:href="#mdb92bb845b" y="219.64763"/>
     <use style="fill:#1f77b4;stroke:#1f77b4;" x="53.539972" xlink:href="#mdb92bb845b" y="259.466478"/>
     <use style="fill:#1f77b4;stroke:#1f77b4;" x="42.007376" xlink:href="#mdb92bb845b" y="53.327906"/>
     <use style="fill:#1f77b4;stroke:#1f77b4;" x="51.043606" xlink:href="#mdb92bb845b" y="42.820046"/>
     <use style="fill:#1f77b4;stroke:#1f77b4;" x="41.395161" xlink:href="#mdb92bb845b" y="229.850575"/>
     <use style="fill:#1f77b4;stroke:#1f77b4;" x="41.432942" xlink:href="#mdb92bb845b" y="208.639396"/>
     <use style="fill:#1f77b4;stroke:#1f77b4;" x="54.492875" xlink:href="#mdb92bb845b" y="52.600799"/>
     <use style="fill:#1f77b4;stroke:#1f77b4;" x="44.860836" xlink:href="#mdb92bb845b" y="204.151664"/>
     <use style="fill:#1f77b4;stroke:#1f77b4;" x="42.892113" xlink:href="#mdb92bb845b" y="51.998787"/>
     <use style="fill:#1f77b4;stroke:#1f77b4;" x="43.19415" xlink:href="#mdb92bb845b" y="124.115232"/>
     <use style="fill:#1f77b4;stroke:#1f77b4;" x="42.769386" xlink:href="#mdb92bb845b" y="235.542332"/>
     <use style="fill:#1f77b4;stroke:#1f77b4;" x="41.39794" xlink:href="#mdb92bb845b" y="310.747025"/>
     <use style="fill:#1f77b4;stroke:#1f77b4;" x="42.535574" xlink:href="#mdb92bb845b" y="197.16206"/>
     <use style="fill:#1f77b4;stroke:#1f77b4;" x="42.370683" xlink:href="#mdb92bb845b" y="124.592151"/>
     <use style="fill:#1f77b4;stroke:#1f77b4;" x="42.289237" xlink:href="#mdb92bb845b" y="30.693787"/>
     <use style="fill:#1f77b4;stroke:#1f77b4;" x="42.770728" xlink:href="#mdb92bb845b" y="100.042537"/>
     <use style="fill:#1f77b4;stroke:#1f77b4;" x="41.208607" xlink:href="#mdb92bb845b" y="34.219862"/>
     <use style="fill:#1f77b4;stroke:#1f77b4;" x="220.830533" xlink:href="#mdb92bb845b" y="167.593067"/>
     <use style="fill:#1f77b4;stroke:#1f77b4;" x="77.331399" xlink:href="#mdb92bb845b" y="121.058258"/>
     <use style="fill:#1f77b4;stroke:#1f77b4;" x="52.397881" xlink:href="#mdb92bb845b" y="118.603296"/>
     <use style="fill:#1f77b4;stroke:#1f77b4;" x="45.609408" xlink:href="#mdb92bb845b" y="207.881016"/>
     <use style="fill:#1f77b4;stroke:#1f77b4;" x="41.824634" xlink:href="#mdb92bb845b" y="56.674159"/>
     <use style="fill:#1f77b4;stroke:#1f77b4;" x="42.199639" xlink:href="#mdb92bb845b" y="42.132031"/>
     <use style="fill:#1f77b4;stroke:#1f77b4;" x="50.568508" xlink:href="#mdb92bb845b" y="43.687882"/>
     <use style="fill:#1f77b4;stroke:#1f77b4;" x="41.609599" xlink:href="#mdb92bb845b" y="106.070484"/>
     <use style="fill:#1f77b4;stroke:#1f77b4;" x="61.785063" xlink:href="#mdb92bb845b" y="27.60554"/>
     <use style="fill:#1f77b4;stroke:#1f77b4;" x="42.139206" xlink:href="#mdb92bb845b" y="106.320671"/>
     <use style="fill:#1f77b4;stroke:#1f77b4;" x="46.921756" xlink:href="#mdb92bb845b" y="250.373739"/>
     <use style="fill:#1f77b4;stroke:#1f77b4;" x="44.930153" xlink:href="#mdb92bb845b" y="147.27318"/>
     <use style="fill:#1f77b4;stroke:#1f77b4;" x="49.095581" xlink:href="#mdb92bb845b" y="58.722566"/>
     <use style="fill:#1f77b4;stroke:#1f77b4;" x="41.565171" xlink:href="#mdb92bb845b" y="66.814557"/>
     <use style="fill:#1f77b4;stroke:#1f77b4;" x="41.794245" xlink:href="#mdb92bb845b" y="110.558216"/>
     <use style="fill:#1f77b4;stroke:#1f77b4;" x="41.485414" xlink:href="#mdb92bb845b" y="340.425476"/>
     <use style="fill:#1f77b4;stroke:#1f77b4;" x="41.676557" xlink:href="#mdb92bb845b" y="316.298053"/>
     <use style="fill:#1f77b4;stroke:#1f77b4;" x="42.136572" xlink:href="#mdb92bb845b" y="95.242071"/>
     <use style="fill:#1f77b4;stroke:#1f77b4;" x="44.261228" xlink:href="#mdb92bb845b" y="208.678487"/>
     <use style="fill:#1f77b4;stroke:#1f77b4;" x="43.316177" xlink:href="#mdb92bb845b" y="295.774888"/>
     <use style="fill:#1f77b4;stroke:#1f77b4;" x="45.17603" xlink:href="#mdb92bb845b" y="92.982569"/>
     <use style="fill:#1f77b4;stroke:#1f77b4;" x="43.10659" xlink:href="#mdb92bb845b" y="247.582589"/>
     <use style="fill:#1f77b4;stroke:#1f77b4;" x="41.688874" xlink:href="#mdb92bb845b" y="171.768065"/>
     <use style="fill:#1f77b4;stroke:#1f77b4;" x="41.362154" xlink:href="#mdb92bb845b" y="104.24099"/>
     <use style="fill:#1f77b4;stroke:#1f77b4;" x="58.748403" xlink:href="#mdb92bb845b" y="77.705516"/>
     <use style="fill:#1f77b4;stroke:#1f77b4;" x="41.624808" xlink:href="#mdb92bb845b" y="151.135444"/>
     <use style="fill:#1f77b4;stroke:#1f77b4;" x="41.270548" xlink:href="#mdb92bb845b" y="90.621427"/>
     <use style="fill:#1f77b4;stroke:#1f77b4;" x="46.621926" xlink:href="#mdb92bb845b" y="117.039627"/>
     <use style="fill:#1f77b4;stroke:#1f77b4;" x="44.388085" xlink:href="#mdb92bb845b" y="344.412833"/>
     <use style="fill:#1f77b4;stroke:#1f77b4;" x="48.888013" xlink:href="#mdb92bb845b" y="188.147505"/>
     <use style="fill:#1f77b4;stroke:#1f77b4;" x="41.49228" xlink:href="#mdb92bb845b" y="259.787031"/>
     <use style="fill:#1f77b4;stroke:#1f77b4;" x="45.836287" xlink:href="#mdb92bb845b" y="174.731219"/>
     <use style="fill:#1f77b4;stroke:#1f77b4;" x="43.841006" xlink:href="#mdb92bb845b" y="49.817467"/>
     <use style="fill:#1f77b4;stroke:#1f77b4;" x="41.825716" xlink:href="#mdb92bb845b" y="46.361757"/>
     <use style="fill:#1f77b4;stroke:#1f77b4;" x="42.078069" xlink:href="#mdb92bb845b" y="103.474792"/>
     <use style="fill:#1f77b4;stroke:#1f77b4;" x="43.246242" xlink:href="#mdb92bb845b" y="228.818553"/>
     <use style="fill:#1f77b4;stroke:#1f77b4;" x="63.008847" xlink:href="#mdb92bb845b" y="307.064583"/>
     <use style="fill:#1f77b4;stroke:#1f77b4;" x="41.908587" xlink:href="#mdb92bb845b" y="46.424304"/>
     <use style="fill:#1f77b4;stroke:#1f77b4;" x="41.678329" xlink:href="#mdb92bb845b" y="82.044699"/>
     <use style="fill:#1f77b4;stroke:#1f77b4;" x="68.549057" xlink:href="#mdb92bb845b" y="161.455663"/>
     <use style="fill:#1f77b4;stroke:#1f77b4;" x="41.684361" xlink:href="#mdb92bb845b" y="82.849989"/>
     <use style="fill:#1f77b4;stroke:#1f77b4;" x="42.238548" xlink:href="#mdb92bb845b" y="112.442438"/>
     <use style="fill:#1f77b4;stroke:#1f77b4;" x="45.799551" xlink:href="#mdb92bb845b" y="115.030311"/>
     <use style="fill:#1f77b4;stroke:#1f77b4;" x="55.896767" xlink:href="#mdb92bb845b" y="112.942812"/>
     <use style="fill:#1f77b4;stroke:#1f77b4;" x="47.392304" xlink:href="#mdb92bb845b" y="82.646712"/>
     <use style="fill:#1f77b4;stroke:#1f77b4;" x="42.881846" xlink:href="#mdb92bb845b" y="62.827199"/>
     <use style="fill:#1f77b4;stroke:#1f77b4;" x="41.797678" xlink:href="#mdb92bb845b" y="57.760909"/>
     <use style="fill:#1f77b4;stroke:#1f77b4;" x="41.28889" xlink:href="#mdb92bb845b" y="75.774384"/>
     <use style="fill:#1f77b4;stroke:#1f77b4;" x="44.764191" xlink:href="#mdb92bb845b" y="106.781953"/>
     <use style="fill:#1f77b4;stroke:#1f77b4;" x="42.593464" xlink:href="#mdb92bb845b" y="311.888504"/>
     <use style="fill:#1f77b4;stroke:#1f77b4;" x="41.192045" xlink:href="#mdb92bb845b" y="161.103838"/>
     <use style="fill:#1f77b4;stroke:#1f77b4;" x="45.625815" xlink:href="#mdb92bb845b" y="104.428631"/>
     <use style="fill:#1f77b4;stroke:#1f77b4;" x="43.144728" xlink:href="#mdb92bb845b" y="180.383885"/>
     <use style="fill:#1f77b4;stroke:#1f77b4;" x="42.802144" xlink:href="#mdb92bb845b" y="94.851154"/>
     <use style="fill:#1f77b4;stroke:#1f77b4;" x="42.15399" xlink:href="#mdb92bb845b" y="340.613116"/>
     <use style="fill:#1f77b4;stroke:#1f77b4;" x="41.896464" xlink:href="#mdb92bb845b" y="48.175614"/>
     <use style="fill:#1f77b4;stroke:#1f77b4;" x="42.0412" xlink:href="#mdb92bb845b" y="89.683226"/>
     <use style="fill:#1f77b4;stroke:#1f77b4;" x="41.484864" xlink:href="#mdb92bb845b" y="64.171955"/>
     <use style="fill:#1f77b4;stroke:#1f77b4;" x="42.635241" xlink:href="#mdb92bb845b" y="296.90073"/>
     <use style="fill:#1f77b4;stroke:#1f77b4;" x="48.278943" xlink:href="#mdb92bb845b" y="287.675079"/>
     <use style="fill:#1f77b4;stroke:#1f77b4;" x="47.704585" xlink:href="#mdb92bb845b" y="40.599635"/>
     <use style="fill:#1f77b4;stroke:#1f77b4;" x="44.45711" xlink:href="#mdb92bb845b" y="107.407421"/>
     <use style="fill:#1f77b4;stroke:#1f77b4;" x="48.003078" xlink:href="#mdb92bb845b" y="215.613362"/>
     <use style="fill:#1f77b4;stroke:#1f77b4;" x="41.343091" xlink:href="#mdb92bb845b" y="363.716335"/>
     <use style="fill:#1f77b4;stroke:#1f77b4;" x="42.621052" xlink:href="#mdb92bb845b" y="41.045281"/>
     <use style="fill:#1f77b4;stroke:#1f77b4;" x="42.382155" xlink:href="#mdb92bb845b" y="34.65769"/>
     <use style="fill:#1f77b4;stroke:#1f77b4;" x="44.285029" xlink:href="#mdb92bb845b" y="93.748767"/>
     <use style="fill:#1f77b4;stroke:#1f77b4;" x="44.909533" xlink:href="#mdb92bb845b" y="60.466058"/>
     <use style="fill:#1f77b4;stroke:#1f77b4;" x="47.331043" xlink:href="#mdb92bb845b" y="262.828368"/>
     <use style="fill:#1f77b4;stroke:#1f77b4;" x="51.688286" xlink:href="#mdb92bb845b" y="121.324081"/>
     <use style="fill:#1f77b4;stroke:#1f77b4;" x="42.082312" xlink:href="#mdb92bb845b" y="216.676658"/>
     <use style="fill:#1f77b4;stroke:#1f77b4;" x="41.330719" xlink:href="#mdb92bb845b" y="127.555305"/>
     <use style="fill:#1f77b4;stroke:#1f77b4;" x="42.822514" xlink:href="#mdb92bb845b" y="95.468803"/>
     <use style="fill:#1f77b4;stroke:#1f77b4;" x="52.673776" xlink:href="#mdb92bb845b" y="112.246979"/>
     <use style="fill:#1f77b4;stroke:#1f77b4;" x="45.87975" xlink:href="#mdb92bb845b" y="270.451258"/>
     <use style="fill:#1f77b4;stroke:#1f77b4;" x="50.993821" xlink:href="#mdb92bb845b" y="52.452251"/>
     <use style="fill:#1f77b4;stroke:#1f77b4;" x="89.886542" xlink:href="#mdb92bb845b" y="61.701357"/>
     <use style="fill:#1f77b4;stroke:#1f77b4;" x="41.717584" xlink:href="#mdb92bb845b" y="76.227848"/>
     <use style="fill:#1f77b4;stroke:#1f77b4;" x="45.380454" xlink:href="#mdb92bb845b" y="96.844833"/>
     <use style="fill:#1f77b4;stroke:#1f77b4;" x="54.955866" xlink:href="#mdb92bb845b" y="92.920022"/>
     <use style="fill:#1f77b4;stroke:#1f77b4;" x="41.809949" xlink:href="#mdb92bb845b" y="99.385796"/>
     <use style="fill:#1f77b4;stroke:#1f77b4;" x="44.753785" xlink:href="#mdb92bb845b" y="183.229764"/>
     <use style="fill:#1f77b4;stroke:#1f77b4;" x="43.060352" xlink:href="#mdb92bb845b" y="342.051692"/>
     <use style="fill:#1f77b4;stroke:#1f77b4;" x="43.151791" xlink:href="#mdb92bb845b" y="333.428054"/>
    </g>
   </g>
   <g id="matplotlib.axis_1">
    <g id="xtick_1">
     <g id="line2d_1">
      <defs>
       <path d="M 0 0 
L 0 3.5 
" id="m2cd43128f3" style="stroke:#000000;stroke-width:0.8;"/>
      </defs>
      <g>
       <use style="stroke:#000000;stroke-width:0.8;" x="41.159752" xlink:href="#m2cd43128f3" y="380.521875"/>
      </g>
     </g>
     <g id="text_1">
      <!-- 0 -->
      <g transform="translate(37.978502 395.120313)scale(0.1 -0.1)">
       <defs>
        <path d="M 2034 4250 
Q 1547 4250 1301 3770 
Q 1056 3291 1056 2328 
Q 1056 1369 1301 889 
Q 1547 409 2034 409 
Q 2525 409 2770 889 
Q 3016 1369 3016 2328 
Q 3016 3291 2770 3770 
Q 2525 4250 2034 4250 
z
M 2034 4750 
Q 2819 4750 3233 4129 
Q 3647 3509 3647 2328 
Q 3647 1150 3233 529 
Q 2819 -91 2034 -91 
Q 1250 -91 836 529 
Q 422 1150 422 2328 
Q 422 3509 836 4129 
Q 1250 4750 2034 4750 
z
" id="DejaVuSans-30" transform="scale(0.015625)"/>
       </defs>
       <use xlink:href="#DejaVuSans-30"/>
      </g>
     </g>
    </g>
    <g id="xtick_2">
     <g id="line2d_2">
      <g>
       <use style="stroke:#000000;stroke-width:0.8;" x="81.6117" xlink:href="#m2cd43128f3" y="380.521875"/>
      </g>
     </g>
     <g id="text_2">
      <!-- 250 -->
      <g transform="translate(72.06795 395.120313)scale(0.1 -0.1)">
       <defs>
        <path d="M 1228 531 
L 3431 531 
L 3431 0 
L 469 0 
L 469 531 
Q 828 903 1448 1529 
Q 2069 2156 2228 2338 
Q 2531 2678 2651 2914 
Q 2772 3150 2772 3378 
Q 2772 3750 2511 3984 
Q 2250 4219 1831 4219 
Q 1534 4219 1204 4116 
Q 875 4013 500 3803 
L 500 4441 
Q 881 4594 1212 4672 
Q 1544 4750 1819 4750 
Q 2544 4750 2975 4387 
Q 3406 4025 3406 3419 
Q 3406 3131 3298 2873 
Q 3191 2616 2906 2266 
Q 2828 2175 2409 1742 
Q 1991 1309 1228 531 
z
" id="DejaVuSans-32" transform="scale(0.015625)"/>
        <path d="M 691 4666 
L 3169 4666 
L 3169 4134 
L 1269 4134 
L 1269 2991 
Q 1406 3038 1543 3061 
Q 1681 3084 1819 3084 
Q 2600 3084 3056 2656 
Q 3513 2228 3513 1497 
Q 3513 744 3044 326 
Q 2575 -91 1722 -91 
Q 1428 -91 1123 -41 
Q 819 9 494 109 
L 494 744 
Q 775 591 1075 516 
Q 1375 441 1709 441 
Q 2250 441 2565 725 
Q 2881 1009 2881 1497 
Q 2881 1984 2565 2268 
Q 2250 2553 1709 2553 
Q 1456 2553 1204 2497 
Q 953 2441 691 2322 
L 691 4666 
z
" id="DejaVuSans-35" transform="scale(0.015625)"/>
       </defs>
       <use xlink:href="#DejaVuSans-32"/>
       <use x="63.623047" xlink:href="#DejaVuSans-35"/>
       <use x="127.246094" xlink:href="#DejaVuSans-30"/>
      </g>
     </g>
    </g>
    <g id="xtick_3">
     <g id="line2d_3">
      <g>
       <use style="stroke:#000000;stroke-width:0.8;" x="122.063649" xlink:href="#m2cd43128f3" y="380.521875"/>
      </g>
     </g>
     <g id="text_3">
      <!-- 500 -->
      <g transform="translate(112.519899 395.120313)scale(0.1 -0.1)">
       <use xlink:href="#DejaVuSans-35"/>
       <use x="63.623047" xlink:href="#DejaVuSans-30"/>
       <use x="127.246094" xlink:href="#DejaVuSans-30"/>
      </g>
     </g>
    </g>
    <g id="xtick_4">
     <g id="line2d_4">
      <g>
       <use style="stroke:#000000;stroke-width:0.8;" x="162.515597" xlink:href="#m2cd43128f3" y="380.521875"/>
      </g>
     </g>
     <g id="text_4">
      <!-- 750 -->
      <g transform="translate(152.971847 395.120313)scale(0.1 -0.1)">
       <defs>
        <path d="M 525 4666 
L 3525 4666 
L 3525 4397 
L 1831 0 
L 1172 0 
L 2766 4134 
L 525 4134 
L 525 4666 
z
" id="DejaVuSans-37" transform="scale(0.015625)"/>
       </defs>
       <use xlink:href="#DejaVuSans-37"/>
       <use x="63.623047" xlink:href="#DejaVuSans-35"/>
       <use x="127.246094" xlink:href="#DejaVuSans-30"/>
      </g>
     </g>
    </g>
    <g id="xtick_5">
     <g id="line2d_5">
      <g>
       <use style="stroke:#000000;stroke-width:0.8;" x="202.967546" xlink:href="#m2cd43128f3" y="380.521875"/>
      </g>
     </g>
     <g id="text_5">
      <!-- 1000 -->
      <g transform="translate(190.242546 395.120313)scale(0.1 -0.1)">
       <defs>
        <path d="M 794 531 
L 1825 531 
L 1825 4091 
L 703 3866 
L 703 4441 
L 1819 4666 
L 2450 4666 
L 2450 531 
L 3481 531 
L 3481 0 
L 794 0 
L 794 531 
z
" id="DejaVuSans-31" transform="scale(0.015625)"/>
       </defs>
       <use xlink:href="#DejaVuSans-31"/>
       <use x="63.623047" xlink:href="#DejaVuSans-30"/>
       <use x="127.246094" xlink:href="#DejaVuSans-30"/>
       <use x="190.869141" xlink:href="#DejaVuSans-30"/>
      </g>
     </g>
    </g>
    <g id="xtick_6">
     <g id="line2d_6">
      <g>
       <use style="stroke:#000000;stroke-width:0.8;" x="243.419494" xlink:href="#m2cd43128f3" y="380.521875"/>
      </g>
     </g>
     <g id="text_6">
      <!-- 1250 -->
      <g transform="translate(230.694494 395.120313)scale(0.1 -0.1)">
       <use xlink:href="#DejaVuSans-31"/>
       <use x="63.623047" xlink:href="#DejaVuSans-32"/>
       <use x="127.246094" xlink:href="#DejaVuSans-35"/>
       <use x="190.869141" xlink:href="#DejaVuSans-30"/>
      </g>
     </g>
    </g>
   </g>
   <g id="matplotlib.axis_2">
    <g id="ytick_1">
     <g id="line2d_7">
      <defs>
       <path d="M 0 0 
L -3.5 0 
" id="m26bd9c1316" style="stroke:#000000;stroke-width:0.8;"/>
      </defs>
      <g>
       <use style="stroke:#000000;stroke-width:0.8;" x="30.525" xlink:href="#m26bd9c1316" y="360.690634"/>
      </g>
     </g>
     <g id="text_7">
      <!-- 40 -->
      <g transform="translate(10.8 364.489853)scale(0.1 -0.1)">
       <defs>
        <path d="M 2419 4116 
L 825 1625 
L 2419 1625 
L 2419 4116 
z
M 2253 4666 
L 3047 4666 
L 3047 1625 
L 3713 1625 
L 3713 1100 
L 3047 1100 
L 3047 0 
L 2419 0 
L 2419 1100 
L 313 1100 
L 313 1709 
L 2253 4666 
z
" id="DejaVuSans-34" transform="scale(0.015625)"/>
       </defs>
       <use xlink:href="#DejaVuSans-34"/>
       <use x="63.623047" xlink:href="#DejaVuSans-30"/>
      </g>
     </g>
    </g>
    <g id="ytick_2">
     <g id="line2d_8">
      <g>
       <use style="stroke:#000000;stroke-width:0.8;" x="30.525" xlink:href="#m26bd9c1316" y="282.507151"/>
      </g>
     </g>
     <g id="text_8">
      <!-- 50 -->
      <g transform="translate(10.8 286.30637)scale(0.1 -0.1)">
       <use xlink:href="#DejaVuSans-35"/>
       <use x="63.623047" xlink:href="#DejaVuSans-30"/>
      </g>
     </g>
    </g>
    <g id="ytick_3">
     <g id="line2d_9">
      <g>
       <use style="stroke:#000000;stroke-width:0.8;" x="30.525" xlink:href="#m26bd9c1316" y="204.323667"/>
      </g>
     </g>
     <g id="text_9">
      <!-- 60 -->
      <g transform="translate(10.8 208.122886)scale(0.1 -0.1)">
       <defs>
        <path d="M 2113 2584 
Q 1688 2584 1439 2293 
Q 1191 2003 1191 1497 
Q 1191 994 1439 701 
Q 1688 409 2113 409 
Q 2538 409 2786 701 
Q 3034 994 3034 1497 
Q 3034 2003 2786 2293 
Q 2538 2584 2113 2584 
z
M 3366 4563 
L 3366 3988 
Q 3128 4100 2886 4159 
Q 2644 4219 2406 4219 
Q 1781 4219 1451 3797 
Q 1122 3375 1075 2522 
Q 1259 2794 1537 2939 
Q 1816 3084 2150 3084 
Q 2853 3084 3261 2657 
Q 3669 2231 3669 1497 
Q 3669 778 3244 343 
Q 2819 -91 2113 -91 
Q 1303 -91 875 529 
Q 447 1150 447 2328 
Q 447 3434 972 4092 
Q 1497 4750 2381 4750 
Q 2619 4750 2861 4703 
Q 3103 4656 3366 4563 
z
" id="DejaVuSans-36" transform="scale(0.015625)"/>
       </defs>
       <use xlink:href="#DejaVuSans-36"/>
       <use x="63.623047" xlink:href="#DejaVuSans-30"/>
      </g>
     </g>
    </g>
    <g id="ytick_4">
     <g id="line2d_10">
      <g>
       <use style="stroke:#000000;stroke-width:0.8;" x="30.525" xlink:href="#m26bd9c1316" y="126.140184"/>
      </g>
     </g>
     <g id="text_10">
      <!-- 70 -->
      <g transform="translate(10.8 129.939403)scale(0.1 -0.1)">
       <use xlink:href="#DejaVuSans-37"/>
       <use x="63.623047" xlink:href="#DejaVuSans-30"/>
      </g>
     </g>
    </g>
    <g id="ytick_5">
     <g id="line2d_11">
      <g>
       <use style="stroke:#000000;stroke-width:0.8;" x="30.525" xlink:href="#m26bd9c1316" y="47.956701"/>
      </g>
     </g>
     <g id="text_11">
      <!-- 80 -->
      <g transform="translate(10.8 51.755919)scale(0.1 -0.1)">
       <defs>
        <path d="M 2034 2216 
Q 1584 2216 1326 1975 
Q 1069 1734 1069 1313 
Q 1069 891 1326 650 
Q 1584 409 2034 409 
Q 2484 409 2743 651 
Q 3003 894 3003 1313 
Q 3003 1734 2745 1975 
Q 2488 2216 2034 2216 
z
M 1403 2484 
Q 997 2584 770 2862 
Q 544 3141 544 3541 
Q 544 4100 942 4425 
Q 1341 4750 2034 4750 
Q 2731 4750 3128 4425 
Q 3525 4100 3525 3541 
Q 3525 3141 3298 2862 
Q 3072 2584 2669 2484 
Q 3125 2378 3379 2068 
Q 3634 1759 3634 1313 
Q 3634 634 3220 271 
Q 2806 -91 2034 -91 
Q 1263 -91 848 271 
Q 434 634 434 1313 
Q 434 1759 690 2068 
Q 947 2378 1403 2484 
z
M 1172 3481 
Q 1172 3119 1398 2916 
Q 1625 2713 2034 2713 
Q 2441 2713 2670 2916 
Q 2900 3119 2900 3481 
Q 2900 3844 2670 4047 
Q 2441 4250 2034 4250 
Q 1625 4250 1398 4047 
Q 1172 3844 1172 3481 
z
" id="DejaVuSans-38" transform="scale(0.015625)"/>
       </defs>
       <use xlink:href="#DejaVuSans-38"/>
       <use x="63.623047" xlink:href="#DejaVuSans-30"/>
      </g>
     </g>
    </g>
   </g>
   <g id="patch_3">
    <path d="M 30.525 380.521875 
L 30.525 10.8 
" style="fill:none;stroke:#000000;stroke-linecap:square;stroke-linejoin:miter;stroke-width:0.8;"/>
   </g>
   <g id="patch_4">
    <path d="M 265.2 380.521875 
L 265.2 10.8 
" style="fill:none;stroke:#000000;stroke-linecap:square;stroke-linejoin:miter;stroke-width:0.8;"/>
   </g>
   <g id="patch_5">
    <path d="M 30.525 380.521875 
L 265.2 380.521875 
" style="fill:none;stroke:#000000;stroke-linecap:square;stroke-linejoin:miter;stroke-width:0.8;"/>
   </g>
   <g id="patch_6">
    <path d="M 30.525 10.8 
L 265.2 10.8 
" style="fill:none;stroke:#000000;stroke-linecap:square;stroke-linejoin:miter;stroke-width:0.8;"/>
   </g>
  </g>
 </g>
 <defs>
  <clipPath id="p1ea1426e3d">
   <rect height="369.721875" width="234.675" x="30.525" y="10.8"/>
  </clipPath>
 </defs>
</svg>
