<?xml version="1.0" encoding="utf-8" standalone="no"?>
<!DOCTYPE svg PUBLIC "-//W3C//DTD SVG 1.1//EN"
  "http://www.w3.org/Graphics/SVG/1.1/DTD/svg11.dtd">
<svg height="408pt" version="1.1" viewBox="0 0 565 408" width="565pt" xmlns="http://www.w3.org/2000/svg" xmlns:xlink="http://www.w3.org/1999/xlink">
 <metadata>
  <rdf:RDF xmlns:cc="http://creativecommons.org/ns#" xmlns:dc="http://purl.org/dc/elements/1.1/" xmlns:rdf="http://www.w3.org/1999/02/22-rdf-syntax-ns#">
   <cc:Work>
    <dc:type rdf:resource="http://purl.org/dc/dcmitype/StillImage"/>
    <dc:date>2025-03-04T18:58:22.936992</dc:date>
    <dc:format>image/svg+xml</dc:format>
    <dc:creator>
     <cc:Agent>
      <dc:title>Matplotlib v3.4.3, https://matplotlib.org/</dc:title>
     </cc:Agent>
    </dc:creator>
   </cc:Work>
  </rdf:RDF>
 </metadata>
 <defs>
  <style type="text/css">*{stroke-linecap:butt;stroke-linejoin:round;}</style>
 </defs>
 <g id="figure_1">
  <g id="patch_1">
   <path d="M 0 408 
L 565 408 
L 565 0 
L 0 0 
z
" style="fill:#ffffff;"/>
  </g>
  <g id="axes_1">
   <g id="patch_2">
    <path d="M 50.565625 366.84375 
L 554.2 366.84375 
L 554.2 10.8 
L 50.565625 10.8 
z
" style="fill:#ffffff;"/>
   </g>
   <g id="patch_3">
    <path clip-path="url(#pf355a6dea1)" d="M 73.458097 366.84375 
L 79.110559 366.84375 
L 79.110559 307.78436 
L 73.458097 307.78436 
z
" style="fill:#1f77b4;fill-opacity:0.75;stroke:#000000;stroke-linejoin:miter;stroke-width:0.400808;"/>
   </g>
   <g id="patch_4">
    <path clip-path="url(#pf355a6dea1)" d="M 79.110559 366.84375 
L 84.763021 366.84375 
L 84.763021 330.68494 
L 79.110559 330.68494 
z
" style="fill:#1f77b4;fill-opacity:0.75;stroke:#000000;stroke-linejoin:miter;stroke-width:0.400808;"/>
   </g>
   <g id="patch_5">
    <path clip-path="url(#pf355a6dea1)" d="M 84.763021 366.84375 
L 90.415483 366.84375 
L 90.415483 195.692049 
L 84.763021 195.692049 
z
" style="fill:#1f77b4;fill-opacity:0.75;stroke:#000000;stroke-linejoin:miter;stroke-width:0.400808;"/>
   </g>
   <g id="patch_6">
    <path clip-path="url(#pf355a6dea1)" d="M 90.415483 366.84375 
L 96.067945 366.84375 
L 96.067945 61.502687 
L 90.415483 61.502687 
z
" style="fill:#1f77b4;fill-opacity:0.75;stroke:#000000;stroke-linejoin:miter;stroke-width:0.400808;"/>
   </g>
   <g id="patch_7">
    <path clip-path="url(#pf355a6dea1)" d="M 96.067945 366.84375 
L 101.720407 366.84375 
L 101.720407 27.754464 
L 96.067945 27.754464 
z
" style="fill:#1f77b4;fill-opacity:0.75;stroke:#000000;stroke-linejoin:miter;stroke-width:0.400808;"/>
   </g>
   <g id="patch_8">
    <path clip-path="url(#pf355a6dea1)" d="M 101.720407 366.84375 
L 107.372869 366.84375 
L 107.372869 141.453834 
L 101.720407 141.453834 
z
" style="fill:#1f77b4;fill-opacity:0.75;stroke:#000000;stroke-linejoin:miter;stroke-width:0.400808;"/>
   </g>
   <g id="patch_9">
    <path clip-path="url(#pf355a6dea1)" d="M 107.372869 366.84375 
L 113.025331 366.84375 
L 113.025331 153.105006 
L 107.372869 153.105006 
z
" style="fill:#1f77b4;fill-opacity:0.75;stroke:#000000;stroke-linejoin:miter;stroke-width:0.400808;"/>
   </g>
   <g id="patch_10">
    <path clip-path="url(#pf355a6dea1)" d="M 113.025331 366.84375 
L 118.677794 366.84375 
L 118.677794 149.489125 
L 113.025331 149.489125 
z
" style="fill:#1f77b4;fill-opacity:0.75;stroke:#000000;stroke-linejoin:miter;stroke-width:0.400808;"/>
   </g>
   <g id="patch_11">
    <path clip-path="url(#pf355a6dea1)" d="M 118.677794 366.84375 
L 124.330256 366.84375 
L 124.330256 116.142667 
L 118.677794 116.142667 
z
" style="fill:#1f77b4;fill-opacity:0.75;stroke:#000000;stroke-linejoin:miter;stroke-width:0.400808;"/>
   </g>
   <g id="patch_12">
    <path clip-path="url(#pf355a6dea1)" d="M 124.330256 366.84375 
L 129.982718 366.84375 
L 129.982718 178.817938 
L 124.330256 178.817938 
z
" style="fill:#1f77b4;fill-opacity:0.75;stroke:#000000;stroke-linejoin:miter;stroke-width:0.400808;"/>
   </g>
   <g id="patch_13">
    <path clip-path="url(#pf355a6dea1)" d="M 129.982718 366.84375 
L 135.63518 366.84375 
L 135.63518 182.835583 
L 129.982718 182.835583 
z
" style="fill:#1f77b4;fill-opacity:0.75;stroke:#000000;stroke-linejoin:miter;stroke-width:0.400808;"/>
   </g>
   <g id="patch_14">
    <path clip-path="url(#pf355a6dea1)" d="M 135.63518 366.84375 
L 141.287642 366.84375 
L 141.287642 254.349674 
L 135.63518 254.349674 
z
" style="fill:#1f77b4;fill-opacity:0.75;stroke:#000000;stroke-linejoin:miter;stroke-width:0.400808;"/>
   </g>
   <g id="patch_15">
    <path clip-path="url(#pf355a6dea1)" d="M 141.287642 366.84375 
L 146.940104 366.84375 
L 146.940104 128.195603 
L 141.287642 128.195603 
z
" style="fill:#1f77b4;fill-opacity:0.75;stroke:#000000;stroke-linejoin:miter;stroke-width:0.400808;"/>
   </g>
   <g id="patch_16">
    <path clip-path="url(#pf355a6dea1)" d="M 146.940104 366.84375 
L 152.592566 366.84375 
L 152.592566 154.712064 
L 146.940104 154.712064 
z
" style="fill:#1f77b4;fill-opacity:0.75;stroke:#000000;stroke-linejoin:miter;stroke-width:0.400808;"/>
   </g>
   <g id="patch_17">
    <path clip-path="url(#pf355a6dea1)" d="M 152.592566 366.84375 
L 158.245028 366.84375 
L 158.245028 237.877327 
L 152.592566 237.877327 
z
" style="fill:#1f77b4;fill-opacity:0.75;stroke:#000000;stroke-linejoin:miter;stroke-width:0.400808;"/>
   </g>
   <g id="patch_18">
    <path clip-path="url(#pf355a6dea1)" d="M 158.245028 366.84375 
L 163.897491 366.84375 
L 163.897491 263.992024 
L 158.245028 263.992024 
z
" style="fill:#1f77b4;fill-opacity:0.75;stroke:#000000;stroke-linejoin:miter;stroke-width:0.400808;"/>
   </g>
   <g id="patch_19">
    <path clip-path="url(#pf355a6dea1)" d="M 163.897491 366.84375 
L 169.549953 366.84375 
L 169.549953 196.495578 
L 163.897491 196.495578 
z
" style="fill:#1f77b4;fill-opacity:0.75;stroke:#000000;stroke-linejoin:miter;stroke-width:0.400808;"/>
   </g>
   <g id="patch_20">
    <path clip-path="url(#pf355a6dea1)" d="M 169.549953 366.84375 
L 175.202415 366.84375 
L 175.202415 165.157943 
L 169.549953 165.157943 
z
" style="fill:#1f77b4;fill-opacity:0.75;stroke:#000000;stroke-linejoin:miter;stroke-width:0.400808;"/>
   </g>
   <g id="patch_21">
    <path clip-path="url(#pf355a6dea1)" d="M 175.202415 366.84375 
L 180.854877 366.84375 
L 180.854877 191.674403 
L 175.202415 191.674403 
z
" style="fill:#1f77b4;fill-opacity:0.75;stroke:#000000;stroke-linejoin:miter;stroke-width:0.400808;"/>
   </g>
   <g id="patch_22">
    <path clip-path="url(#pf355a6dea1)" d="M 180.854877 366.84375 
L 186.507339 366.84375 
L 186.507339 195.692049 
L 180.854877 195.692049 
z
" style="fill:#1f77b4;fill-opacity:0.75;stroke:#000000;stroke-linejoin:miter;stroke-width:0.400808;"/>
   </g>
   <g id="patch_23">
    <path clip-path="url(#pf355a6dea1)" d="M 186.507339 366.84375 
L 192.159801 366.84375 
L 192.159801 253.546145 
L 186.507339 253.546145 
z
" style="fill:#1f77b4;fill-opacity:0.75;stroke:#000000;stroke-linejoin:miter;stroke-width:0.400808;"/>
   </g>
   <g id="patch_24">
    <path clip-path="url(#pf355a6dea1)" d="M 192.159801 366.84375 
L 197.812263 366.84375 
L 197.812263 309.793183 
L 192.159801 309.793183 
z
" style="fill:#1f77b4;fill-opacity:0.75;stroke:#000000;stroke-linejoin:miter;stroke-width:0.400808;"/>
   </g>
   <g id="patch_25">
    <path clip-path="url(#pf355a6dea1)" d="M 197.812263 366.84375 
L 203.464725 366.84375 
L 203.464725 333.899056 
L 197.812263 333.899056 
z
" style="fill:#1f77b4;fill-opacity:0.75;stroke:#000000;stroke-linejoin:miter;stroke-width:0.400808;"/>
   </g>
   <g id="patch_26">
    <path clip-path="url(#pf355a6dea1)" d="M 203.464725 366.84375 
L 209.117188 366.84375 
L 209.117188 329.881411 
L 203.464725 329.881411 
z
" style="fill:#1f77b4;fill-opacity:0.75;stroke:#000000;stroke-linejoin:miter;stroke-width:0.400808;"/>
   </g>
   <g id="patch_27">
    <path clip-path="url(#pf355a6dea1)" d="M 209.117188 366.84375 
L 214.76965 366.84375 
L 214.76965 361.219046 
L 209.117188 361.219046 
z
" style="fill:#1f77b4;fill-opacity:0.75;stroke:#000000;stroke-linejoin:miter;stroke-width:0.400808;"/>
   </g>
   <g id="patch_28">
    <path clip-path="url(#pf355a6dea1)" d="M 214.76965 366.84375 
L 220.422112 366.84375 
L 220.422112 353.58552 
L 214.76965 353.58552 
z
" style="fill:#1f77b4;fill-opacity:0.75;stroke:#000000;stroke-linejoin:miter;stroke-width:0.400808;"/>
   </g>
   <g id="patch_29">
    <path clip-path="url(#pf355a6dea1)" d="M 220.422112 366.84375 
L 226.074574 366.84375 
L 226.074574 352.781991 
L 220.422112 352.781991 
z
" style="fill:#1f77b4;fill-opacity:0.75;stroke:#000000;stroke-linejoin:miter;stroke-width:0.400808;"/>
   </g>
   <g id="patch_30">
    <path clip-path="url(#pf355a6dea1)" d="M 226.074574 366.84375 
L 231.727036 366.84375 
L 231.727036 361.219046 
L 226.074574 361.219046 
z
" style="fill:#1f77b4;fill-opacity:0.75;stroke:#000000;stroke-linejoin:miter;stroke-width:0.400808;"/>
   </g>
   <g id="patch_31">
    <path clip-path="url(#pf355a6dea1)" d="M 231.727036 366.84375 
L 237.379498 366.84375 
L 237.379498 364.834927 
L 231.727036 364.834927 
z
" style="fill:#1f77b4;fill-opacity:0.75;stroke:#000000;stroke-linejoin:miter;stroke-width:0.400808;"/>
   </g>
   <g id="patch_32">
    <path clip-path="url(#pf355a6dea1)" d="M 237.379498 366.84375 
L 243.03196 366.84375 
L 243.03196 361.620811 
L 237.379498 361.620811 
z
" style="fill:#1f77b4;fill-opacity:0.75;stroke:#000000;stroke-linejoin:miter;stroke-width:0.400808;"/>
   </g>
   <g id="patch_33">
    <path clip-path="url(#pf355a6dea1)" d="M 243.03196 366.84375 
L 248.684422 366.84375 
L 248.684422 362.826104 
L 243.03196 362.826104 
z
" style="fill:#1f77b4;fill-opacity:0.75;stroke:#000000;stroke-linejoin:miter;stroke-width:0.400808;"/>
   </g>
   <g id="patch_34">
    <path clip-path="url(#pf355a6dea1)" d="M 248.684422 366.84375 
L 254.336884 366.84375 
L 254.336884 360.817282 
L 248.684422 360.817282 
z
" style="fill:#1f77b4;fill-opacity:0.75;stroke:#000000;stroke-linejoin:miter;stroke-width:0.400808;"/>
   </g>
   <g id="patch_35">
    <path clip-path="url(#pf355a6dea1)" d="M 254.336884 366.84375 
L 259.989347 366.84375 
L 259.989347 364.834927 
L 254.336884 364.834927 
z
" style="fill:#1f77b4;fill-opacity:0.75;stroke:#000000;stroke-linejoin:miter;stroke-width:0.400808;"/>
   </g>
   <g id="patch_36">
    <path clip-path="url(#pf355a6dea1)" d="M 259.989347 366.84375 
L 265.641809 366.84375 
L 265.641809 364.433163 
L 259.989347 364.433163 
z
" style="fill:#1f77b4;fill-opacity:0.75;stroke:#000000;stroke-linejoin:miter;stroke-width:0.400808;"/>
   </g>
   <g id="patch_37">
    <path clip-path="url(#pf355a6dea1)" d="M 265.641809 366.84375 
L 271.294271 366.84375 
L 271.294271 365.236692 
L 265.641809 365.236692 
z
" style="fill:#1f77b4;fill-opacity:0.75;stroke:#000000;stroke-linejoin:miter;stroke-width:0.400808;"/>
   </g>
   <g id="patch_38">
    <path clip-path="url(#pf355a6dea1)" d="M 271.294271 366.84375 
L 276.946733 366.84375 
L 276.946733 366.441985 
L 271.294271 366.441985 
z
" style="fill:#1f77b4;fill-opacity:0.75;stroke:#000000;stroke-linejoin:miter;stroke-width:0.400808;"/>
   </g>
   <g id="patch_39">
    <path clip-path="url(#pf355a6dea1)" d="M 276.946733 366.84375 
L 282.599195 366.84375 
L 282.599195 362.022575 
L 276.946733 362.022575 
z
" style="fill:#1f77b4;fill-opacity:0.75;stroke:#000000;stroke-linejoin:miter;stroke-width:0.400808;"/>
   </g>
   <g id="patch_40">
    <path clip-path="url(#pf355a6dea1)" d="M 282.599195 366.84375 
L 288.251657 366.84375 
L 288.251657 366.040221 
L 282.599195 366.040221 
z
" style="fill:#1f77b4;fill-opacity:0.75;stroke:#000000;stroke-linejoin:miter;stroke-width:0.400808;"/>
   </g>
   <g id="patch_41">
    <path clip-path="url(#pf355a6dea1)" d="M 288.251657 366.84375 
L 293.904119 366.84375 
L 293.904119 355.594342 
L 288.251657 355.594342 
z
" style="fill:#1f77b4;fill-opacity:0.75;stroke:#000000;stroke-linejoin:miter;stroke-width:0.400808;"/>
   </g>
   <g id="patch_42">
    <path clip-path="url(#pf355a6dea1)" d="M 293.904119 366.84375 
L 299.556581 366.84375 
L 299.556581 366.84375 
L 293.904119 366.84375 
z
" style="fill:#1f77b4;fill-opacity:0.75;stroke:#000000;stroke-linejoin:miter;stroke-width:0.400808;"/>
   </g>
   <g id="patch_43">
    <path clip-path="url(#pf355a6dea1)" d="M 299.556581 366.84375 
L 305.209044 366.84375 
L 305.209044 362.42434 
L 299.556581 362.42434 
z
" style="fill:#1f77b4;fill-opacity:0.75;stroke:#000000;stroke-linejoin:miter;stroke-width:0.400808;"/>
   </g>
   <g id="patch_44">
    <path clip-path="url(#pf355a6dea1)" d="M 305.209044 366.84375 
L 310.861506 366.84375 
L 310.861506 366.84375 
L 305.209044 366.84375 
z
" style="fill:#1f77b4;fill-opacity:0.75;stroke:#000000;stroke-linejoin:miter;stroke-width:0.400808;"/>
   </g>
   <g id="patch_45">
    <path clip-path="url(#pf355a6dea1)" d="M 310.861506 366.84375 
L 316.513968 366.84375 
L 316.513968 366.441985 
L 310.861506 366.441985 
z
" style="fill:#1f77b4;fill-opacity:0.75;stroke:#000000;stroke-linejoin:miter;stroke-width:0.400808;"/>
   </g>
   <g id="patch_46">
    <path clip-path="url(#pf355a6dea1)" d="M 316.513968 366.84375 
L 322.16643 366.84375 
L 322.16643 366.84375 
L 316.513968 366.84375 
z
" style="fill:#1f77b4;fill-opacity:0.75;stroke:#000000;stroke-linejoin:miter;stroke-width:0.400808;"/>
   </g>
   <g id="patch_47">
    <path clip-path="url(#pf355a6dea1)" d="M 322.16643 366.84375 
L 327.818892 366.84375 
L 327.818892 366.84375 
L 322.16643 366.84375 
z
" style="fill:#1f77b4;fill-opacity:0.75;stroke:#000000;stroke-linejoin:miter;stroke-width:0.400808;"/>
   </g>
   <g id="patch_48">
    <path clip-path="url(#pf355a6dea1)" d="M 327.818892 366.84375 
L 333.471354 366.84375 
L 333.471354 364.031398 
L 327.818892 364.031398 
z
" style="fill:#1f77b4;fill-opacity:0.75;stroke:#000000;stroke-linejoin:miter;stroke-width:0.400808;"/>
   </g>
   <g id="patch_49">
    <path clip-path="url(#pf355a6dea1)" d="M 333.471354 366.84375 
L 339.123816 366.84375 
L 339.123816 366.441985 
L 333.471354 366.441985 
z
" style="fill:#1f77b4;fill-opacity:0.75;stroke:#000000;stroke-linejoin:miter;stroke-width:0.400808;"/>
   </g>
   <g id="patch_50">
    <path clip-path="url(#pf355a6dea1)" d="M 339.123816 366.84375 
L 344.776278 366.84375 
L 344.776278 366.84375 
L 339.123816 366.84375 
z
" style="fill:#1f77b4;fill-opacity:0.75;stroke:#000000;stroke-linejoin:miter;stroke-width:0.400808;"/>
   </g>
   <g id="patch_51">
    <path clip-path="url(#pf355a6dea1)" d="M 344.776278 366.84375 
L 350.428741 366.84375 
L 350.428741 366.84375 
L 344.776278 366.84375 
z
" style="fill:#1f77b4;fill-opacity:0.75;stroke:#000000;stroke-linejoin:miter;stroke-width:0.400808;"/>
   </g>
   <g id="patch_52">
    <path clip-path="url(#pf355a6dea1)" d="M 350.428741 366.84375 
L 356.081203 366.84375 
L 356.081203 366.040221 
L 350.428741 366.040221 
z
" style="fill:#1f77b4;fill-opacity:0.75;stroke:#000000;stroke-linejoin:miter;stroke-width:0.400808;"/>
   </g>
   <g id="patch_53">
    <path clip-path="url(#pf355a6dea1)" d="M 356.081203 366.84375 
L 361.733665 366.84375 
L 361.733665 366.441985 
L 356.081203 366.441985 
z
" style="fill:#1f77b4;fill-opacity:0.75;stroke:#000000;stroke-linejoin:miter;stroke-width:0.400808;"/>
   </g>
   <g id="patch_54">
    <path clip-path="url(#pf355a6dea1)" d="M 361.733665 366.84375 
L 367.386127 366.84375 
L 367.386127 366.441985 
L 361.733665 366.441985 
z
" style="fill:#1f77b4;fill-opacity:0.75;stroke:#000000;stroke-linejoin:miter;stroke-width:0.400808;"/>
   </g>
   <g id="patch_55">
    <path clip-path="url(#pf355a6dea1)" d="M 367.386127 366.84375 
L 373.038589 366.84375 
L 373.038589 366.040221 
L 367.386127 366.040221 
z
" style="fill:#1f77b4;fill-opacity:0.75;stroke:#000000;stroke-linejoin:miter;stroke-width:0.400808;"/>
   </g>
   <g id="patch_56">
    <path clip-path="url(#pf355a6dea1)" d="M 373.038589 366.84375 
L 378.691051 366.84375 
L 378.691051 366.441985 
L 373.038589 366.441985 
z
" style="fill:#1f77b4;fill-opacity:0.75;stroke:#000000;stroke-linejoin:miter;stroke-width:0.400808;"/>
   </g>
   <g id="patch_57">
    <path clip-path="url(#pf355a6dea1)" d="M 378.691051 366.84375 
L 384.343513 366.84375 
L 384.343513 366.84375 
L 378.691051 366.84375 
z
" style="fill:#1f77b4;fill-opacity:0.75;stroke:#000000;stroke-linejoin:miter;stroke-width:0.400808;"/>
   </g>
   <g id="patch_58">
    <path clip-path="url(#pf355a6dea1)" d="M 384.343513 366.84375 
L 389.995975 366.84375 
L 389.995975 366.84375 
L 384.343513 366.84375 
z
" style="fill:#1f77b4;fill-opacity:0.75;stroke:#000000;stroke-linejoin:miter;stroke-width:0.400808;"/>
   </g>
   <g id="patch_59">
    <path clip-path="url(#pf355a6dea1)" d="M 389.995975 366.84375 
L 395.648438 366.84375 
L 395.648438 366.84375 
L 389.995975 366.84375 
z
" style="fill:#1f77b4;fill-opacity:0.75;stroke:#000000;stroke-linejoin:miter;stroke-width:0.400808;"/>
   </g>
   <g id="patch_60">
    <path clip-path="url(#pf355a6dea1)" d="M 395.648438 366.84375 
L 401.3009 366.84375 
L 401.3009 366.84375 
L 395.648438 366.84375 
z
" style="fill:#1f77b4;fill-opacity:0.75;stroke:#000000;stroke-linejoin:miter;stroke-width:0.400808;"/>
   </g>
   <g id="patch_61">
    <path clip-path="url(#pf355a6dea1)" d="M 401.3009 366.84375 
L 406.953362 366.84375 
L 406.953362 366.84375 
L 401.3009 366.84375 
z
" style="fill:#1f77b4;fill-opacity:0.75;stroke:#000000;stroke-linejoin:miter;stroke-width:0.400808;"/>
   </g>
   <g id="patch_62">
    <path clip-path="url(#pf355a6dea1)" d="M 406.953362 366.84375 
L 412.605824 366.84375 
L 412.605824 366.84375 
L 406.953362 366.84375 
z
" style="fill:#1f77b4;fill-opacity:0.75;stroke:#000000;stroke-linejoin:miter;stroke-width:0.400808;"/>
   </g>
   <g id="patch_63">
    <path clip-path="url(#pf355a6dea1)" d="M 412.605824 366.84375 
L 418.258286 366.84375 
L 418.258286 366.84375 
L 412.605824 366.84375 
z
" style="fill:#1f77b4;fill-opacity:0.75;stroke:#000000;stroke-linejoin:miter;stroke-width:0.400808;"/>
   </g>
   <g id="patch_64">
    <path clip-path="url(#pf355a6dea1)" d="M 418.258286 366.84375 
L 423.910748 366.84375 
L 423.910748 366.84375 
L 418.258286 366.84375 
z
" style="fill:#1f77b4;fill-opacity:0.75;stroke:#000000;stroke-linejoin:miter;stroke-width:0.400808;"/>
   </g>
   <g id="patch_65">
    <path clip-path="url(#pf355a6dea1)" d="M 423.910748 366.84375 
L 429.56321 366.84375 
L 429.56321 366.84375 
L 423.910748 366.84375 
z
" style="fill:#1f77b4;fill-opacity:0.75;stroke:#000000;stroke-linejoin:miter;stroke-width:0.400808;"/>
   </g>
   <g id="patch_66">
    <path clip-path="url(#pf355a6dea1)" d="M 429.56321 366.84375 
L 435.215672 366.84375 
L 435.215672 366.84375 
L 429.56321 366.84375 
z
" style="fill:#1f77b4;fill-opacity:0.75;stroke:#000000;stroke-linejoin:miter;stroke-width:0.400808;"/>
   </g>
   <g id="patch_67">
    <path clip-path="url(#pf355a6dea1)" d="M 435.215672 366.84375 
L 440.868134 366.84375 
L 440.868134 366.84375 
L 435.215672 366.84375 
z
" style="fill:#1f77b4;fill-opacity:0.75;stroke:#000000;stroke-linejoin:miter;stroke-width:0.400808;"/>
   </g>
   <g id="patch_68">
    <path clip-path="url(#pf355a6dea1)" d="M 440.868134 366.84375 
L 446.520597 366.84375 
L 446.520597 366.84375 
L 440.868134 366.84375 
z
" style="fill:#1f77b4;fill-opacity:0.75;stroke:#000000;stroke-linejoin:miter;stroke-width:0.400808;"/>
   </g>
   <g id="patch_69">
    <path clip-path="url(#pf355a6dea1)" d="M 446.520597 366.84375 
L 452.173059 366.84375 
L 452.173059 366.84375 
L 446.520597 366.84375 
z
" style="fill:#1f77b4;fill-opacity:0.75;stroke:#000000;stroke-linejoin:miter;stroke-width:0.400808;"/>
   </g>
   <g id="patch_70">
    <path clip-path="url(#pf355a6dea1)" d="M 452.173059 366.84375 
L 457.825521 366.84375 
L 457.825521 366.84375 
L 452.173059 366.84375 
z
" style="fill:#1f77b4;fill-opacity:0.75;stroke:#000000;stroke-linejoin:miter;stroke-width:0.400808;"/>
   </g>
   <g id="patch_71">
    <path clip-path="url(#pf355a6dea1)" d="M 457.825521 366.84375 
L 463.477983 366.84375 
L 463.477983 366.441985 
L 457.825521 366.441985 
z
" style="fill:#1f77b4;fill-opacity:0.75;stroke:#000000;stroke-linejoin:miter;stroke-width:0.400808;"/>
   </g>
   <g id="patch_72">
    <path clip-path="url(#pf355a6dea1)" d="M 463.477983 366.84375 
L 469.130445 366.84375 
L 469.130445 366.84375 
L 463.477983 366.84375 
z
" style="fill:#1f77b4;fill-opacity:0.75;stroke:#000000;stroke-linejoin:miter;stroke-width:0.400808;"/>
   </g>
   <g id="patch_73">
    <path clip-path="url(#pf355a6dea1)" d="M 469.130445 366.84375 
L 474.782907 366.84375 
L 474.782907 366.84375 
L 469.130445 366.84375 
z
" style="fill:#1f77b4;fill-opacity:0.75;stroke:#000000;stroke-linejoin:miter;stroke-width:0.400808;"/>
   </g>
   <g id="patch_74">
    <path clip-path="url(#pf355a6dea1)" d="M 474.782907 366.84375 
L 480.435369 366.84375 
L 480.435369 366.84375 
L 474.782907 366.84375 
z
" style="fill:#1f77b4;fill-opacity:0.75;stroke:#000000;stroke-linejoin:miter;stroke-width:0.400808;"/>
   </g>
   <g id="patch_75">
    <path clip-path="url(#pf355a6dea1)" d="M 480.435369 366.84375 
L 486.087831 366.84375 
L 486.087831 366.84375 
L 480.435369 366.84375 
z
" style="fill:#1f77b4;fill-opacity:0.75;stroke:#000000;stroke-linejoin:miter;stroke-width:0.400808;"/>
   </g>
   <g id="patch_76">
    <path clip-path="url(#pf355a6dea1)" d="M 486.087831 366.84375 
L 491.740294 366.84375 
L 491.740294 366.84375 
L 486.087831 366.84375 
z
" style="fill:#1f77b4;fill-opacity:0.75;stroke:#000000;stroke-linejoin:miter;stroke-width:0.400808;"/>
   </g>
   <g id="patch_77">
    <path clip-path="url(#pf355a6dea1)" d="M 491.740294 366.84375 
L 497.392756 366.84375 
L 497.392756 366.84375 
L 491.740294 366.84375 
z
" style="fill:#1f77b4;fill-opacity:0.75;stroke:#000000;stroke-linejoin:miter;stroke-width:0.400808;"/>
   </g>
   <g id="patch_78">
    <path clip-path="url(#pf355a6dea1)" d="M 497.392756 366.84375 
L 503.045218 366.84375 
L 503.045218 366.84375 
L 497.392756 366.84375 
z
" style="fill:#1f77b4;fill-opacity:0.75;stroke:#000000;stroke-linejoin:miter;stroke-width:0.400808;"/>
   </g>
   <g id="patch_79">
    <path clip-path="url(#pf355a6dea1)" d="M 503.045218 366.84375 
L 508.69768 366.84375 
L 508.69768 366.84375 
L 503.045218 366.84375 
z
" style="fill:#1f77b4;fill-opacity:0.75;stroke:#000000;stroke-linejoin:miter;stroke-width:0.400808;"/>
   </g>
   <g id="patch_80">
    <path clip-path="url(#pf355a6dea1)" d="M 508.69768 366.84375 
L 514.350142 366.84375 
L 514.350142 366.84375 
L 508.69768 366.84375 
z
" style="fill:#1f77b4;fill-opacity:0.75;stroke:#000000;stroke-linejoin:miter;stroke-width:0.400808;"/>
   </g>
   <g id="patch_81">
    <path clip-path="url(#pf355a6dea1)" d="M 514.350142 366.84375 
L 520.002604 366.84375 
L 520.002604 366.84375 
L 514.350142 366.84375 
z
" style="fill:#1f77b4;fill-opacity:0.75;stroke:#000000;stroke-linejoin:miter;stroke-width:0.400808;"/>
   </g>
   <g id="patch_82">
    <path clip-path="url(#pf355a6dea1)" d="M 520.002604 366.84375 
L 525.655066 366.84375 
L 525.655066 366.84375 
L 520.002604 366.84375 
z
" style="fill:#1f77b4;fill-opacity:0.75;stroke:#000000;stroke-linejoin:miter;stroke-width:0.400808;"/>
   </g>
   <g id="patch_83">
    <path clip-path="url(#pf355a6dea1)" d="M 525.655066 366.84375 
L 531.307528 366.84375 
L 531.307528 365.638456 
L 525.655066 365.638456 
z
" style="fill:#1f77b4;fill-opacity:0.75;stroke:#000000;stroke-linejoin:miter;stroke-width:0.400808;"/>
   </g>
   <g id="matplotlib.axis_1">
    <g id="xtick_1">
     <g id="line2d_1">
      <defs>
       <path d="M 0 0 
L 0 3.5 
" id="mbbcd21d7b9" style="stroke:#000000;stroke-width:0.8;"/>
      </defs>
      <g>
       <use style="stroke:#000000;stroke-width:0.8;" x="58.281864" xlink:href="#mbbcd21d7b9" y="366.84375"/>
      </g>
     </g>
     <g id="text_1">
      <!-- 0 -->
      <g transform="translate(55.100614 381.442188)scale(0.1 -0.1)">
       <defs>
        <path d="M 2034 4250 
Q 1547 4250 1301 3770 
Q 1056 3291 1056 2328 
Q 1056 1369 1301 889 
Q 1547 409 2034 409 
Q 2525 409 2770 889 
Q 3016 1369 3016 2328 
Q 3016 3291 2770 3770 
Q 2525 4250 2034 4250 
z
M 2034 4750 
Q 2819 4750 3233 4129 
Q 3647 3509 3647 2328 
Q 3647 1150 3233 529 
Q 2819 -91 2034 -91 
Q 1250 -91 836 529 
Q 422 1150 422 2328 
Q 422 3509 836 4129 
Q 1250 4750 2034 4750 
z
" id="DejaVuSans-30" transform="scale(0.015625)"/>
       </defs>
       <use xlink:href="#DejaVuSans-30"/>
      </g>
     </g>
    </g>
    <g id="xtick_2">
     <g id="line2d_2">
      <g>
       <use style="stroke:#000000;stroke-width:0.8;" x="144.559481" xlink:href="#mbbcd21d7b9" y="366.84375"/>
      </g>
     </g>
     <g id="text_2">
      <!-- 10000 -->
      <g transform="translate(128.653231 381.442188)scale(0.1 -0.1)">
       <defs>
        <path d="M 794 531 
L 1825 531 
L 1825 4091 
L 703 3866 
L 703 4441 
L 1819 4666 
L 2450 4666 
L 2450 531 
L 3481 531 
L 3481 0 
L 794 0 
L 794 531 
z
" id="DejaVuSans-31" transform="scale(0.015625)"/>
       </defs>
       <use xlink:href="#DejaVuSans-31"/>
       <use x="63.623047" xlink:href="#DejaVuSans-30"/>
       <use x="127.246094" xlink:href="#DejaVuSans-30"/>
       <use x="190.869141" xlink:href="#DejaVuSans-30"/>
       <use x="254.492188" xlink:href="#DejaVuSans-30"/>
      </g>
     </g>
    </g>
    <g id="xtick_3">
     <g id="line2d_3">
      <g>
       <use style="stroke:#000000;stroke-width:0.8;" x="230.837098" xlink:href="#mbbcd21d7b9" y="366.84375"/>
      </g>
     </g>
     <g id="text_3">
      <!-- 20000 -->
      <g transform="translate(214.930848 381.442188)scale(0.1 -0.1)">
       <defs>
        <path d="M 1228 531 
L 3431 531 
L 3431 0 
L 469 0 
L 469 531 
Q 828 903 1448 1529 
Q 2069 2156 2228 2338 
Q 2531 2678 2651 2914 
Q 2772 3150 2772 3378 
Q 2772 3750 2511 3984 
Q 2250 4219 1831 4219 
Q 1534 4219 1204 4116 
Q 875 4013 500 3803 
L 500 4441 
Q 881 4594 1212 4672 
Q 1544 4750 1819 4750 
Q 2544 4750 2975 4387 
Q 3406 4025 3406 3419 
Q 3406 3131 3298 2873 
Q 3191 2616 2906 2266 
Q 2828 2175 2409 1742 
Q 1991 1309 1228 531 
z
" id="DejaVuSans-32" transform="scale(0.015625)"/>
       </defs>
       <use xlink:href="#DejaVuSans-32"/>
       <use x="63.623047" xlink:href="#DejaVuSans-30"/>
       <use x="127.246094" xlink:href="#DejaVuSans-30"/>
       <use x="190.869141" xlink:href="#DejaVuSans-30"/>
       <use x="254.492188" xlink:href="#DejaVuSans-30"/>
      </g>
     </g>
    </g>
    <g id="xtick_4">
     <g id="line2d_4">
      <g>
       <use style="stroke:#000000;stroke-width:0.8;" x="317.114716" xlink:href="#mbbcd21d7b9" y="366.84375"/>
      </g>
     </g>
     <g id="text_4">
      <!-- 30000 -->
      <g transform="translate(301.208466 381.442188)scale(0.1 -0.1)">
       <defs>
        <path d="M 2597 2516 
Q 3050 2419 3304 2112 
Q 3559 1806 3559 1356 
Q 3559 666 3084 287 
Q 2609 -91 1734 -91 
Q 1441 -91 1130 -33 
Q 819 25 488 141 
L 488 750 
Q 750 597 1062 519 
Q 1375 441 1716 441 
Q 2309 441 2620 675 
Q 2931 909 2931 1356 
Q 2931 1769 2642 2001 
Q 2353 2234 1838 2234 
L 1294 2234 
L 1294 2753 
L 1863 2753 
Q 2328 2753 2575 2939 
Q 2822 3125 2822 3475 
Q 2822 3834 2567 4026 
Q 2313 4219 1838 4219 
Q 1578 4219 1281 4162 
Q 984 4106 628 3988 
L 628 4550 
Q 988 4650 1302 4700 
Q 1616 4750 1894 4750 
Q 2613 4750 3031 4423 
Q 3450 4097 3450 3541 
Q 3450 3153 3228 2886 
Q 3006 2619 2597 2516 
z
" id="DejaVuSans-33" transform="scale(0.015625)"/>
       </defs>
       <use xlink:href="#DejaVuSans-33"/>
       <use x="63.623047" xlink:href="#DejaVuSans-30"/>
       <use x="127.246094" xlink:href="#DejaVuSans-30"/>
       <use x="190.869141" xlink:href="#DejaVuSans-30"/>
       <use x="254.492188" xlink:href="#DejaVuSans-30"/>
      </g>
     </g>
    </g>
    <g id="xtick_5">
     <g id="line2d_5">
      <g>
       <use style="stroke:#000000;stroke-width:0.8;" x="403.392333" xlink:href="#mbbcd21d7b9" y="366.84375"/>
      </g>
     </g>
     <g id="text_5">
      <!-- 40000 -->
      <g transform="translate(387.486083 381.442188)scale(0.1 -0.1)">
       <defs>
        <path d="M 2419 4116 
L 825 1625 
L 2419 1625 
L 2419 4116 
z
M 2253 4666 
L 3047 4666 
L 3047 1625 
L 3713 1625 
L 3713 1100 
L 3047 1100 
L 3047 0 
L 2419 0 
L 2419 1100 
L 313 1100 
L 313 1709 
L 2253 4666 
z
" id="DejaVuSans-34" transform="scale(0.015625)"/>
       </defs>
       <use xlink:href="#DejaVuSans-34"/>
       <use x="63.623047" xlink:href="#DejaVuSans-30"/>
       <use x="127.246094" xlink:href="#DejaVuSans-30"/>
       <use x="190.869141" xlink:href="#DejaVuSans-30"/>
       <use x="254.492188" xlink:href="#DejaVuSans-30"/>
      </g>
     </g>
    </g>
    <g id="xtick_6">
     <g id="line2d_6">
      <g>
       <use style="stroke:#000000;stroke-width:0.8;" x="489.66995" xlink:href="#mbbcd21d7b9" y="366.84375"/>
      </g>
     </g>
     <g id="text_6">
      <!-- 50000 -->
      <g transform="translate(473.7637 381.442188)scale(0.1 -0.1)">
       <defs>
        <path d="M 691 4666 
L 3169 4666 
L 3169 4134 
L 1269 4134 
L 1269 2991 
Q 1406 3038 1543 3061 
Q 1681 3084 1819 3084 
Q 2600 3084 3056 2656 
Q 3513 2228 3513 1497 
Q 3513 744 3044 326 
Q 2575 -91 1722 -91 
Q 1428 -91 1123 -41 
Q 819 9 494 109 
L 494 744 
Q 775 591 1075 516 
Q 1375 441 1709 441 
Q 2250 441 2565 725 
Q 2881 1009 2881 1497 
Q 2881 1984 2565 2268 
Q 2250 2553 1709 2553 
Q 1456 2553 1204 2497 
Q 953 2441 691 2322 
L 691 4666 
z
" id="DejaVuSans-35" transform="scale(0.015625)"/>
       </defs>
       <use xlink:href="#DejaVuSans-35"/>
       <use x="63.623047" xlink:href="#DejaVuSans-30"/>
       <use x="127.246094" xlink:href="#DejaVuSans-30"/>
       <use x="190.869141" xlink:href="#DejaVuSans-30"/>
       <use x="254.492188" xlink:href="#DejaVuSans-30"/>
      </g>
     </g>
    </g>
    <g id="text_7">
     <!-- Price -->
     <g transform="translate(290.185156 395.120313)scale(0.1 -0.1)">
      <defs>
       <path d="M 1259 4147 
L 1259 2394 
L 2053 2394 
Q 2494 2394 2734 2622 
Q 2975 2850 2975 3272 
Q 2975 3691 2734 3919 
Q 2494 4147 2053 4147 
L 1259 4147 
z
M 628 4666 
L 2053 4666 
Q 2838 4666 3239 4311 
Q 3641 3956 3641 3272 
Q 3641 2581 3239 2228 
Q 2838 1875 2053 1875 
L 1259 1875 
L 1259 0 
L 628 0 
L 628 4666 
z
" id="DejaVuSans-50" transform="scale(0.015625)"/>
       <path d="M 2631 2963 
Q 2534 3019 2420 3045 
Q 2306 3072 2169 3072 
Q 1681 3072 1420 2755 
Q 1159 2438 1159 1844 
L 1159 0 
L 581 0 
L 581 3500 
L 1159 3500 
L 1159 2956 
Q 1341 3275 1631 3429 
Q 1922 3584 2338 3584 
Q 2397 3584 2469 3576 
Q 2541 3569 2628 3553 
L 2631 2963 
z
" id="DejaVuSans-72" transform="scale(0.015625)"/>
       <path d="M 603 3500 
L 1178 3500 
L 1178 0 
L 603 0 
L 603 3500 
z
M 603 4863 
L 1178 4863 
L 1178 4134 
L 603 4134 
L 603 4863 
z
" id="DejaVuSans-69" transform="scale(0.015625)"/>
       <path d="M 3122 3366 
L 3122 2828 
Q 2878 2963 2633 3030 
Q 2388 3097 2138 3097 
Q 1578 3097 1268 2742 
Q 959 2388 959 1747 
Q 959 1106 1268 751 
Q 1578 397 2138 397 
Q 2388 397 2633 464 
Q 2878 531 3122 666 
L 3122 134 
Q 2881 22 2623 -34 
Q 2366 -91 2075 -91 
Q 1284 -91 818 406 
Q 353 903 353 1747 
Q 353 2603 823 3093 
Q 1294 3584 2113 3584 
Q 2378 3584 2631 3529 
Q 2884 3475 3122 3366 
z
" id="DejaVuSans-63" transform="scale(0.015625)"/>
       <path d="M 3597 1894 
L 3597 1613 
L 953 1613 
Q 991 1019 1311 708 
Q 1631 397 2203 397 
Q 2534 397 2845 478 
Q 3156 559 3463 722 
L 3463 178 
Q 3153 47 2828 -22 
Q 2503 -91 2169 -91 
Q 1331 -91 842 396 
Q 353 884 353 1716 
Q 353 2575 817 3079 
Q 1281 3584 2069 3584 
Q 2775 3584 3186 3129 
Q 3597 2675 3597 1894 
z
M 3022 2063 
Q 3016 2534 2758 2815 
Q 2500 3097 2075 3097 
Q 1594 3097 1305 2825 
Q 1016 2553 972 2059 
L 3022 2063 
z
" id="DejaVuSans-65" transform="scale(0.015625)"/>
      </defs>
      <use xlink:href="#DejaVuSans-50"/>
      <use x="58.552734" xlink:href="#DejaVuSans-72"/>
      <use x="99.666016" xlink:href="#DejaVuSans-69"/>
      <use x="127.449219" xlink:href="#DejaVuSans-63"/>
      <use x="182.429688" xlink:href="#DejaVuSans-65"/>
     </g>
    </g>
   </g>
   <g id="matplotlib.axis_2">
    <g id="ytick_1">
     <g id="line2d_7">
      <defs>
       <path d="M 0 0 
L -3.5 0 
" id="m16929b3d46" style="stroke:#000000;stroke-width:0.8;"/>
      </defs>
      <g>
       <use style="stroke:#000000;stroke-width:0.8;" x="50.565625" xlink:href="#m16929b3d46" y="366.84375"/>
      </g>
     </g>
     <g id="text_8">
      <!-- 0 -->
      <g transform="translate(37.203125 370.642969)scale(0.1 -0.1)">
       <use xlink:href="#DejaVuSans-30"/>
      </g>
     </g>
    </g>
    <g id="ytick_2">
     <g id="line2d_8">
      <g>
       <use style="stroke:#000000;stroke-width:0.8;" x="50.565625" xlink:href="#m16929b3d46" y="326.667294"/>
      </g>
     </g>
     <g id="text_9">
      <!-- 100 -->
      <g transform="translate(24.478125 330.466513)scale(0.1 -0.1)">
       <use xlink:href="#DejaVuSans-31"/>
       <use x="63.623047" xlink:href="#DejaVuSans-30"/>
       <use x="127.246094" xlink:href="#DejaVuSans-30"/>
      </g>
     </g>
    </g>
    <g id="ytick_3">
     <g id="line2d_9">
      <g>
       <use style="stroke:#000000;stroke-width:0.8;" x="50.565625" xlink:href="#m16929b3d46" y="286.490839"/>
      </g>
     </g>
     <g id="text_10">
      <!-- 200 -->
      <g transform="translate(24.478125 290.290057)scale(0.1 -0.1)">
       <use xlink:href="#DejaVuSans-32"/>
       <use x="63.623047" xlink:href="#DejaVuSans-30"/>
       <use x="127.246094" xlink:href="#DejaVuSans-30"/>
      </g>
     </g>
    </g>
    <g id="ytick_4">
     <g id="line2d_10">
      <g>
       <use style="stroke:#000000;stroke-width:0.8;" x="50.565625" xlink:href="#m16929b3d46" y="246.314383"/>
      </g>
     </g>
     <g id="text_11">
      <!-- 300 -->
      <g transform="translate(24.478125 250.113602)scale(0.1 -0.1)">
       <use xlink:href="#DejaVuSans-33"/>
       <use x="63.623047" xlink:href="#DejaVuSans-30"/>
       <use x="127.246094" xlink:href="#DejaVuSans-30"/>
      </g>
     </g>
    </g>
    <g id="ytick_5">
     <g id="line2d_11">
      <g>
       <use style="stroke:#000000;stroke-width:0.8;" x="50.565625" xlink:href="#m16929b3d46" y="206.137927"/>
      </g>
     </g>
     <g id="text_12">
      <!-- 400 -->
      <g transform="translate(24.478125 209.937146)scale(0.1 -0.1)">
       <use xlink:href="#DejaVuSans-34"/>
       <use x="63.623047" xlink:href="#DejaVuSans-30"/>
       <use x="127.246094" xlink:href="#DejaVuSans-30"/>
      </g>
     </g>
    </g>
    <g id="ytick_6">
     <g id="line2d_12">
      <g>
       <use style="stroke:#000000;stroke-width:0.8;" x="50.565625" xlink:href="#m16929b3d46" y="165.961472"/>
      </g>
     </g>
     <g id="text_13">
      <!-- 500 -->
      <g transform="translate(24.478125 169.76069)scale(0.1 -0.1)">
       <use xlink:href="#DejaVuSans-35"/>
       <use x="63.623047" xlink:href="#DejaVuSans-30"/>
       <use x="127.246094" xlink:href="#DejaVuSans-30"/>
      </g>
     </g>
    </g>
    <g id="ytick_7">
     <g id="line2d_13">
      <g>
       <use style="stroke:#000000;stroke-width:0.8;" x="50.565625" xlink:href="#m16929b3d46" y="125.785016"/>
      </g>
     </g>
     <g id="text_14">
      <!-- 600 -->
      <g transform="translate(24.478125 129.584235)scale(0.1 -0.1)">
       <defs>
        <path d="M 2113 2584 
Q 1688 2584 1439 2293 
Q 1191 2003 1191 1497 
Q 1191 994 1439 701 
Q 1688 409 2113 409 
Q 2538 409 2786 701 
Q 3034 994 3034 1497 
Q 3034 2003 2786 2293 
Q 2538 2584 2113 2584 
z
M 3366 4563 
L 3366 3988 
Q 3128 4100 2886 4159 
Q 2644 4219 2406 4219 
Q 1781 4219 1451 3797 
Q 1122 3375 1075 2522 
Q 1259 2794 1537 2939 
Q 1816 3084 2150 3084 
Q 2853 3084 3261 2657 
Q 3669 2231 3669 1497 
Q 3669 778 3244 343 
Q 2819 -91 2113 -91 
Q 1303 -91 875 529 
Q 447 1150 447 2328 
Q 447 3434 972 4092 
Q 1497 4750 2381 4750 
Q 2619 4750 2861 4703 
Q 3103 4656 3366 4563 
z
" id="DejaVuSans-36" transform="scale(0.015625)"/>
       </defs>
       <use xlink:href="#DejaVuSans-36"/>
       <use x="63.623047" xlink:href="#DejaVuSans-30"/>
       <use x="127.246094" xlink:href="#DejaVuSans-30"/>
      </g>
     </g>
    </g>
    <g id="ytick_8">
     <g id="line2d_14">
      <g>
       <use style="stroke:#000000;stroke-width:0.8;" x="50.565625" xlink:href="#m16929b3d46" y="85.60856"/>
      </g>
     </g>
     <g id="text_15">
      <!-- 700 -->
      <g transform="translate(24.478125 89.407779)scale(0.1 -0.1)">
       <defs>
        <path d="M 525 4666 
L 3525 4666 
L 3525 4397 
L 1831 0 
L 1172 0 
L 2766 4134 
L 525 4134 
L 525 4666 
z
" id="DejaVuSans-37" transform="scale(0.015625)"/>
       </defs>
       <use xlink:href="#DejaVuSans-37"/>
       <use x="63.623047" xlink:href="#DejaVuSans-30"/>
       <use x="127.246094" xlink:href="#DejaVuSans-30"/>
      </g>
     </g>
    </g>
    <g id="ytick_9">
     <g id="line2d_15">
      <g>
       <use style="stroke:#000000;stroke-width:0.8;" x="50.565625" xlink:href="#m16929b3d46" y="45.432105"/>
      </g>
     </g>
     <g id="text_16">
      <!-- 800 -->
      <g transform="translate(24.478125 49.231324)scale(0.1 -0.1)">
       <defs>
        <path d="M 2034 2216 
Q 1584 2216 1326 1975 
Q 1069 1734 1069 1313 
Q 1069 891 1326 650 
Q 1584 409 2034 409 
Q 2484 409 2743 651 
Q 3003 894 3003 1313 
Q 3003 1734 2745 1975 
Q 2488 2216 2034 2216 
z
M 1403 2484 
Q 997 2584 770 2862 
Q 544 3141 544 3541 
Q 544 4100 942 4425 
Q 1341 4750 2034 4750 
Q 2731 4750 3128 4425 
Q 3525 4100 3525 3541 
Q 3525 3141 3298 2862 
Q 3072 2584 2669 2484 
Q 3125 2378 3379 2068 
Q 3634 1759 3634 1313 
Q 3634 634 3220 271 
Q 2806 -91 2034 -91 
Q 1263 -91 848 271 
Q 434 634 434 1313 
Q 434 1759 690 2068 
Q 947 2378 1403 2484 
z
M 1172 3481 
Q 1172 3119 1398 2916 
Q 1625 2713 2034 2713 
Q 2441 2713 2670 2916 
Q 2900 3119 2900 3481 
Q 2900 3844 2670 4047 
Q 2441 4250 2034 4250 
Q 1625 4250 1398 4047 
Q 1172 3844 1172 3481 
z
" id="DejaVuSans-38" transform="scale(0.015625)"/>
       </defs>
       <use xlink:href="#DejaVuSans-38"/>
       <use x="63.623047" xlink:href="#DejaVuSans-30"/>
       <use x="127.246094" xlink:href="#DejaVuSans-30"/>
      </g>
     </g>
    </g>
    <g id="text_17">
     <!-- Count -->
     <g transform="translate(18.398438 203.670313)rotate(-90)scale(0.1 -0.1)">
      <defs>
       <path d="M 4122 4306 
L 4122 3641 
Q 3803 3938 3442 4084 
Q 3081 4231 2675 4231 
Q 1875 4231 1450 3742 
Q 1025 3253 1025 2328 
Q 1025 1406 1450 917 
Q 1875 428 2675 428 
Q 3081 428 3442 575 
Q 3803 722 4122 1019 
L 4122 359 
Q 3791 134 3420 21 
Q 3050 -91 2638 -91 
Q 1578 -91 968 557 
Q 359 1206 359 2328 
Q 359 3453 968 4101 
Q 1578 4750 2638 4750 
Q 3056 4750 3426 4639 
Q 3797 4528 4122 4306 
z
" id="DejaVuSans-43" transform="scale(0.015625)"/>
       <path d="M 1959 3097 
Q 1497 3097 1228 2736 
Q 959 2375 959 1747 
Q 959 1119 1226 758 
Q 1494 397 1959 397 
Q 2419 397 2687 759 
Q 2956 1122 2956 1747 
Q 2956 2369 2687 2733 
Q 2419 3097 1959 3097 
z
M 1959 3584 
Q 2709 3584 3137 3096 
Q 3566 2609 3566 1747 
Q 3566 888 3137 398 
Q 2709 -91 1959 -91 
Q 1206 -91 779 398 
Q 353 888 353 1747 
Q 353 2609 779 3096 
Q 1206 3584 1959 3584 
z
" id="DejaVuSans-6f" transform="scale(0.015625)"/>
       <path d="M 544 1381 
L 544 3500 
L 1119 3500 
L 1119 1403 
Q 1119 906 1312 657 
Q 1506 409 1894 409 
Q 2359 409 2629 706 
Q 2900 1003 2900 1516 
L 2900 3500 
L 3475 3500 
L 3475 0 
L 2900 0 
L 2900 538 
Q 2691 219 2414 64 
Q 2138 -91 1772 -91 
Q 1169 -91 856 284 
Q 544 659 544 1381 
z
M 1991 3584 
L 1991 3584 
z
" id="DejaVuSans-75" transform="scale(0.015625)"/>
       <path d="M 3513 2113 
L 3513 0 
L 2938 0 
L 2938 2094 
Q 2938 2591 2744 2837 
Q 2550 3084 2163 3084 
Q 1697 3084 1428 2787 
Q 1159 2491 1159 1978 
L 1159 0 
L 581 0 
L 581 3500 
L 1159 3500 
L 1159 2956 
Q 1366 3272 1645 3428 
Q 1925 3584 2291 3584 
Q 2894 3584 3203 3211 
Q 3513 2838 3513 2113 
z
" id="DejaVuSans-6e" transform="scale(0.015625)"/>
       <path d="M 1172 4494 
L 1172 3500 
L 2356 3500 
L 2356 3053 
L 1172 3053 
L 1172 1153 
Q 1172 725 1289 603 
Q 1406 481 1766 481 
L 2356 481 
L 2356 0 
L 1766 0 
Q 1100 0 847 248 
Q 594 497 594 1153 
L 594 3053 
L 172 3053 
L 172 3500 
L 594 3500 
L 594 4494 
L 1172 4494 
z
" id="DejaVuSans-74" transform="scale(0.015625)"/>
      </defs>
      <use xlink:href="#DejaVuSans-43"/>
      <use x="69.824219" xlink:href="#DejaVuSans-6f"/>
      <use x="131.005859" xlink:href="#DejaVuSans-75"/>
      <use x="194.384766" xlink:href="#DejaVuSans-6e"/>
      <use x="257.763672" xlink:href="#DejaVuSans-74"/>
     </g>
    </g>
   </g>
   <g id="patch_84">
    <path d="M 50.565625 366.84375 
L 50.565625 10.8 
" style="fill:none;stroke:#000000;stroke-linecap:square;stroke-linejoin:miter;stroke-width:0.8;"/>
   </g>
   <g id="patch_85">
    <path d="M 554.2 366.84375 
L 554.2 10.8 
" style="fill:none;stroke:#000000;stroke-linecap:square;stroke-linejoin:miter;stroke-width:0.8;"/>
   </g>
   <g id="patch_86">
    <path d="M 50.565625 366.84375 
L 554.2 366.84375 
" style="fill:none;stroke:#000000;stroke-linecap:square;stroke-linejoin:miter;stroke-width:0.8;"/>
   </g>
   <g id="patch_87">
    <path d="M 50.565625 10.8 
L 554.2 10.8 
" style="fill:none;stroke:#000000;stroke-linecap:square;stroke-linejoin:miter;stroke-width:0.8;"/>
   </g>
  </g>
 </g>
 <defs>
  <clipPath id="pf355a6dea1">
   <rect height="356.04375" width="503.634375" x="50.565625" y="10.8"/>
  </clipPath>
 </defs>
</svg>
