<?xml version="1.0" encoding="utf-8" standalone="no"?>
<!DOCTYPE svg PUBLIC "-//W3C//DTD SVG 1.1//EN"
  "http://www.w3.org/Graphics/SVG/1.1/DTD/svg11.dtd">
<svg height="407pt" version="1.1" viewBox="0 0 562 407" width="562pt" xmlns="http://www.w3.org/2000/svg" xmlns:xlink="http://www.w3.org/1999/xlink">
 <metadata>
  <rdf:RDF xmlns:cc="http://creativecommons.org/ns#" xmlns:dc="http://purl.org/dc/elements/1.1/" xmlns:rdf="http://www.w3.org/1999/02/22-rdf-syntax-ns#">
   <cc:Work>
    <dc:type rdf:resource="http://purl.org/dc/dcmitype/StillImage"/>
    <dc:date>2025-02-20T20:19:51.550293</dc:date>
    <dc:format>image/svg+xml</dc:format>
    <dc:creator>
     <cc:Agent>
      <dc:title>Matplotlib v3.4.3, https://matplotlib.org/</dc:title>
     </cc:Agent>
    </dc:creator>
   </cc:Work>
  </rdf:RDF>
 </metadata>
 <defs>
  <style type="text/css">*{stroke-linecap:butt;stroke-linejoin:round;}</style>
 </defs>
 <g id="figure_1">
  <g id="patch_1">
   <path d="M 0 407 
L 562 407 
L 562 0 
L 0 0 
z
" style="fill:#ffffff;"/>
  </g>
  <g id="axes_1">
   <g id="patch_2">
    <path d="M 50.84375 365.565625 
L 551.2 365.565625 
L 551.2 10.8 
L 50.84375 10.8 
z
" style="fill:#ffffff;"/>
   </g>
   <g id="PathCollection_1">
    <defs>
     <path d="M 0 3 
C 0.795609 3 1.55874 2.683901 2.12132 2.12132 
C 2.683901 1.55874 3 0.795609 3 0 
C 3 -0.795609 2.683901 -1.55874 2.12132 -2.12132 
C 1.55874 -2.683901 0.795609 -3 0 -3 
C -0.795609 -3 -1.55874 -2.683901 -2.12132 -2.12132 
C -2.683901 -1.55874 -3 -0.795609 -3 0 
C -3 0.795609 -2.683901 1.55874 -2.12132 2.12132 
C -1.55874 2.683901 -0.795609 3 0 3 
z
" id="m5c7198a37a" style="stroke:#ffffff;stroke-width:0.48;"/>
    </defs>
    <g clip-path="url(#pf65dfabeab)">
     <use style="fill:#1f77b4;stroke:#ffffff;stroke-width:0.48;" x="242.667982" xlink:href="#m5c7198a37a" y="26.92571"/>
     <use style="fill:#1f77b4;stroke:#ffffff;stroke-width:0.48;" x="266.551161" xlink:href="#m5c7198a37a" y="29.006447"/>
     <use style="fill:#1f77b4;stroke:#ffffff;stroke-width:0.48;" x="339.415098" xlink:href="#m5c7198a37a" y="31.087184"/>
     <use style="fill:#1f77b4;stroke:#ffffff;stroke-width:0.48;" x="264.931962" xlink:href="#m5c7198a37a" y="33.167921"/>
     <use style="fill:#1f77b4;stroke:#ffffff;stroke-width:0.48;" x="275.456753" xlink:href="#m5c7198a37a" y="35.248657"/>
     <use style="fill:#1f77b4;stroke:#ffffff;stroke-width:0.48;" x="309.864723" xlink:href="#m5c7198a37a" y="37.329394"/>
     <use style="fill:#1f77b4;stroke:#ffffff;stroke-width:0.48;" x="262.098365" xlink:href="#m5c7198a37a" y="39.410131"/>
     <use style="fill:#1f77b4;stroke:#ffffff;stroke-width:0.48;" x="218.784802" xlink:href="#m5c7198a37a" y="41.490868"/>
     <use style="fill:#1f77b4;stroke:#ffffff;stroke-width:0.48;" x="249.954375" xlink:href="#m5c7198a37a" y="43.571605"/>
     <use style="fill:#1f77b4;stroke:#ffffff;stroke-width:0.48;" x="260.883966" xlink:href="#m5c7198a37a" y="45.652341"/>
     <use style="fill:#1f77b4;stroke:#ffffff;stroke-width:0.48;" x="255.216771" xlink:href="#m5c7198a37a" y="47.733078"/>
     <use style="fill:#1f77b4;stroke:#ffffff;stroke-width:0.48;" x="134.991275" xlink:href="#m5c7198a37a" y="49.813815"/>
     <use style="fill:#1f77b4;stroke:#ffffff;stroke-width:0.48;" x="209.069611" xlink:href="#m5c7198a37a" y="51.894552"/>
     <use style="fill:#1f77b4;stroke:#ffffff;stroke-width:0.48;" x="452.759" xlink:href="#m5c7198a37a" y="53.975289"/>
     <use style="fill:#1f77b4;stroke:#ffffff;stroke-width:0.48;" x="234.571989" xlink:href="#m5c7198a37a" y="56.056025"/>
     <use style="fill:#1f77b4;stroke:#ffffff;stroke-width:0.48;" x="364.107876" xlink:href="#m5c7198a37a" y="58.136762"/>
     <use style="fill:#1f77b4;stroke:#ffffff;stroke-width:0.48;" x="258.050368" xlink:href="#m5c7198a37a" y="60.217499"/>
     <use style="fill:#1f77b4;stroke:#ffffff;stroke-width:0.48;" x="247.120778" xlink:href="#m5c7198a37a" y="62.298236"/>
     <use style="fill:#1f77b4;stroke:#ffffff;stroke-width:0.48;" x="300.554331" xlink:href="#m5c7198a37a" y="64.378973"/>
     <use style="fill:#1f77b4;stroke:#ffffff;stroke-width:0.48;" x="209.069611" xlink:href="#m5c7198a37a" y="66.459709"/>
     <use style="fill:#1f77b4;stroke:#ffffff;stroke-width:0.48;" x="336.9863" xlink:href="#m5c7198a37a" y="68.540446"/>
     <use style="fill:#1f77b4;stroke:#ffffff;stroke-width:0.48;" x="230.119192" xlink:href="#m5c7198a37a" y="70.621183"/>
     <use style="fill:#1f77b4;stroke:#ffffff;stroke-width:0.48;" x="143.896867" xlink:href="#m5c7198a37a" y="72.70192"/>
     <use style="fill:#1f77b4;stroke:#ffffff;stroke-width:0.48;" x="232.95279" xlink:href="#m5c7198a37a" y="74.782657"/>
     <use style="fill:#1f77b4;stroke:#ffffff;stroke-width:0.48;" x="164.13685" xlink:href="#m5c7198a37a" y="78.94413"/>
     <use style="fill:#1f77b4;stroke:#ffffff;stroke-width:0.48;" x="101.838183" xlink:href="#m5c7198a37a" y="81.024867"/>
     <use style="fill:#1f77b4;stroke:#ffffff;stroke-width:0.48;" x="265.741562" xlink:href="#m5c7198a37a" y="83.105604"/>
     <use style="fill:#1f77b4;stroke:#ffffff;stroke-width:0.48;" x="528.456534" xlink:href="#m5c7198a37a" y="85.186341"/>
     <use style="fill:#1f77b4;stroke:#ffffff;stroke-width:0.48;" x="215.546405" xlink:href="#m5c7198a37a" y="87.267078"/>
     <use style="fill:#1f77b4;stroke:#ffffff;stroke-width:0.48;" x="165.351248" xlink:href="#m5c7198a37a" y="89.347814"/>
     <use style="fill:#1f77b4;stroke:#ffffff;stroke-width:0.48;" x="128.91928" xlink:href="#m5c7198a37a" y="91.428551"/>
     <use style="fill:#1f77b4;stroke:#ffffff;stroke-width:0.48;" x="155.636057" xlink:href="#m5c7198a37a" y="93.509288"/>
     <use style="fill:#1f77b4;stroke:#ffffff;stroke-width:0.48;" x="435.757414" xlink:href="#m5c7198a37a" y="95.590025"/>
     <use style="fill:#1f77b4;stroke:#ffffff;stroke-width:0.48;" x="101.433384" xlink:href="#m5c7198a37a" y="97.670762"/>
     <use style="fill:#1f77b4;stroke:#ffffff;stroke-width:0.48;" x="215.951205" xlink:href="#m5c7198a37a" y="99.751498"/>
     <use style="fill:#1f77b4;stroke:#ffffff;stroke-width:0.48;" x="241.048783" xlink:href="#m5c7198a37a" y="101.832235"/>
     <use style="fill:#1f77b4;stroke:#ffffff;stroke-width:0.48;" x="186.40083" xlink:href="#m5c7198a37a" y="105.993709"/>
     <use style="fill:#1f77b4;stroke:#ffffff;stroke-width:0.48;" x="192.068025" xlink:href="#m5c7198a37a" y="108.074446"/>
     <use style="fill:#1f77b4;stroke:#ffffff;stroke-width:0.48;" x="97.304427" xlink:href="#m5c7198a37a" y="110.155182"/>
     <use style="fill:#1f77b4;stroke:#ffffff;stroke-width:0.48;" x="202.188017" xlink:href="#m5c7198a37a" y="112.235919"/>
     <use style="fill:#1f77b4;stroke:#ffffff;stroke-width:0.48;" x="126.085682" xlink:href="#m5c7198a37a" y="114.316656"/>
     <use style="fill:#1f77b4;stroke:#ffffff;stroke-width:0.48;" x="207.450412" xlink:href="#m5c7198a37a" y="116.397393"/>
     <use style="fill:#1f77b4;stroke:#ffffff;stroke-width:0.48;" x="89.734674" xlink:href="#m5c7198a37a" y="118.47813"/>
     <use style="fill:#1f77b4;stroke:#ffffff;stroke-width:0.48;" x="141.872869" xlink:href="#m5c7198a37a" y="122.639603"/>
     <use style="fill:#1f77b4;stroke:#ffffff;stroke-width:0.48;" x="174.256841" xlink:href="#m5c7198a37a" y="124.72034"/>
     <use style="fill:#1f77b4;stroke:#ffffff;stroke-width:0.48;" x="210.688809" xlink:href="#m5c7198a37a" y="126.801077"/>
     <use style="fill:#1f77b4;stroke:#ffffff;stroke-width:0.48;" x="112.322494" xlink:href="#m5c7198a37a" y="128.881814"/>
     <use style="fill:#1f77b4;stroke:#ffffff;stroke-width:0.48;" x="330.509505" xlink:href="#m5c7198a37a" y="130.96255"/>
     <use style="fill:#1f77b4;stroke:#ffffff;stroke-width:0.48;" x="141.468069" xlink:href="#m5c7198a37a" y="133.043287"/>
     <use style="fill:#1f77b4;stroke:#ffffff;stroke-width:0.48;" x="181.543234" xlink:href="#m5c7198a37a" y="135.124024"/>
     <use style="fill:#1f77b4;stroke:#ffffff;stroke-width:0.48;" x="222.023199" xlink:href="#m5c7198a37a" y="137.204761"/>
     <use style="fill:#1f77b4;stroke:#ffffff;stroke-width:0.48;" x="200.568818" xlink:href="#m5c7198a37a" y="139.285498"/>
     <use style="fill:#1f77b4;stroke:#ffffff;stroke-width:0.48;" x="104.671781" xlink:href="#m5c7198a37a" y="141.366234"/>
     <use style="fill:#1f77b4;stroke:#ffffff;stroke-width:0.48;" x="159.279254" xlink:href="#m5c7198a37a" y="143.446971"/>
     <use style="fill:#1f77b4;stroke:#ffffff;stroke-width:0.48;" x="231.738391" xlink:href="#m5c7198a37a" y="145.527708"/>
     <use style="fill:#1f77b4;stroke:#ffffff;stroke-width:0.48;" x="89.775154" xlink:href="#m5c7198a37a" y="147.608445"/>
     <use style="fill:#1f77b4;stroke:#ffffff;stroke-width:0.48;" x="173.852041" xlink:href="#m5c7198a37a" y="149.689182"/>
     <use style="fill:#1f77b4;stroke:#ffffff;stroke-width:0.48;" x="99.976105" xlink:href="#m5c7198a37a" y="151.769918"/>
     <use style="fill:#1f77b4;stroke:#ffffff;stroke-width:0.48;" x="190.853626" xlink:href="#m5c7198a37a" y="153.850655"/>
     <use style="fill:#1f77b4;stroke:#ffffff;stroke-width:0.48;" x="119.608888" xlink:href="#m5c7198a37a" y="155.931392"/>
     <use style="fill:#1f77b4;stroke:#ffffff;stroke-width:0.48;" x="123.656885" xlink:href="#m5c7198a37a" y="160.092866"/>
     <use style="fill:#1f77b4;stroke:#ffffff;stroke-width:0.48;" x="189.639227" xlink:href="#m5c7198a37a" y="162.173602"/>
     <use style="fill:#1f77b4;stroke:#ffffff;stroke-width:0.48;" x="91.272913" xlink:href="#m5c7198a37a" y="164.254339"/>
     <use style="fill:#1f77b4;stroke:#ffffff;stroke-width:0.48;" x="175.06644" xlink:href="#m5c7198a37a" y="166.335076"/>
     <use style="fill:#1f77b4;stroke:#ffffff;stroke-width:0.48;" x="104.469381" xlink:href="#m5c7198a37a" y="168.415813"/>
     <use style="fill:#1f77b4;stroke:#ffffff;stroke-width:0.48;" x="138.634472" xlink:href="#m5c7198a37a" y="170.49655"/>
     <use style="fill:#1f77b4;stroke:#ffffff;stroke-width:0.48;" x="98.235467" xlink:href="#m5c7198a37a" y="172.577286"/>
     <use style="fill:#1f77b4;stroke:#ffffff;stroke-width:0.48;" x="130.943278" xlink:href="#m5c7198a37a" y="174.658023"/>
     <use style="fill:#1f77b4;stroke:#ffffff;stroke-width:0.48;" x="143.087268" xlink:href="#m5c7198a37a" y="176.73876"/>
     <use style="fill:#1f77b4;stroke:#ffffff;stroke-width:0.48;" x="83.784119" xlink:href="#m5c7198a37a" y="178.819497"/>
     <use style="fill:#1f77b4;stroke:#ffffff;stroke-width:0.48;" x="170.208844" xlink:href="#m5c7198a37a" y="180.900234"/>
     <use style="fill:#1f77b4;stroke:#ffffff;stroke-width:0.48;" x="137.420073" xlink:href="#m5c7198a37a" y="185.061707"/>
     <use style="fill:#1f77b4;stroke:#ffffff;stroke-width:0.48;" x="172.232843" xlink:href="#m5c7198a37a" y="189.223181"/>
     <use style="fill:#1f77b4;stroke:#ffffff;stroke-width:0.48;" x="188.829628" xlink:href="#m5c7198a37a" y="191.303918"/>
     <use style="fill:#1f77b4;stroke:#ffffff;stroke-width:0.48;" x="143.896867" xlink:href="#m5c7198a37a" y="193.384655"/>
     <use style="fill:#1f77b4;stroke:#ffffff;stroke-width:0.48;" x="175.06644" xlink:href="#m5c7198a37a" y="195.465391"/>
     <use style="fill:#1f77b4;stroke:#ffffff;stroke-width:0.48;" x="122.847285" xlink:href="#m5c7198a37a" y="197.546128"/>
     <use style="fill:#1f77b4;stroke:#ffffff;stroke-width:0.48;" x="92.487312" xlink:href="#m5c7198a37a" y="201.707602"/>
     <use style="fill:#1f77b4;stroke:#ffffff;stroke-width:0.48;" x="142.277668" xlink:href="#m5c7198a37a" y="205.869075"/>
     <use style="fill:#1f77b4;stroke:#ffffff;stroke-width:0.48;" x="127.704881" xlink:href="#m5c7198a37a" y="207.949812"/>
     <use style="fill:#1f77b4;stroke:#ffffff;stroke-width:0.48;" x="102.485863" xlink:href="#m5c7198a37a" y="210.030549"/>
     <use style="fill:#1f77b4;stroke:#ffffff;stroke-width:0.48;" x="136.610473" xlink:href="#m5c7198a37a" y="212.111286"/>
     <use style="fill:#1f77b4;stroke:#ffffff;stroke-width:0.48;" x="118.394489" xlink:href="#m5c7198a37a" y="214.192023"/>
     <use style="fill:#1f77b4;stroke:#ffffff;stroke-width:0.48;" x="120.013688" xlink:href="#m5c7198a37a" y="216.272759"/>
     <use style="fill:#1f77b4;stroke:#ffffff;stroke-width:0.48;" x="140.25367" xlink:href="#m5c7198a37a" y="218.353496"/>
     <use style="fill:#1f77b4;stroke:#ffffff;stroke-width:0.48;" x="99.247466" xlink:href="#m5c7198a37a" y="220.434233"/>
     <use style="fill:#1f77b4;stroke:#ffffff;stroke-width:0.48;" x="110.338976" xlink:href="#m5c7198a37a" y="222.51497"/>
     <use style="fill:#1f77b4;stroke:#ffffff;stroke-width:0.48;" x="84.796118" xlink:href="#m5c7198a37a" y="224.595707"/>
     <use style="fill:#1f77b4;stroke:#ffffff;stroke-width:0.48;" x="152.802459" xlink:href="#m5c7198a37a" y="226.676443"/>
     <use style="fill:#1f77b4;stroke:#ffffff;stroke-width:0.48;" x="88.965555" xlink:href="#m5c7198a37a" y="228.75718"/>
     <use style="fill:#1f77b4;stroke:#ffffff;stroke-width:0.48;" x="82.69116" xlink:href="#m5c7198a37a" y="232.918654"/>
     <use style="fill:#1f77b4;stroke:#ffffff;stroke-width:0.48;" x="104.833701" xlink:href="#m5c7198a37a" y="234.999391"/>
     <use style="fill:#1f77b4;stroke:#ffffff;stroke-width:0.48;" x="80.059962" xlink:href="#m5c7198a37a" y="237.080127"/>
     <use style="fill:#1f77b4;stroke:#ffffff;stroke-width:0.48;" x="136.610473" xlink:href="#m5c7198a37a" y="241.241601"/>
     <use style="fill:#1f77b4;stroke:#ffffff;stroke-width:0.48;" x="119.608888" xlink:href="#m5c7198a37a" y="245.403075"/>
     <use style="fill:#1f77b4;stroke:#ffffff;stroke-width:0.48;" x="122.442486" xlink:href="#m5c7198a37a" y="247.483811"/>
     <use style="fill:#1f77b4;stroke:#ffffff;stroke-width:0.48;" x="110.379456" xlink:href="#m5c7198a37a" y="249.564548"/>
     <use style="fill:#1f77b4;stroke:#ffffff;stroke-width:0.48;" x="87.548756" xlink:href="#m5c7198a37a" y="251.645285"/>
     <use style="fill:#1f77b4;stroke:#ffffff;stroke-width:0.48;" x="85.038998" xlink:href="#m5c7198a37a" y="255.806759"/>
     <use style="fill:#1f77b4;stroke:#ffffff;stroke-width:0.48;" x="73.587216" xlink:href="#m5c7198a37a" y="257.887495"/>
     <use style="fill:#1f77b4;stroke:#ffffff;stroke-width:0.48;" x="110.298496" xlink:href="#m5c7198a37a" y="259.968232"/>
     <use style="fill:#1f77b4;stroke:#ffffff;stroke-width:0.48;" x="74.894719" xlink:href="#m5c7198a37a" y="262.048969"/>
     <use style="fill:#1f77b4;stroke:#ffffff;stroke-width:0.48;" x="78.359804" xlink:href="#m5c7198a37a" y="264.129706"/>
     <use style="fill:#1f77b4;stroke:#ffffff;stroke-width:0.48;" x="110.419936" xlink:href="#m5c7198a37a" y="266.210443"/>
     <use style="fill:#1f77b4;stroke:#ffffff;stroke-width:0.48;" x="136.205674" xlink:href="#m5c7198a37a" y="268.291179"/>
     <use style="fill:#1f77b4;stroke:#ffffff;stroke-width:0.48;" x="80.829082" xlink:href="#m5c7198a37a" y="270.371916"/>
     <use style="fill:#1f77b4;stroke:#ffffff;stroke-width:0.48;" x="114.346493" xlink:href="#m5c7198a37a" y="272.452653"/>
     <use style="fill:#1f77b4;stroke:#ffffff;stroke-width:0.48;" x="77.388285" xlink:href="#m5c7198a37a" y="274.53339"/>
     <use style="fill:#1f77b4;stroke:#ffffff;stroke-width:0.48;" x="83.824599" xlink:href="#m5c7198a37a" y="276.614127"/>
     <use style="fill:#1f77b4;stroke:#ffffff;stroke-width:0.48;" x="86.779636" xlink:href="#m5c7198a37a" y="278.694863"/>
     <use style="fill:#1f77b4;stroke:#ffffff;stroke-width:0.48;" x="75.769086" xlink:href="#m5c7198a37a" y="280.7756"/>
     <use style="fill:#1f77b4;stroke:#ffffff;stroke-width:0.48;" x="115.965691" xlink:href="#m5c7198a37a" y="282.856337"/>
     <use style="fill:#1f77b4;stroke:#ffffff;stroke-width:0.48;" x="87.791636" xlink:href="#m5c7198a37a" y="284.937074"/>
     <use style="fill:#1f77b4;stroke:#ffffff;stroke-width:0.48;" x="134.586475" xlink:href="#m5c7198a37a" y="287.017811"/>
     <use style="fill:#1f77b4;stroke:#ffffff;stroke-width:0.48;" x="79.533723" xlink:href="#m5c7198a37a" y="291.179284"/>
     <use style="fill:#1f77b4;stroke:#ffffff;stroke-width:0.48;" x="76.943005" xlink:href="#m5c7198a37a" y="293.260021"/>
     <use style="fill:#1f77b4;stroke:#ffffff;stroke-width:0.48;" x="120.013688" xlink:href="#m5c7198a37a" y="295.340758"/>
     <use style="fill:#1f77b4;stroke:#ffffff;stroke-width:0.48;" x="96.413868" xlink:href="#m5c7198a37a" y="297.421495"/>
     <use style="fill:#1f77b4;stroke:#ffffff;stroke-width:0.48;" x="78.076444" xlink:href="#m5c7198a37a" y="299.502231"/>
     <use style="fill:#1f77b4;stroke:#ffffff;stroke-width:0.48;" x="105.35994" xlink:href="#m5c7198a37a" y="301.582968"/>
     <use style="fill:#1f77b4;stroke:#ffffff;stroke-width:0.48;" x="78.724123" xlink:href="#m5c7198a37a" y="303.663705"/>
     <use style="fill:#1f77b4;stroke:#ffffff;stroke-width:0.48;" x="109.731777" xlink:href="#m5c7198a37a" y="305.744442"/>
     <use style="fill:#1f77b4;stroke:#ffffff;stroke-width:0.48;" x="78.602684" xlink:href="#m5c7198a37a" y="307.825179"/>
     <use style="fill:#1f77b4;stroke:#ffffff;stroke-width:0.48;" x="117.18009" xlink:href="#m5c7198a37a" y="309.905916"/>
     <use style="fill:#1f77b4;stroke:#ffffff;stroke-width:0.48;" x="86.010517" xlink:href="#m5c7198a37a" y="311.986652"/>
     <use style="fill:#1f77b4;stroke:#ffffff;stroke-width:0.48;" x="77.550204" xlink:href="#m5c7198a37a" y="314.067389"/>
     <use style="fill:#1f77b4;stroke:#ffffff;stroke-width:0.48;" x="100.299945" xlink:href="#m5c7198a37a" y="316.148126"/>
     <use style="fill:#1f77b4;stroke:#ffffff;stroke-width:0.48;" x="75.647646" xlink:href="#m5c7198a37a" y="318.228863"/>
     <use style="fill:#1f77b4;stroke:#ffffff;stroke-width:0.48;" x="81.071961" xlink:href="#m5c7198a37a" y="320.3096"/>
     <use style="fill:#1f77b4;stroke:#ffffff;stroke-width:0.48;" x="77.064445" xlink:href="#m5c7198a37a" y="322.390336"/>
     <use style="fill:#1f77b4;stroke:#ffffff;stroke-width:0.48;" x="82.85308" xlink:href="#m5c7198a37a" y="324.471073"/>
     <use style="fill:#1f77b4;stroke:#ffffff;stroke-width:0.48;" x="73.63984" xlink:href="#m5c7198a37a" y="326.55181"/>
     <use style="fill:#1f77b4;stroke:#ffffff;stroke-width:0.48;" x="80.707642" xlink:href="#m5c7198a37a" y="328.632547"/>
     <use style="fill:#1f77b4;stroke:#ffffff;stroke-width:0.48;" x="77.671644" xlink:href="#m5c7198a37a" y="330.713284"/>
     <use style="fill:#1f77b4;stroke:#ffffff;stroke-width:0.48;" x="139.039271" xlink:href="#m5c7198a37a" y="332.79402"/>
     <use style="fill:#1f77b4;stroke:#ffffff;stroke-width:0.48;" x="82.77212" xlink:href="#m5c7198a37a" y="334.874757"/>
     <use style="fill:#1f77b4;stroke:#ffffff;stroke-width:0.48;" x="75.809566" xlink:href="#m5c7198a37a" y="336.955494"/>
     <use style="fill:#1f77b4;stroke:#ffffff;stroke-width:0.48;" x="80.505242" xlink:href="#m5c7198a37a" y="339.036231"/>
     <use style="fill:#1f77b4;stroke:#ffffff;stroke-width:0.48;" x="79.574203" xlink:href="#m5c7198a37a" y="341.116968"/>
     <use style="fill:#1f77b4;stroke:#ffffff;stroke-width:0.48;" x="83.09596" xlink:href="#m5c7198a37a" y="343.197704"/>
     <use style="fill:#1f77b4;stroke:#ffffff;stroke-width:0.48;" x="78.157404" xlink:href="#m5c7198a37a" y="345.278441"/>
     <use style="fill:#1f77b4;stroke:#ffffff;stroke-width:0.48;" x="74.247039" xlink:href="#m5c7198a37a" y="347.359178"/>
     <use style="fill:#1f77b4;stroke:#ffffff;stroke-width:0.48;" x="78.562204" xlink:href="#m5c7198a37a" y="349.439915"/>
    </g>
   </g>
   <g id="matplotlib.axis_1">
    <g id="xtick_1">
     <g id="line2d_1">
      <defs>
       <path d="M 0 0 
L 0 3.5 
" id="m9afcffe829" style="stroke:#000000;stroke-width:0.8;"/>
      </defs>
      <g>
       <use style="stroke:#000000;stroke-width:0.8;" x="71.03293" xlink:href="#m9afcffe829" y="365.565625"/>
      </g>
     </g>
     <g id="text_1">
      <!-- 0 -->
      <g transform="translate(67.85168 380.164062)scale(0.1 -0.1)">
       <defs>
        <path d="M 2034 4250 
Q 1547 4250 1301 3770 
Q 1056 3291 1056 2328 
Q 1056 1369 1301 889 
Q 1547 409 2034 409 
Q 2525 409 2770 889 
Q 3016 1369 3016 2328 
Q 3016 3291 2770 3770 
Q 2525 4250 2034 4250 
z
M 2034 4750 
Q 2819 4750 3233 4129 
Q 3647 3509 3647 2328 
Q 3647 1150 3233 529 
Q 2819 -91 2034 -91 
Q 1250 -91 836 529 
Q 422 1150 422 2328 
Q 422 3509 836 4129 
Q 1250 4750 2034 4750 
z
" id="DejaVuSans-30" transform="scale(0.015625)"/>
       </defs>
       <use xlink:href="#DejaVuSans-30"/>
      </g>
     </g>
    </g>
    <g id="xtick_2">
     <g id="line2d_2">
      <g>
       <use style="stroke:#000000;stroke-width:0.8;" x="151.99286" xlink:href="#m9afcffe829" y="365.565625"/>
      </g>
     </g>
     <g id="text_2">
      <!-- 20000 -->
      <g transform="translate(136.08661 380.164062)scale(0.1 -0.1)">
       <defs>
        <path d="M 1228 531 
L 3431 531 
L 3431 0 
L 469 0 
L 469 531 
Q 828 903 1448 1529 
Q 2069 2156 2228 2338 
Q 2531 2678 2651 2914 
Q 2772 3150 2772 3378 
Q 2772 3750 2511 3984 
Q 2250 4219 1831 4219 
Q 1534 4219 1204 4116 
Q 875 4013 500 3803 
L 500 4441 
Q 881 4594 1212 4672 
Q 1544 4750 1819 4750 
Q 2544 4750 2975 4387 
Q 3406 4025 3406 3419 
Q 3406 3131 3298 2873 
Q 3191 2616 2906 2266 
Q 2828 2175 2409 1742 
Q 1991 1309 1228 531 
z
" id="DejaVuSans-32" transform="scale(0.015625)"/>
       </defs>
       <use xlink:href="#DejaVuSans-32"/>
       <use x="63.623047" xlink:href="#DejaVuSans-30"/>
       <use x="127.246094" xlink:href="#DejaVuSans-30"/>
       <use x="190.869141" xlink:href="#DejaVuSans-30"/>
       <use x="254.492188" xlink:href="#DejaVuSans-30"/>
      </g>
     </g>
    </g>
    <g id="xtick_3">
     <g id="line2d_3">
      <g>
       <use style="stroke:#000000;stroke-width:0.8;" x="232.95279" xlink:href="#m9afcffe829" y="365.565625"/>
      </g>
     </g>
     <g id="text_3">
      <!-- 40000 -->
      <g transform="translate(217.04654 380.164062)scale(0.1 -0.1)">
       <defs>
        <path d="M 2419 4116 
L 825 1625 
L 2419 1625 
L 2419 4116 
z
M 2253 4666 
L 3047 4666 
L 3047 1625 
L 3713 1625 
L 3713 1100 
L 3047 1100 
L 3047 0 
L 2419 0 
L 2419 1100 
L 313 1100 
L 313 1709 
L 2253 4666 
z
" id="DejaVuSans-34" transform="scale(0.015625)"/>
       </defs>
       <use xlink:href="#DejaVuSans-34"/>
       <use x="63.623047" xlink:href="#DejaVuSans-30"/>
       <use x="127.246094" xlink:href="#DejaVuSans-30"/>
       <use x="190.869141" xlink:href="#DejaVuSans-30"/>
       <use x="254.492188" xlink:href="#DejaVuSans-30"/>
      </g>
     </g>
    </g>
    <g id="xtick_4">
     <g id="line2d_4">
      <g>
       <use style="stroke:#000000;stroke-width:0.8;" x="313.91272" xlink:href="#m9afcffe829" y="365.565625"/>
      </g>
     </g>
     <g id="text_4">
      <!-- 60000 -->
      <g transform="translate(298.00647 380.164062)scale(0.1 -0.1)">
       <defs>
        <path d="M 2113 2584 
Q 1688 2584 1439 2293 
Q 1191 2003 1191 1497 
Q 1191 994 1439 701 
Q 1688 409 2113 409 
Q 2538 409 2786 701 
Q 3034 994 3034 1497 
Q 3034 2003 2786 2293 
Q 2538 2584 2113 2584 
z
M 3366 4563 
L 3366 3988 
Q 3128 4100 2886 4159 
Q 2644 4219 2406 4219 
Q 1781 4219 1451 3797 
Q 1122 3375 1075 2522 
Q 1259 2794 1537 2939 
Q 1816 3084 2150 3084 
Q 2853 3084 3261 2657 
Q 3669 2231 3669 1497 
Q 3669 778 3244 343 
Q 2819 -91 2113 -91 
Q 1303 -91 875 529 
Q 447 1150 447 2328 
Q 447 3434 972 4092 
Q 1497 4750 2381 4750 
Q 2619 4750 2861 4703 
Q 3103 4656 3366 4563 
z
" id="DejaVuSans-36" transform="scale(0.015625)"/>
       </defs>
       <use xlink:href="#DejaVuSans-36"/>
       <use x="63.623047" xlink:href="#DejaVuSans-30"/>
       <use x="127.246094" xlink:href="#DejaVuSans-30"/>
       <use x="190.869141" xlink:href="#DejaVuSans-30"/>
       <use x="254.492188" xlink:href="#DejaVuSans-30"/>
      </g>
     </g>
    </g>
    <g id="xtick_5">
     <g id="line2d_5">
      <g>
       <use style="stroke:#000000;stroke-width:0.8;" x="394.87265" xlink:href="#m9afcffe829" y="365.565625"/>
      </g>
     </g>
     <g id="text_5">
      <!-- 80000 -->
      <g transform="translate(378.9664 380.164062)scale(0.1 -0.1)">
       <defs>
        <path d="M 2034 2216 
Q 1584 2216 1326 1975 
Q 1069 1734 1069 1313 
Q 1069 891 1326 650 
Q 1584 409 2034 409 
Q 2484 409 2743 651 
Q 3003 894 3003 1313 
Q 3003 1734 2745 1975 
Q 2488 2216 2034 2216 
z
M 1403 2484 
Q 997 2584 770 2862 
Q 544 3141 544 3541 
Q 544 4100 942 4425 
Q 1341 4750 2034 4750 
Q 2731 4750 3128 4425 
Q 3525 4100 3525 3541 
Q 3525 3141 3298 2862 
Q 3072 2584 2669 2484 
Q 3125 2378 3379 2068 
Q 3634 1759 3634 1313 
Q 3634 634 3220 271 
Q 2806 -91 2034 -91 
Q 1263 -91 848 271 
Q 434 634 434 1313 
Q 434 1759 690 2068 
Q 947 2378 1403 2484 
z
M 1172 3481 
Q 1172 3119 1398 2916 
Q 1625 2713 2034 2713 
Q 2441 2713 2670 2916 
Q 2900 3119 2900 3481 
Q 2900 3844 2670 4047 
Q 2441 4250 2034 4250 
Q 1625 4250 1398 4047 
Q 1172 3844 1172 3481 
z
" id="DejaVuSans-38" transform="scale(0.015625)"/>
       </defs>
       <use xlink:href="#DejaVuSans-38"/>
       <use x="63.623047" xlink:href="#DejaVuSans-30"/>
       <use x="127.246094" xlink:href="#DejaVuSans-30"/>
       <use x="190.869141" xlink:href="#DejaVuSans-30"/>
       <use x="254.492188" xlink:href="#DejaVuSans-30"/>
      </g>
     </g>
    </g>
    <g id="xtick_6">
     <g id="line2d_6">
      <g>
       <use style="stroke:#000000;stroke-width:0.8;" x="475.83258" xlink:href="#m9afcffe829" y="365.565625"/>
      </g>
     </g>
     <g id="text_6">
      <!-- 100000 -->
      <g transform="translate(456.74508 380.164062)scale(0.1 -0.1)">
       <defs>
        <path d="M 794 531 
L 1825 531 
L 1825 4091 
L 703 3866 
L 703 4441 
L 1819 4666 
L 2450 4666 
L 2450 531 
L 3481 531 
L 3481 0 
L 794 0 
L 794 531 
z
" id="DejaVuSans-31" transform="scale(0.015625)"/>
       </defs>
       <use xlink:href="#DejaVuSans-31"/>
       <use x="63.623047" xlink:href="#DejaVuSans-30"/>
       <use x="127.246094" xlink:href="#DejaVuSans-30"/>
       <use x="190.869141" xlink:href="#DejaVuSans-30"/>
       <use x="254.492188" xlink:href="#DejaVuSans-30"/>
       <use x="318.115234" xlink:href="#DejaVuSans-30"/>
      </g>
     </g>
    </g>
    <g id="text_7">
     <!-- gdp_per_cap -->
     <g transform="translate(269.205469 393.842187)scale(0.1 -0.1)">
      <defs>
       <path d="M 2906 1791 
Q 2906 2416 2648 2759 
Q 2391 3103 1925 3103 
Q 1463 3103 1205 2759 
Q 947 2416 947 1791 
Q 947 1169 1205 825 
Q 1463 481 1925 481 
Q 2391 481 2648 825 
Q 2906 1169 2906 1791 
z
M 3481 434 
Q 3481 -459 3084 -895 
Q 2688 -1331 1869 -1331 
Q 1566 -1331 1297 -1286 
Q 1028 -1241 775 -1147 
L 775 -588 
Q 1028 -725 1275 -790 
Q 1522 -856 1778 -856 
Q 2344 -856 2625 -561 
Q 2906 -266 2906 331 
L 2906 616 
Q 2728 306 2450 153 
Q 2172 0 1784 0 
Q 1141 0 747 490 
Q 353 981 353 1791 
Q 353 2603 747 3093 
Q 1141 3584 1784 3584 
Q 2172 3584 2450 3431 
Q 2728 3278 2906 2969 
L 2906 3500 
L 3481 3500 
L 3481 434 
z
" id="DejaVuSans-67" transform="scale(0.015625)"/>
       <path d="M 2906 2969 
L 2906 4863 
L 3481 4863 
L 3481 0 
L 2906 0 
L 2906 525 
Q 2725 213 2448 61 
Q 2172 -91 1784 -91 
Q 1150 -91 751 415 
Q 353 922 353 1747 
Q 353 2572 751 3078 
Q 1150 3584 1784 3584 
Q 2172 3584 2448 3432 
Q 2725 3281 2906 2969 
z
M 947 1747 
Q 947 1113 1208 752 
Q 1469 391 1925 391 
Q 2381 391 2643 752 
Q 2906 1113 2906 1747 
Q 2906 2381 2643 2742 
Q 2381 3103 1925 3103 
Q 1469 3103 1208 2742 
Q 947 2381 947 1747 
z
" id="DejaVuSans-64" transform="scale(0.015625)"/>
       <path d="M 1159 525 
L 1159 -1331 
L 581 -1331 
L 581 3500 
L 1159 3500 
L 1159 2969 
Q 1341 3281 1617 3432 
Q 1894 3584 2278 3584 
Q 2916 3584 3314 3078 
Q 3713 2572 3713 1747 
Q 3713 922 3314 415 
Q 2916 -91 2278 -91 
Q 1894 -91 1617 61 
Q 1341 213 1159 525 
z
M 3116 1747 
Q 3116 2381 2855 2742 
Q 2594 3103 2138 3103 
Q 1681 3103 1420 2742 
Q 1159 2381 1159 1747 
Q 1159 1113 1420 752 
Q 1681 391 2138 391 
Q 2594 391 2855 752 
Q 3116 1113 3116 1747 
z
" id="DejaVuSans-70" transform="scale(0.015625)"/>
       <path d="M 3263 -1063 
L 3263 -1509 
L -63 -1509 
L -63 -1063 
L 3263 -1063 
z
" id="DejaVuSans-5f" transform="scale(0.015625)"/>
       <path d="M 3597 1894 
L 3597 1613 
L 953 1613 
Q 991 1019 1311 708 
Q 1631 397 2203 397 
Q 2534 397 2845 478 
Q 3156 559 3463 722 
L 3463 178 
Q 3153 47 2828 -22 
Q 2503 -91 2169 -91 
Q 1331 -91 842 396 
Q 353 884 353 1716 
Q 353 2575 817 3079 
Q 1281 3584 2069 3584 
Q 2775 3584 3186 3129 
Q 3597 2675 3597 1894 
z
M 3022 2063 
Q 3016 2534 2758 2815 
Q 2500 3097 2075 3097 
Q 1594 3097 1305 2825 
Q 1016 2553 972 2059 
L 3022 2063 
z
" id="DejaVuSans-65" transform="scale(0.015625)"/>
       <path d="M 2631 2963 
Q 2534 3019 2420 3045 
Q 2306 3072 2169 3072 
Q 1681 3072 1420 2755 
Q 1159 2438 1159 1844 
L 1159 0 
L 581 0 
L 581 3500 
L 1159 3500 
L 1159 2956 
Q 1341 3275 1631 3429 
Q 1922 3584 2338 3584 
Q 2397 3584 2469 3576 
Q 2541 3569 2628 3553 
L 2631 2963 
z
" id="DejaVuSans-72" transform="scale(0.015625)"/>
       <path d="M 3122 3366 
L 3122 2828 
Q 2878 2963 2633 3030 
Q 2388 3097 2138 3097 
Q 1578 3097 1268 2742 
Q 959 2388 959 1747 
Q 959 1106 1268 751 
Q 1578 397 2138 397 
Q 2388 397 2633 464 
Q 2878 531 3122 666 
L 3122 134 
Q 2881 22 2623 -34 
Q 2366 -91 2075 -91 
Q 1284 -91 818 406 
Q 353 903 353 1747 
Q 353 2603 823 3093 
Q 1294 3584 2113 3584 
Q 2378 3584 2631 3529 
Q 2884 3475 3122 3366 
z
" id="DejaVuSans-63" transform="scale(0.015625)"/>
       <path d="M 2194 1759 
Q 1497 1759 1228 1600 
Q 959 1441 959 1056 
Q 959 750 1161 570 
Q 1363 391 1709 391 
Q 2188 391 2477 730 
Q 2766 1069 2766 1631 
L 2766 1759 
L 2194 1759 
z
M 3341 1997 
L 3341 0 
L 2766 0 
L 2766 531 
Q 2569 213 2275 61 
Q 1981 -91 1556 -91 
Q 1019 -91 701 211 
Q 384 513 384 1019 
Q 384 1609 779 1909 
Q 1175 2209 1959 2209 
L 2766 2209 
L 2766 2266 
Q 2766 2663 2505 2880 
Q 2244 3097 1772 3097 
Q 1472 3097 1187 3025 
Q 903 2953 641 2809 
L 641 3341 
Q 956 3463 1253 3523 
Q 1550 3584 1831 3584 
Q 2591 3584 2966 3190 
Q 3341 2797 3341 1997 
z
" id="DejaVuSans-61" transform="scale(0.015625)"/>
      </defs>
      <use xlink:href="#DejaVuSans-67"/>
      <use x="63.476562" xlink:href="#DejaVuSans-64"/>
      <use x="126.953125" xlink:href="#DejaVuSans-70"/>
      <use x="190.429688" xlink:href="#DejaVuSans-5f"/>
      <use x="240.429688" xlink:href="#DejaVuSans-70"/>
      <use x="303.90625" xlink:href="#DejaVuSans-65"/>
      <use x="365.429688" xlink:href="#DejaVuSans-72"/>
      <use x="406.542969" xlink:href="#DejaVuSans-5f"/>
      <use x="456.542969" xlink:href="#DejaVuSans-63"/>
      <use x="511.523438" xlink:href="#DejaVuSans-61"/>
      <use x="572.802734" xlink:href="#DejaVuSans-70"/>
     </g>
    </g>
   </g>
   <g id="matplotlib.axis_2">
    <g id="ytick_1">
     <g id="line2d_7">
      <defs>
       <path d="M 0 0 
L -3.5 0 
" id="m31ae163ae6" style="stroke:#000000;stroke-width:0.8;"/>
      </defs>
      <g>
       <use style="stroke:#000000;stroke-width:0.8;" x="50.84375" xlink:href="#m31ae163ae6" y="349.439915"/>
      </g>
     </g>
     <g id="text_8">
      <!-- 0 -->
      <g transform="translate(37.48125 353.239134)scale(0.1 -0.1)">
       <use xlink:href="#DejaVuSans-30"/>
      </g>
     </g>
    </g>
    <g id="ytick_2">
     <g id="line2d_8">
      <g>
       <use style="stroke:#000000;stroke-width:0.8;" x="50.84375" xlink:href="#m31ae163ae6" y="307.825179"/>
      </g>
     </g>
     <g id="text_9">
      <!-- 20 -->
      <g transform="translate(31.11875 311.624397)scale(0.1 -0.1)">
       <use xlink:href="#DejaVuSans-32"/>
       <use x="63.623047" xlink:href="#DejaVuSans-30"/>
      </g>
     </g>
    </g>
    <g id="ytick_3">
     <g id="line2d_9">
      <g>
       <use style="stroke:#000000;stroke-width:0.8;" x="50.84375" xlink:href="#m31ae163ae6" y="266.210443"/>
      </g>
     </g>
     <g id="text_10">
      <!-- 40 -->
      <g transform="translate(31.11875 270.009661)scale(0.1 -0.1)">
       <use xlink:href="#DejaVuSans-34"/>
       <use x="63.623047" xlink:href="#DejaVuSans-30"/>
      </g>
     </g>
    </g>
    <g id="ytick_4">
     <g id="line2d_10">
      <g>
       <use style="stroke:#000000;stroke-width:0.8;" x="50.84375" xlink:href="#m31ae163ae6" y="224.595707"/>
      </g>
     </g>
     <g id="text_11">
      <!-- 60 -->
      <g transform="translate(31.11875 228.394925)scale(0.1 -0.1)">
       <use xlink:href="#DejaVuSans-36"/>
       <use x="63.623047" xlink:href="#DejaVuSans-30"/>
      </g>
     </g>
    </g>
    <g id="ytick_5">
     <g id="line2d_11">
      <g>
       <use style="stroke:#000000;stroke-width:0.8;" x="50.84375" xlink:href="#m31ae163ae6" y="182.98097"/>
      </g>
     </g>
     <g id="text_12">
      <!-- 80 -->
      <g transform="translate(31.11875 186.780189)scale(0.1 -0.1)">
       <use xlink:href="#DejaVuSans-38"/>
       <use x="63.623047" xlink:href="#DejaVuSans-30"/>
      </g>
     </g>
    </g>
    <g id="ytick_6">
     <g id="line2d_12">
      <g>
       <use style="stroke:#000000;stroke-width:0.8;" x="50.84375" xlink:href="#m31ae163ae6" y="141.366234"/>
      </g>
     </g>
     <g id="text_13">
      <!-- 100 -->
      <g transform="translate(24.75625 145.165453)scale(0.1 -0.1)">
       <use xlink:href="#DejaVuSans-31"/>
       <use x="63.623047" xlink:href="#DejaVuSans-30"/>
       <use x="127.246094" xlink:href="#DejaVuSans-30"/>
      </g>
     </g>
    </g>
    <g id="ytick_7">
     <g id="line2d_13">
      <g>
       <use style="stroke:#000000;stroke-width:0.8;" x="50.84375" xlink:href="#m31ae163ae6" y="99.751498"/>
      </g>
     </g>
     <g id="text_14">
      <!-- 120 -->
      <g transform="translate(24.75625 103.550717)scale(0.1 -0.1)">
       <use xlink:href="#DejaVuSans-31"/>
       <use x="63.623047" xlink:href="#DejaVuSans-32"/>
       <use x="127.246094" xlink:href="#DejaVuSans-30"/>
      </g>
     </g>
    </g>
    <g id="ytick_8">
     <g id="line2d_14">
      <g>
       <use style="stroke:#000000;stroke-width:0.8;" x="50.84375" xlink:href="#m31ae163ae6" y="58.136762"/>
      </g>
     </g>
     <g id="text_15">
      <!-- 140 -->
      <g transform="translate(24.75625 61.935981)scale(0.1 -0.1)">
       <use xlink:href="#DejaVuSans-31"/>
       <use x="63.623047" xlink:href="#DejaVuSans-34"/>
       <use x="127.246094" xlink:href="#DejaVuSans-30"/>
      </g>
     </g>
    </g>
    <g id="ytick_9">
     <g id="line2d_15">
      <g>
       <use style="stroke:#000000;stroke-width:0.8;" x="50.84375" xlink:href="#m31ae163ae6" y="16.522026"/>
      </g>
     </g>
     <g id="text_16">
      <!-- 160 -->
      <g transform="translate(24.75625 20.321245)scale(0.1 -0.1)">
       <use xlink:href="#DejaVuSans-31"/>
       <use x="63.623047" xlink:href="#DejaVuSans-36"/>
       <use x="127.246094" xlink:href="#DejaVuSans-30"/>
      </g>
     </g>
    </g>
    <g id="text_17">
     <!-- happiness_score -->
     <g transform="translate(18.398438 229.540625)rotate(-90)scale(0.1 -0.1)">
      <defs>
       <path d="M 3513 2113 
L 3513 0 
L 2938 0 
L 2938 2094 
Q 2938 2591 2744 2837 
Q 2550 3084 2163 3084 
Q 1697 3084 1428 2787 
Q 1159 2491 1159 1978 
L 1159 0 
L 581 0 
L 581 4863 
L 1159 4863 
L 1159 2956 
Q 1366 3272 1645 3428 
Q 1925 3584 2291 3584 
Q 2894 3584 3203 3211 
Q 3513 2838 3513 2113 
z
" id="DejaVuSans-68" transform="scale(0.015625)"/>
       <path d="M 603 3500 
L 1178 3500 
L 1178 0 
L 603 0 
L 603 3500 
z
M 603 4863 
L 1178 4863 
L 1178 4134 
L 603 4134 
L 603 4863 
z
" id="DejaVuSans-69" transform="scale(0.015625)"/>
       <path d="M 3513 2113 
L 3513 0 
L 2938 0 
L 2938 2094 
Q 2938 2591 2744 2837 
Q 2550 3084 2163 3084 
Q 1697 3084 1428 2787 
Q 1159 2491 1159 1978 
L 1159 0 
L 581 0 
L 581 3500 
L 1159 3500 
L 1159 2956 
Q 1366 3272 1645 3428 
Q 1925 3584 2291 3584 
Q 2894 3584 3203 3211 
Q 3513 2838 3513 2113 
z
" id="DejaVuSans-6e" transform="scale(0.015625)"/>
       <path d="M 2834 3397 
L 2834 2853 
Q 2591 2978 2328 3040 
Q 2066 3103 1784 3103 
Q 1356 3103 1142 2972 
Q 928 2841 928 2578 
Q 928 2378 1081 2264 
Q 1234 2150 1697 2047 
L 1894 2003 
Q 2506 1872 2764 1633 
Q 3022 1394 3022 966 
Q 3022 478 2636 193 
Q 2250 -91 1575 -91 
Q 1294 -91 989 -36 
Q 684 19 347 128 
L 347 722 
Q 666 556 975 473 
Q 1284 391 1588 391 
Q 1994 391 2212 530 
Q 2431 669 2431 922 
Q 2431 1156 2273 1281 
Q 2116 1406 1581 1522 
L 1381 1569 
Q 847 1681 609 1914 
Q 372 2147 372 2553 
Q 372 3047 722 3315 
Q 1072 3584 1716 3584 
Q 2034 3584 2315 3537 
Q 2597 3491 2834 3397 
z
" id="DejaVuSans-73" transform="scale(0.015625)"/>
       <path d="M 1959 3097 
Q 1497 3097 1228 2736 
Q 959 2375 959 1747 
Q 959 1119 1226 758 
Q 1494 397 1959 397 
Q 2419 397 2687 759 
Q 2956 1122 2956 1747 
Q 2956 2369 2687 2733 
Q 2419 3097 1959 3097 
z
M 1959 3584 
Q 2709 3584 3137 3096 
Q 3566 2609 3566 1747 
Q 3566 888 3137 398 
Q 2709 -91 1959 -91 
Q 1206 -91 779 398 
Q 353 888 353 1747 
Q 353 2609 779 3096 
Q 1206 3584 1959 3584 
z
" id="DejaVuSans-6f" transform="scale(0.015625)"/>
      </defs>
      <use xlink:href="#DejaVuSans-68"/>
      <use x="63.378906" xlink:href="#DejaVuSans-61"/>
      <use x="124.658203" xlink:href="#DejaVuSans-70"/>
      <use x="188.134766" xlink:href="#DejaVuSans-70"/>
      <use x="251.611328" xlink:href="#DejaVuSans-69"/>
      <use x="279.394531" xlink:href="#DejaVuSans-6e"/>
      <use x="342.773438" xlink:href="#DejaVuSans-65"/>
      <use x="404.296875" xlink:href="#DejaVuSans-73"/>
      <use x="456.396484" xlink:href="#DejaVuSans-73"/>
      <use x="508.496094" xlink:href="#DejaVuSans-5f"/>
      <use x="558.496094" xlink:href="#DejaVuSans-73"/>
      <use x="610.595703" xlink:href="#DejaVuSans-63"/>
      <use x="665.576172" xlink:href="#DejaVuSans-6f"/>
      <use x="726.757812" xlink:href="#DejaVuSans-72"/>
      <use x="765.621094" xlink:href="#DejaVuSans-65"/>
     </g>
    </g>
   </g>
   <g id="patch_3">
    <path d="M 50.84375 365.565625 
L 50.84375 10.8 
" style="fill:none;stroke:#000000;stroke-linecap:square;stroke-linejoin:miter;stroke-width:0.8;"/>
   </g>
   <g id="patch_4">
    <path d="M 551.2 365.565625 
L 551.2 10.8 
" style="fill:none;stroke:#000000;stroke-linecap:square;stroke-linejoin:miter;stroke-width:0.8;"/>
   </g>
   <g id="patch_5">
    <path d="M 50.84375 365.565625 
L 551.2 365.565625 
" style="fill:none;stroke:#000000;stroke-linecap:square;stroke-linejoin:miter;stroke-width:0.8;"/>
   </g>
   <g id="patch_6">
    <path d="M 50.84375 10.8 
L 551.2 10.8 
" style="fill:none;stroke:#000000;stroke-linecap:square;stroke-linejoin:miter;stroke-width:0.8;"/>
   </g>
  </g>
 </g>
 <defs>
  <clipPath id="pf65dfabeab">
   <rect height="354.765625" width="500.35625" x="50.84375" y="10.8"/>
  </clipPath>
 </defs>
</svg>
