<?xml version="1.0" encoding="utf-8" standalone="no"?>
<!DOCTYPE svg PUBLIC "-//W3C//DTD SVG 1.1//EN"
  "http://www.w3.org/Graphics/SVG/1.1/DTD/svg11.dtd">
<svg height="408pt" version="1.1" viewBox="0 0 276 408" width="276pt" xmlns="http://www.w3.org/2000/svg" xmlns:xlink="http://www.w3.org/1999/xlink">
 <metadata>
  <rdf:RDF xmlns:cc="http://creativecommons.org/ns#" xmlns:dc="http://purl.org/dc/elements/1.1/" xmlns:rdf="http://www.w3.org/1999/02/22-rdf-syntax-ns#">
   <cc:Work>
    <dc:type rdf:resource="http://purl.org/dc/dcmitype/StillImage"/>
    <dc:date>2025-01-19T22:55:13.874074</dc:date>
    <dc:format>image/svg+xml</dc:format>
    <dc:creator>
     <cc:Agent>
      <dc:title>Matplotlib v3.4.3, https://matplotlib.org/</dc:title>
     </cc:Agent>
    </dc:creator>
   </cc:Work>
  </rdf:RDF>
 </metadata>
 <defs>
  <style type="text/css">*{stroke-linecap:butt;stroke-linejoin:round;}</style>
 </defs>
 <g id="figure_1">
  <g id="patch_1">
   <path d="M 0 408 
L 276 408 
L 276 0 
L 0 0 
z
" style="fill:#ffffff;"/>
  </g>
  <g id="axes_1">
   <g id="patch_2">
    <path d="M 30.525 380.521875 
L 265.2 380.521875 
L 265.2 10.8 
L 30.525 10.8 
z
" style="fill:#ffffff;"/>
   </g>
   <g id="matplotlib.axis_1">
    <g id="xtick_1">
     <g id="line2d_1">
      <defs>
       <path d="M 0 0 
L 0 3.5 
" id="m3a1a9484ee" style="stroke:#000000;stroke-width:0.8;"/>
      </defs>
      <g>
       <use style="stroke:#000000;stroke-width:0.8;" x="41.192045" xlink:href="#m3a1a9484ee" y="380.521875"/>
      </g>
     </g>
     <g id="text_1">
      <!-- 0 -->
      <g transform="translate(38.010795 395.120313)scale(0.1 -0.1)">
       <defs>
        <path d="M 2034 4250 
Q 1547 4250 1301 3770 
Q 1056 3291 1056 2328 
Q 1056 1369 1301 889 
Q 1547 409 2034 409 
Q 2525 409 2770 889 
Q 3016 1369 3016 2328 
Q 3016 3291 2770 3770 
Q 2525 4250 2034 4250 
z
M 2034 4750 
Q 2819 4750 3233 4129 
Q 3647 3509 3647 2328 
Q 3647 1150 3233 529 
Q 2819 -91 2034 -91 
Q 1250 -91 836 529 
Q 422 1150 422 2328 
Q 422 3509 836 4129 
Q 1250 4750 2034 4750 
z
" id="DejaVuSans-30" transform="scale(0.015625)"/>
       </defs>
       <use xlink:href="#DejaVuSans-30"/>
      </g>
     </g>
    </g>
    <g id="xtick_2">
     <g id="line2d_2">
      <g>
       <use style="stroke:#000000;stroke-width:0.8;" x="83.860227" xlink:href="#m3a1a9484ee" y="380.521875"/>
      </g>
     </g>
     <g id="text_2">
      <!-- 20 -->
      <g transform="translate(77.497727 395.120313)scale(0.1 -0.1)">
       <defs>
        <path d="M 1228 531 
L 3431 531 
L 3431 0 
L 469 0 
L 469 531 
Q 828 903 1448 1529 
Q 2069 2156 2228 2338 
Q 2531 2678 2651 2914 
Q 2772 3150 2772 3378 
Q 2772 3750 2511 3984 
Q 2250 4219 1831 4219 
Q 1534 4219 1204 4116 
Q 875 4013 500 3803 
L 500 4441 
Q 881 4594 1212 4672 
Q 1544 4750 1819 4750 
Q 2544 4750 2975 4387 
Q 3406 4025 3406 3419 
Q 3406 3131 3298 2873 
Q 3191 2616 2906 2266 
Q 2828 2175 2409 1742 
Q 1991 1309 1228 531 
z
" id="DejaVuSans-32" transform="scale(0.015625)"/>
       </defs>
       <use xlink:href="#DejaVuSans-32"/>
       <use x="63.623047" xlink:href="#DejaVuSans-30"/>
      </g>
     </g>
    </g>
    <g id="xtick_3">
     <g id="line2d_3">
      <g>
       <use style="stroke:#000000;stroke-width:0.8;" x="126.528409" xlink:href="#m3a1a9484ee" y="380.521875"/>
      </g>
     </g>
     <g id="text_3">
      <!-- 40 -->
      <g transform="translate(120.165909 395.120313)scale(0.1 -0.1)">
       <defs>
        <path d="M 2419 4116 
L 825 1625 
L 2419 1625 
L 2419 4116 
z
M 2253 4666 
L 3047 4666 
L 3047 1625 
L 3713 1625 
L 3713 1100 
L 3047 1100 
L 3047 0 
L 2419 0 
L 2419 1100 
L 313 1100 
L 313 1709 
L 2253 4666 
z
" id="DejaVuSans-34" transform="scale(0.015625)"/>
       </defs>
       <use xlink:href="#DejaVuSans-34"/>
       <use x="63.623047" xlink:href="#DejaVuSans-30"/>
      </g>
     </g>
    </g>
    <g id="xtick_4">
     <g id="line2d_4">
      <g>
       <use style="stroke:#000000;stroke-width:0.8;" x="169.196591" xlink:href="#m3a1a9484ee" y="380.521875"/>
      </g>
     </g>
     <g id="text_4">
      <!-- 60 -->
      <g transform="translate(162.834091 395.120313)scale(0.1 -0.1)">
       <defs>
        <path d="M 2113 2584 
Q 1688 2584 1439 2293 
Q 1191 2003 1191 1497 
Q 1191 994 1439 701 
Q 1688 409 2113 409 
Q 2538 409 2786 701 
Q 3034 994 3034 1497 
Q 3034 2003 2786 2293 
Q 2538 2584 2113 2584 
z
M 3366 4563 
L 3366 3988 
Q 3128 4100 2886 4159 
Q 2644 4219 2406 4219 
Q 1781 4219 1451 3797 
Q 1122 3375 1075 2522 
Q 1259 2794 1537 2939 
Q 1816 3084 2150 3084 
Q 2853 3084 3261 2657 
Q 3669 2231 3669 1497 
Q 3669 778 3244 343 
Q 2819 -91 2113 -91 
Q 1303 -91 875 529 
Q 447 1150 447 2328 
Q 447 3434 972 4092 
Q 1497 4750 2381 4750 
Q 2619 4750 2861 4703 
Q 3103 4656 3366 4563 
z
" id="DejaVuSans-36" transform="scale(0.015625)"/>
       </defs>
       <use xlink:href="#DejaVuSans-36"/>
       <use x="63.623047" xlink:href="#DejaVuSans-30"/>
      </g>
     </g>
    </g>
    <g id="xtick_5">
     <g id="line2d_5">
      <g>
       <use style="stroke:#000000;stroke-width:0.8;" x="211.864773" xlink:href="#m3a1a9484ee" y="380.521875"/>
      </g>
     </g>
     <g id="text_5">
      <!-- 80 -->
      <g transform="translate(205.502273 395.120313)scale(0.1 -0.1)">
       <defs>
        <path d="M 2034 2216 
Q 1584 2216 1326 1975 
Q 1069 1734 1069 1313 
Q 1069 891 1326 650 
Q 1584 409 2034 409 
Q 2484 409 2743 651 
Q 3003 894 3003 1313 
Q 3003 1734 2745 1975 
Q 2488 2216 2034 2216 
z
M 1403 2484 
Q 997 2584 770 2862 
Q 544 3141 544 3541 
Q 544 4100 942 4425 
Q 1341 4750 2034 4750 
Q 2731 4750 3128 4425 
Q 3525 4100 3525 3541 
Q 3525 3141 3298 2862 
Q 3072 2584 2669 2484 
Q 3125 2378 3379 2068 
Q 3634 1759 3634 1313 
Q 3634 634 3220 271 
Q 2806 -91 2034 -91 
Q 1263 -91 848 271 
Q 434 634 434 1313 
Q 434 1759 690 2068 
Q 947 2378 1403 2484 
z
M 1172 3481 
Q 1172 3119 1398 2916 
Q 1625 2713 2034 2713 
Q 2441 2713 2670 2916 
Q 2900 3119 2900 3481 
Q 2900 3844 2670 4047 
Q 2441 4250 2034 4250 
Q 1625 4250 1398 4047 
Q 1172 3844 1172 3481 
z
" id="DejaVuSans-38" transform="scale(0.015625)"/>
       </defs>
       <use xlink:href="#DejaVuSans-38"/>
       <use x="63.623047" xlink:href="#DejaVuSans-30"/>
      </g>
     </g>
    </g>
    <g id="xtick_6">
     <g id="line2d_6">
      <g>
       <use style="stroke:#000000;stroke-width:0.8;" x="254.532955" xlink:href="#m3a1a9484ee" y="380.521875"/>
      </g>
     </g>
     <g id="text_6">
      <!-- 100 -->
      <g transform="translate(244.989205 395.120313)scale(0.1 -0.1)">
       <defs>
        <path d="M 794 531 
L 1825 531 
L 1825 4091 
L 703 3866 
L 703 4441 
L 1819 4666 
L 2450 4666 
L 2450 531 
L 3481 531 
L 3481 0 
L 794 0 
L 794 531 
z
" id="DejaVuSans-31" transform="scale(0.015625)"/>
       </defs>
       <use xlink:href="#DejaVuSans-31"/>
       <use x="63.623047" xlink:href="#DejaVuSans-30"/>
       <use x="127.246094" xlink:href="#DejaVuSans-30"/>
      </g>
     </g>
    </g>
   </g>
   <g id="matplotlib.axis_2">
    <g id="ytick_1">
     <g id="line2d_7">
      <defs>
       <path d="M 0 0 
L -3.5 0 
" id="mbd952c4a55" style="stroke:#000000;stroke-width:0.8;"/>
      </defs>
      <g>
       <use style="stroke:#000000;stroke-width:0.8;" x="30.525" xlink:href="#mbd952c4a55" y="363.716335"/>
      </g>
     </g>
     <g id="text_7">
      <!-- 0 -->
      <g transform="translate(17.1625 367.515554)scale(0.1 -0.1)">
       <use xlink:href="#DejaVuSans-30"/>
      </g>
     </g>
    </g>
    <g id="ytick_2">
     <g id="line2d_8">
      <g>
       <use style="stroke:#000000;stroke-width:0.8;" x="30.525" xlink:href="#mbd952c4a55" y="284.631442"/>
      </g>
     </g>
     <g id="text_8">
      <!-- 20 -->
      <g transform="translate(10.8 288.430661)scale(0.1 -0.1)">
       <use xlink:href="#DejaVuSans-32"/>
       <use x="63.623047" xlink:href="#DejaVuSans-30"/>
      </g>
     </g>
    </g>
    <g id="ytick_3">
     <g id="line2d_9">
      <g>
       <use style="stroke:#000000;stroke-width:0.8;" x="30.525" xlink:href="#mbd952c4a55" y="205.546549"/>
      </g>
     </g>
     <g id="text_9">
      <!-- 40 -->
      <g transform="translate(10.8 209.345768)scale(0.1 -0.1)">
       <use xlink:href="#DejaVuSans-34"/>
       <use x="63.623047" xlink:href="#DejaVuSans-30"/>
      </g>
     </g>
    </g>
    <g id="ytick_4">
     <g id="line2d_10">
      <g>
       <use style="stroke:#000000;stroke-width:0.8;" x="30.525" xlink:href="#mbd952c4a55" y="126.461656"/>
      </g>
     </g>
     <g id="text_10">
      <!-- 60 -->
      <g transform="translate(10.8 130.260875)scale(0.1 -0.1)">
       <use xlink:href="#DejaVuSans-36"/>
       <use x="63.623047" xlink:href="#DejaVuSans-30"/>
      </g>
     </g>
    </g>
    <g id="ytick_5">
     <g id="line2d_11">
      <g>
       <use style="stroke:#000000;stroke-width:0.8;" x="30.525" xlink:href="#mbd952c4a55" y="47.376763"/>
      </g>
     </g>
     <g id="text_11">
      <!-- 80 -->
      <g transform="translate(10.8 51.175982)scale(0.1 -0.1)">
       <use xlink:href="#DejaVuSans-38"/>
       <use x="63.623047" xlink:href="#DejaVuSans-30"/>
      </g>
     </g>
    </g>
   </g>
   <g id="line2d_12">
    <path clip-path="url(#pf05a66f004)" d="M 41.192045 363.716335 
L 43.325455 351.853601 
L 45.458864 347.899357 
L 47.592273 343.945112 
L 49.725682 347.899357 
L 51.859091 343.945112 
L 53.9925 339.990867 
L 56.125909 336.036623 
L 58.259318 339.990867 
L 60.392727 343.945112 
L 62.526136 347.899357 
L 64.659545 351.853601 
L 66.792955 355.807846 
L 68.926364 359.762091 
L 71.059773 363.716335 
L 73.193182 363.716335 
L 75.326591 359.762091 
L 77.46 339.990867 
L 79.593409 343.945112 
L 81.726818 347.899357 
L 83.860227 343.945112 
L 85.993636 347.899357 
L 88.127045 343.945112 
L 90.260455 339.990867 
L 92.393864 336.036623 
L 94.527273 332.082378 
L 96.660682 328.128133 
L 98.794091 332.082378 
L 100.9275 328.128133 
L 103.060909 332.082378 
L 105.194318 328.128133 
L 107.327727 324.173889 
L 109.461136 320.219644 
L 111.594545 316.265399 
L 113.727955 320.219644 
L 115.861364 304.402665 
L 117.994773 300.448421 
L 120.128182 304.402665 
L 122.261591 300.448421 
L 124.395 304.402665 
L 126.528409 300.448421 
L 128.661818 296.494176 
L 130.795227 292.539931 
L 132.928636 288.585687 
L 135.062045 284.631442 
L 137.195455 280.677198 
L 139.328864 276.722953 
L 141.462273 264.860219 
L 143.595682 260.905974 
L 145.729091 256.95173 
L 147.8625 252.997485 
L 149.995909 233.226262 
L 152.129318 229.272017 
L 154.262727 213.455038 
L 156.396136 209.500794 
L 158.529545 213.455038 
L 160.662955 209.500794 
L 162.796364 205.546549 
L 164.929773 209.500794 
L 167.063182 205.546549 
L 169.196591 201.592304 
L 171.33 193.683815 
L 173.463409 189.729571 
L 175.596818 185.775326 
L 177.730227 189.729571 
L 179.863636 193.683815 
L 181.997045 189.729571 
L 184.130455 185.775326 
L 186.263864 189.729571 
L 188.397273 193.683815 
L 190.530682 189.729571 
L 192.664091 185.775326 
L 194.7975 177.866837 
L 196.930909 181.821081 
L 199.064318 185.775326 
L 201.197727 181.821081 
L 203.331136 185.775326 
L 205.464545 181.821081 
L 207.597955 177.866837 
L 209.731364 173.912592 
L 211.864773 166.004103 
L 213.998182 169.958347 
L 216.131591 166.004103 
L 218.265 162.049858 
L 220.398409 158.095613 
L 222.531818 154.141369 
L 224.665227 150.187124 
L 226.798636 154.141369 
L 228.932045 158.095613 
L 231.065455 154.141369 
L 233.198864 158.095613 
L 235.332273 154.141369 
L 237.465682 150.187124 
L 239.599091 154.141369 
L 241.7325 142.278635 
L 243.865909 138.32439 
L 245.999318 134.370145 
L 248.132727 130.415901 
L 250.266136 134.370145 
L 252.399545 130.415901 
L 254.532955 126.461656 
" style="fill:none;stroke:#1f77b4;stroke-linecap:square;stroke-width:1.5;"/>
   </g>
   <g id="line2d_13">
    <path clip-path="url(#pf05a66f004)" d="M 41.192045 363.716335 
L 43.325455 347.899357 
L 45.458864 351.853601 
L 47.592273 355.807846 
L 49.725682 347.899357 
L 51.859091 351.853601 
L 53.9925 347.899357 
L 56.125909 339.990867 
L 58.259318 336.036623 
L 60.392727 332.082378 
L 62.526136 312.311155 
L 64.659545 316.265399 
L 66.792955 312.311155 
L 68.926364 308.35691 
L 71.059773 304.402665 
L 73.193182 300.448421 
L 75.326591 296.494176 
L 77.46 300.448421 
L 79.593409 280.677198 
L 81.726818 276.722953 
L 83.860227 272.768708 
L 85.993636 268.814464 
L 88.127045 272.768708 
L 90.260455 276.722953 
L 92.393864 280.677198 
L 94.527273 284.631442 
L 96.660682 288.585687 
L 98.794091 284.631442 
L 100.9275 280.677198 
L 103.060909 276.722953 
L 105.194318 252.997485 
L 107.327727 256.95173 
L 109.461136 260.905974 
L 111.594545 264.860219 
L 113.727955 260.905974 
L 115.861364 256.95173 
L 117.994773 252.997485 
L 120.128182 256.95173 
L 122.261591 252.997485 
L 124.395 249.04324 
L 126.528409 252.997485 
L 128.661818 233.226262 
L 130.795227 229.272017 
L 132.928636 233.226262 
L 135.062045 237.180506 
L 137.195455 241.134751 
L 139.328864 245.088996 
L 141.462273 241.134751 
L 143.595682 245.088996 
L 145.729091 249.04324 
L 147.8625 241.134751 
L 149.995909 237.180506 
L 152.129318 225.317772 
L 154.262727 221.363528 
L 156.396136 213.455038 
L 158.529545 209.500794 
L 160.662955 205.546549 
L 162.796364 201.592304 
L 164.929773 205.546549 
L 167.063182 209.500794 
L 169.196591 205.546549 
L 171.33 201.592304 
L 173.463409 197.63806 
L 175.596818 193.683815 
L 177.730227 197.63806 
L 179.863636 193.683815 
L 181.997045 189.729571 
L 184.130455 185.775326 
L 186.263864 173.912592 
L 188.397273 169.958347 
L 190.530682 166.004103 
L 192.664091 169.958347 
L 194.7975 166.004103 
L 196.930909 169.958347 
L 199.064318 166.004103 
L 201.197727 162.049858 
L 203.331136 158.095613 
L 205.464545 142.278635 
L 207.597955 146.232879 
L 209.731364 150.187124 
L 211.864773 146.232879 
L 213.998182 142.278635 
L 216.131591 138.32439 
L 218.265 142.278635 
L 220.398409 138.32439 
L 222.531818 142.278635 
L 224.665227 138.32439 
L 226.798636 130.415901 
L 228.932045 110.644677 
L 231.065455 114.598922 
L 233.198864 110.644677 
L 235.332273 106.690433 
L 237.465682 102.736188 
L 239.599091 98.781944 
L 241.7325 94.827699 
L 243.865909 90.873454 
L 245.999318 94.827699 
L 248.132727 90.873454 
L 250.266136 86.91921 
L 252.399545 82.964965 
L 254.532955 75.056476 
" style="fill:none;stroke:#ff7f0e;stroke-linecap:square;stroke-width:1.5;"/>
   </g>
   <g id="line2d_14">
    <path clip-path="url(#pf05a66f004)" d="M 41.192045 363.716335 
L 43.325455 355.807846 
L 45.458864 359.762091 
L 47.592273 355.807846 
L 49.725682 351.853601 
L 51.859091 339.990867 
L 53.9925 343.945112 
L 56.125909 339.990867 
L 58.259318 343.945112 
L 60.392727 339.990867 
L 62.526136 336.036623 
L 64.659545 332.082378 
L 66.792955 336.036623 
L 68.926364 332.082378 
L 71.059773 336.036623 
L 73.193182 332.082378 
L 75.326591 328.128133 
L 77.46 320.219644 
L 79.593409 324.173889 
L 81.726818 328.128133 
L 83.860227 324.173889 
L 85.993636 320.219644 
L 88.127045 324.173889 
L 90.260455 316.265399 
L 92.393864 312.311155 
L 94.527273 308.35691 
L 96.660682 304.402665 
L 98.794091 300.448421 
L 100.9275 296.494176 
L 103.060909 292.539931 
L 105.194318 296.494176 
L 107.327727 292.539931 
L 109.461136 288.585687 
L 111.594545 268.814464 
L 113.727955 264.860219 
L 115.861364 268.814464 
L 117.994773 272.768708 
L 120.128182 276.722953 
L 122.261591 280.677198 
L 124.395 276.722953 
L 126.528409 272.768708 
L 128.661818 268.814464 
L 130.795227 249.04324 
L 132.928636 245.088996 
L 135.062045 249.04324 
L 137.195455 245.088996 
L 139.328864 241.134751 
L 141.462273 237.180506 
L 143.595682 233.226262 
L 145.729091 229.272017 
L 147.8625 225.317772 
L 149.995909 229.272017 
L 152.129318 233.226262 
L 154.262727 229.272017 
L 156.396136 233.226262 
L 158.529545 209.500794 
L 160.662955 213.455038 
L 162.796364 209.500794 
L 164.929773 213.455038 
L 167.063182 209.500794 
L 169.196591 213.455038 
L 171.33 209.500794 
L 173.463409 193.683815 
L 175.596818 177.866837 
L 177.730227 169.958347 
L 179.863636 162.049858 
L 181.997045 166.004103 
L 184.130455 162.049858 
L 186.263864 154.141369 
L 188.397273 158.095613 
L 190.530682 134.370145 
L 192.664091 130.415901 
L 194.7975 122.507411 
L 196.930909 118.553167 
L 199.064318 122.507411 
L 201.197727 118.553167 
L 203.331136 114.598922 
L 205.464545 110.644677 
L 207.597955 114.598922 
L 209.731364 110.644677 
L 211.864773 106.690433 
L 213.998182 102.736188 
L 216.131591 94.827699 
L 218.265 98.781944 
L 220.398409 102.736188 
L 222.531818 98.781944 
L 224.665227 75.056476 
L 226.798636 55.285252 
L 228.932045 59.239497 
L 231.065455 63.193742 
L 233.198864 47.376763 
L 235.332273 43.422518 
L 237.465682 39.468274 
L 239.599091 35.514029 
L 241.7325 27.60554 
L 243.865909 31.559784 
L 245.999318 27.60554 
L 248.132727 31.559784 
L 250.266136 27.60554 
L 252.399545 31.559784 
L 254.532955 35.514029 
" style="fill:none;stroke:#2ca02c;stroke-linecap:square;stroke-width:1.5;"/>
   </g>
   <g id="line2d_15">
    <path clip-path="url(#pf05a66f004)" d="M 41.192045 363.716335 
L 43.325455 339.990867 
L 45.458864 343.945112 
L 47.592273 339.990867 
L 49.725682 336.036623 
L 51.859091 332.082378 
L 53.9925 328.128133 
L 56.125909 324.173889 
L 58.259318 320.219644 
L 60.392727 316.265399 
L 62.526136 312.311155 
L 64.659545 316.265399 
L 66.792955 312.311155 
L 68.926364 316.265399 
L 71.059773 320.219644 
L 73.193182 316.265399 
L 75.326591 320.219644 
L 77.46 316.265399 
L 79.593409 320.219644 
L 81.726818 316.265399 
L 83.860227 312.311155 
L 85.993636 296.494176 
L 88.127045 292.539931 
L 90.260455 296.494176 
L 92.393864 272.768708 
L 94.527273 276.722953 
L 96.660682 280.677198 
L 98.794091 276.722953 
L 100.9275 280.677198 
L 103.060909 284.631442 
L 105.194318 280.677198 
L 107.327727 284.631442 
L 109.461136 268.814464 
L 111.594545 272.768708 
L 113.727955 268.814464 
L 115.861364 272.768708 
L 117.994773 268.814464 
L 120.128182 272.768708 
L 122.261591 268.814464 
L 124.395 260.905974 
L 126.528409 264.860219 
L 128.661818 268.814464 
L 130.795227 272.768708 
L 132.928636 268.814464 
L 135.062045 272.768708 
L 137.195455 252.997485 
L 139.328864 249.04324 
L 141.462273 245.088996 
L 143.595682 249.04324 
L 145.729091 252.997485 
L 147.8625 249.04324 
L 149.995909 252.997485 
L 152.129318 249.04324 
L 154.262727 252.997485 
L 156.396136 233.226262 
L 158.529545 229.272017 
L 160.662955 233.226262 
L 162.796364 237.180506 
L 164.929773 241.134751 
L 167.063182 245.088996 
L 169.196591 241.134751 
L 171.33 237.180506 
L 173.463409 221.363528 
L 175.596818 197.63806 
L 177.730227 193.683815 
L 179.863636 189.729571 
L 181.997045 185.775326 
L 184.130455 181.821081 
L 186.263864 185.775326 
L 188.397273 181.821081 
L 190.530682 173.912592 
L 192.664091 169.958347 
L 194.7975 166.004103 
L 196.930909 162.049858 
L 199.064318 166.004103 
L 201.197727 169.958347 
L 203.331136 166.004103 
L 205.464545 169.958347 
L 207.597955 166.004103 
L 209.731364 162.049858 
L 211.864773 158.095613 
L 213.998182 162.049858 
L 216.131591 158.095613 
L 218.265 154.141369 
L 220.398409 150.187124 
L 222.531818 154.141369 
L 224.665227 158.095613 
L 226.798636 154.141369 
L 228.932045 150.187124 
L 231.065455 130.415901 
L 233.198864 126.461656 
L 235.332273 122.507411 
L 237.465682 102.736188 
L 239.599091 106.690433 
L 241.7325 102.736188 
L 243.865909 106.690433 
L 245.999318 102.736188 
L 248.132727 98.781944 
L 250.266136 94.827699 
L 252.399545 90.873454 
L 254.532955 94.827699 
" style="fill:none;stroke:#d62728;stroke-linecap:square;stroke-width:1.5;"/>
   </g>
   <g id="line2d_16">
    <path clip-path="url(#pf05a66f004)" d="M 41.192045 363.716335 
L 43.325455 339.990867 
L 45.458864 343.945112 
L 47.592273 339.990867 
L 49.725682 343.945112 
L 51.859091 347.899357 
L 53.9925 343.945112 
L 56.125909 328.128133 
L 58.259318 324.173889 
L 60.392727 320.219644 
L 62.526136 316.265399 
L 64.659545 312.311155 
L 66.792955 316.265399 
L 68.926364 320.219644 
L 71.059773 324.173889 
L 73.193182 328.128133 
L 75.326591 332.082378 
L 77.46 328.128133 
L 79.593409 324.173889 
L 81.726818 320.219644 
L 83.860227 316.265399 
L 85.993636 312.311155 
L 88.127045 308.35691 
L 90.260455 312.311155 
L 92.393864 308.35691 
L 94.527273 304.402665 
L 96.660682 308.35691 
L 98.794091 304.402665 
L 100.9275 300.448421 
L 103.060909 288.585687 
L 105.194318 292.539931 
L 107.327727 288.585687 
L 109.461136 292.539931 
L 111.594545 288.585687 
L 113.727955 276.722953 
L 115.861364 272.768708 
L 117.994773 268.814464 
L 120.128182 264.860219 
L 122.261591 268.814464 
L 124.395 272.768708 
L 126.528409 260.905974 
L 128.661818 256.95173 
L 130.795227 252.997485 
L 132.928636 249.04324 
L 135.062045 252.997485 
L 137.195455 256.95173 
L 139.328864 252.997485 
L 141.462273 241.134751 
L 143.595682 237.180506 
L 145.729091 217.409283 
L 147.8625 213.455038 
L 149.995909 217.409283 
L 152.129318 213.455038 
L 154.262727 217.409283 
L 156.396136 213.455038 
L 158.529545 217.409283 
L 160.662955 193.683815 
L 162.796364 197.63806 
L 164.929773 201.592304 
L 167.063182 197.63806 
L 169.196591 189.729571 
L 171.33 193.683815 
L 173.463409 197.63806 
L 175.596818 201.592304 
L 177.730227 197.63806 
L 179.863636 193.683815 
L 181.997045 189.729571 
L 184.130455 185.775326 
L 186.263864 169.958347 
L 188.397273 150.187124 
L 190.530682 146.232879 
L 192.664091 142.278635 
L 194.7975 138.32439 
L 196.930909 126.461656 
L 199.064318 122.507411 
L 201.197727 118.553167 
L 203.331136 114.598922 
L 205.464545 110.644677 
L 207.597955 106.690433 
L 209.731364 102.736188 
L 211.864773 106.690433 
L 213.998182 110.644677 
L 216.131591 106.690433 
L 218.265 102.736188 
L 220.398409 106.690433 
L 222.531818 82.964965 
L 224.665227 86.91921 
L 226.798636 82.964965 
L 228.932045 79.01072 
L 231.065455 82.964965 
L 233.198864 86.91921 
L 235.332273 82.964965 
L 237.465682 86.91921 
L 239.599091 90.873454 
L 241.7325 67.147986 
L 243.865909 71.102231 
L 245.999318 75.056476 
L 248.132727 71.102231 
L 250.266136 67.147986 
L 252.399545 71.102231 
L 254.532955 75.056476 
" style="fill:none;stroke:#9467bd;stroke-linecap:square;stroke-width:1.5;"/>
   </g>
   <g id="patch_3">
    <path d="M 30.525 380.521875 
L 30.525 10.8 
" style="fill:none;stroke:#000000;stroke-linecap:square;stroke-linejoin:miter;stroke-width:0.8;"/>
   </g>
   <g id="patch_4">
    <path d="M 265.2 380.521875 
L 265.2 10.8 
" style="fill:none;stroke:#000000;stroke-linecap:square;stroke-linejoin:miter;stroke-width:0.8;"/>
   </g>
   <g id="patch_5">
    <path d="M 30.525 380.521875 
L 265.2 380.521875 
" style="fill:none;stroke:#000000;stroke-linecap:square;stroke-linejoin:miter;stroke-width:0.8;"/>
   </g>
   <g id="patch_6">
    <path d="M 30.525 10.8 
L 265.2 10.8 
" style="fill:none;stroke:#000000;stroke-linecap:square;stroke-linejoin:miter;stroke-width:0.8;"/>
   </g>
  </g>
 </g>
 <defs>
  <clipPath id="pf05a66f004">
   <rect height="369.721875" width="234.675" x="30.525" y="10.8"/>
  </clipPath>
 </defs>
</svg>
