<?xml version="1.0" encoding="utf-8" standalone="no"?>
<!DOCTYPE svg PUBLIC "-//W3C//DTD SVG 1.1//EN"
  "http://www.w3.org/Graphics/SVG/1.1/DTD/svg11.dtd">
<svg height="408pt" version="1.1" viewBox="0 0 565 408" width="565pt" xmlns="http://www.w3.org/2000/svg" xmlns:xlink="http://www.w3.org/1999/xlink">
 <metadata>
  <rdf:RDF xmlns:cc="http://creativecommons.org/ns#" xmlns:dc="http://purl.org/dc/elements/1.1/" xmlns:rdf="http://www.w3.org/1999/02/22-rdf-syntax-ns#">
   <cc:Work>
    <dc:type rdf:resource="http://purl.org/dc/dcmitype/StillImage"/>
    <dc:date>2025-03-04T17:45:57.468382</dc:date>
    <dc:format>image/svg+xml</dc:format>
    <dc:creator>
     <cc:Agent>
      <dc:title>Matplotlib v3.4.3, https://matplotlib.org/</dc:title>
     </cc:Agent>
    </dc:creator>
   </cc:Work>
  </rdf:RDF>
 </metadata>
 <defs>
  <style type="text/css">*{stroke-linecap:butt;stroke-linejoin:round;}</style>
 </defs>
 <g id="figure_1">
  <g id="patch_1">
   <path d="M 0 408 
L 565 408 
L 565 0 
L 0 0 
z
" style="fill:#ffffff;"/>
  </g>
  <g id="axes_1">
   <g id="patch_2">
    <path d="M 56.928125 366.84375 
L 548.220928 366.84375 
L 548.220928 10.8 
L 56.928125 10.8 
z
" style="fill:#ffffff;"/>
   </g>
   <g id="patch_3">
    <path clip-path="url(#p8cc954731c)" d="M 79.259616 366.84375 
L 89.893659 366.84375 
L 89.893659 366.704722 
L 79.259616 366.704722 
z
" style="fill:#1f77b4;fill-opacity:0.75;stroke:#000000;stroke-linejoin:miter;stroke-width:0.772987;"/>
   </g>
   <g id="patch_4">
    <path clip-path="url(#p8cc954731c)" d="M 89.893659 366.84375 
L 100.527703 366.84375 
L 100.527703 231.569509 
L 89.893659 231.569509 
z
" style="fill:#1f77b4;fill-opacity:0.75;stroke:#000000;stroke-linejoin:miter;stroke-width:0.772987;"/>
   </g>
   <g id="patch_5">
    <path clip-path="url(#p8cc954731c)" d="M 100.527703 366.84375 
L 111.161746 366.84375 
L 111.161746 27.754464 
L 100.527703 27.754464 
z
" style="fill:#1f77b4;fill-opacity:0.75;stroke:#000000;stroke-linejoin:miter;stroke-width:0.772987;"/>
   </g>
   <g id="patch_6">
    <path clip-path="url(#p8cc954731c)" d="M 111.161746 366.84375 
L 121.795789 366.84375 
L 121.795789 348.353026 
L 111.161746 348.353026 
z
" style="fill:#1f77b4;fill-opacity:0.75;stroke:#000000;stroke-linejoin:miter;stroke-width:0.772987;"/>
   </g>
   <g id="patch_7">
    <path clip-path="url(#p8cc954731c)" d="M 121.795789 366.84375 
L 132.429833 366.84375 
L 132.429833 298.859059 
L 121.795789 298.859059 
z
" style="fill:#1f77b4;fill-opacity:0.75;stroke:#000000;stroke-linejoin:miter;stroke-width:0.772987;"/>
   </g>
   <g id="patch_8">
    <path clip-path="url(#p8cc954731c)" d="M 132.429833 366.84375 
L 143.063876 366.84375 
L 143.063876 309.842271 
L 132.429833 309.842271 
z
" style="fill:#1f77b4;fill-opacity:0.75;stroke:#000000;stroke-linejoin:miter;stroke-width:0.772987;"/>
   </g>
   <g id="patch_9">
    <path clip-path="url(#p8cc954731c)" d="M 143.063876 366.84375 
L 153.69792 366.84375 
L 153.69792 288.292931 
L 143.063876 288.292931 
z
" style="fill:#1f77b4;fill-opacity:0.75;stroke:#000000;stroke-linejoin:miter;stroke-width:0.772987;"/>
   </g>
   <g id="patch_10">
    <path clip-path="url(#p8cc954731c)" d="M 153.69792 366.84375 
L 164.331963 366.84375 
L 164.331963 305.254347 
L 153.69792 305.254347 
z
" style="fill:#1f77b4;fill-opacity:0.75;stroke:#000000;stroke-linejoin:miter;stroke-width:0.772987;"/>
   </g>
   <g id="patch_11">
    <path clip-path="url(#p8cc954731c)" d="M 164.331963 366.84375 
L 174.966006 366.84375 
L 174.966006 301.917675 
L 164.331963 301.917675 
z
" style="fill:#1f77b4;fill-opacity:0.75;stroke:#000000;stroke-linejoin:miter;stroke-width:0.772987;"/>
   </g>
   <g id="patch_12">
    <path clip-path="url(#p8cc954731c)" d="M 174.966006 366.84375 
L 185.60005 366.84375 
L 185.60005 315.403391 
L 174.966006 315.403391 
z
" style="fill:#1f77b4;fill-opacity:0.75;stroke:#000000;stroke-linejoin:miter;stroke-width:0.772987;"/>
   </g>
   <g id="patch_13">
    <path clip-path="url(#p8cc954731c)" d="M 185.60005 366.84375 
L 196.234093 366.84375 
L 196.234093 298.024891 
L 185.60005 298.024891 
z
" style="fill:#1f77b4;fill-opacity:0.75;stroke:#000000;stroke-linejoin:miter;stroke-width:0.772987;"/>
   </g>
   <g id="patch_14">
    <path clip-path="url(#p8cc954731c)" d="M 196.234093 366.84375 
L 206.868136 366.84375 
L 206.868136 305.115319 
L 196.234093 305.115319 
z
" style="fill:#1f77b4;fill-opacity:0.75;stroke:#000000;stroke-linejoin:miter;stroke-width:0.772987;"/>
   </g>
   <g id="patch_15">
    <path clip-path="url(#p8cc954731c)" d="M 206.868136 366.84375 
L 217.50218 366.84375 
L 217.50218 316.237559 
L 206.868136 316.237559 
z
" style="fill:#1f77b4;fill-opacity:0.75;stroke:#000000;stroke-linejoin:miter;stroke-width:0.772987;"/>
   </g>
   <g id="patch_16">
    <path clip-path="url(#p8cc954731c)" d="M 217.50218 366.84375 
L 228.136223 366.84375 
L 228.136223 324.023127 
L 217.50218 324.023127 
z
" style="fill:#1f77b4;fill-opacity:0.75;stroke:#000000;stroke-linejoin:miter;stroke-width:0.772987;"/>
   </g>
   <g id="patch_17">
    <path clip-path="url(#p8cc954731c)" d="M 228.136223 366.84375 
L 238.770266 366.84375 
L 238.770266 334.867311 
L 228.136223 334.867311 
z
" style="fill:#1f77b4;fill-opacity:0.75;stroke:#000000;stroke-linejoin:miter;stroke-width:0.772987;"/>
   </g>
   <g id="patch_18">
    <path clip-path="url(#p8cc954731c)" d="M 238.770266 366.84375 
L 249.40431 366.84375 
L 249.40431 345.572466 
L 238.770266 345.572466 
z
" style="fill:#1f77b4;fill-opacity:0.75;stroke:#000000;stroke-linejoin:miter;stroke-width:0.772987;"/>
   </g>
   <g id="patch_19">
    <path clip-path="url(#p8cc954731c)" d="M 249.40431 366.84375 
L 260.038353 366.84375 
L 260.038353 345.711494 
L 249.40431 345.711494 
z
" style="fill:#1f77b4;fill-opacity:0.75;stroke:#000000;stroke-linejoin:miter;stroke-width:0.772987;"/>
   </g>
   <g id="patch_20">
    <path clip-path="url(#p8cc954731c)" d="M 260.038353 366.84375 
L 270.672397 366.84375 
L 270.672397 338.621067 
L 260.038353 338.621067 
z
" style="fill:#1f77b4;fill-opacity:0.75;stroke:#000000;stroke-linejoin:miter;stroke-width:0.772987;"/>
   </g>
   <g id="patch_21">
    <path clip-path="url(#p8cc954731c)" d="M 270.672397 366.84375 
L 281.30644 366.84375 
L 281.30644 339.594263 
L 270.672397 339.594263 
z
" style="fill:#1f77b4;fill-opacity:0.75;stroke:#000000;stroke-linejoin:miter;stroke-width:0.772987;"/>
   </g>
   <g id="patch_22">
    <path clip-path="url(#p8cc954731c)" d="M 281.30644 366.84375 
L 291.940483 366.84375 
L 291.940483 342.51385 
L 281.30644 342.51385 
z
" style="fill:#1f77b4;fill-opacity:0.75;stroke:#000000;stroke-linejoin:miter;stroke-width:0.772987;"/>
   </g>
   <g id="patch_23">
    <path clip-path="url(#p8cc954731c)" d="M 291.940483 366.84375 
L 302.574527 366.84375 
L 302.574527 321.103539 
L 291.940483 321.103539 
z
" style="fill:#1f77b4;fill-opacity:0.75;stroke:#000000;stroke-linejoin:miter;stroke-width:0.772987;"/>
   </g>
   <g id="patch_24">
    <path clip-path="url(#p8cc954731c)" d="M 302.574527 366.84375 
L 313.20857 366.84375 
L 313.20857 336.952731 
L 302.574527 336.952731 
z
" style="fill:#1f77b4;fill-opacity:0.75;stroke:#000000;stroke-linejoin:miter;stroke-width:0.772987;"/>
   </g>
   <g id="patch_25">
    <path clip-path="url(#p8cc954731c)" d="M 313.20857 366.84375 
L 323.842613 366.84375 
L 323.842613 339.177179 
L 313.20857 339.177179 
z
" style="fill:#1f77b4;fill-opacity:0.75;stroke:#000000;stroke-linejoin:miter;stroke-width:0.772987;"/>
   </g>
   <g id="patch_26">
    <path clip-path="url(#p8cc954731c)" d="M 323.842613 366.84375 
L 334.476657 366.84375 
L 334.476657 328.889107 
L 323.842613 328.889107 
z
" style="fill:#1f77b4;fill-opacity:0.75;stroke:#000000;stroke-linejoin:miter;stroke-width:0.772987;"/>
   </g>
   <g id="patch_27">
    <path clip-path="url(#p8cc954731c)" d="M 334.476657 366.84375 
L 345.1107 366.84375 
L 345.1107 344.321214 
L 334.476657 344.321214 
z
" style="fill:#1f77b4;fill-opacity:0.75;stroke:#000000;stroke-linejoin:miter;stroke-width:0.772987;"/>
   </g>
   <g id="patch_28">
    <path clip-path="url(#p8cc954731c)" d="M 345.1107 366.84375 
L 355.744743 366.84375 
L 355.744743 356.277622 
L 345.1107 356.277622 
z
" style="fill:#1f77b4;fill-opacity:0.75;stroke:#000000;stroke-linejoin:miter;stroke-width:0.772987;"/>
   </g>
   <g id="patch_29">
    <path clip-path="url(#p8cc954731c)" d="M 355.744743 366.84375 
L 366.378787 366.84375 
L 366.378787 357.528874 
L 355.744743 357.528874 
z
" style="fill:#1f77b4;fill-opacity:0.75;stroke:#000000;stroke-linejoin:miter;stroke-width:0.772987;"/>
   </g>
   <g id="patch_30">
    <path clip-path="url(#p8cc954731c)" d="M 366.378787 366.84375 
L 377.01283 366.84375 
L 377.01283 365.45347 
L 366.378787 365.45347 
z
" style="fill:#1f77b4;fill-opacity:0.75;stroke:#000000;stroke-linejoin:miter;stroke-width:0.772987;"/>
   </g>
   <g id="patch_31">
    <path clip-path="url(#p8cc954731c)" d="M 377.01283 366.84375 
L 387.646873 366.84375 
L 387.646873 365.175414 
L 377.01283 365.175414 
z
" style="fill:#1f77b4;fill-opacity:0.75;stroke:#000000;stroke-linejoin:miter;stroke-width:0.772987;"/>
   </g>
   <g id="patch_32">
    <path clip-path="url(#p8cc954731c)" d="M 387.646873 366.84375 
L 398.280917 366.84375 
L 398.280917 364.75833 
L 387.646873 364.75833 
z
" style="fill:#1f77b4;fill-opacity:0.75;stroke:#000000;stroke-linejoin:miter;stroke-width:0.772987;"/>
   </g>
   <g id="patch_33">
    <path clip-path="url(#p8cc954731c)" d="M 398.280917 366.84375 
L 408.91496 366.84375 
L 408.91496 365.592498 
L 398.280917 365.592498 
z
" style="fill:#1f77b4;fill-opacity:0.75;stroke:#000000;stroke-linejoin:miter;stroke-width:0.772987;"/>
   </g>
   <g id="patch_34">
    <path clip-path="url(#p8cc954731c)" d="M 408.91496 366.84375 
L 419.549004 366.84375 
L 419.549004 365.45347 
L 408.91496 365.45347 
z
" style="fill:#1f77b4;fill-opacity:0.75;stroke:#000000;stroke-linejoin:miter;stroke-width:0.772987;"/>
   </g>
   <g id="patch_35">
    <path clip-path="url(#p8cc954731c)" d="M 419.549004 366.84375 
L 430.183047 366.84375 
L 430.183047 364.341246 
L 419.549004 364.341246 
z
" style="fill:#1f77b4;fill-opacity:0.75;stroke:#000000;stroke-linejoin:miter;stroke-width:0.772987;"/>
   </g>
   <g id="patch_36">
    <path clip-path="url(#p8cc954731c)" d="M 430.183047 366.84375 
L 440.81709 366.84375 
L 440.81709 362.255826 
L 430.183047 362.255826 
z
" style="fill:#1f77b4;fill-opacity:0.75;stroke:#000000;stroke-linejoin:miter;stroke-width:0.772987;"/>
   </g>
   <g id="patch_37">
    <path clip-path="url(#p8cc954731c)" d="M 440.81709 366.84375 
L 451.451134 366.84375 
L 451.451134 366.565694 
L 440.81709 366.565694 
z
" style="fill:#1f77b4;fill-opacity:0.75;stroke:#000000;stroke-linejoin:miter;stroke-width:0.772987;"/>
   </g>
   <g id="patch_38">
    <path clip-path="url(#p8cc954731c)" d="M 451.451134 366.84375 
L 462.085177 366.84375 
L 462.085177 366.704722 
L 451.451134 366.704722 
z
" style="fill:#1f77b4;fill-opacity:0.75;stroke:#000000;stroke-linejoin:miter;stroke-width:0.772987;"/>
   </g>
   <g id="patch_39">
    <path clip-path="url(#p8cc954731c)" d="M 462.085177 366.84375 
L 472.71922 366.84375 
L 472.71922 366.704722 
L 462.085177 366.704722 
z
" style="fill:#1f77b4;fill-opacity:0.75;stroke:#000000;stroke-linejoin:miter;stroke-width:0.772987;"/>
   </g>
   <g id="patch_40">
    <path clip-path="url(#p8cc954731c)" d="M 472.71922 366.84375 
L 483.353264 366.84375 
L 483.353264 366.565694 
L 472.71922 366.565694 
z
" style="fill:#1f77b4;fill-opacity:0.75;stroke:#000000;stroke-linejoin:miter;stroke-width:0.772987;"/>
   </g>
   <g id="patch_41">
    <path clip-path="url(#p8cc954731c)" d="M 483.353264 366.84375 
L 493.987307 366.84375 
L 493.987307 366.84375 
L 483.353264 366.84375 
z
" style="fill:#1f77b4;fill-opacity:0.75;stroke:#000000;stroke-linejoin:miter;stroke-width:0.772987;"/>
   </g>
   <g id="patch_42">
    <path clip-path="url(#p8cc954731c)" d="M 493.987307 366.84375 
L 504.62135 366.84375 
L 504.62135 366.84375 
L 493.987307 366.84375 
z
" style="fill:#1f77b4;fill-opacity:0.75;stroke:#000000;stroke-linejoin:miter;stroke-width:0.772987;"/>
   </g>
   <g id="patch_43">
    <path clip-path="url(#p8cc954731c)" d="M 504.62135 366.84375 
L 515.255394 366.84375 
L 515.255394 366.84375 
L 504.62135 366.84375 
z
" style="fill:#1f77b4;fill-opacity:0.75;stroke:#000000;stroke-linejoin:miter;stroke-width:0.772987;"/>
   </g>
   <g id="patch_44">
    <path clip-path="url(#p8cc954731c)" d="M 515.255394 366.84375 
L 525.889437 366.84375 
L 525.889437 366.565694 
L 515.255394 366.565694 
z
" style="fill:#1f77b4;fill-opacity:0.75;stroke:#000000;stroke-linejoin:miter;stroke-width:0.772987;"/>
   </g>
   <g id="matplotlib.axis_1">
    <g id="xtick_1">
     <g id="line2d_1">
      <defs>
       <path d="M 0 0 
L 0 3.5 
" id="m6c1e291794" style="stroke:#000000;stroke-width:0.8;"/>
      </defs>
      <g>
       <use style="stroke:#000000;stroke-width:0.8;" x="78.477427" xlink:href="#m6c1e291794" y="366.84375"/>
      </g>
     </g>
     <g id="text_1">
      <!-- 0 -->
      <g transform="translate(75.296177 381.442188)scale(0.1 -0.1)">
       <defs>
        <path d="M 2034 4250 
Q 1547 4250 1301 3770 
Q 1056 3291 1056 2328 
Q 1056 1369 1301 889 
Q 1547 409 2034 409 
Q 2525 409 2770 889 
Q 3016 1369 3016 2328 
Q 3016 3291 2770 3770 
Q 2525 4250 2034 4250 
z
M 2034 4750 
Q 2819 4750 3233 4129 
Q 3647 3509 3647 2328 
Q 3647 1150 3233 529 
Q 2819 -91 2034 -91 
Q 1250 -91 836 529 
Q 422 1150 422 2328 
Q 422 3509 836 4129 
Q 1250 4750 2034 4750 
z
" id="DejaVuSans-30" transform="scale(0.015625)"/>
       </defs>
       <use xlink:href="#DejaVuSans-30"/>
      </g>
     </g>
    </g>
    <g id="xtick_2">
     <g id="line2d_2">
      <g>
       <use style="stroke:#000000;stroke-width:0.8;" x="172.340087" xlink:href="#m6c1e291794" y="366.84375"/>
      </g>
     </g>
     <g id="text_2">
      <!-- 10 -->
      <g transform="translate(165.977587 381.442188)scale(0.1 -0.1)">
       <defs>
        <path d="M 794 531 
L 1825 531 
L 1825 4091 
L 703 3866 
L 703 4441 
L 1819 4666 
L 2450 4666 
L 2450 531 
L 3481 531 
L 3481 0 
L 794 0 
L 794 531 
z
" id="DejaVuSans-31" transform="scale(0.015625)"/>
       </defs>
       <use xlink:href="#DejaVuSans-31"/>
       <use x="63.623047" xlink:href="#DejaVuSans-30"/>
      </g>
     </g>
    </g>
    <g id="xtick_3">
     <g id="line2d_3">
      <g>
       <use style="stroke:#000000;stroke-width:0.8;" x="266.202746" xlink:href="#m6c1e291794" y="366.84375"/>
      </g>
     </g>
     <g id="text_3">
      <!-- 20 -->
      <g transform="translate(259.840246 381.442188)scale(0.1 -0.1)">
       <defs>
        <path d="M 1228 531 
L 3431 531 
L 3431 0 
L 469 0 
L 469 531 
Q 828 903 1448 1529 
Q 2069 2156 2228 2338 
Q 2531 2678 2651 2914 
Q 2772 3150 2772 3378 
Q 2772 3750 2511 3984 
Q 2250 4219 1831 4219 
Q 1534 4219 1204 4116 
Q 875 4013 500 3803 
L 500 4441 
Q 881 4594 1212 4672 
Q 1544 4750 1819 4750 
Q 2544 4750 2975 4387 
Q 3406 4025 3406 3419 
Q 3406 3131 3298 2873 
Q 3191 2616 2906 2266 
Q 2828 2175 2409 1742 
Q 1991 1309 1228 531 
z
" id="DejaVuSans-32" transform="scale(0.015625)"/>
       </defs>
       <use xlink:href="#DejaVuSans-32"/>
       <use x="63.623047" xlink:href="#DejaVuSans-30"/>
      </g>
     </g>
    </g>
    <g id="xtick_4">
     <g id="line2d_4">
      <g>
       <use style="stroke:#000000;stroke-width:0.8;" x="360.065405" xlink:href="#m6c1e291794" y="366.84375"/>
      </g>
     </g>
     <g id="text_4">
      <!-- 30 -->
      <g transform="translate(353.702905 381.442188)scale(0.1 -0.1)">
       <defs>
        <path d="M 2597 2516 
Q 3050 2419 3304 2112 
Q 3559 1806 3559 1356 
Q 3559 666 3084 287 
Q 2609 -91 1734 -91 
Q 1441 -91 1130 -33 
Q 819 25 488 141 
L 488 750 
Q 750 597 1062 519 
Q 1375 441 1716 441 
Q 2309 441 2620 675 
Q 2931 909 2931 1356 
Q 2931 1769 2642 2001 
Q 2353 2234 1838 2234 
L 1294 2234 
L 1294 2753 
L 1863 2753 
Q 2328 2753 2575 2939 
Q 2822 3125 2822 3475 
Q 2822 3834 2567 4026 
Q 2313 4219 1838 4219 
Q 1578 4219 1281 4162 
Q 984 4106 628 3988 
L 628 4550 
Q 988 4650 1302 4700 
Q 1616 4750 1894 4750 
Q 2613 4750 3031 4423 
Q 3450 4097 3450 3541 
Q 3450 3153 3228 2886 
Q 3006 2619 2597 2516 
z
" id="DejaVuSans-33" transform="scale(0.015625)"/>
       </defs>
       <use xlink:href="#DejaVuSans-33"/>
       <use x="63.623047" xlink:href="#DejaVuSans-30"/>
      </g>
     </g>
    </g>
    <g id="xtick_5">
     <g id="line2d_5">
      <g>
       <use style="stroke:#000000;stroke-width:0.8;" x="453.928065" xlink:href="#m6c1e291794" y="366.84375"/>
      </g>
     </g>
     <g id="text_5">
      <!-- 40 -->
      <g transform="translate(447.565565 381.442188)scale(0.1 -0.1)">
       <defs>
        <path d="M 2419 4116 
L 825 1625 
L 2419 1625 
L 2419 4116 
z
M 2253 4666 
L 3047 4666 
L 3047 1625 
L 3713 1625 
L 3713 1100 
L 3047 1100 
L 3047 0 
L 2419 0 
L 2419 1100 
L 313 1100 
L 313 1709 
L 2253 4666 
z
" id="DejaVuSans-34" transform="scale(0.015625)"/>
       </defs>
       <use xlink:href="#DejaVuSans-34"/>
       <use x="63.623047" xlink:href="#DejaVuSans-30"/>
      </g>
     </g>
    </g>
    <g id="xtick_6">
     <g id="line2d_6">
      <g>
       <use style="stroke:#000000;stroke-width:0.8;" x="547.790724" xlink:href="#m6c1e291794" y="366.84375"/>
      </g>
     </g>
     <g id="text_6">
      <!-- 50 -->
      <g transform="translate(541.428224 381.442188)scale(0.1 -0.1)">
       <defs>
        <path d="M 691 4666 
L 3169 4666 
L 3169 4134 
L 1269 4134 
L 1269 2991 
Q 1406 3038 1543 3061 
Q 1681 3084 1819 3084 
Q 2600 3084 3056 2656 
Q 3513 2228 3513 1497 
Q 3513 744 3044 326 
Q 2575 -91 1722 -91 
Q 1428 -91 1123 -41 
Q 819 9 494 109 
L 494 744 
Q 775 591 1075 516 
Q 1375 441 1709 441 
Q 2250 441 2565 725 
Q 2881 1009 2881 1497 
Q 2881 1984 2565 2268 
Q 2250 2553 1709 2553 
Q 1456 2553 1204 2497 
Q 953 2441 691 2322 
L 691 4666 
z
" id="DejaVuSans-35" transform="scale(0.015625)"/>
       </defs>
       <use xlink:href="#DejaVuSans-35"/>
       <use x="63.623047" xlink:href="#DejaVuSans-30"/>
      </g>
     </g>
    </g>
    <g id="text_7">
     <!-- Duration -->
     <g transform="translate(280.858902 395.120313)scale(0.1 -0.1)">
      <defs>
       <path d="M 1259 4147 
L 1259 519 
L 2022 519 
Q 2988 519 3436 956 
Q 3884 1394 3884 2338 
Q 3884 3275 3436 3711 
Q 2988 4147 2022 4147 
L 1259 4147 
z
M 628 4666 
L 1925 4666 
Q 3281 4666 3915 4102 
Q 4550 3538 4550 2338 
Q 4550 1131 3912 565 
Q 3275 0 1925 0 
L 628 0 
L 628 4666 
z
" id="DejaVuSans-44" transform="scale(0.015625)"/>
       <path d="M 544 1381 
L 544 3500 
L 1119 3500 
L 1119 1403 
Q 1119 906 1312 657 
Q 1506 409 1894 409 
Q 2359 409 2629 706 
Q 2900 1003 2900 1516 
L 2900 3500 
L 3475 3500 
L 3475 0 
L 2900 0 
L 2900 538 
Q 2691 219 2414 64 
Q 2138 -91 1772 -91 
Q 1169 -91 856 284 
Q 544 659 544 1381 
z
M 1991 3584 
L 1991 3584 
z
" id="DejaVuSans-75" transform="scale(0.015625)"/>
       <path d="M 2631 2963 
Q 2534 3019 2420 3045 
Q 2306 3072 2169 3072 
Q 1681 3072 1420 2755 
Q 1159 2438 1159 1844 
L 1159 0 
L 581 0 
L 581 3500 
L 1159 3500 
L 1159 2956 
Q 1341 3275 1631 3429 
Q 1922 3584 2338 3584 
Q 2397 3584 2469 3576 
Q 2541 3569 2628 3553 
L 2631 2963 
z
" id="DejaVuSans-72" transform="scale(0.015625)"/>
       <path d="M 2194 1759 
Q 1497 1759 1228 1600 
Q 959 1441 959 1056 
Q 959 750 1161 570 
Q 1363 391 1709 391 
Q 2188 391 2477 730 
Q 2766 1069 2766 1631 
L 2766 1759 
L 2194 1759 
z
M 3341 1997 
L 3341 0 
L 2766 0 
L 2766 531 
Q 2569 213 2275 61 
Q 1981 -91 1556 -91 
Q 1019 -91 701 211 
Q 384 513 384 1019 
Q 384 1609 779 1909 
Q 1175 2209 1959 2209 
L 2766 2209 
L 2766 2266 
Q 2766 2663 2505 2880 
Q 2244 3097 1772 3097 
Q 1472 3097 1187 3025 
Q 903 2953 641 2809 
L 641 3341 
Q 956 3463 1253 3523 
Q 1550 3584 1831 3584 
Q 2591 3584 2966 3190 
Q 3341 2797 3341 1997 
z
" id="DejaVuSans-61" transform="scale(0.015625)"/>
       <path d="M 1172 4494 
L 1172 3500 
L 2356 3500 
L 2356 3053 
L 1172 3053 
L 1172 1153 
Q 1172 725 1289 603 
Q 1406 481 1766 481 
L 2356 481 
L 2356 0 
L 1766 0 
Q 1100 0 847 248 
Q 594 497 594 1153 
L 594 3053 
L 172 3053 
L 172 3500 
L 594 3500 
L 594 4494 
L 1172 4494 
z
" id="DejaVuSans-74" transform="scale(0.015625)"/>
       <path d="M 603 3500 
L 1178 3500 
L 1178 0 
L 603 0 
L 603 3500 
z
M 603 4863 
L 1178 4863 
L 1178 4134 
L 603 4134 
L 603 4863 
z
" id="DejaVuSans-69" transform="scale(0.015625)"/>
       <path d="M 1959 3097 
Q 1497 3097 1228 2736 
Q 959 2375 959 1747 
Q 959 1119 1226 758 
Q 1494 397 1959 397 
Q 2419 397 2687 759 
Q 2956 1122 2956 1747 
Q 2956 2369 2687 2733 
Q 2419 3097 1959 3097 
z
M 1959 3584 
Q 2709 3584 3137 3096 
Q 3566 2609 3566 1747 
Q 3566 888 3137 398 
Q 2709 -91 1959 -91 
Q 1206 -91 779 398 
Q 353 888 353 1747 
Q 353 2609 779 3096 
Q 1206 3584 1959 3584 
z
" id="DejaVuSans-6f" transform="scale(0.015625)"/>
       <path d="M 3513 2113 
L 3513 0 
L 2938 0 
L 2938 2094 
Q 2938 2591 2744 2837 
Q 2550 3084 2163 3084 
Q 1697 3084 1428 2787 
Q 1159 2491 1159 1978 
L 1159 0 
L 581 0 
L 581 3500 
L 1159 3500 
L 1159 2956 
Q 1366 3272 1645 3428 
Q 1925 3584 2291 3584 
Q 2894 3584 3203 3211 
Q 3513 2838 3513 2113 
z
" id="DejaVuSans-6e" transform="scale(0.015625)"/>
      </defs>
      <use xlink:href="#DejaVuSans-44"/>
      <use x="77.001953" xlink:href="#DejaVuSans-75"/>
      <use x="140.380859" xlink:href="#DejaVuSans-72"/>
      <use x="181.494141" xlink:href="#DejaVuSans-61"/>
      <use x="242.773438" xlink:href="#DejaVuSans-74"/>
      <use x="281.982422" xlink:href="#DejaVuSans-69"/>
      <use x="309.765625" xlink:href="#DejaVuSans-6f"/>
      <use x="370.947266" xlink:href="#DejaVuSans-6e"/>
     </g>
    </g>
   </g>
   <g id="matplotlib.axis_2">
    <g id="ytick_1">
     <g id="line2d_7">
      <defs>
       <path d="M 0 0 
L -3.5 0 
" id="mf522be947d" style="stroke:#000000;stroke-width:0.8;"/>
      </defs>
      <g>
       <use style="stroke:#000000;stroke-width:0.8;" x="56.928125" xlink:href="#mf522be947d" y="366.84375"/>
      </g>
     </g>
     <g id="text_8">
      <!-- 0 -->
      <g transform="translate(43.565625 370.642969)scale(0.1 -0.1)">
       <use xlink:href="#DejaVuSans-30"/>
      </g>
     </g>
    </g>
    <g id="ytick_2">
     <g id="line2d_8">
      <g>
       <use style="stroke:#000000;stroke-width:0.8;" x="56.928125" xlink:href="#mf522be947d" y="297.329751"/>
      </g>
     </g>
     <g id="text_9">
      <!-- 500 -->
      <g transform="translate(30.840625 301.12897)scale(0.1 -0.1)">
       <use xlink:href="#DejaVuSans-35"/>
       <use x="63.623047" xlink:href="#DejaVuSans-30"/>
       <use x="127.246094" xlink:href="#DejaVuSans-30"/>
      </g>
     </g>
    </g>
    <g id="ytick_3">
     <g id="line2d_9">
      <g>
       <use style="stroke:#000000;stroke-width:0.8;" x="56.928125" xlink:href="#mf522be947d" y="227.815753"/>
      </g>
     </g>
     <g id="text_10">
      <!-- 1000 -->
      <g transform="translate(24.478125 231.614971)scale(0.1 -0.1)">
       <use xlink:href="#DejaVuSans-31"/>
       <use x="63.623047" xlink:href="#DejaVuSans-30"/>
       <use x="127.246094" xlink:href="#DejaVuSans-30"/>
       <use x="190.869141" xlink:href="#DejaVuSans-30"/>
      </g>
     </g>
    </g>
    <g id="ytick_4">
     <g id="line2d_10">
      <g>
       <use style="stroke:#000000;stroke-width:0.8;" x="56.928125" xlink:href="#mf522be947d" y="158.301754"/>
      </g>
     </g>
     <g id="text_11">
      <!-- 1500 -->
      <g transform="translate(24.478125 162.100973)scale(0.1 -0.1)">
       <use xlink:href="#DejaVuSans-31"/>
       <use x="63.623047" xlink:href="#DejaVuSans-35"/>
       <use x="127.246094" xlink:href="#DejaVuSans-30"/>
       <use x="190.869141" xlink:href="#DejaVuSans-30"/>
      </g>
     </g>
    </g>
    <g id="ytick_5">
     <g id="line2d_11">
      <g>
       <use style="stroke:#000000;stroke-width:0.8;" x="56.928125" xlink:href="#mf522be947d" y="88.787755"/>
      </g>
     </g>
     <g id="text_12">
      <!-- 2000 -->
      <g transform="translate(24.478125 92.586974)scale(0.1 -0.1)">
       <use xlink:href="#DejaVuSans-32"/>
       <use x="63.623047" xlink:href="#DejaVuSans-30"/>
       <use x="127.246094" xlink:href="#DejaVuSans-30"/>
       <use x="190.869141" xlink:href="#DejaVuSans-30"/>
      </g>
     </g>
    </g>
    <g id="ytick_6">
     <g id="line2d_12">
      <g>
       <use style="stroke:#000000;stroke-width:0.8;" x="56.928125" xlink:href="#mf522be947d" y="19.273756"/>
      </g>
     </g>
     <g id="text_13">
      <!-- 2500 -->
      <g transform="translate(24.478125 23.072975)scale(0.1 -0.1)">
       <use xlink:href="#DejaVuSans-32"/>
       <use x="63.623047" xlink:href="#DejaVuSans-35"/>
       <use x="127.246094" xlink:href="#DejaVuSans-30"/>
       <use x="190.869141" xlink:href="#DejaVuSans-30"/>
      </g>
     </g>
    </g>
    <g id="text_14">
     <!-- Count -->
     <g transform="translate(18.398438 203.670313)rotate(-90)scale(0.1 -0.1)">
      <defs>
       <path d="M 4122 4306 
L 4122 3641 
Q 3803 3938 3442 4084 
Q 3081 4231 2675 4231 
Q 1875 4231 1450 3742 
Q 1025 3253 1025 2328 
Q 1025 1406 1450 917 
Q 1875 428 2675 428 
Q 3081 428 3442 575 
Q 3803 722 4122 1019 
L 4122 359 
Q 3791 134 3420 21 
Q 3050 -91 2638 -91 
Q 1578 -91 968 557 
Q 359 1206 359 2328 
Q 359 3453 968 4101 
Q 1578 4750 2638 4750 
Q 3056 4750 3426 4639 
Q 3797 4528 4122 4306 
z
" id="DejaVuSans-43" transform="scale(0.015625)"/>
      </defs>
      <use xlink:href="#DejaVuSans-43"/>
      <use x="69.824219" xlink:href="#DejaVuSans-6f"/>
      <use x="131.005859" xlink:href="#DejaVuSans-75"/>
      <use x="194.384766" xlink:href="#DejaVuSans-6e"/>
      <use x="257.763672" xlink:href="#DejaVuSans-74"/>
     </g>
    </g>
   </g>
   <g id="patch_45">
    <path d="M 56.928125 366.84375 
L 56.928125 10.8 
" style="fill:none;stroke:#000000;stroke-linecap:square;stroke-linejoin:miter;stroke-width:0.8;"/>
   </g>
   <g id="patch_46">
    <path d="M 548.220928 366.84375 
L 548.220928 10.8 
" style="fill:none;stroke:#000000;stroke-linecap:square;stroke-linejoin:miter;stroke-width:0.8;"/>
   </g>
   <g id="patch_47">
    <path d="M 56.928125 366.84375 
L 548.220928 366.84375 
" style="fill:none;stroke:#000000;stroke-linecap:square;stroke-linejoin:miter;stroke-width:0.8;"/>
   </g>
   <g id="patch_48">
    <path d="M 56.928125 10.8 
L 548.220928 10.8 
" style="fill:none;stroke:#000000;stroke-linecap:square;stroke-linejoin:miter;stroke-width:0.8;"/>
   </g>
  </g>
 </g>
 <defs>
  <clipPath id="p8cc954731c">
   <rect height="356.04375" width="491.292803" x="56.928125" y="10.8"/>
  </clipPath>
 </defs>
</svg>
