<?xml version="1.0" encoding="utf-8" standalone="no"?>
<!DOCTYPE svg PUBLIC "-//W3C//DTD SVG 1.1//EN"
  "http://www.w3.org/Graphics/SVG/1.1/DTD/svg11.dtd">
<svg height="408pt" version="1.1" viewBox="0 0 565 408" width="565pt" xmlns="http://www.w3.org/2000/svg" xmlns:xlink="http://www.w3.org/1999/xlink">
 <metadata>
  <rdf:RDF xmlns:cc="http://creativecommons.org/ns#" xmlns:dc="http://purl.org/dc/elements/1.1/" xmlns:rdf="http://www.w3.org/1999/02/22-rdf-syntax-ns#">
   <cc:Work>
    <dc:type rdf:resource="http://purl.org/dc/dcmitype/StillImage"/>
    <dc:date>2025-02-20T19:41:29.863142</dc:date>
    <dc:format>image/svg+xml</dc:format>
    <dc:creator>
     <cc:Agent>
      <dc:title>Matplotlib v3.4.3, https://matplotlib.org/</dc:title>
     </cc:Agent>
    </dc:creator>
   </cc:Work>
  </rdf:RDF>
 </metadata>
 <defs>
  <style type="text/css">*{stroke-linecap:butt;stroke-linejoin:round;}</style>
 </defs>
 <g id="figure_1">
  <g id="patch_1">
   <path d="M 0 408 
L 565 408 
L 565 0 
L 0 0 
z
" style="fill:#ffffff;"/>
  </g>
  <g id="axes_1">
   <g id="patch_2">
    <path d="M 44.48125 366.565625 
L 554.2 366.565625 
L 554.2 10.8 
L 44.48125 10.8 
z
" style="fill:#ffffff;"/>
   </g>
   <g id="PathCollection_1">
    <defs>
     <path d="M 0 3 
C 0.795609 3 1.55874 2.683901 2.12132 2.12132 
C 2.683901 1.55874 3 0.795609 3 0 
C 3 -0.795609 2.683901 -1.55874 2.12132 -2.12132 
C 1.55874 -2.683901 0.795609 -3 0 -3 
C -0.795609 -3 -1.55874 -2.683901 -2.12132 -2.12132 
C -2.683901 -1.55874 -3 -0.795609 -3 0 
C -3 0.795609 -2.683901 1.55874 -2.12132 2.12132 
C -1.55874 2.683901 -0.795609 3 0 3 
z
" id="m1c9cfbc303" style="stroke:#ffffff;stroke-width:0.48;"/>
    </defs>
    <g clip-path="url(#p5a96215a3f)">
     <use style="fill:#1f77b4;stroke:#ffffff;stroke-width:0.48;" x="239.894833" xlink:href="#m1c9cfbc303" y="60.11703"/>
     <use style="fill:#1f77b4;stroke:#ffffff;stroke-width:0.48;" x="264.224906" xlink:href="#m1c9cfbc303" y="68.152392"/>
     <use style="fill:#1f77b4;stroke:#ffffff;stroke-width:0.48;" x="338.452249" xlink:href="#m1c9cfbc303" y="52.081669"/>
     <use style="fill:#1f77b4;stroke:#ffffff;stroke-width:0.48;" x="262.57541" xlink:href="#m1c9cfbc303" y="48.063988"/>
     <use style="fill:#1f77b4;stroke:#ffffff;stroke-width:0.48;" x="273.297137" xlink:href="#m1c9cfbc303" y="60.11703"/>
     <use style="fill:#1f77b4;stroke:#ffffff;stroke-width:0.48;" x="308.348938" xlink:href="#m1c9cfbc303" y="35.006526"/>
     <use style="fill:#1f77b4;stroke:#ffffff;stroke-width:0.48;" x="259.688791" xlink:href="#m1c9cfbc303" y="50.072829"/>
     <use style="fill:#1f77b4;stroke:#ffffff;stroke-width:0.48;" x="215.564759" xlink:href="#m1c9cfbc303" y="59.11261"/>
     <use style="fill:#1f77b4;stroke:#ffffff;stroke-width:0.48;" x="247.317567" xlink:href="#m1c9cfbc303" y="56.09935"/>
     <use style="fill:#1f77b4;stroke:#ffffff;stroke-width:0.48;" x="258.451669" xlink:href="#m1c9cfbc303" y="58.10819"/>
     <use style="fill:#1f77b4;stroke:#ffffff;stroke-width:0.48;" x="252.678431" xlink:href="#m1c9cfbc303" y="51.077249"/>
     <use style="fill:#1f77b4;stroke:#ffffff;stroke-width:0.48;" x="130.203315" xlink:href="#m1c9cfbc303" y="80.205434"/>
     <use style="fill:#1f77b4;stroke:#ffffff;stroke-width:0.48;" x="205.66778" xlink:href="#m1c9cfbc303" y="45.050728"/>
     <use style="fill:#1f77b4;stroke:#ffffff;stroke-width:0.48;" x="453.917004" xlink:href="#m1c9cfbc303" y="58.10819"/>
     <use style="fill:#1f77b4;stroke:#ffffff;stroke-width:0.48;" x="231.64735" xlink:href="#m1c9cfbc303" y="67.147972"/>
     <use style="fill:#1f77b4;stroke:#ffffff;stroke-width:0.48;" x="363.607071" xlink:href="#m1c9cfbc303" y="55.09493"/>
     <use style="fill:#1f77b4;stroke:#ffffff;stroke-width:0.48;" x="255.56505" xlink:href="#m1c9cfbc303" y="69.156812"/>
     <use style="fill:#1f77b4;stroke:#ffffff;stroke-width:0.48;" x="244.430948" xlink:href="#m1c9cfbc303" y="61.121451"/>
     <use style="fill:#1f77b4;stroke:#ffffff;stroke-width:0.48;" x="298.864333" xlink:href="#m1c9cfbc303" y="92.258476"/>
     <use style="fill:#1f77b4;stroke:#ffffff;stroke-width:0.48;" x="205.66778" xlink:href="#m1c9cfbc303" y="83.218694"/>
     <use style="fill:#1f77b4;stroke:#ffffff;stroke-width:0.48;" x="335.978004" xlink:href="#m1c9cfbc303" y="142.479485"/>
     <use style="fill:#1f77b4;stroke:#ffffff;stroke-width:0.48;" x="227.111235" xlink:href="#m1c9cfbc303" y="65.139131"/>
     <use style="fill:#1f77b4;stroke:#ffffff;stroke-width:0.48;" x="139.275546" xlink:href="#m1c9cfbc303" y="122.391081"/>
     <use style="fill:#1f77b4;stroke:#ffffff;stroke-width:0.48;" x="229.997854" xlink:href="#m1c9cfbc303" y="47.059568"/>
     <use style="fill:#1f77b4;stroke:#ffffff;stroke-width:0.48;" x="159.894252" xlink:href="#m1c9cfbc303" y="78.196594"/>
     <use style="fill:#1f77b4;stroke:#ffffff;stroke-width:0.48;" x="96.429874" xlink:href="#m1c9cfbc303" y="147.501585"/>
     <use style="fill:#1f77b4;stroke:#ffffff;stroke-width:0.48;" x="263.400158" xlink:href="#m1c9cfbc303" y="107.324779"/>
     <use style="fill:#1f77b4;stroke:#ffffff;stroke-width:0.48;" x="531.030966" xlink:href="#m1c9cfbc303" y="73.174493"/>
     <use style="fill:#1f77b4;stroke:#ffffff;stroke-width:0.48;" x="212.265766" xlink:href="#m1c9cfbc303" y="45.050728"/>
     <use style="fill:#1f77b4;stroke:#ffffff;stroke-width:0.48;" x="161.131375" xlink:href="#m1c9cfbc303" y="81.209854"/>
     <use style="fill:#1f77b4;stroke:#ffffff;stroke-width:0.48;" x="124.017703" xlink:href="#m1c9cfbc303" y="119.377821"/>
     <use style="fill:#1f77b4;stroke:#ffffff;stroke-width:0.48;" x="151.234396" xlink:href="#m1c9cfbc303" y="105.315938"/>
     <use style="fill:#1f77b4;stroke:#ffffff;stroke-width:0.48;" x="436.597291" xlink:href="#m1c9cfbc303" y="26.971165"/>
     <use style="fill:#1f77b4;stroke:#ffffff;stroke-width:0.48;" x="96.0175" xlink:href="#m1c9cfbc303" y="133.439703"/>
     <use style="fill:#1f77b4;stroke:#ffffff;stroke-width:0.48;" x="212.678141" xlink:href="#m1c9cfbc303" y="43.041888"/>
     <use style="fill:#1f77b4;stroke:#ffffff;stroke-width:0.48;" x="238.245336" xlink:href="#m1c9cfbc303" y="80.205434"/>
     <use style="fill:#1f77b4;stroke:#ffffff;stroke-width:0.48;" x="182.574829" xlink:href="#m1c9cfbc303" y="133.439703"/>
     <use style="fill:#1f77b4;stroke:#ffffff;stroke-width:0.48;" x="188.348067" xlink:href="#m1c9cfbc303" y="94.267316"/>
     <use style="fill:#1f77b4;stroke:#ffffff;stroke-width:0.48;" x="91.811284" xlink:href="#m1c9cfbc303" y="171.60767"/>
     <use style="fill:#1f77b4;stroke:#ffffff;stroke-width:0.48;" x="198.65742" xlink:href="#m1c9cfbc303" y="124.399921"/>
     <use style="fill:#1f77b4;stroke:#ffffff;stroke-width:0.48;" x="121.131085" xlink:href="#m1c9cfbc303" y="73.174493"/>
     <use style="fill:#1f77b4;stroke:#ffffff;stroke-width:0.48;" x="204.018284" xlink:href="#m1c9cfbc303" y="64.134711"/>
     <use style="fill:#1f77b4;stroke:#ffffff;stroke-width:0.48;" x="84.099888" xlink:href="#m1c9cfbc303" y="86.231955"/>
     <use style="fill:#1f77b4;stroke:#ffffff;stroke-width:0.48;" x="137.213675" xlink:href="#m1c9cfbc303" y="108.329199"/>
     <use style="fill:#1f77b4;stroke:#ffffff;stroke-width:0.48;" x="170.203606" xlink:href="#m1c9cfbc303" y="124.399921"/>
     <use style="fill:#1f77b4;stroke:#ffffff;stroke-width:0.48;" x="207.317277" xlink:href="#m1c9cfbc303" y="58.10819"/>
     <use style="fill:#1f77b4;stroke:#ffffff;stroke-width:0.48;" x="107.110364" xlink:href="#m1c9cfbc303" y="106.320358"/>
     <use style="fill:#1f77b4;stroke:#ffffff;stroke-width:0.48;" x="329.380018" xlink:href="#m1c9cfbc303" y="45.050728"/>
     <use style="fill:#1f77b4;stroke:#ffffff;stroke-width:0.48;" x="136.801301" xlink:href="#m1c9cfbc303" y="92.258476"/>
     <use style="fill:#1f77b4;stroke:#ffffff;stroke-width:0.48;" x="177.62634" xlink:href="#m1c9cfbc303" y="124.399921"/>
     <use style="fill:#1f77b4;stroke:#ffffff;stroke-width:0.48;" x="218.863752" xlink:href="#m1c9cfbc303" y="48.063988"/>
     <use style="fill:#1f77b4;stroke:#ffffff;stroke-width:0.48;" x="197.007924" xlink:href="#m1c9cfbc303" y="93.262896"/>
     <use style="fill:#1f77b4;stroke:#ffffff;stroke-width:0.48;" x="99.316493" xlink:href="#m1c9cfbc303" y="129.422022"/>
     <use style="fill:#1f77b4;stroke:#ffffff;stroke-width:0.48;" x="154.945763" xlink:href="#m1c9cfbc303" y="128.417602"/>
     <use style="fill:#1f77b4;stroke:#ffffff;stroke-width:0.48;" x="228.760731" xlink:href="#m1c9cfbc303" y="32.997686"/>
     <use style="fill:#1f77b4;stroke:#ffffff;stroke-width:0.48;" x="84.141125" xlink:href="#m1c9cfbc303" y="135.448543"/>
     <use style="fill:#1f77b4;stroke:#ffffff;stroke-width:0.48;" x="169.791231" xlink:href="#m1c9cfbc303" y="150.514846"/>
     <use style="fill:#1f77b4;stroke:#ffffff;stroke-width:0.48;" x="94.532953" xlink:href="#m1c9cfbc303" y="145.492745"/>
     <use style="fill:#1f77b4;stroke:#ffffff;stroke-width:0.48;" x="187.110945" xlink:href="#m1c9cfbc303" y="106.320358"/>
     <use style="fill:#1f77b4;stroke:#ffffff;stroke-width:0.48;" x="114.533098" xlink:href="#m1c9cfbc303" y="114.35572"/>
     <use style="fill:#1f77b4;stroke:#ffffff;stroke-width:0.48;" x="118.65684" xlink:href="#m1c9cfbc303" y="70.161232"/>
     <use style="fill:#1f77b4;stroke:#ffffff;stroke-width:0.48;" x="185.873822" xlink:href="#m1c9cfbc303" y="60.11703"/>
     <use style="fill:#1f77b4;stroke:#ffffff;stroke-width:0.48;" x="85.66691" xlink:href="#m1c9cfbc303" y="206.762376"/>
     <use style="fill:#1f77b4;stroke:#ffffff;stroke-width:0.48;" x="171.028354" xlink:href="#m1c9cfbc303" y="153.528106"/>
     <use style="fill:#1f77b4;stroke:#ffffff;stroke-width:0.48;" x="99.110306" xlink:href="#m1c9cfbc303" y="178.638611"/>
     <use style="fill:#1f77b4;stroke:#ffffff;stroke-width:0.48;" x="133.914682" xlink:href="#m1c9cfbc303" y="118.3734"/>
     <use style="fill:#1f77b4;stroke:#ffffff;stroke-width:0.48;" x="92.759745" xlink:href="#m1c9cfbc303" y="147.501585"/>
     <use style="fill:#1f77b4;stroke:#ffffff;stroke-width:0.48;" x="126.079574" xlink:href="#m1c9cfbc303" y="145.492745"/>
     <use style="fill:#1f77b4;stroke:#ffffff;stroke-width:0.48;" x="138.450798" xlink:href="#m1c9cfbc303" y="111.342459"/>
     <use style="fill:#1f77b4;stroke:#ffffff;stroke-width:0.48;" x="78.037988" xlink:href="#m1c9cfbc303" y="170.603249"/>
     <use style="fill:#1f77b4;stroke:#ffffff;stroke-width:0.48;" x="166.079864" xlink:href="#m1c9cfbc303" y="90.249636"/>
     <use style="fill:#1f77b4;stroke:#ffffff;stroke-width:0.48;" x="132.67756" xlink:href="#m1c9cfbc303" y="143.483905"/>
     <use style="fill:#1f77b4;stroke:#ffffff;stroke-width:0.48;" x="168.141735" xlink:href="#m1c9cfbc303" y="83.218694"/>
     <use style="fill:#1f77b4;stroke:#ffffff;stroke-width:0.48;" x="185.049074" xlink:href="#m1c9cfbc303" y="128.417602"/>
     <use style="fill:#1f77b4;stroke:#ffffff;stroke-width:0.48;" x="139.275546" xlink:href="#m1c9cfbc303" y="133.439703"/>
     <use style="fill:#1f77b4;stroke:#ffffff;stroke-width:0.48;" x="171.028354" xlink:href="#m1c9cfbc303" y="65.139131"/>
     <use style="fill:#1f77b4;stroke:#ffffff;stroke-width:0.48;" x="117.832092" xlink:href="#m1c9cfbc303" y="185.669552"/>
     <use style="fill:#1f77b4;stroke:#ffffff;stroke-width:0.48;" x="86.904032" xlink:href="#m1c9cfbc303" y="226.850779"/>
     <use style="fill:#1f77b4;stroke:#ffffff;stroke-width:0.48;" x="137.62605" xlink:href="#m1c9cfbc303" y="175.62535"/>
     <use style="fill:#1f77b4;stroke:#ffffff;stroke-width:0.48;" x="122.780581" xlink:href="#m1c9cfbc303" y="97.280577"/>
     <use style="fill:#1f77b4;stroke:#ffffff;stroke-width:0.48;" x="97.089673" xlink:href="#m1c9cfbc303" y="134.444123"/>
     <use style="fill:#1f77b4;stroke:#ffffff;stroke-width:0.48;" x="131.852812" xlink:href="#m1c9cfbc303" y="167.589989"/>
     <use style="fill:#1f77b4;stroke:#ffffff;stroke-width:0.48;" x="113.295976" xlink:href="#m1c9cfbc303" y="97.280577"/>
     <use style="fill:#1f77b4;stroke:#ffffff;stroke-width:0.48;" x="114.945473" xlink:href="#m1c9cfbc303" y="159.554628"/>
     <use style="fill:#1f77b4;stroke:#ffffff;stroke-width:0.48;" x="135.564179" xlink:href="#m1c9cfbc303" y="103.307098"/>
     <use style="fill:#1f77b4;stroke:#ffffff;stroke-width:0.48;" x="93.79068" xlink:href="#m1c9cfbc303" y="131.430863"/>
     <use style="fill:#1f77b4;stroke:#ffffff;stroke-width:0.48;" x="105.089731" xlink:href="#m1c9cfbc303" y="131.430863"/>
     <use style="fill:#1f77b4;stroke:#ffffff;stroke-width:0.48;" x="79.068924" xlink:href="#m1c9cfbc303" y="240.912661"/>
     <use style="fill:#1f77b4;stroke:#ffffff;stroke-width:0.48;" x="148.347777" xlink:href="#m1c9cfbc303" y="127.413182"/>
     <use style="fill:#1f77b4;stroke:#ffffff;stroke-width:0.48;" x="83.316377" xlink:href="#m1c9cfbc303" y="217.810997"/>
     <use style="fill:#1f77b4;stroke:#ffffff;stroke-width:0.48;" x="76.924578" xlink:href="#m1c9cfbc303" y="163.572308"/>
     <use style="fill:#1f77b4;stroke:#ffffff;stroke-width:0.48;" x="99.481443" xlink:href="#m1c9cfbc303" y="82.214274"/>
     <use style="fill:#1f77b4;stroke:#ffffff;stroke-width:0.48;" x="74.244146" xlink:href="#m1c9cfbc303" y="225.846359"/>
     <use style="fill:#1f77b4;stroke:#ffffff;stroke-width:0.48;" x="131.852812" xlink:href="#m1c9cfbc303" y="188.682812"/>
     <use style="fill:#1f77b4;stroke:#ffffff;stroke-width:0.48;" x="114.533098" xlink:href="#m1c9cfbc303" y="209.775636"/>
     <use style="fill:#1f77b4;stroke:#ffffff;stroke-width:0.48;" x="117.419717" xlink:href="#m1c9cfbc303" y="93.262896"/>
     <use style="fill:#1f77b4;stroke:#ffffff;stroke-width:0.48;" x="105.130968" xlink:href="#m1c9cfbc303" y="127.413182"/>
     <use style="fill:#1f77b4;stroke:#ffffff;stroke-width:0.48;" x="81.873068" xlink:href="#m1c9cfbc303" y="174.62093"/>
     <use style="fill:#1f77b4;stroke:#ffffff;stroke-width:0.48;" x="79.316348" xlink:href="#m1c9cfbc303" y="192.700493"/>
     <use style="fill:#1f77b4;stroke:#ffffff;stroke-width:0.48;" x="67.650284" xlink:href="#m1c9cfbc303" y="287.115989"/>
     <use style="fill:#1f77b4;stroke:#ffffff;stroke-width:0.48;" x="105.048494" xlink:href="#m1c9cfbc303" y="206.762376"/>
     <use style="fill:#1f77b4;stroke:#ffffff;stroke-width:0.48;" x="68.982253" xlink:href="#m1c9cfbc303" y="246.939182"/>
     <use style="fill:#1f77b4;stroke:#ffffff;stroke-width:0.48;" x="72.512175" xlink:href="#m1c9cfbc303" y="253.970124"/>
     <use style="fill:#1f77b4;stroke:#ffffff;stroke-width:0.48;" x="105.172206" xlink:href="#m1c9cfbc303" y="119.377821"/>
     <use style="fill:#1f77b4;stroke:#ffffff;stroke-width:0.48;" x="131.440438" xlink:href="#m1c9cfbc303" y="100.293837"/>
     <use style="fill:#1f77b4;stroke:#ffffff;stroke-width:0.48;" x="75.027657" xlink:href="#m1c9cfbc303" y="263.009905"/>
     <use style="fill:#1f77b4;stroke:#ffffff;stroke-width:0.48;" x="109.172235" xlink:href="#m1c9cfbc303" y="146.497165"/>
     <use style="fill:#1f77b4;stroke:#ffffff;stroke-width:0.48;" x="71.522477" xlink:href="#m1c9cfbc303" y="214.797737"/>
     <use style="fill:#1f77b4;stroke:#ffffff;stroke-width:0.48;" x="78.079226" xlink:href="#m1c9cfbc303" y="211.784476"/>
     <use style="fill:#1f77b4;stroke:#ffffff;stroke-width:0.48;" x="81.089557" xlink:href="#m1c9cfbc303" y="168.594409"/>
     <use style="fill:#1f77b4;stroke:#ffffff;stroke-width:0.48;" x="69.872981" xlink:href="#m1c9cfbc303" y="280.085048"/>
     <use style="fill:#1f77b4;stroke:#ffffff;stroke-width:0.48;" x="110.821731" xlink:href="#m1c9cfbc303" y="91.254056"/>
     <use style="fill:#1f77b4;stroke:#ffffff;stroke-width:0.48;" x="82.120492" xlink:href="#m1c9cfbc303" y="141.475064"/>
     <use style="fill:#1f77b4;stroke:#ffffff;stroke-width:0.48;" x="129.790941" xlink:href="#m1c9cfbc303" y="107.324779"/>
     <use style="fill:#1f77b4;stroke:#ffffff;stroke-width:0.48;" x="73.70806" xlink:href="#m1c9cfbc303" y="249.952443"/>
     <use style="fill:#1f77b4;stroke:#ffffff;stroke-width:0.48;" x="71.068866" xlink:href="#m1c9cfbc303" y="266.023166"/>
     <use style="fill:#1f77b4;stroke:#ffffff;stroke-width:0.48;" x="114.945473" xlink:href="#m1c9cfbc303" y="100.293837"/>
     <use style="fill:#1f77b4;stroke:#ffffff;stroke-width:0.48;" x="90.904061" xlink:href="#m1c9cfbc303" y="187.678392"/>
     <use style="fill:#1f77b4;stroke:#ffffff;stroke-width:0.48;" x="72.223513" xlink:href="#m1c9cfbc303" y="273.054107"/>
     <use style="fill:#1f77b4;stroke:#ffffff;stroke-width:0.48;" x="100.017529" xlink:href="#m1c9cfbc303" y="170.603249"/>
     <use style="fill:#1f77b4;stroke:#ffffff;stroke-width:0.48;" x="72.883312" xlink:href="#m1c9cfbc303" y="187.678392"/>
     <use style="fill:#1f77b4;stroke:#ffffff;stroke-width:0.48;" x="104.47117" xlink:href="#m1c9cfbc303" y="261.001065"/>
     <use style="fill:#1f77b4;stroke:#ffffff;stroke-width:0.48;" x="72.7596" xlink:href="#m1c9cfbc303" y="212.788897"/>
     <use style="fill:#1f77b4;stroke:#ffffff;stroke-width:0.48;" x="112.058854" xlink:href="#m1c9cfbc303" y="168.594409"/>
     <use style="fill:#1f77b4;stroke:#ffffff;stroke-width:0.48;" x="80.306046" xlink:href="#m1c9cfbc303" y="238.903821"/>
     <use style="fill:#1f77b4;stroke:#ffffff;stroke-width:0.48;" x="71.687427" xlink:href="#m1c9cfbc303" y="228.859619"/>
     <use style="fill:#1f77b4;stroke:#ffffff;stroke-width:0.48;" x="94.862853" xlink:href="#m1c9cfbc303" y="183.660712"/>
     <use style="fill:#1f77b4;stroke:#ffffff;stroke-width:0.48;" x="69.749268" xlink:href="#m1c9cfbc303" y="226.850779"/>
     <use style="fill:#1f77b4;stroke:#ffffff;stroke-width:0.48;" x="75.275082" xlink:href="#m1c9cfbc303" y="187.678392"/>
     <use style="fill:#1f77b4;stroke:#ffffff;stroke-width:0.48;" x="71.192578" xlink:href="#m1c9cfbc303" y="236.894981"/>
     <use style="fill:#1f77b4;stroke:#ffffff;stroke-width:0.48;" x="77.089528" xlink:href="#m1c9cfbc303" y="318.253015"/>
     <use style="fill:#1f77b4;stroke:#ffffff;stroke-width:0.48;" x="67.703893" xlink:href="#m1c9cfbc303" y="255.978964"/>
     <use style="fill:#1f77b4;stroke:#ffffff;stroke-width:0.48;" x="74.903945" xlink:href="#m1c9cfbc303" y="258.992225"/>
     <use style="fill:#1f77b4;stroke:#ffffff;stroke-width:0.48;" x="71.811139" xlink:href="#m1c9cfbc303" y="221.828678"/>
     <use style="fill:#1f77b4;stroke:#ffffff;stroke-width:0.48;" x="134.327057" xlink:href="#m1c9cfbc303" y="180.647451"/>
     <use style="fill:#1f77b4;stroke:#ffffff;stroke-width:0.48;" x="77.007053" xlink:href="#m1c9cfbc303" y="163.572308"/>
     <use style="fill:#1f77b4;stroke:#ffffff;stroke-width:0.48;" x="69.914218" xlink:href="#m1c9cfbc303" y="236.894981"/>
     <use style="fill:#1f77b4;stroke:#ffffff;stroke-width:0.48;" x="74.697758" xlink:href="#m1c9cfbc303" y="197.722594"/>
     <use style="fill:#1f77b4;stroke:#ffffff;stroke-width:0.48;" x="73.749297" xlink:href="#m1c9cfbc303" y="187.678392"/>
     <use style="fill:#1f77b4;stroke:#ffffff;stroke-width:0.48;" x="77.336952" xlink:href="#m1c9cfbc303" y="201.740275"/>
     <use style="fill:#1f77b4;stroke:#ffffff;stroke-width:0.48;" x="72.305988" xlink:href="#m1c9cfbc303" y="237.899401"/>
     <use style="fill:#1f77b4;stroke:#ffffff;stroke-width:0.48;" x="68.322454" xlink:href="#m1c9cfbc303" y="350.39446"/>
     <use style="fill:#1f77b4;stroke:#ffffff;stroke-width:0.48;" x="72.718362" xlink:href="#m1c9cfbc303" y="282.093889"/>
    </g>
   </g>
   <g id="matplotlib.axis_1">
    <g id="xtick_1">
     <g id="line2d_1">
      <defs>
       <path d="M 0 0 
L 0 3.5 
" id="m059829f1f1" style="stroke:#000000;stroke-width:0.8;"/>
      </defs>
      <g>
       <use style="stroke:#000000;stroke-width:0.8;" x="65.048203" xlink:href="#m059829f1f1" y="366.565625"/>
      </g>
     </g>
     <g id="text_1">
      <!-- 0 -->
      <g transform="translate(61.866953 381.164062)scale(0.1 -0.1)">
       <defs>
        <path d="M 2034 4250 
Q 1547 4250 1301 3770 
Q 1056 3291 1056 2328 
Q 1056 1369 1301 889 
Q 1547 409 2034 409 
Q 2525 409 2770 889 
Q 3016 1369 3016 2328 
Q 3016 3291 2770 3770 
Q 2525 4250 2034 4250 
z
M 2034 4750 
Q 2819 4750 3233 4129 
Q 3647 3509 3647 2328 
Q 3647 1150 3233 529 
Q 2819 -91 2034 -91 
Q 1250 -91 836 529 
Q 422 1150 422 2328 
Q 422 3509 836 4129 
Q 1250 4750 2034 4750 
z
" id="DejaVuSans-30" transform="scale(0.015625)"/>
       </defs>
       <use xlink:href="#DejaVuSans-30"/>
      </g>
     </g>
    </g>
    <g id="xtick_2">
     <g id="line2d_2">
      <g>
       <use style="stroke:#000000;stroke-width:0.8;" x="147.523029" xlink:href="#m059829f1f1" y="366.565625"/>
      </g>
     </g>
     <g id="text_2">
      <!-- 20000 -->
      <g transform="translate(131.616779 381.164062)scale(0.1 -0.1)">
       <defs>
        <path d="M 1228 531 
L 3431 531 
L 3431 0 
L 469 0 
L 469 531 
Q 828 903 1448 1529 
Q 2069 2156 2228 2338 
Q 2531 2678 2651 2914 
Q 2772 3150 2772 3378 
Q 2772 3750 2511 3984 
Q 2250 4219 1831 4219 
Q 1534 4219 1204 4116 
Q 875 4013 500 3803 
L 500 4441 
Q 881 4594 1212 4672 
Q 1544 4750 1819 4750 
Q 2544 4750 2975 4387 
Q 3406 4025 3406 3419 
Q 3406 3131 3298 2873 
Q 3191 2616 2906 2266 
Q 2828 2175 2409 1742 
Q 1991 1309 1228 531 
z
" id="DejaVuSans-32" transform="scale(0.015625)"/>
       </defs>
       <use xlink:href="#DejaVuSans-32"/>
       <use x="63.623047" xlink:href="#DejaVuSans-30"/>
       <use x="127.246094" xlink:href="#DejaVuSans-30"/>
       <use x="190.869141" xlink:href="#DejaVuSans-30"/>
       <use x="254.492188" xlink:href="#DejaVuSans-30"/>
      </g>
     </g>
    </g>
    <g id="xtick_3">
     <g id="line2d_3">
      <g>
       <use style="stroke:#000000;stroke-width:0.8;" x="229.997854" xlink:href="#m059829f1f1" y="366.565625"/>
      </g>
     </g>
     <g id="text_3">
      <!-- 40000 -->
      <g transform="translate(214.091604 381.164062)scale(0.1 -0.1)">
       <defs>
        <path d="M 2419 4116 
L 825 1625 
L 2419 1625 
L 2419 4116 
z
M 2253 4666 
L 3047 4666 
L 3047 1625 
L 3713 1625 
L 3713 1100 
L 3047 1100 
L 3047 0 
L 2419 0 
L 2419 1100 
L 313 1100 
L 313 1709 
L 2253 4666 
z
" id="DejaVuSans-34" transform="scale(0.015625)"/>
       </defs>
       <use xlink:href="#DejaVuSans-34"/>
       <use x="63.623047" xlink:href="#DejaVuSans-30"/>
       <use x="127.246094" xlink:href="#DejaVuSans-30"/>
       <use x="190.869141" xlink:href="#DejaVuSans-30"/>
       <use x="254.492188" xlink:href="#DejaVuSans-30"/>
      </g>
     </g>
    </g>
    <g id="xtick_4">
     <g id="line2d_4">
      <g>
       <use style="stroke:#000000;stroke-width:0.8;" x="312.472679" xlink:href="#m059829f1f1" y="366.565625"/>
      </g>
     </g>
     <g id="text_4">
      <!-- 60000 -->
      <g transform="translate(296.566429 381.164062)scale(0.1 -0.1)">
       <defs>
        <path d="M 2113 2584 
Q 1688 2584 1439 2293 
Q 1191 2003 1191 1497 
Q 1191 994 1439 701 
Q 1688 409 2113 409 
Q 2538 409 2786 701 
Q 3034 994 3034 1497 
Q 3034 2003 2786 2293 
Q 2538 2584 2113 2584 
z
M 3366 4563 
L 3366 3988 
Q 3128 4100 2886 4159 
Q 2644 4219 2406 4219 
Q 1781 4219 1451 3797 
Q 1122 3375 1075 2522 
Q 1259 2794 1537 2939 
Q 1816 3084 2150 3084 
Q 2853 3084 3261 2657 
Q 3669 2231 3669 1497 
Q 3669 778 3244 343 
Q 2819 -91 2113 -91 
Q 1303 -91 875 529 
Q 447 1150 447 2328 
Q 447 3434 972 4092 
Q 1497 4750 2381 4750 
Q 2619 4750 2861 4703 
Q 3103 4656 3366 4563 
z
" id="DejaVuSans-36" transform="scale(0.015625)"/>
       </defs>
       <use xlink:href="#DejaVuSans-36"/>
       <use x="63.623047" xlink:href="#DejaVuSans-30"/>
       <use x="127.246094" xlink:href="#DejaVuSans-30"/>
       <use x="190.869141" xlink:href="#DejaVuSans-30"/>
       <use x="254.492188" xlink:href="#DejaVuSans-30"/>
      </g>
     </g>
    </g>
    <g id="xtick_5">
     <g id="line2d_5">
      <g>
       <use style="stroke:#000000;stroke-width:0.8;" x="394.947504" xlink:href="#m059829f1f1" y="366.565625"/>
      </g>
     </g>
     <g id="text_5">
      <!-- 80000 -->
      <g transform="translate(379.041254 381.164062)scale(0.1 -0.1)">
       <defs>
        <path d="M 2034 2216 
Q 1584 2216 1326 1975 
Q 1069 1734 1069 1313 
Q 1069 891 1326 650 
Q 1584 409 2034 409 
Q 2484 409 2743 651 
Q 3003 894 3003 1313 
Q 3003 1734 2745 1975 
Q 2488 2216 2034 2216 
z
M 1403 2484 
Q 997 2584 770 2862 
Q 544 3141 544 3541 
Q 544 4100 942 4425 
Q 1341 4750 2034 4750 
Q 2731 4750 3128 4425 
Q 3525 4100 3525 3541 
Q 3525 3141 3298 2862 
Q 3072 2584 2669 2484 
Q 3125 2378 3379 2068 
Q 3634 1759 3634 1313 
Q 3634 634 3220 271 
Q 2806 -91 2034 -91 
Q 1263 -91 848 271 
Q 434 634 434 1313 
Q 434 1759 690 2068 
Q 947 2378 1403 2484 
z
M 1172 3481 
Q 1172 3119 1398 2916 
Q 1625 2713 2034 2713 
Q 2441 2713 2670 2916 
Q 2900 3119 2900 3481 
Q 2900 3844 2670 4047 
Q 2441 4250 2034 4250 
Q 1625 4250 1398 4047 
Q 1172 3844 1172 3481 
z
" id="DejaVuSans-38" transform="scale(0.015625)"/>
       </defs>
       <use xlink:href="#DejaVuSans-38"/>
       <use x="63.623047" xlink:href="#DejaVuSans-30"/>
       <use x="127.246094" xlink:href="#DejaVuSans-30"/>
       <use x="190.869141" xlink:href="#DejaVuSans-30"/>
       <use x="254.492188" xlink:href="#DejaVuSans-30"/>
      </g>
     </g>
    </g>
    <g id="xtick_6">
     <g id="line2d_6">
      <g>
       <use style="stroke:#000000;stroke-width:0.8;" x="477.42233" xlink:href="#m059829f1f1" y="366.565625"/>
      </g>
     </g>
     <g id="text_6">
      <!-- 100000 -->
      <g transform="translate(458.33483 381.164062)scale(0.1 -0.1)">
       <defs>
        <path d="M 794 531 
L 1825 531 
L 1825 4091 
L 703 3866 
L 703 4441 
L 1819 4666 
L 2450 4666 
L 2450 531 
L 3481 531 
L 3481 0 
L 794 0 
L 794 531 
z
" id="DejaVuSans-31" transform="scale(0.015625)"/>
       </defs>
       <use xlink:href="#DejaVuSans-31"/>
       <use x="63.623047" xlink:href="#DejaVuSans-30"/>
       <use x="127.246094" xlink:href="#DejaVuSans-30"/>
       <use x="190.869141" xlink:href="#DejaVuSans-30"/>
       <use x="254.492188" xlink:href="#DejaVuSans-30"/>
       <use x="318.115234" xlink:href="#DejaVuSans-30"/>
      </g>
     </g>
    </g>
    <g id="text_7">
     <!-- gdp_per_cap -->
     <g transform="translate(267.524219 394.842188)scale(0.1 -0.1)">
      <defs>
       <path d="M 2906 1791 
Q 2906 2416 2648 2759 
Q 2391 3103 1925 3103 
Q 1463 3103 1205 2759 
Q 947 2416 947 1791 
Q 947 1169 1205 825 
Q 1463 481 1925 481 
Q 2391 481 2648 825 
Q 2906 1169 2906 1791 
z
M 3481 434 
Q 3481 -459 3084 -895 
Q 2688 -1331 1869 -1331 
Q 1566 -1331 1297 -1286 
Q 1028 -1241 775 -1147 
L 775 -588 
Q 1028 -725 1275 -790 
Q 1522 -856 1778 -856 
Q 2344 -856 2625 -561 
Q 2906 -266 2906 331 
L 2906 616 
Q 2728 306 2450 153 
Q 2172 0 1784 0 
Q 1141 0 747 490 
Q 353 981 353 1791 
Q 353 2603 747 3093 
Q 1141 3584 1784 3584 
Q 2172 3584 2450 3431 
Q 2728 3278 2906 2969 
L 2906 3500 
L 3481 3500 
L 3481 434 
z
" id="DejaVuSans-67" transform="scale(0.015625)"/>
       <path d="M 2906 2969 
L 2906 4863 
L 3481 4863 
L 3481 0 
L 2906 0 
L 2906 525 
Q 2725 213 2448 61 
Q 2172 -91 1784 -91 
Q 1150 -91 751 415 
Q 353 922 353 1747 
Q 353 2572 751 3078 
Q 1150 3584 1784 3584 
Q 2172 3584 2448 3432 
Q 2725 3281 2906 2969 
z
M 947 1747 
Q 947 1113 1208 752 
Q 1469 391 1925 391 
Q 2381 391 2643 752 
Q 2906 1113 2906 1747 
Q 2906 2381 2643 2742 
Q 2381 3103 1925 3103 
Q 1469 3103 1208 2742 
Q 947 2381 947 1747 
z
" id="DejaVuSans-64" transform="scale(0.015625)"/>
       <path d="M 1159 525 
L 1159 -1331 
L 581 -1331 
L 581 3500 
L 1159 3500 
L 1159 2969 
Q 1341 3281 1617 3432 
Q 1894 3584 2278 3584 
Q 2916 3584 3314 3078 
Q 3713 2572 3713 1747 
Q 3713 922 3314 415 
Q 2916 -91 2278 -91 
Q 1894 -91 1617 61 
Q 1341 213 1159 525 
z
M 3116 1747 
Q 3116 2381 2855 2742 
Q 2594 3103 2138 3103 
Q 1681 3103 1420 2742 
Q 1159 2381 1159 1747 
Q 1159 1113 1420 752 
Q 1681 391 2138 391 
Q 2594 391 2855 752 
Q 3116 1113 3116 1747 
z
" id="DejaVuSans-70" transform="scale(0.015625)"/>
       <path d="M 3263 -1063 
L 3263 -1509 
L -63 -1509 
L -63 -1063 
L 3263 -1063 
z
" id="DejaVuSans-5f" transform="scale(0.015625)"/>
       <path d="M 3597 1894 
L 3597 1613 
L 953 1613 
Q 991 1019 1311 708 
Q 1631 397 2203 397 
Q 2534 397 2845 478 
Q 3156 559 3463 722 
L 3463 178 
Q 3153 47 2828 -22 
Q 2503 -91 2169 -91 
Q 1331 -91 842 396 
Q 353 884 353 1716 
Q 353 2575 817 3079 
Q 1281 3584 2069 3584 
Q 2775 3584 3186 3129 
Q 3597 2675 3597 1894 
z
M 3022 2063 
Q 3016 2534 2758 2815 
Q 2500 3097 2075 3097 
Q 1594 3097 1305 2825 
Q 1016 2553 972 2059 
L 3022 2063 
z
" id="DejaVuSans-65" transform="scale(0.015625)"/>
       <path d="M 2631 2963 
Q 2534 3019 2420 3045 
Q 2306 3072 2169 3072 
Q 1681 3072 1420 2755 
Q 1159 2438 1159 1844 
L 1159 0 
L 581 0 
L 581 3500 
L 1159 3500 
L 1159 2956 
Q 1341 3275 1631 3429 
Q 1922 3584 2338 3584 
Q 2397 3584 2469 3576 
Q 2541 3569 2628 3553 
L 2631 2963 
z
" id="DejaVuSans-72" transform="scale(0.015625)"/>
       <path d="M 3122 3366 
L 3122 2828 
Q 2878 2963 2633 3030 
Q 2388 3097 2138 3097 
Q 1578 3097 1268 2742 
Q 959 2388 959 1747 
Q 959 1106 1268 751 
Q 1578 397 2138 397 
Q 2388 397 2633 464 
Q 2878 531 3122 666 
L 3122 134 
Q 2881 22 2623 -34 
Q 2366 -91 2075 -91 
Q 1284 -91 818 406 
Q 353 903 353 1747 
Q 353 2603 823 3093 
Q 1294 3584 2113 3584 
Q 2378 3584 2631 3529 
Q 2884 3475 3122 3366 
z
" id="DejaVuSans-63" transform="scale(0.015625)"/>
       <path d="M 2194 1759 
Q 1497 1759 1228 1600 
Q 959 1441 959 1056 
Q 959 750 1161 570 
Q 1363 391 1709 391 
Q 2188 391 2477 730 
Q 2766 1069 2766 1631 
L 2766 1759 
L 2194 1759 
z
M 3341 1997 
L 3341 0 
L 2766 0 
L 2766 531 
Q 2569 213 2275 61 
Q 1981 -91 1556 -91 
Q 1019 -91 701 211 
Q 384 513 384 1019 
Q 384 1609 779 1909 
Q 1175 2209 1959 2209 
L 2766 2209 
L 2766 2266 
Q 2766 2663 2505 2880 
Q 2244 3097 1772 3097 
Q 1472 3097 1187 3025 
Q 903 2953 641 2809 
L 641 3341 
Q 956 3463 1253 3523 
Q 1550 3584 1831 3584 
Q 2591 3584 2966 3190 
Q 3341 2797 3341 1997 
z
" id="DejaVuSans-61" transform="scale(0.015625)"/>
      </defs>
      <use xlink:href="#DejaVuSans-67"/>
      <use x="63.476562" xlink:href="#DejaVuSans-64"/>
      <use x="126.953125" xlink:href="#DejaVuSans-70"/>
      <use x="190.429688" xlink:href="#DejaVuSans-5f"/>
      <use x="240.429688" xlink:href="#DejaVuSans-70"/>
      <use x="303.90625" xlink:href="#DejaVuSans-65"/>
      <use x="365.429688" xlink:href="#DejaVuSans-72"/>
      <use x="406.542969" xlink:href="#DejaVuSans-5f"/>
      <use x="456.542969" xlink:href="#DejaVuSans-63"/>
      <use x="511.523438" xlink:href="#DejaVuSans-61"/>
      <use x="572.802734" xlink:href="#DejaVuSans-70"/>
     </g>
    </g>
   </g>
   <g id="matplotlib.axis_2">
    <g id="ytick_1">
     <g id="line2d_7">
      <defs>
       <path d="M 0 0 
L -3.5 0 
" id="mf335a59dcb" style="stroke:#000000;stroke-width:0.8;"/>
      </defs>
      <g>
       <use style="stroke:#000000;stroke-width:0.8;" x="44.48125" xlink:href="#mf335a59dcb" y="329.301637"/>
      </g>
     </g>
     <g id="text_8">
      <!-- 55 -->
      <g transform="translate(24.75625 333.100855)scale(0.1 -0.1)">
       <defs>
        <path d="M 691 4666 
L 3169 4666 
L 3169 4134 
L 1269 4134 
L 1269 2991 
Q 1406 3038 1543 3061 
Q 1681 3084 1819 3084 
Q 2600 3084 3056 2656 
Q 3513 2228 3513 1497 
Q 3513 744 3044 326 
Q 2575 -91 1722 -91 
Q 1428 -91 1123 -41 
Q 819 9 494 109 
L 494 744 
Q 775 591 1075 516 
Q 1375 441 1709 441 
Q 2250 441 2565 725 
Q 2881 1009 2881 1497 
Q 2881 1984 2565 2268 
Q 2250 2553 1709 2553 
Q 1456 2553 1204 2497 
Q 953 2441 691 2322 
L 691 4666 
z
" id="DejaVuSans-35" transform="scale(0.015625)"/>
       </defs>
       <use xlink:href="#DejaVuSans-35"/>
       <use x="63.623047" xlink:href="#DejaVuSans-35"/>
      </g>
     </g>
    </g>
    <g id="ytick_2">
     <g id="line2d_8">
      <g>
       <use style="stroke:#000000;stroke-width:0.8;" x="44.48125" xlink:href="#mf335a59dcb" y="279.080628"/>
      </g>
     </g>
     <g id="text_9">
      <!-- 60 -->
      <g transform="translate(24.75625 282.879847)scale(0.1 -0.1)">
       <use xlink:href="#DejaVuSans-36"/>
       <use x="63.623047" xlink:href="#DejaVuSans-30"/>
      </g>
     </g>
    </g>
    <g id="ytick_3">
     <g id="line2d_9">
      <g>
       <use style="stroke:#000000;stroke-width:0.8;" x="44.48125" xlink:href="#mf335a59dcb" y="228.859619"/>
      </g>
     </g>
     <g id="text_10">
      <!-- 65 -->
      <g transform="translate(24.75625 232.658838)scale(0.1 -0.1)">
       <use xlink:href="#DejaVuSans-36"/>
       <use x="63.623047" xlink:href="#DejaVuSans-35"/>
      </g>
     </g>
    </g>
    <g id="ytick_4">
     <g id="line2d_10">
      <g>
       <use style="stroke:#000000;stroke-width:0.8;" x="44.48125" xlink:href="#mf335a59dcb" y="178.638611"/>
      </g>
     </g>
     <g id="text_11">
      <!-- 70 -->
      <g transform="translate(24.75625 182.43783)scale(0.1 -0.1)">
       <defs>
        <path d="M 525 4666 
L 3525 4666 
L 3525 4397 
L 1831 0 
L 1172 0 
L 2766 4134 
L 525 4134 
L 525 4666 
z
" id="DejaVuSans-37" transform="scale(0.015625)"/>
       </defs>
       <use xlink:href="#DejaVuSans-37"/>
       <use x="63.623047" xlink:href="#DejaVuSans-30"/>
      </g>
     </g>
    </g>
    <g id="ytick_5">
     <g id="line2d_11">
      <g>
       <use style="stroke:#000000;stroke-width:0.8;" x="44.48125" xlink:href="#mf335a59dcb" y="128.417602"/>
      </g>
     </g>
     <g id="text_12">
      <!-- 75 -->
      <g transform="translate(24.75625 132.216821)scale(0.1 -0.1)">
       <use xlink:href="#DejaVuSans-37"/>
       <use x="63.623047" xlink:href="#DejaVuSans-35"/>
      </g>
     </g>
    </g>
    <g id="ytick_6">
     <g id="line2d_12">
      <g>
       <use style="stroke:#000000;stroke-width:0.8;" x="44.48125" xlink:href="#mf335a59dcb" y="78.196594"/>
      </g>
     </g>
     <g id="text_13">
      <!-- 80 -->
      <g transform="translate(24.75625 81.995812)scale(0.1 -0.1)">
       <use xlink:href="#DejaVuSans-38"/>
       <use x="63.623047" xlink:href="#DejaVuSans-30"/>
      </g>
     </g>
    </g>
    <g id="ytick_7">
     <g id="line2d_13">
      <g>
       <use style="stroke:#000000;stroke-width:0.8;" x="44.48125" xlink:href="#mf335a59dcb" y="27.975585"/>
      </g>
     </g>
     <g id="text_14">
      <!-- 85 -->
      <g transform="translate(24.75625 31.774804)scale(0.1 -0.1)">
       <use xlink:href="#DejaVuSans-38"/>
       <use x="63.623047" xlink:href="#DejaVuSans-35"/>
      </g>
     </g>
    </g>
    <g id="text_15">
     <!-- life_exp -->
     <g transform="translate(18.398438 207.920313)rotate(-90)scale(0.1 -0.1)">
      <defs>
       <path d="M 603 4863 
L 1178 4863 
L 1178 0 
L 603 0 
L 603 4863 
z
" id="DejaVuSans-6c" transform="scale(0.015625)"/>
       <path d="M 603 3500 
L 1178 3500 
L 1178 0 
L 603 0 
L 603 3500 
z
M 603 4863 
L 1178 4863 
L 1178 4134 
L 603 4134 
L 603 4863 
z
" id="DejaVuSans-69" transform="scale(0.015625)"/>
       <path d="M 2375 4863 
L 2375 4384 
L 1825 4384 
Q 1516 4384 1395 4259 
Q 1275 4134 1275 3809 
L 1275 3500 
L 2222 3500 
L 2222 3053 
L 1275 3053 
L 1275 0 
L 697 0 
L 697 3053 
L 147 3053 
L 147 3500 
L 697 3500 
L 697 3744 
Q 697 4328 969 4595 
Q 1241 4863 1831 4863 
L 2375 4863 
z
" id="DejaVuSans-66" transform="scale(0.015625)"/>
       <path d="M 3513 3500 
L 2247 1797 
L 3578 0 
L 2900 0 
L 1881 1375 
L 863 0 
L 184 0 
L 1544 1831 
L 300 3500 
L 978 3500 
L 1906 2253 
L 2834 3500 
L 3513 3500 
z
" id="DejaVuSans-78" transform="scale(0.015625)"/>
      </defs>
      <use xlink:href="#DejaVuSans-6c"/>
      <use x="27.783203" xlink:href="#DejaVuSans-69"/>
      <use x="55.566406" xlink:href="#DejaVuSans-66"/>
      <use x="90.771484" xlink:href="#DejaVuSans-65"/>
      <use x="152.294922" xlink:href="#DejaVuSans-5f"/>
      <use x="202.294922" xlink:href="#DejaVuSans-65"/>
      <use x="262.068359" xlink:href="#DejaVuSans-78"/>
      <use x="321.248047" xlink:href="#DejaVuSans-70"/>
     </g>
    </g>
   </g>
   <g id="patch_3">
    <path d="M 44.48125 366.565625 
L 44.48125 10.8 
" style="fill:none;stroke:#000000;stroke-linecap:square;stroke-linejoin:miter;stroke-width:0.8;"/>
   </g>
   <g id="patch_4">
    <path d="M 554.2 366.565625 
L 554.2 10.8 
" style="fill:none;stroke:#000000;stroke-linecap:square;stroke-linejoin:miter;stroke-width:0.8;"/>
   </g>
   <g id="patch_5">
    <path d="M 44.48125 366.565625 
L 554.2 366.565625 
" style="fill:none;stroke:#000000;stroke-linecap:square;stroke-linejoin:miter;stroke-width:0.8;"/>
   </g>
   <g id="patch_6">
    <path d="M 44.48125 10.8 
L 554.2 10.8 
" style="fill:none;stroke:#000000;stroke-linecap:square;stroke-linejoin:miter;stroke-width:0.8;"/>
   </g>
  </g>
 </g>
 <defs>
  <clipPath id="p5a96215a3f">
   <rect height="355.765625" width="509.71875" x="44.48125" y="10.8"/>
  </clipPath>
 </defs>
</svg>
