<?xml version="1.0" encoding="utf-8" standalone="no"?>
<!DOCTYPE svg PUBLIC "-//W3C//DTD SVG 1.1//EN"
  "http://www.w3.org/Graphics/SVG/1.1/DTD/svg11.dtd">
<svg height="408pt" version="1.1" viewBox="0 0 276 408" width="276pt" xmlns="http://www.w3.org/2000/svg" xmlns:xlink="http://www.w3.org/1999/xlink">
 <metadata>
  <rdf:RDF xmlns:cc="http://creativecommons.org/ns#" xmlns:dc="http://purl.org/dc/elements/1.1/" xmlns:rdf="http://www.w3.org/1999/02/22-rdf-syntax-ns#">
   <cc:Work>
    <dc:type rdf:resource="http://purl.org/dc/dcmitype/StillImage"/>
    <dc:date>2025-01-16T14:36:12.425208</dc:date>
    <dc:format>image/svg+xml</dc:format>
    <dc:creator>
     <cc:Agent>
      <dc:title>Matplotlib v3.4.3, https://matplotlib.org/</dc:title>
     </cc:Agent>
    </dc:creator>
   </cc:Work>
  </rdf:RDF>
 </metadata>
 <defs>
  <style type="text/css">*{stroke-linecap:butt;stroke-linejoin:round;}</style>
 </defs>
 <g id="figure_1">
  <g id="patch_1">
   <path d="M 0 408 
L 276 408 
L 276 0 
L 0 0 
z
" style="fill:#ffffff;"/>
  </g>
  <g id="axes_1">
   <g id="patch_2">
    <path d="M 44.203125 366.84375 
L 265.2 366.84375 
L 265.2 25.918125 
L 44.203125 25.918125 
z
" style="fill:#ffffff;"/>
   </g>
   <g id="PathCollection_1">
    <defs>
     <path d="M 0 3 
C 0.795609 3 1.55874 2.683901 2.12132 2.12132 
C 2.683901 1.55874 3 0.795609 3 0 
C 3 -0.795609 2.683901 -1.55874 2.12132 -2.12132 
C 1.55874 -2.683901 0.795609 -3 0 -3 
C -0.795609 -3 -1.55874 -2.683901 -2.12132 -2.12132 
C -2.683901 -1.55874 -3 -0.795609 -3 0 
C -3 0.795609 -2.683901 1.55874 -2.12132 2.12132 
C -1.55874 2.683901 -0.795609 3 0 3 
z
" id="m83444dc14b" style="stroke:#1f77b4;"/>
    </defs>
    <g clip-path="url(#pc015101a2b)">
     <use style="fill:#1f77b4;stroke:#1f77b4;" x="102.95454" xlink:href="#m83444dc14b" y="320.959482"/>
     <use style="fill:#1f77b4;stroke:#1f77b4;" x="173.026119" xlink:href="#m83444dc14b" y="85.968877"/>
     <use style="fill:#1f77b4;stroke:#1f77b4;" x="174.852685" xlink:href="#m83444dc14b" y="115.68605"/>
     <use style="fill:#1f77b4;stroke:#1f77b4;" x="164.759649" xlink:href="#m83444dc14b" y="328.868201"/>
     <use style="fill:#1f77b4;stroke:#1f77b4;" x="202.754854" xlink:href="#m83444dc14b" y="93.920852"/>
     <use style="fill:#1f77b4;stroke:#1f77b4;" x="241.194358" xlink:href="#m83444dc14b" y="51.277212"/>
     <use style="fill:#1f77b4;stroke:#1f77b4;" x="243.053501" xlink:href="#m83444dc14b" y="61.413638"/>
     <use style="fill:#1f77b4;stroke:#1f77b4;" x="235.582745" xlink:href="#m83444dc14b" y="91.649889"/>
     <use style="fill:#1f77b4;stroke:#1f77b4;" x="116.757985" xlink:href="#m83444dc14b" y="175.084351"/>
     <use style="fill:#1f77b4;stroke:#1f77b4;" x="240.348756" xlink:href="#m83444dc14b" y="64.210888"/>
     <use style="fill:#1f77b4;stroke:#1f77b4;" x="118.128025" xlink:href="#m83444dc14b" y="227.958138"/>
     <use style="fill:#1f77b4;stroke:#1f77b4;" x="155.947979" xlink:href="#m83444dc14b" y="164.327916"/>
     <use style="fill:#1f77b4;stroke:#1f77b4;" x="181.809827" xlink:href="#m83444dc14b" y="97.294854"/>
     <use style="fill:#1f77b4;stroke:#1f77b4;" x="202.113776" xlink:href="#m83444dc14b" y="271.214577"/>
     <use style="fill:#1f77b4;stroke:#1f77b4;" x="189.441182" xlink:href="#m83444dc14b" y="115.044413"/>
     <use style="fill:#1f77b4;stroke:#1f77b4;" x="195.798491" xlink:href="#m83444dc14b" y="110.610628"/>
     <use style="fill:#1f77b4;stroke:#1f77b4;" x="111.569796" xlink:href="#m83444dc14b" y="259.917437"/>
     <use style="fill:#1f77b4;stroke:#1f77b4;" x="71.231282" xlink:href="#m83444dc14b" y="279.490976"/>
     <use style="fill:#1f77b4;stroke:#1f77b4;" x="124.843178" xlink:href="#m83444dc14b" y="206.365966"/>
     <use style="fill:#1f77b4;stroke:#1f77b4;" x="131.640153" xlink:href="#m83444dc14b" y="273.36298"/>
     <use style="fill:#1f77b4;stroke:#1f77b4;" x="243.259844" xlink:href="#m83444dc14b" y="55.473087"/>
     <use style="fill:#1f77b4;stroke:#1f77b4;" x="90.453494" xlink:href="#m83444dc14b" y="314.377294"/>
     <use style="fill:#1f77b4;stroke:#1f77b4;" x="124.622726" xlink:href="#m83444dc14b" y="271.769701"/>
     <use style="fill:#1f77b4;stroke:#1f77b4;" x="203.927254" xlink:href="#m83444dc14b" y="70.612841"/>
     <use style="fill:#1f77b4;stroke:#1f77b4;" x="166.046652" xlink:href="#m83444dc14b" y="110.927842"/>
     <use style="fill:#1f77b4;stroke:#1f77b4;" x="179.449467" xlink:href="#m83444dc14b" y="111.446919"/>
     <use style="fill:#1f77b4;stroke:#1f77b4;" x="103.412105" xlink:href="#m83444dc14b" y="167.226098"/>
     <use style="fill:#1f77b4;stroke:#1f77b4;" x="54.248438" xlink:href="#m83444dc14b" y="301.969905"/>
     <use style="fill:#1f77b4;stroke:#1f77b4;" x="153.975199" xlink:href="#m83444dc14b" y="238.094564"/>
     <use style="fill:#1f77b4;stroke:#1f77b4;" x="191.843016" xlink:href="#m83444dc14b" y="68.961887"/>
     <use style="fill:#1f77b4;stroke:#1f77b4;" x="120.816448" xlink:href="#m83444dc14b" y="288.517153"/>
     <use style="fill:#1f77b4;stroke:#1f77b4;" x="207.970768" xlink:href="#m83444dc14b" y="90.835226"/>
     <use style="fill:#1f77b4;stroke:#1f77b4;" x="188.934435" xlink:href="#m83444dc14b" y="72.631475"/>
     <use style="fill:#1f77b4;stroke:#1f77b4;" x="225.261565" xlink:href="#m83444dc14b" y="85.514684"/>
     <use style="fill:#1f77b4;stroke:#1f77b4;" x="242.13231" xlink:href="#m83444dc14b" y="72.20612"/>
     <use style="fill:#1f77b4;stroke:#1f77b4;" x="132.399592" xlink:href="#m83444dc14b" y="241.922758"/>
     <use style="fill:#1f77b4;stroke:#1f77b4;" x="173.59891" xlink:href="#m83444dc14b" y="116.161871"/>
     <use style="fill:#1f77b4;stroke:#1f77b4;" x="178.704492" xlink:href="#m83444dc14b" y="96.271119"/>
     <use style="fill:#1f77b4;stroke:#1f77b4;" x="170.62926" xlink:href="#m83444dc14b" y="122.628709"/>
     <use style="fill:#1f77b4;stroke:#1f77b4;" x="171.638584" xlink:href="#m83444dc14b" y="118.735629"/>
     <use style="fill:#1f77b4;stroke:#1f77b4;" x="200.809432" xlink:href="#m83444dc14b" y="265.079372"/>
     <use style="fill:#1f77b4;stroke:#1f77b4;" x="86.729457" xlink:href="#m83444dc14b" y="218.499397"/>
     <use style="fill:#1f77b4;stroke:#1f77b4;" x="89.608883" xlink:href="#m83444dc14b" y="255.216904"/>
     <use style="fill:#1f77b4;stroke:#1f77b4;" x="239.785877" xlink:href="#m83444dc14b" y="65.133692"/>
     <use style="fill:#1f77b4;stroke:#1f77b4;" x="236.450124" xlink:href="#m83444dc14b" y="55.444249"/>
     <use style="fill:#1f77b4;stroke:#1f77b4;" x="204.029708" xlink:href="#m83444dc14b" y="227.907672"/>
     <use style="fill:#1f77b4;stroke:#1f77b4;" x="92.938986" xlink:href="#m83444dc14b" y="208.348552"/>
     <use style="fill:#1f77b4;stroke:#1f77b4;" x="238.555921" xlink:href="#m83444dc14b" y="64.463217"/>
     <use style="fill:#1f77b4;stroke:#1f77b4;" x="114.942137" xlink:href="#m83444dc14b" y="204.210353"/>
     <use style="fill:#1f77b4;stroke:#1f77b4;" x="232.527212" xlink:href="#m83444dc14b" y="63.908093"/>
     <use style="fill:#1f77b4;stroke:#1f77b4;" x="167.78181" xlink:href="#m83444dc14b" y="130.407658"/>
     <use style="fill:#1f77b4;stroke:#1f77b4;" x="101.662919" xlink:href="#m83444dc14b" y="233.15612"/>
     <use style="fill:#1f77b4;stroke:#1f77b4;" x="82.777779" xlink:href="#m83444dc14b" y="302.503401"/>
     <use style="fill:#1f77b4;stroke:#1f77b4;" x="111.076103" xlink:href="#m83444dc14b" y="197.765144"/>
     <use style="fill:#1f77b4;stroke:#1f77b4;" x="153.06546" xlink:href="#m83444dc14b" y="130.847432"/>
     <use style="fill:#1f77b4;stroke:#1f77b4;" x="246.73569" xlink:href="#m83444dc14b" y="44.26246"/>
     <use style="fill:#1f77b4;stroke:#1f77b4;" x="216.057354" xlink:href="#m83444dc14b" y="108.209896"/>
     <use style="fill:#1f77b4;stroke:#1f77b4;" x="243.11174" xlink:href="#m83444dc14b" y="47.513902"/>
     <use style="fill:#1f77b4;stroke:#1f77b4;" x="138.73719" xlink:href="#m83444dc14b" y="170.499168"/>
     <use style="fill:#1f77b4;stroke:#1f77b4;" x="152.981444" xlink:href="#m83444dc14b" y="127.58878"/>
     <use style="fill:#1f77b4;stroke:#1f77b4;" x="199.019089" xlink:href="#m83444dc14b" y="125.325027"/>
     <use style="fill:#1f77b4;stroke:#1f77b4;" x="162.02912" xlink:href="#m83444dc14b" y="207.64924"/>
     <use style="fill:#1f77b4;stroke:#1f77b4;" x="247.653117" xlink:href="#m83444dc14b" y="68.219318"/>
     <use style="fill:#1f77b4;stroke:#1f77b4;" x="229.580376" xlink:href="#m83444dc14b" y="54.809822"/>
     <use style="fill:#1f77b4;stroke:#1f77b4;" x="233.952936" xlink:href="#m83444dc14b" y="56.244494"/>
     <use style="fill:#1f77b4;stroke:#1f77b4;" x="181.151111" xlink:href="#m83444dc14b" y="113.768348"/>
     <use style="fill:#1f77b4;stroke:#1f77b4;" x="237.930957" xlink:href="#m83444dc14b" y="41.414744"/>
     <use style="fill:#1f77b4;stroke:#1f77b4;" x="162.446644" xlink:href="#m83444dc14b" y="113.999049"/>
     <use style="fill:#1f77b4;stroke:#1f77b4;" x="118.714535" xlink:href="#m83444dc14b" y="246.832364"/>
     <use style="fill:#1f77b4;stroke:#1f77b4;" x="122.010755" xlink:href="#m83444dc14b" y="151.761921"/>
     <use style="fill:#1f77b4;stroke:#1f77b4;" x="226.126213" xlink:href="#m83444dc14b" y="70.108182"/>
     <use style="fill:#1f77b4;stroke:#1f77b4;" x="253.509483" xlink:href="#m83444dc14b" y="77.569918"/>
     <use style="fill:#1f77b4;stroke:#1f77b4;" x="194.992382" xlink:href="#m83444dc14b" y="117.906548"/>
     <use style="fill:#1f77b4;stroke:#1f77b4;" x="121.428669" xlink:href="#m83444dc14b" y="329.870309"/>
     <use style="fill:#1f77b4;stroke:#1f77b4;" x="69.801939" xlink:href="#m83444dc14b" y="307.62208"/>
     <use style="fill:#1f77b4;stroke:#1f77b4;" x="200.50002" xlink:href="#m83444dc14b" y="103.78332"/>
     <use style="fill:#1f77b4;stroke:#1f77b4;" x="105.651417" xlink:href="#m83444dc14b" y="208.384599"/>
     <use style="fill:#1f77b4;stroke:#1f77b4;" x="93.27752" xlink:href="#m83444dc14b" y="288.697388"/>
     <use style="fill:#1f77b4;stroke:#1f77b4;" x="201.747409" xlink:href="#m83444dc14b" y="101.699802"/>
     <use style="fill:#1f77b4;stroke:#1f77b4;" x="105.570099" xlink:href="#m83444dc14b" y="244.258606"/>
     <use style="fill:#1f77b4;stroke:#1f77b4;" x="126.814508" xlink:href="#m83444dc14b" y="174.348991"/>
     <use style="fill:#1f77b4;stroke:#1f77b4;" x="196.788539" xlink:href="#m83444dc14b" y="112.081347"/>
     <use style="fill:#1f77b4;stroke:#1f77b4;" x="200.242115" xlink:href="#m83444dc14b" y="87.612621"/>
     <use style="fill:#1f77b4;stroke:#1f77b4;" x="147.774488" xlink:href="#m83444dc14b" y="155.323367"/>
     <use style="fill:#1f77b4;stroke:#1f77b4;" x="190.237523" xlink:href="#m83444dc14b" y="99.522561"/>
     <use style="fill:#1f77b4;stroke:#1f77b4;" x="155.928069" xlink:href="#m83444dc14b" y="123.883146"/>
     <use style="fill:#1f77b4;stroke:#1f77b4;" x="96.431252" xlink:href="#m83444dc14b" y="333.547106"/>
     <use style="fill:#1f77b4;stroke:#1f77b4;" x="101.718242" xlink:href="#m83444dc14b" y="189.452698"/>
     <use style="fill:#1f77b4;stroke:#1f77b4;" x="164.871277" xlink:href="#m83444dc14b" y="255.51249"/>
     <use style="fill:#1f77b4;stroke:#1f77b4;" x="107.34324" xlink:href="#m83444dc14b" y="177.081356"/>
     <use style="fill:#1f77b4;stroke:#1f77b4;" x="243.767621" xlink:href="#m83444dc14b" y="61.896668"/>
     <use style="fill:#1f77b4;stroke:#1f77b4;" x="229.062993" xlink:href="#m83444dc14b" y="58.710111"/>
     <use style="fill:#1f77b4;stroke:#1f77b4;" x="143.17209" xlink:href="#m83444dc14b" y="111.374825"/>
     <use style="fill:#1f77b4;stroke:#1f77b4;" x="85.395173" xlink:href="#m83444dc14b" y="226.956031"/>
     <use style="fill:#1f77b4;stroke:#1f77b4;" x="131.102492" xlink:href="#m83444dc14b" y="299.107771"/>
     <use style="fill:#1f77b4;stroke:#1f77b4;" x="255.154687" xlink:href="#m83444dc14b" y="58.767786"/>
     <use style="fill:#1f77b4;stroke:#1f77b4;" x="224.373229" xlink:href="#m83444dc14b" y="91.613842"/>
     <use style="fill:#1f77b4;stroke:#1f77b4;" x="141.095193" xlink:href="#m83444dc14b" y="164.839784"/>
     <use style="fill:#1f77b4;stroke:#1f77b4;" x="192.49734" xlink:href="#m83444dc14b" y="92.356411"/>
     <use style="fill:#1f77b4;stroke:#1f77b4;" x="159.352242" xlink:href="#m83444dc14b" y="119.644014"/>
     <use style="fill:#1f77b4;stroke:#1f77b4;" x="181.614601" xlink:href="#m83444dc14b" y="122.030328"/>
     <use style="fill:#1f77b4;stroke:#1f77b4;" x="148.943059" xlink:href="#m83444dc14b" y="120.105417"/>
     <use style="fill:#1f77b4;stroke:#1f77b4;" x="209.963057" xlink:href="#m83444dc14b" y="92.168966"/>
     <use style="fill:#1f77b4;stroke:#1f77b4;" x="221.099635" xlink:href="#m83444dc14b" y="73.893121"/>
     <use style="fill:#1f77b4;stroke:#1f77b4;" x="218.799903" xlink:href="#m83444dc14b" y="69.221425"/>
     <use style="fill:#1f77b4;stroke:#1f77b4;" x="182.95828" xlink:href="#m83444dc14b" y="85.831898"/>
     <use style="fill:#1f77b4;stroke:#1f77b4;" x="196.259321" xlink:href="#m83444dc14b" y="114.424404"/>
     <use style="fill:#1f77b4;stroke:#1f77b4;" x="98.243316" xlink:href="#m83444dc14b" y="303.555975"/>
     <use style="fill:#1f77b4;stroke:#1f77b4;" x="122.141244" xlink:href="#m83444dc14b" y="164.515361"/>
     <use style="fill:#1f77b4;stroke:#1f77b4;" x="223.20661" xlink:href="#m83444dc14b" y="112.254373"/>
     <use style="fill:#1f77b4;stroke:#1f77b4;" x="124.813603" xlink:href="#m83444dc14b" y="182.293757"/>
     <use style="fill:#1f77b4;stroke:#1f77b4;" x="192.40769" xlink:href="#m83444dc14b" y="103.42285"/>
     <use style="fill:#1f77b4;stroke:#1f77b4;" x="98.2187" xlink:href="#m83444dc14b" y="330.043334"/>
     <use style="fill:#1f77b4;stroke:#1f77b4;" x="253.374971" xlink:href="#m83444dc14b" y="60.382693"/>
     <use style="fill:#1f77b4;stroke:#1f77b4;" x="217.472571" xlink:href="#m83444dc14b" y="98.657432"/>
     <use style="fill:#1f77b4;stroke:#1f77b4;" x="229.950812" xlink:href="#m83444dc14b" y="75.133139"/>
     <use style="fill:#1f77b4;stroke:#1f77b4;" x="100.977583" xlink:href="#m83444dc14b" y="289.735543"/>
     <use style="fill:#1f77b4;stroke:#1f77b4;" x="190.303517" xlink:href="#m83444dc14b" y="281.228443"/>
     <use style="fill:#1f77b4;stroke:#1f77b4;" x="234.292603" xlink:href="#m83444dc14b" y="53.396778"/>
     <use style="fill:#1f77b4;stroke:#1f77b4;" x="157.420813" xlink:href="#m83444dc14b" y="115.001157"/>
     <use style="fill:#1f77b4;stroke:#1f77b4;" x="141.042291" xlink:href="#m83444dc14b" y="214.779343"/>
     <use style="fill:#1f77b4;stroke:#1f77b4;" x="162.395295" xlink:href="#m83444dc14b" y="351.347131"/>
     <use style="fill:#1f77b4;stroke:#1f77b4;" x="240.540656" xlink:href="#m83444dc14b" y="53.807714"/>
     <use style="fill:#1f77b4;stroke:#1f77b4;" x="244.507148" xlink:href="#m83444dc14b" y="47.917629"/>
     <use style="fill:#1f77b4;stroke:#1f77b4;" x="159.460909" xlink:href="#m83444dc14b" y="102.406323"/>
     <use style="fill:#1f77b4;stroke:#1f77b4;" x="234.154056" xlink:href="#m83444dc14b" y="71.71588"/>
     <use style="fill:#1f77b4;stroke:#1f77b4;" x="107.911919" xlink:href="#m83444dc14b" y="258.316949"/>
     <use style="fill:#1f77b4;stroke:#1f77b4;" x="181.872778" xlink:href="#m83444dc14b" y="127.8339"/>
     <use style="fill:#1f77b4;stroke:#1f77b4;" x="99.126463" xlink:href="#m83444dc14b" y="215.759822"/>
     <use style="fill:#1f77b4;stroke:#1f77b4;" x="216.056417" xlink:href="#m83444dc14b" y="133.579797"/>
     <use style="fill:#1f77b4;stroke:#1f77b4;" x="179.92442" xlink:href="#m83444dc14b" y="103.992393"/>
     <use style="fill:#1f77b4;stroke:#1f77b4;" x="186.751341" xlink:href="#m83444dc14b" y="119.463779"/>
     <use style="fill:#1f77b4;stroke:#1f77b4;" x="106.079969" xlink:href="#m83444dc14b" y="265.34612"/>
     <use style="fill:#1f77b4;stroke:#1f77b4;" x="239.781412" xlink:href="#m83444dc14b" y="64.326238"/>
     <use style="fill:#1f77b4;stroke:#1f77b4;" x="249.764116" xlink:href="#m83444dc14b" y="72.854966"/>
     <use style="fill:#1f77b4;stroke:#1f77b4;" x="195.545955" xlink:href="#m83444dc14b" y="86.250043"/>
     <use style="fill:#1f77b4;stroke:#1f77b4;" x="198.379288" xlink:href="#m83444dc14b" y="105.261248"/>
     <use style="fill:#1f77b4;stroke:#1f77b4;" x="138.56866" xlink:href="#m83444dc14b" y="101.642126"/>
     <use style="fill:#1f77b4;stroke:#1f77b4;" x="146.882162" xlink:href="#m83444dc14b" y="107.604306"/>
     <use style="fill:#1f77b4;stroke:#1f77b4;" x="135.92663" xlink:href="#m83444dc14b" y="184.917981"/>
     <use style="fill:#1f77b4;stroke:#1f77b4;" x="113.258787" xlink:href="#m83444dc14b" y="331.369865"/>
     <use style="fill:#1f77b4;stroke:#1f77b4;" x="74.650188" xlink:href="#m83444dc14b" y="323.41789"/>
    </g>
   </g>
   <g id="matplotlib.axis_1">
    <g id="xtick_1">
     <g id="line2d_1">
      <defs>
       <path d="M 0 0 
L 0 3.5 
" id="mb040978ee7" style="stroke:#000000;stroke-width:0.8;"/>
      </defs>
      <g>
       <use style="stroke:#000000;stroke-width:0.8;" x="103.953028" xlink:href="#mb040978ee7" y="366.84375"/>
      </g>
     </g>
     <g id="text_1">
      <!-- $\mathdefault{10^{3}}$ -->
      <g transform="translate(95.153028 381.442188)scale(0.1 -0.1)">
       <defs>
        <path d="M 794 531 
L 1825 531 
L 1825 4091 
L 703 3866 
L 703 4441 
L 1819 4666 
L 2450 4666 
L 2450 531 
L 3481 531 
L 3481 0 
L 794 0 
L 794 531 
z
" id="DejaVuSans-31" transform="scale(0.015625)"/>
        <path d="M 2034 4250 
Q 1547 4250 1301 3770 
Q 1056 3291 1056 2328 
Q 1056 1369 1301 889 
Q 1547 409 2034 409 
Q 2525 409 2770 889 
Q 3016 1369 3016 2328 
Q 3016 3291 2770 3770 
Q 2525 4250 2034 4250 
z
M 2034 4750 
Q 2819 4750 3233 4129 
Q 3647 3509 3647 2328 
Q 3647 1150 3233 529 
Q 2819 -91 2034 -91 
Q 1250 -91 836 529 
Q 422 1150 422 2328 
Q 422 3509 836 4129 
Q 1250 4750 2034 4750 
z
" id="DejaVuSans-30" transform="scale(0.015625)"/>
        <path d="M 2597 2516 
Q 3050 2419 3304 2112 
Q 3559 1806 3559 1356 
Q 3559 666 3084 287 
Q 2609 -91 1734 -91 
Q 1441 -91 1130 -33 
Q 819 25 488 141 
L 488 750 
Q 750 597 1062 519 
Q 1375 441 1716 441 
Q 2309 441 2620 675 
Q 2931 909 2931 1356 
Q 2931 1769 2642 2001 
Q 2353 2234 1838 2234 
L 1294 2234 
L 1294 2753 
L 1863 2753 
Q 2328 2753 2575 2939 
Q 2822 3125 2822 3475 
Q 2822 3834 2567 4026 
Q 2313 4219 1838 4219 
Q 1578 4219 1281 4162 
Q 984 4106 628 3988 
L 628 4550 
Q 988 4650 1302 4700 
Q 1616 4750 1894 4750 
Q 2613 4750 3031 4423 
Q 3450 4097 3450 3541 
Q 3450 3153 3228 2886 
Q 3006 2619 2597 2516 
z
" id="DejaVuSans-33" transform="scale(0.015625)"/>
       </defs>
       <use transform="translate(0 0.765625)" xlink:href="#DejaVuSans-31"/>
       <use transform="translate(63.623047 0.765625)" xlink:href="#DejaVuSans-30"/>
       <use transform="translate(128.203125 39.046875)scale(0.7)" xlink:href="#DejaVuSans-33"/>
      </g>
     </g>
    </g>
    <g id="xtick_2">
     <g id="line2d_2">
      <g>
       <use style="stroke:#000000;stroke-width:0.8;" x="193.244445" xlink:href="#mb040978ee7" y="366.84375"/>
      </g>
     </g>
     <g id="text_2">
      <!-- $\mathdefault{10^{4}}$ -->
      <g transform="translate(184.444445 381.442188)scale(0.1 -0.1)">
       <defs>
        <path d="M 2419 4116 
L 825 1625 
L 2419 1625 
L 2419 4116 
z
M 2253 4666 
L 3047 4666 
L 3047 1625 
L 3713 1625 
L 3713 1100 
L 3047 1100 
L 3047 0 
L 2419 0 
L 2419 1100 
L 313 1100 
L 313 1709 
L 2253 4666 
z
" id="DejaVuSans-34" transform="scale(0.015625)"/>
       </defs>
       <use transform="translate(0 0.684375)" xlink:href="#DejaVuSans-31"/>
       <use transform="translate(63.623047 0.684375)" xlink:href="#DejaVuSans-30"/>
       <use transform="translate(128.203125 38.965625)scale(0.7)" xlink:href="#DejaVuSans-34"/>
      </g>
     </g>
    </g>
    <g id="xtick_3">
     <g id="line2d_3">
      <defs>
       <path d="M 0 0 
L 0 2 
" id="mc9f7d9353c" style="stroke:#000000;stroke-width:0.6;"/>
      </defs>
      <g>
       <use style="stroke:#000000;stroke-width:0.6;" x="57.264444" xlink:href="#mc9f7d9353c" y="366.84375"/>
      </g>
     </g>
    </g>
    <g id="xtick_4">
     <g id="line2d_4">
      <g>
       <use style="stroke:#000000;stroke-width:0.6;" x="68.420401" xlink:href="#mc9f7d9353c" y="366.84375"/>
      </g>
     </g>
    </g>
    <g id="xtick_5">
     <g id="line2d_5">
      <g>
       <use style="stroke:#000000;stroke-width:0.6;" x="77.073633" xlink:href="#mc9f7d9353c" y="366.84375"/>
      </g>
     </g>
    </g>
    <g id="xtick_6">
     <g id="line2d_6">
      <g>
       <use style="stroke:#000000;stroke-width:0.6;" x="84.143839" xlink:href="#mc9f7d9353c" y="366.84375"/>
      </g>
     </g>
    </g>
    <g id="xtick_7">
     <g id="line2d_7">
      <g>
       <use style="stroke:#000000;stroke-width:0.6;" x="90.121613" xlink:href="#mc9f7d9353c" y="366.84375"/>
      </g>
     </g>
    </g>
    <g id="xtick_8">
     <g id="line2d_8">
      <g>
       <use style="stroke:#000000;stroke-width:0.6;" x="95.299796" xlink:href="#mc9f7d9353c" y="366.84375"/>
      </g>
     </g>
    </g>
    <g id="xtick_9">
     <g id="line2d_9">
      <g>
       <use style="stroke:#000000;stroke-width:0.6;" x="99.867277" xlink:href="#mc9f7d9353c" y="366.84375"/>
      </g>
     </g>
    </g>
    <g id="xtick_10">
     <g id="line2d_10">
      <g>
       <use style="stroke:#000000;stroke-width:0.6;" x="130.832423" xlink:href="#mc9f7d9353c" y="366.84375"/>
      </g>
     </g>
    </g>
    <g id="xtick_11">
     <g id="line2d_11">
      <g>
       <use style="stroke:#000000;stroke-width:0.6;" x="146.555861" xlink:href="#mc9f7d9353c" y="366.84375"/>
      </g>
     </g>
    </g>
    <g id="xtick_12">
     <g id="line2d_12">
      <g>
       <use style="stroke:#000000;stroke-width:0.6;" x="157.711818" xlink:href="#mc9f7d9353c" y="366.84375"/>
      </g>
     </g>
    </g>
    <g id="xtick_13">
     <g id="line2d_13">
      <g>
       <use style="stroke:#000000;stroke-width:0.6;" x="166.36505" xlink:href="#mc9f7d9353c" y="366.84375"/>
      </g>
     </g>
    </g>
    <g id="xtick_14">
     <g id="line2d_14">
      <g>
       <use style="stroke:#000000;stroke-width:0.6;" x="173.435256" xlink:href="#mc9f7d9353c" y="366.84375"/>
      </g>
     </g>
    </g>
    <g id="xtick_15">
     <g id="line2d_15">
      <g>
       <use style="stroke:#000000;stroke-width:0.6;" x="179.41303" xlink:href="#mc9f7d9353c" y="366.84375"/>
      </g>
     </g>
    </g>
    <g id="xtick_16">
     <g id="line2d_16">
      <g>
       <use style="stroke:#000000;stroke-width:0.6;" x="184.591213" xlink:href="#mc9f7d9353c" y="366.84375"/>
      </g>
     </g>
    </g>
    <g id="xtick_17">
     <g id="line2d_17">
      <g>
       <use style="stroke:#000000;stroke-width:0.6;" x="189.158694" xlink:href="#mc9f7d9353c" y="366.84375"/>
      </g>
     </g>
    </g>
    <g id="xtick_18">
     <g id="line2d_18">
      <g>
       <use style="stroke:#000000;stroke-width:0.6;" x="220.12384" xlink:href="#mc9f7d9353c" y="366.84375"/>
      </g>
     </g>
    </g>
    <g id="xtick_19">
     <g id="line2d_19">
      <g>
       <use style="stroke:#000000;stroke-width:0.6;" x="235.847278" xlink:href="#mc9f7d9353c" y="366.84375"/>
      </g>
     </g>
    </g>
    <g id="xtick_20">
     <g id="line2d_20">
      <g>
       <use style="stroke:#000000;stroke-width:0.6;" x="247.003235" xlink:href="#mc9f7d9353c" y="366.84375"/>
      </g>
     </g>
    </g>
    <g id="xtick_21">
     <g id="line2d_21">
      <g>
       <use style="stroke:#000000;stroke-width:0.6;" x="255.656467" xlink:href="#mc9f7d9353c" y="366.84375"/>
      </g>
     </g>
    </g>
    <g id="xtick_22">
     <g id="line2d_22">
      <g>
       <use style="stroke:#000000;stroke-width:0.6;" x="262.726673" xlink:href="#mc9f7d9353c" y="366.84375"/>
      </g>
     </g>
    </g>
    <g id="text_3">
     <!-- GDP per Capita [in USD] -->
     <g transform="translate(94.014062 395.120313)scale(0.1 -0.1)">
      <defs>
       <path d="M 3809 666 
L 3809 1919 
L 2778 1919 
L 2778 2438 
L 4434 2438 
L 4434 434 
Q 4069 175 3628 42 
Q 3188 -91 2688 -91 
Q 1594 -91 976 548 
Q 359 1188 359 2328 
Q 359 3472 976 4111 
Q 1594 4750 2688 4750 
Q 3144 4750 3555 4637 
Q 3966 4525 4313 4306 
L 4313 3634 
Q 3963 3931 3569 4081 
Q 3175 4231 2741 4231 
Q 1884 4231 1454 3753 
Q 1025 3275 1025 2328 
Q 1025 1384 1454 906 
Q 1884 428 2741 428 
Q 3075 428 3337 486 
Q 3600 544 3809 666 
z
" id="DejaVuSans-47" transform="scale(0.015625)"/>
       <path d="M 1259 4147 
L 1259 519 
L 2022 519 
Q 2988 519 3436 956 
Q 3884 1394 3884 2338 
Q 3884 3275 3436 3711 
Q 2988 4147 2022 4147 
L 1259 4147 
z
M 628 4666 
L 1925 4666 
Q 3281 4666 3915 4102 
Q 4550 3538 4550 2338 
Q 4550 1131 3912 565 
Q 3275 0 1925 0 
L 628 0 
L 628 4666 
z
" id="DejaVuSans-44" transform="scale(0.015625)"/>
       <path d="M 1259 4147 
L 1259 2394 
L 2053 2394 
Q 2494 2394 2734 2622 
Q 2975 2850 2975 3272 
Q 2975 3691 2734 3919 
Q 2494 4147 2053 4147 
L 1259 4147 
z
M 628 4666 
L 2053 4666 
Q 2838 4666 3239 4311 
Q 3641 3956 3641 3272 
Q 3641 2581 3239 2228 
Q 2838 1875 2053 1875 
L 1259 1875 
L 1259 0 
L 628 0 
L 628 4666 
z
" id="DejaVuSans-50" transform="scale(0.015625)"/>
       <path id="DejaVuSans-20" transform="scale(0.015625)"/>
       <path d="M 1159 525 
L 1159 -1331 
L 581 -1331 
L 581 3500 
L 1159 3500 
L 1159 2969 
Q 1341 3281 1617 3432 
Q 1894 3584 2278 3584 
Q 2916 3584 3314 3078 
Q 3713 2572 3713 1747 
Q 3713 922 3314 415 
Q 2916 -91 2278 -91 
Q 1894 -91 1617 61 
Q 1341 213 1159 525 
z
M 3116 1747 
Q 3116 2381 2855 2742 
Q 2594 3103 2138 3103 
Q 1681 3103 1420 2742 
Q 1159 2381 1159 1747 
Q 1159 1113 1420 752 
Q 1681 391 2138 391 
Q 2594 391 2855 752 
Q 3116 1113 3116 1747 
z
" id="DejaVuSans-70" transform="scale(0.015625)"/>
       <path d="M 3597 1894 
L 3597 1613 
L 953 1613 
Q 991 1019 1311 708 
Q 1631 397 2203 397 
Q 2534 397 2845 478 
Q 3156 559 3463 722 
L 3463 178 
Q 3153 47 2828 -22 
Q 2503 -91 2169 -91 
Q 1331 -91 842 396 
Q 353 884 353 1716 
Q 353 2575 817 3079 
Q 1281 3584 2069 3584 
Q 2775 3584 3186 3129 
Q 3597 2675 3597 1894 
z
M 3022 2063 
Q 3016 2534 2758 2815 
Q 2500 3097 2075 3097 
Q 1594 3097 1305 2825 
Q 1016 2553 972 2059 
L 3022 2063 
z
" id="DejaVuSans-65" transform="scale(0.015625)"/>
       <path d="M 2631 2963 
Q 2534 3019 2420 3045 
Q 2306 3072 2169 3072 
Q 1681 3072 1420 2755 
Q 1159 2438 1159 1844 
L 1159 0 
L 581 0 
L 581 3500 
L 1159 3500 
L 1159 2956 
Q 1341 3275 1631 3429 
Q 1922 3584 2338 3584 
Q 2397 3584 2469 3576 
Q 2541 3569 2628 3553 
L 2631 2963 
z
" id="DejaVuSans-72" transform="scale(0.015625)"/>
       <path d="M 4122 4306 
L 4122 3641 
Q 3803 3938 3442 4084 
Q 3081 4231 2675 4231 
Q 1875 4231 1450 3742 
Q 1025 3253 1025 2328 
Q 1025 1406 1450 917 
Q 1875 428 2675 428 
Q 3081 428 3442 575 
Q 3803 722 4122 1019 
L 4122 359 
Q 3791 134 3420 21 
Q 3050 -91 2638 -91 
Q 1578 -91 968 557 
Q 359 1206 359 2328 
Q 359 3453 968 4101 
Q 1578 4750 2638 4750 
Q 3056 4750 3426 4639 
Q 3797 4528 4122 4306 
z
" id="DejaVuSans-43" transform="scale(0.015625)"/>
       <path d="M 2194 1759 
Q 1497 1759 1228 1600 
Q 959 1441 959 1056 
Q 959 750 1161 570 
Q 1363 391 1709 391 
Q 2188 391 2477 730 
Q 2766 1069 2766 1631 
L 2766 1759 
L 2194 1759 
z
M 3341 1997 
L 3341 0 
L 2766 0 
L 2766 531 
Q 2569 213 2275 61 
Q 1981 -91 1556 -91 
Q 1019 -91 701 211 
Q 384 513 384 1019 
Q 384 1609 779 1909 
Q 1175 2209 1959 2209 
L 2766 2209 
L 2766 2266 
Q 2766 2663 2505 2880 
Q 2244 3097 1772 3097 
Q 1472 3097 1187 3025 
Q 903 2953 641 2809 
L 641 3341 
Q 956 3463 1253 3523 
Q 1550 3584 1831 3584 
Q 2591 3584 2966 3190 
Q 3341 2797 3341 1997 
z
" id="DejaVuSans-61" transform="scale(0.015625)"/>
       <path d="M 603 3500 
L 1178 3500 
L 1178 0 
L 603 0 
L 603 3500 
z
M 603 4863 
L 1178 4863 
L 1178 4134 
L 603 4134 
L 603 4863 
z
" id="DejaVuSans-69" transform="scale(0.015625)"/>
       <path d="M 1172 4494 
L 1172 3500 
L 2356 3500 
L 2356 3053 
L 1172 3053 
L 1172 1153 
Q 1172 725 1289 603 
Q 1406 481 1766 481 
L 2356 481 
L 2356 0 
L 1766 0 
Q 1100 0 847 248 
Q 594 497 594 1153 
L 594 3053 
L 172 3053 
L 172 3500 
L 594 3500 
L 594 4494 
L 1172 4494 
z
" id="DejaVuSans-74" transform="scale(0.015625)"/>
       <path d="M 550 4863 
L 1875 4863 
L 1875 4416 
L 1125 4416 
L 1125 -397 
L 1875 -397 
L 1875 -844 
L 550 -844 
L 550 4863 
z
" id="DejaVuSans-5b" transform="scale(0.015625)"/>
       <path d="M 3513 2113 
L 3513 0 
L 2938 0 
L 2938 2094 
Q 2938 2591 2744 2837 
Q 2550 3084 2163 3084 
Q 1697 3084 1428 2787 
Q 1159 2491 1159 1978 
L 1159 0 
L 581 0 
L 581 3500 
L 1159 3500 
L 1159 2956 
Q 1366 3272 1645 3428 
Q 1925 3584 2291 3584 
Q 2894 3584 3203 3211 
Q 3513 2838 3513 2113 
z
" id="DejaVuSans-6e" transform="scale(0.015625)"/>
       <path d="M 556 4666 
L 1191 4666 
L 1191 1831 
Q 1191 1081 1462 751 
Q 1734 422 2344 422 
Q 2950 422 3222 751 
Q 3494 1081 3494 1831 
L 3494 4666 
L 4128 4666 
L 4128 1753 
Q 4128 841 3676 375 
Q 3225 -91 2344 -91 
Q 1459 -91 1007 375 
Q 556 841 556 1753 
L 556 4666 
z
" id="DejaVuSans-55" transform="scale(0.015625)"/>
       <path d="M 3425 4513 
L 3425 3897 
Q 3066 4069 2747 4153 
Q 2428 4238 2131 4238 
Q 1616 4238 1336 4038 
Q 1056 3838 1056 3469 
Q 1056 3159 1242 3001 
Q 1428 2844 1947 2747 
L 2328 2669 
Q 3034 2534 3370 2195 
Q 3706 1856 3706 1288 
Q 3706 609 3251 259 
Q 2797 -91 1919 -91 
Q 1588 -91 1214 -16 
Q 841 59 441 206 
L 441 856 
Q 825 641 1194 531 
Q 1563 422 1919 422 
Q 2459 422 2753 634 
Q 3047 847 3047 1241 
Q 3047 1584 2836 1778 
Q 2625 1972 2144 2069 
L 1759 2144 
Q 1053 2284 737 2584 
Q 422 2884 422 3419 
Q 422 4038 858 4394 
Q 1294 4750 2059 4750 
Q 2388 4750 2728 4690 
Q 3069 4631 3425 4513 
z
" id="DejaVuSans-53" transform="scale(0.015625)"/>
       <path d="M 1947 4863 
L 1947 -844 
L 622 -844 
L 622 -397 
L 1369 -397 
L 1369 4416 
L 622 4416 
L 622 4863 
L 1947 4863 
z
" id="DejaVuSans-5d" transform="scale(0.015625)"/>
      </defs>
      <use xlink:href="#DejaVuSans-47"/>
      <use x="77.490234" xlink:href="#DejaVuSans-44"/>
      <use x="154.492188" xlink:href="#DejaVuSans-50"/>
      <use x="214.794922" xlink:href="#DejaVuSans-20"/>
      <use x="246.582031" xlink:href="#DejaVuSans-70"/>
      <use x="310.058594" xlink:href="#DejaVuSans-65"/>
      <use x="371.582031" xlink:href="#DejaVuSans-72"/>
      <use x="412.695312" xlink:href="#DejaVuSans-20"/>
      <use x="444.482422" xlink:href="#DejaVuSans-43"/>
      <use x="514.306641" xlink:href="#DejaVuSans-61"/>
      <use x="575.585938" xlink:href="#DejaVuSans-70"/>
      <use x="639.0625" xlink:href="#DejaVuSans-69"/>
      <use x="666.845703" xlink:href="#DejaVuSans-74"/>
      <use x="706.054688" xlink:href="#DejaVuSans-61"/>
      <use x="767.333984" xlink:href="#DejaVuSans-20"/>
      <use x="799.121094" xlink:href="#DejaVuSans-5b"/>
      <use x="838.134766" xlink:href="#DejaVuSans-69"/>
      <use x="865.917969" xlink:href="#DejaVuSans-6e"/>
      <use x="929.296875" xlink:href="#DejaVuSans-20"/>
      <use x="961.083984" xlink:href="#DejaVuSans-55"/>
      <use x="1034.277344" xlink:href="#DejaVuSans-53"/>
      <use x="1097.753906" xlink:href="#DejaVuSans-44"/>
      <use x="1174.755859" xlink:href="#DejaVuSans-5d"/>
     </g>
    </g>
   </g>
   <g id="matplotlib.axis_2">
    <g id="ytick_1">
     <g id="line2d_23">
      <defs>
       <path d="M 0 0 
L -3.5 0 
" id="m1d623e2fe0" style="stroke:#000000;stroke-width:0.8;"/>
      </defs>
      <g>
       <use style="stroke:#000000;stroke-width:0.8;" x="44.203125" xlink:href="#m1d623e2fe0" y="348.55709"/>
      </g>
     </g>
     <g id="text_4">
      <!-- 40 -->
      <g transform="translate(24.478125 352.356309)scale(0.1 -0.1)">
       <use xlink:href="#DejaVuSans-34"/>
       <use x="63.623047" xlink:href="#DejaVuSans-30"/>
      </g>
     </g>
    </g>
    <g id="ytick_2">
     <g id="line2d_24">
      <g>
       <use style="stroke:#000000;stroke-width:0.8;" x="44.203125" xlink:href="#m1d623e2fe0" y="276.463025"/>
      </g>
     </g>
     <g id="text_5">
      <!-- 50 -->
      <g transform="translate(24.478125 280.262244)scale(0.1 -0.1)">
       <defs>
        <path d="M 691 4666 
L 3169 4666 
L 3169 4134 
L 1269 4134 
L 1269 2991 
Q 1406 3038 1543 3061 
Q 1681 3084 1819 3084 
Q 2600 3084 3056 2656 
Q 3513 2228 3513 1497 
Q 3513 744 3044 326 
Q 2575 -91 1722 -91 
Q 1428 -91 1123 -41 
Q 819 9 494 109 
L 494 744 
Q 775 591 1075 516 
Q 1375 441 1709 441 
Q 2250 441 2565 725 
Q 2881 1009 2881 1497 
Q 2881 1984 2565 2268 
Q 2250 2553 1709 2553 
Q 1456 2553 1204 2497 
Q 953 2441 691 2322 
L 691 4666 
z
" id="DejaVuSans-35" transform="scale(0.015625)"/>
       </defs>
       <use xlink:href="#DejaVuSans-35"/>
       <use x="63.623047" xlink:href="#DejaVuSans-30"/>
      </g>
     </g>
    </g>
    <g id="ytick_3">
     <g id="line2d_25">
      <g>
       <use style="stroke:#000000;stroke-width:0.8;" x="44.203125" xlink:href="#m1d623e2fe0" y="204.36896"/>
      </g>
     </g>
     <g id="text_6">
      <!-- 60 -->
      <g transform="translate(24.478125 208.168179)scale(0.1 -0.1)">
       <defs>
        <path d="M 2113 2584 
Q 1688 2584 1439 2293 
Q 1191 2003 1191 1497 
Q 1191 994 1439 701 
Q 1688 409 2113 409 
Q 2538 409 2786 701 
Q 3034 994 3034 1497 
Q 3034 2003 2786 2293 
Q 2538 2584 2113 2584 
z
M 3366 4563 
L 3366 3988 
Q 3128 4100 2886 4159 
Q 2644 4219 2406 4219 
Q 1781 4219 1451 3797 
Q 1122 3375 1075 2522 
Q 1259 2794 1537 2939 
Q 1816 3084 2150 3084 
Q 2853 3084 3261 2657 
Q 3669 2231 3669 1497 
Q 3669 778 3244 343 
Q 2819 -91 2113 -91 
Q 1303 -91 875 529 
Q 447 1150 447 2328 
Q 447 3434 972 4092 
Q 1497 4750 2381 4750 
Q 2619 4750 2861 4703 
Q 3103 4656 3366 4563 
z
" id="DejaVuSans-36" transform="scale(0.015625)"/>
       </defs>
       <use xlink:href="#DejaVuSans-36"/>
       <use x="63.623047" xlink:href="#DejaVuSans-30"/>
      </g>
     </g>
    </g>
    <g id="ytick_4">
     <g id="line2d_26">
      <g>
       <use style="stroke:#000000;stroke-width:0.8;" x="44.203125" xlink:href="#m1d623e2fe0" y="132.274895"/>
      </g>
     </g>
     <g id="text_7">
      <!-- 70 -->
      <g transform="translate(24.478125 136.074113)scale(0.1 -0.1)">
       <defs>
        <path d="M 525 4666 
L 3525 4666 
L 3525 4397 
L 1831 0 
L 1172 0 
L 2766 4134 
L 525 4134 
L 525 4666 
z
" id="DejaVuSans-37" transform="scale(0.015625)"/>
       </defs>
       <use xlink:href="#DejaVuSans-37"/>
       <use x="63.623047" xlink:href="#DejaVuSans-30"/>
      </g>
     </g>
    </g>
    <g id="ytick_5">
     <g id="line2d_27">
      <g>
       <use style="stroke:#000000;stroke-width:0.8;" x="44.203125" xlink:href="#m1d623e2fe0" y="60.180829"/>
      </g>
     </g>
     <g id="text_8">
      <!-- 80 -->
      <g transform="translate(24.478125 63.980048)scale(0.1 -0.1)">
       <defs>
        <path d="M 2034 2216 
Q 1584 2216 1326 1975 
Q 1069 1734 1069 1313 
Q 1069 891 1326 650 
Q 1584 409 2034 409 
Q 2484 409 2743 651 
Q 3003 894 3003 1313 
Q 3003 1734 2745 1975 
Q 2488 2216 2034 2216 
z
M 1403 2484 
Q 997 2584 770 2862 
Q 544 3141 544 3541 
Q 544 4100 942 4425 
Q 1341 4750 2034 4750 
Q 2731 4750 3128 4425 
Q 3525 4100 3525 3541 
Q 3525 3141 3298 2862 
Q 3072 2584 2669 2484 
Q 3125 2378 3379 2068 
Q 3634 1759 3634 1313 
Q 3634 634 3220 271 
Q 2806 -91 2034 -91 
Q 1263 -91 848 271 
Q 434 634 434 1313 
Q 434 1759 690 2068 
Q 947 2378 1403 2484 
z
M 1172 3481 
Q 1172 3119 1398 2916 
Q 1625 2713 2034 2713 
Q 2441 2713 2670 2916 
Q 2900 3119 2900 3481 
Q 2900 3844 2670 4047 
Q 2441 4250 2034 4250 
Q 1625 4250 1398 4047 
Q 1172 3844 1172 3481 
z
" id="DejaVuSans-38" transform="scale(0.015625)"/>
       </defs>
       <use xlink:href="#DejaVuSans-38"/>
       <use x="63.623047" xlink:href="#DejaVuSans-30"/>
      </g>
     </g>
    </g>
    <g id="text_9">
     <!-- Life Expectancy [in years] -->
     <g transform="translate(18.398438 261.399688)rotate(-90)scale(0.1 -0.1)">
      <defs>
       <path d="M 628 4666 
L 1259 4666 
L 1259 531 
L 3531 531 
L 3531 0 
L 628 0 
L 628 4666 
z
" id="DejaVuSans-4c" transform="scale(0.015625)"/>
       <path d="M 2375 4863 
L 2375 4384 
L 1825 4384 
Q 1516 4384 1395 4259 
Q 1275 4134 1275 3809 
L 1275 3500 
L 2222 3500 
L 2222 3053 
L 1275 3053 
L 1275 0 
L 697 0 
L 697 3053 
L 147 3053 
L 147 3500 
L 697 3500 
L 697 3744 
Q 697 4328 969 4595 
Q 1241 4863 1831 4863 
L 2375 4863 
z
" id="DejaVuSans-66" transform="scale(0.015625)"/>
       <path d="M 628 4666 
L 3578 4666 
L 3578 4134 
L 1259 4134 
L 1259 2753 
L 3481 2753 
L 3481 2222 
L 1259 2222 
L 1259 531 
L 3634 531 
L 3634 0 
L 628 0 
L 628 4666 
z
" id="DejaVuSans-45" transform="scale(0.015625)"/>
       <path d="M 3513 3500 
L 2247 1797 
L 3578 0 
L 2900 0 
L 1881 1375 
L 863 0 
L 184 0 
L 1544 1831 
L 300 3500 
L 978 3500 
L 1906 2253 
L 2834 3500 
L 3513 3500 
z
" id="DejaVuSans-78" transform="scale(0.015625)"/>
       <path d="M 3122 3366 
L 3122 2828 
Q 2878 2963 2633 3030 
Q 2388 3097 2138 3097 
Q 1578 3097 1268 2742 
Q 959 2388 959 1747 
Q 959 1106 1268 751 
Q 1578 397 2138 397 
Q 2388 397 2633 464 
Q 2878 531 3122 666 
L 3122 134 
Q 2881 22 2623 -34 
Q 2366 -91 2075 -91 
Q 1284 -91 818 406 
Q 353 903 353 1747 
Q 353 2603 823 3093 
Q 1294 3584 2113 3584 
Q 2378 3584 2631 3529 
Q 2884 3475 3122 3366 
z
" id="DejaVuSans-63" transform="scale(0.015625)"/>
       <path d="M 2059 -325 
Q 1816 -950 1584 -1140 
Q 1353 -1331 966 -1331 
L 506 -1331 
L 506 -850 
L 844 -850 
Q 1081 -850 1212 -737 
Q 1344 -625 1503 -206 
L 1606 56 
L 191 3500 
L 800 3500 
L 1894 763 
L 2988 3500 
L 3597 3500 
L 2059 -325 
z
" id="DejaVuSans-79" transform="scale(0.015625)"/>
       <path d="M 2834 3397 
L 2834 2853 
Q 2591 2978 2328 3040 
Q 2066 3103 1784 3103 
Q 1356 3103 1142 2972 
Q 928 2841 928 2578 
Q 928 2378 1081 2264 
Q 1234 2150 1697 2047 
L 1894 2003 
Q 2506 1872 2764 1633 
Q 3022 1394 3022 966 
Q 3022 478 2636 193 
Q 2250 -91 1575 -91 
Q 1294 -91 989 -36 
Q 684 19 347 128 
L 347 722 
Q 666 556 975 473 
Q 1284 391 1588 391 
Q 1994 391 2212 530 
Q 2431 669 2431 922 
Q 2431 1156 2273 1281 
Q 2116 1406 1581 1522 
L 1381 1569 
Q 847 1681 609 1914 
Q 372 2147 372 2553 
Q 372 3047 722 3315 
Q 1072 3584 1716 3584 
Q 2034 3584 2315 3537 
Q 2597 3491 2834 3397 
z
" id="DejaVuSans-73" transform="scale(0.015625)"/>
      </defs>
      <use xlink:href="#DejaVuSans-4c"/>
      <use x="55.712891" xlink:href="#DejaVuSans-69"/>
      <use x="83.496094" xlink:href="#DejaVuSans-66"/>
      <use x="118.701172" xlink:href="#DejaVuSans-65"/>
      <use x="180.224609" xlink:href="#DejaVuSans-20"/>
      <use x="212.011719" xlink:href="#DejaVuSans-45"/>
      <use x="275.195312" xlink:href="#DejaVuSans-78"/>
      <use x="334.375" xlink:href="#DejaVuSans-70"/>
      <use x="397.851562" xlink:href="#DejaVuSans-65"/>
      <use x="459.375" xlink:href="#DejaVuSans-63"/>
      <use x="514.355469" xlink:href="#DejaVuSans-74"/>
      <use x="553.564453" xlink:href="#DejaVuSans-61"/>
      <use x="614.84375" xlink:href="#DejaVuSans-6e"/>
      <use x="678.222656" xlink:href="#DejaVuSans-63"/>
      <use x="733.203125" xlink:href="#DejaVuSans-79"/>
      <use x="792.382812" xlink:href="#DejaVuSans-20"/>
      <use x="824.169922" xlink:href="#DejaVuSans-5b"/>
      <use x="863.183594" xlink:href="#DejaVuSans-69"/>
      <use x="890.966797" xlink:href="#DejaVuSans-6e"/>
      <use x="954.345703" xlink:href="#DejaVuSans-20"/>
      <use x="986.132812" xlink:href="#DejaVuSans-79"/>
      <use x="1045.3125" xlink:href="#DejaVuSans-65"/>
      <use x="1106.835938" xlink:href="#DejaVuSans-61"/>
      <use x="1168.115234" xlink:href="#DejaVuSans-72"/>
      <use x="1209.228516" xlink:href="#DejaVuSans-73"/>
      <use x="1261.328125" xlink:href="#DejaVuSans-5d"/>
     </g>
    </g>
   </g>
   <g id="patch_3">
    <path d="M 44.203125 366.84375 
L 44.203125 25.918125 
" style="fill:none;stroke:#000000;stroke-linecap:square;stroke-linejoin:miter;stroke-width:0.8;"/>
   </g>
   <g id="patch_4">
    <path d="M 265.2 366.84375 
L 265.2 25.918125 
" style="fill:none;stroke:#000000;stroke-linecap:square;stroke-linejoin:miter;stroke-width:0.8;"/>
   </g>
   <g id="patch_5">
    <path d="M 44.203125 366.84375 
L 265.2 366.84375 
" style="fill:none;stroke:#000000;stroke-linecap:square;stroke-linejoin:miter;stroke-width:0.8;"/>
   </g>
   <g id="patch_6">
    <path d="M 44.203125 25.918125 
L 265.2 25.918125 
" style="fill:none;stroke:#000000;stroke-linecap:square;stroke-linejoin:miter;stroke-width:0.8;"/>
   </g>
   <g id="text_10">
    <!-- World Development in 2007 -->
    <g transform="translate(70.654687 19.918125)scale(0.12 -0.12)">
     <defs>
      <path d="M 213 4666 
L 850 4666 
L 1831 722 
L 2809 4666 
L 3519 4666 
L 4500 722 
L 5478 4666 
L 6119 4666 
L 4947 0 
L 4153 0 
L 3169 4050 
L 2175 0 
L 1381 0 
L 213 4666 
z
" id="DejaVuSans-57" transform="scale(0.015625)"/>
      <path d="M 1959 3097 
Q 1497 3097 1228 2736 
Q 959 2375 959 1747 
Q 959 1119 1226 758 
Q 1494 397 1959 397 
Q 2419 397 2687 759 
Q 2956 1122 2956 1747 
Q 2956 2369 2687 2733 
Q 2419 3097 1959 3097 
z
M 1959 3584 
Q 2709 3584 3137 3096 
Q 3566 2609 3566 1747 
Q 3566 888 3137 398 
Q 2709 -91 1959 -91 
Q 1206 -91 779 398 
Q 353 888 353 1747 
Q 353 2609 779 3096 
Q 1206 3584 1959 3584 
z
" id="DejaVuSans-6f" transform="scale(0.015625)"/>
      <path d="M 603 4863 
L 1178 4863 
L 1178 0 
L 603 0 
L 603 4863 
z
" id="DejaVuSans-6c" transform="scale(0.015625)"/>
      <path d="M 2906 2969 
L 2906 4863 
L 3481 4863 
L 3481 0 
L 2906 0 
L 2906 525 
Q 2725 213 2448 61 
Q 2172 -91 1784 -91 
Q 1150 -91 751 415 
Q 353 922 353 1747 
Q 353 2572 751 3078 
Q 1150 3584 1784 3584 
Q 2172 3584 2448 3432 
Q 2725 3281 2906 2969 
z
M 947 1747 
Q 947 1113 1208 752 
Q 1469 391 1925 391 
Q 2381 391 2643 752 
Q 2906 1113 2906 1747 
Q 2906 2381 2643 2742 
Q 2381 3103 1925 3103 
Q 1469 3103 1208 2742 
Q 947 2381 947 1747 
z
" id="DejaVuSans-64" transform="scale(0.015625)"/>
      <path d="M 191 3500 
L 800 3500 
L 1894 563 
L 2988 3500 
L 3597 3500 
L 2284 0 
L 1503 0 
L 191 3500 
z
" id="DejaVuSans-76" transform="scale(0.015625)"/>
      <path d="M 3328 2828 
Q 3544 3216 3844 3400 
Q 4144 3584 4550 3584 
Q 5097 3584 5394 3201 
Q 5691 2819 5691 2113 
L 5691 0 
L 5113 0 
L 5113 2094 
Q 5113 2597 4934 2840 
Q 4756 3084 4391 3084 
Q 3944 3084 3684 2787 
Q 3425 2491 3425 1978 
L 3425 0 
L 2847 0 
L 2847 2094 
Q 2847 2600 2669 2842 
Q 2491 3084 2119 3084 
Q 1678 3084 1418 2786 
Q 1159 2488 1159 1978 
L 1159 0 
L 581 0 
L 581 3500 
L 1159 3500 
L 1159 2956 
Q 1356 3278 1631 3431 
Q 1906 3584 2284 3584 
Q 2666 3584 2933 3390 
Q 3200 3197 3328 2828 
z
" id="DejaVuSans-6d" transform="scale(0.015625)"/>
      <path d="M 1228 531 
L 3431 531 
L 3431 0 
L 469 0 
L 469 531 
Q 828 903 1448 1529 
Q 2069 2156 2228 2338 
Q 2531 2678 2651 2914 
Q 2772 3150 2772 3378 
Q 2772 3750 2511 3984 
Q 2250 4219 1831 4219 
Q 1534 4219 1204 4116 
Q 875 4013 500 3803 
L 500 4441 
Q 881 4594 1212 4672 
Q 1544 4750 1819 4750 
Q 2544 4750 2975 4387 
Q 3406 4025 3406 3419 
Q 3406 3131 3298 2873 
Q 3191 2616 2906 2266 
Q 2828 2175 2409 1742 
Q 1991 1309 1228 531 
z
" id="DejaVuSans-32" transform="scale(0.015625)"/>
     </defs>
     <use xlink:href="#DejaVuSans-57"/>
     <use x="93.001953" xlink:href="#DejaVuSans-6f"/>
     <use x="154.183594" xlink:href="#DejaVuSans-72"/>
     <use x="195.296875" xlink:href="#DejaVuSans-6c"/>
     <use x="223.080078" xlink:href="#DejaVuSans-64"/>
     <use x="286.556641" xlink:href="#DejaVuSans-20"/>
     <use x="318.34375" xlink:href="#DejaVuSans-44"/>
     <use x="395.345703" xlink:href="#DejaVuSans-65"/>
     <use x="456.869141" xlink:href="#DejaVuSans-76"/>
     <use x="516.048828" xlink:href="#DejaVuSans-65"/>
     <use x="577.572266" xlink:href="#DejaVuSans-6c"/>
     <use x="605.355469" xlink:href="#DejaVuSans-6f"/>
     <use x="666.537109" xlink:href="#DejaVuSans-70"/>
     <use x="730.013672" xlink:href="#DejaVuSans-6d"/>
     <use x="827.425781" xlink:href="#DejaVuSans-65"/>
     <use x="888.949219" xlink:href="#DejaVuSans-6e"/>
     <use x="952.328125" xlink:href="#DejaVuSans-74"/>
     <use x="991.537109" xlink:href="#DejaVuSans-20"/>
     <use x="1023.324219" xlink:href="#DejaVuSans-69"/>
     <use x="1051.107422" xlink:href="#DejaVuSans-6e"/>
     <use x="1114.486328" xlink:href="#DejaVuSans-20"/>
     <use x="1146.273438" xlink:href="#DejaVuSans-32"/>
     <use x="1209.896484" xlink:href="#DejaVuSans-30"/>
     <use x="1273.519531" xlink:href="#DejaVuSans-30"/>
     <use x="1337.142578" xlink:href="#DejaVuSans-37"/>
    </g>
   </g>
  </g>
 </g>
 <defs>
  <clipPath id="pc015101a2b">
   <rect height="340.925625" width="220.996875" x="44.203125" y="25.918125"/>
  </clipPath>
 </defs>
</svg>
