<?xml version="1.0" encoding="utf-8" standalone="no"?>
<!DOCTYPE svg PUBLIC "-//W3C//DTD SVG 1.1//EN"
  "http://www.w3.org/Graphics/SVG/1.1/DTD/svg11.dtd">
<svg height="408pt" version="1.1" viewBox="0 0 565 408" width="565pt" xmlns="http://www.w3.org/2000/svg" xmlns:xlink="http://www.w3.org/1999/xlink">
 <metadata>
  <rdf:RDF xmlns:cc="http://creativecommons.org/ns#" xmlns:dc="http://purl.org/dc/elements/1.1/" xmlns:rdf="http://www.w3.org/1999/02/22-rdf-syntax-ns#">
   <cc:Work>
    <dc:type rdf:resource="http://purl.org/dc/dcmitype/StillImage"/>
    <dc:date>2025-02-20T20:24:53.463374</dc:date>
    <dc:format>image/svg+xml</dc:format>
    <dc:creator>
     <cc:Agent>
      <dc:title>Matplotlib v3.4.3, https://matplotlib.org/</dc:title>
     </cc:Agent>
    </dc:creator>
   </cc:Work>
  </rdf:RDF>
 </metadata>
 <defs>
  <style type="text/css">*{stroke-linecap:butt;stroke-linejoin:round;}</style>
 </defs>
 <g id="figure_1">
  <g id="patch_1">
   <path d="M 0 408 
L 565 408 
L 565 0 
L 0 0 
z
" style="fill:#ffffff;"/>
  </g>
  <g id="axes_1">
   <g id="patch_2">
    <path d="M 50.84375 366.565625 
L 552.273604 366.565625 
L 552.273604 10.8 
L 50.84375 10.8 
z
" style="fill:#ffffff;"/>
   </g>
   <g id="PathCollection_1">
    <defs>
     <path d="M 0 3 
C 0.795609 3 1.55874 2.683901 2.12132 2.12132 
C 2.683901 1.55874 3 0.795609 3 0 
C 3 -0.795609 2.683901 -1.55874 2.12132 -2.12132 
C 1.55874 -2.683901 0.795609 -3 0 -3 
C -0.795609 -3 -1.55874 -2.683901 -2.12132 -2.12132 
C -2.683901 -1.55874 -3 -0.795609 -3 0 
C -3 0.795609 -2.683901 1.55874 -2.12132 2.12132 
C -1.55874 2.683901 -0.795609 3 0 3 
z
" id="mb67982012c" style="stroke:#ffffff;stroke-width:0.48;"/>
    </defs>
    <g clip-path="url(#p103c557468)">
     <use style="fill:#1f77b4;stroke:#ffffff;stroke-width:0.48;" x="281.298885" xlink:href="#mb67982012c" y="26.971165"/>
     <use style="fill:#1f77b4;stroke:#ffffff;stroke-width:0.48;" x="464.762558" xlink:href="#mb67982012c" y="29.071316"/>
     <use style="fill:#1f77b4;stroke:#ffffff;stroke-width:0.48;" x="374.719037" xlink:href="#mb67982012c" y="31.171467"/>
     <use style="fill:#1f77b4;stroke:#ffffff;stroke-width:0.48;" x="408.485357" xlink:href="#mb67982012c" y="33.271619"/>
     <use style="fill:#1f77b4;stroke:#ffffff;stroke-width:0.48;" x="380.346757" xlink:href="#mb67982012c" y="35.37177"/>
     <use style="fill:#1f77b4;stroke:#ffffff;stroke-width:0.48;" x="504.156598" xlink:href="#mb67982012c" y="37.471921"/>
     <use style="fill:#1f77b4;stroke:#ffffff;stroke-width:0.48;" x="360.649737" xlink:href="#mb67982012c" y="39.572072"/>
     <use style="fill:#1f77b4;stroke:#ffffff;stroke-width:0.48;" x="492.901158" xlink:href="#mb67982012c" y="41.672224"/>
     <use style="fill:#1f77b4;stroke:#ffffff;stroke-width:0.48;" x="408.485357" xlink:href="#mb67982012c" y="43.772375"/>
     <use style="fill:#1f77b4;stroke:#ffffff;stroke-width:0.48;" x="385.974477" xlink:href="#mb67982012c" y="45.872526"/>
     <use style="fill:#1f77b4;stroke:#ffffff;stroke-width:0.48;" x="391.602197" xlink:href="#mb67982012c" y="47.972677"/>
     <use style="fill:#1f77b4;stroke:#ffffff;stroke-width:0.48;" x="442.251678" xlink:href="#mb67982012c" y="50.072829"/>
     <use style="fill:#1f77b4;stroke:#ffffff;stroke-width:0.48;" x="251.471969" xlink:href="#mb67982012c" y="52.17298"/>
     <use style="fill:#1f77b4;stroke:#ffffff;stroke-width:0.48;" x="433.810098" xlink:href="#mb67982012c" y="54.273131"/>
     <use style="fill:#1f77b4;stroke:#ffffff;stroke-width:0.48;" x="355.022017" xlink:href="#mb67982012c" y="56.373283"/>
     <use style="fill:#1f77b4;stroke:#ffffff;stroke-width:0.48;" x="391.602197" xlink:href="#mb67982012c" y="58.473434"/>
     <use style="fill:#1f77b4;stroke:#ffffff;stroke-width:0.48;" x="411.299218" xlink:href="#mb67982012c" y="60.573585"/>
     <use style="fill:#1f77b4;stroke:#ffffff;stroke-width:0.48;" x="442.251678" xlink:href="#mb67982012c" y="62.673736"/>
     <use style="fill:#1f77b4;stroke:#ffffff;stroke-width:0.48;" x="529.481338" xlink:href="#mb67982012c" y="64.773888"/>
     <use style="fill:#1f77b4;stroke:#ffffff;stroke-width:0.48;" x="369.091317" xlink:href="#mb67982012c" y="66.874039"/>
     <use style="fill:#1f77b4;stroke:#ffffff;stroke-width:0.48;" x="321.255697" xlink:href="#mb67982012c" y="68.97419"/>
     <use style="fill:#1f77b4;stroke:#ffffff;stroke-width:0.48;" x="509.784318" xlink:href="#mb67982012c" y="71.074341"/>
     <use style="fill:#1f77b4;stroke:#ffffff;stroke-width:0.48;" x="411.299218" xlink:href="#mb67982012c" y="73.174493"/>
     <use style="fill:#1f77b4;stroke:#ffffff;stroke-width:0.48;" x="338.138857" xlink:href="#mb67982012c" y="75.274644"/>
     <use style="fill:#1f77b4;stroke:#ffffff;stroke-width:0.48;" x="405.671497" xlink:href="#mb67982012c" y="79.474947"/>
     <use style="fill:#1f77b4;stroke:#ffffff;stroke-width:0.48;" x="408.485357" xlink:href="#mb67982012c" y="81.575098"/>
     <use style="fill:#1f77b4;stroke:#ffffff;stroke-width:0.48;" x="281.298885" xlink:href="#mb67982012c" y="83.675249"/>
     <use style="fill:#1f77b4;stroke:#ffffff;stroke-width:0.48;" x="277.922253" xlink:href="#mb67982012c" y="87.875552"/>
     <use style="fill:#1f77b4;stroke:#ffffff;stroke-width:0.48;" x="305.216695" xlink:href="#mb67982012c" y="89.975703"/>
     <use style="fill:#1f77b4;stroke:#ffffff;stroke-width:0.48;" x="366.277457" xlink:href="#mb67982012c" y="92.075854"/>
     <use style="fill:#1f77b4;stroke:#ffffff;stroke-width:0.48;" x="349.394297" xlink:href="#mb67982012c" y="94.176005"/>
     <use style="fill:#1f77b4;stroke:#ffffff;stroke-width:0.48;" x="355.022017" xlink:href="#mb67982012c" y="98.376308"/>
     <use style="fill:#1f77b4;stroke:#ffffff;stroke-width:0.48;" x="284.675517" xlink:href="#mb67982012c" y="100.476459"/>
     <use style="fill:#1f77b4;stroke:#ffffff;stroke-width:0.48;" x="492.901158" xlink:href="#mb67982012c" y="106.776913"/>
     <use style="fill:#1f77b4;stroke:#ffffff;stroke-width:0.48;" x="380.346757" xlink:href="#mb67982012c" y="108.877064"/>
     <use style="fill:#1f77b4;stroke:#ffffff;stroke-width:0.48;" x="114.718372" xlink:href="#mb67982012c" y="110.977216"/>
     <use style="fill:#1f77b4;stroke:#ffffff;stroke-width:0.48;" x="402.857637" xlink:href="#mb67982012c" y="113.077367"/>
     <use style="fill:#1f77b4;stroke:#ffffff;stroke-width:0.48;" x="487.273438" xlink:href="#mb67982012c" y="115.177518"/>
     <use style="fill:#1f77b4;stroke:#ffffff;stroke-width:0.48;" x="248.376723" xlink:href="#mb67982012c" y="117.277669"/>
     <use style="fill:#1f77b4;stroke:#ffffff;stroke-width:0.48;" x="363.463597" xlink:href="#mb67982012c" y="119.377821"/>
     <use style="fill:#1f77b4;stroke:#ffffff;stroke-width:0.48;" x="408.485357" xlink:href="#mb67982012c" y="123.578123"/>
     <use style="fill:#1f77b4;stroke:#ffffff;stroke-width:0.48;" x="234.307423" xlink:href="#mb67982012c" y="125.678274"/>
     <use style="fill:#1f77b4;stroke:#ffffff;stroke-width:0.48;" x="321.255697" xlink:href="#mb67982012c" y="127.778426"/>
     <use style="fill:#1f77b4;stroke:#ffffff;stroke-width:0.48;" x="215.173175" xlink:href="#mb67982012c" y="129.878577"/>
     <use style="fill:#1f77b4;stroke:#ffffff;stroke-width:0.48;" x="335.324997" xlink:href="#mb67982012c" y="131.978728"/>
     <use style="fill:#1f77b4;stroke:#ffffff;stroke-width:0.48;" x="343.766577" xlink:href="#mb67982012c" y="134.07888"/>
     <use style="fill:#1f77b4;stroke:#ffffff;stroke-width:0.48;" x="366.277457" xlink:href="#mb67982012c" y="136.179031"/>
     <use style="fill:#1f77b4;stroke:#ffffff;stroke-width:0.48;" x="332.511137" xlink:href="#mb67982012c" y="138.279182"/>
     <use style="fill:#1f77b4;stroke:#ffffff;stroke-width:0.48;" x="280.454727" xlink:href="#mb67982012c" y="140.379333"/>
     <use style="fill:#1f77b4;stroke:#ffffff;stroke-width:0.48;" x="416.926938" xlink:href="#mb67982012c" y="142.479485"/>
     <use style="fill:#1f77b4;stroke:#ffffff;stroke-width:0.48;" x="307.186397" xlink:href="#mb67982012c" y="144.579636"/>
     <use style="fill:#1f77b4;stroke:#ffffff;stroke-width:0.48;" x="245.844249" xlink:href="#mb67982012c" y="146.679787"/>
     <use style="fill:#1f77b4;stroke:#ffffff;stroke-width:0.48;" x="405.671497" xlink:href="#mb67982012c" y="148.779938"/>
     <use style="fill:#1f77b4;stroke:#ffffff;stroke-width:0.48;" x="257.662461" xlink:href="#mb67982012c" y="150.88009"/>
     <use style="fill:#1f77b4;stroke:#ffffff;stroke-width:0.48;" x="248.658109" xlink:href="#mb67982012c" y="152.980241"/>
     <use style="fill:#1f77b4;stroke:#ffffff;stroke-width:0.48;" x="304.372537" xlink:href="#mb67982012c" y="155.080392"/>
     <use style="fill:#1f77b4;stroke:#ffffff;stroke-width:0.48;" x="232.900493" xlink:href="#mb67982012c" y="157.180543"/>
     <use style="fill:#1f77b4;stroke:#ffffff;stroke-width:0.48;" x="214.047631" xlink:href="#mb67982012c" y="161.380846"/>
     <use style="fill:#1f77b4;stroke:#ffffff;stroke-width:0.48;" x="256.536917" xlink:href="#mb67982012c" y="163.480997"/>
     <use style="fill:#1f77b4;stroke:#ffffff;stroke-width:0.48;" x="250.909197" xlink:href="#mb67982012c" y="165.581149"/>
     <use style="fill:#1f77b4;stroke:#ffffff;stroke-width:0.48;" x="414.113078" xlink:href="#mb67982012c" y="167.6813"/>
     <use style="fill:#1f77b4;stroke:#ffffff;stroke-width:0.48;" x="218.831193" xlink:href="#mb67982012c" y="169.781451"/>
     <use style="fill:#1f77b4;stroke:#ffffff;stroke-width:0.48;" x="254.004443" xlink:href="#mb67982012c" y="171.881602"/>
     <use style="fill:#1f77b4;stroke:#ffffff;stroke-width:0.48;" x="218.831193" xlink:href="#mb67982012c" y="173.981754"/>
     <use style="fill:#1f77b4;stroke:#ffffff;stroke-width:0.48;" x="405.671497" xlink:href="#mb67982012c" y="178.182056"/>
     <use style="fill:#1f77b4;stroke:#ffffff;stroke-width:0.48;" x="183.095171" xlink:href="#mb67982012c" y="180.282207"/>
     <use style="fill:#1f77b4;stroke:#ffffff;stroke-width:0.48;" x="369.091317" xlink:href="#mb67982012c" y="182.382359"/>
     <use style="fill:#1f77b4;stroke:#ffffff;stroke-width:0.48;" x="305.216695" xlink:href="#mb67982012c" y="186.582661"/>
     <use style="fill:#1f77b4;stroke:#ffffff;stroke-width:0.48;" x="282.705815" xlink:href="#mb67982012c" y="190.782964"/>
     <use style="fill:#1f77b4;stroke:#ffffff;stroke-width:0.48;" x="377.532897" xlink:href="#mb67982012c" y="192.883115"/>
     <use style="fill:#1f77b4;stroke:#ffffff;stroke-width:0.48;" x="338.138857" xlink:href="#mb67982012c" y="194.983266"/>
     <use style="fill:#1f77b4;stroke:#ffffff;stroke-width:0.48;" x="263.008795" xlink:href="#mb67982012c" y="197.083418"/>
     <use style="fill:#1f77b4;stroke:#ffffff;stroke-width:0.48;" x="150.454394" xlink:href="#mb67982012c" y="199.183569"/>
     <use style="fill:#1f77b4;stroke:#ffffff;stroke-width:0.48;" x="119.78332" xlink:href="#mb67982012c" y="203.383871"/>
     <use style="fill:#1f77b4;stroke:#ffffff;stroke-width:0.48;" x="106.276792" xlink:href="#mb67982012c" y="207.584174"/>
     <use style="fill:#1f77b4;stroke:#ffffff;stroke-width:0.48;" x="257.099689" xlink:href="#mb67982012c" y="209.684325"/>
     <use style="fill:#1f77b4;stroke:#ffffff;stroke-width:0.48;" x="343.766577" xlink:href="#mb67982012c" y="211.784476"/>
     <use style="fill:#1f77b4;stroke:#ffffff;stroke-width:0.48;" x="179.155767" xlink:href="#mb67982012c" y="213.884628"/>
     <use style="fill:#1f77b4;stroke:#ffffff;stroke-width:0.48;" x="383.160617" xlink:href="#mb67982012c" y="215.984779"/>
     <use style="fill:#1f77b4;stroke:#ffffff;stroke-width:0.48;" x="167.900326" xlink:href="#mb67982012c" y="218.08493"/>
     <use style="fill:#1f77b4;stroke:#ffffff;stroke-width:0.48;" x="89.956404" xlink:href="#mb67982012c" y="220.185082"/>
     <use style="fill:#1f77b4;stroke:#ffffff;stroke-width:0.48;" x="114.1556" xlink:href="#mb67982012c" y="222.285233"/>
     <use style="fill:#1f77b4;stroke:#ffffff;stroke-width:0.48;" x="113.592828" xlink:href="#mb67982012c" y="226.485535"/>
     <use style="fill:#1f77b4;stroke:#ffffff;stroke-width:0.48;" x="258.506619" xlink:href="#mb67982012c" y="228.585687"/>
     <use style="fill:#1f77b4;stroke:#ffffff;stroke-width:0.48;" x="151.017166" xlink:href="#mb67982012c" y="230.685838"/>
     <use style="fill:#1f77b4;stroke:#ffffff;stroke-width:0.48;" x="73.636016" xlink:href="#mb67982012c" y="234.88614"/>
     <use style="fill:#1f77b4;stroke:#ffffff;stroke-width:0.48;" x="397.229917" xlink:href="#mb67982012c" y="236.986292"/>
     <use style="fill:#1f77b4;stroke:#ffffff;stroke-width:0.48;" x="97.27244" xlink:href="#mb67982012c" y="239.086443"/>
     <use style="fill:#1f77b4;stroke:#ffffff;stroke-width:0.48;" x="156.926272" xlink:href="#mb67982012c" y="243.286745"/>
     <use style="fill:#1f77b4;stroke:#ffffff;stroke-width:0.48;" x="321.255697" xlink:href="#mb67982012c" y="247.487048"/>
     <use style="fill:#1f77b4;stroke:#ffffff;stroke-width:0.48;" x="405.671497" xlink:href="#mb67982012c" y="249.587199"/>
     <use style="fill:#1f77b4;stroke:#ffffff;stroke-width:0.48;" x="335.324997" xlink:href="#mb67982012c" y="251.687351"/>
     <use style="fill:#1f77b4;stroke:#ffffff;stroke-width:0.48;" x="181.969627" xlink:href="#mb67982012c" y="253.787502"/>
     <use style="fill:#1f77b4;stroke:#ffffff;stroke-width:0.48;" x="177.748837" xlink:href="#mb67982012c" y="257.987804"/>
     <use style="fill:#1f77b4;stroke:#ffffff;stroke-width:0.48;" x="192.943681" xlink:href="#mb67982012c" y="262.188107"/>
     <use style="fill:#1f77b4;stroke:#ffffff;stroke-width:0.48;" x="77.856806" xlink:href="#mb67982012c" y="264.288258"/>
     <use style="fill:#1f77b4;stroke:#ffffff;stroke-width:0.48;" x="94.177194" xlink:href="#mb67982012c" y="266.388409"/>
     <use style="fill:#1f77b4;stroke:#ffffff;stroke-width:0.48;" x="311.125801" xlink:href="#mb67982012c" y="268.488561"/>
     <use style="fill:#1f77b4;stroke:#ffffff;stroke-width:0.48;" x="261.601865" xlink:href="#mb67982012c" y="270.588712"/>
     <use style="fill:#1f77b4;stroke:#ffffff;stroke-width:0.48;" x="113.592828" xlink:href="#mb67982012c" y="272.688863"/>
     <use style="fill:#1f77b4;stroke:#ffffff;stroke-width:0.48;" x="299.026203" xlink:href="#mb67982012c" y="274.789015"/>
     <use style="fill:#1f77b4;stroke:#ffffff;stroke-width:0.48;" x="240.216529" xlink:href="#mb67982012c" y="276.889166"/>
     <use style="fill:#1f77b4;stroke:#ffffff;stroke-width:0.48;" x="160.021518" xlink:href="#mb67982012c" y="278.989317"/>
     <use style="fill:#1f77b4;stroke:#ffffff;stroke-width:0.48;" x="316.190749" xlink:href="#mb67982012c" y="281.089468"/>
     <use style="fill:#1f77b4;stroke:#ffffff;stroke-width:0.48;" x="123.441338" xlink:href="#mb67982012c" y="283.18962"/>
     <use style="fill:#1f77b4;stroke:#ffffff;stroke-width:0.48;" x="305.779467" xlink:href="#mb67982012c" y="285.289771"/>
     <use style="fill:#1f77b4;stroke:#ffffff;stroke-width:0.48;" x="99.242142" xlink:href="#mb67982012c" y="287.389922"/>
     <use style="fill:#1f77b4;stroke:#ffffff;stroke-width:0.48;" x="185.627645" xlink:href="#mb67982012c" y="289.490073"/>
     <use style="fill:#1f77b4;stroke:#ffffff;stroke-width:0.48;" x="116.125302" xlink:href="#mb67982012c" y="293.690376"/>
     <use style="fill:#1f77b4;stroke:#ffffff;stroke-width:0.48;" x="83.484526" xlink:href="#mb67982012c" y="295.790527"/>
     <use style="fill:#1f77b4;stroke:#ffffff;stroke-width:0.48;" x="243.593161" xlink:href="#mb67982012c" y="297.890678"/>
     <use style="fill:#1f77b4;stroke:#ffffff;stroke-width:0.48;" x="167.056168" xlink:href="#mb67982012c" y="299.99083"/>
     <use style="fill:#1f77b4;stroke:#ffffff;stroke-width:0.48;" x="118.939162" xlink:href="#mb67982012c" y="302.090981"/>
     <use style="fill:#1f77b4;stroke:#ffffff;stroke-width:0.48;" x="391.602197" xlink:href="#mb67982012c" y="304.191132"/>
     <use style="fill:#1f77b4;stroke:#ffffff;stroke-width:0.48;" x="87.986702" xlink:href="#mb67982012c" y="306.291284"/>
     <use style="fill:#1f77b4;stroke:#ffffff;stroke-width:0.48;" x="305.216695" xlink:href="#mb67982012c" y="308.391435"/>
     <use style="fill:#1f77b4;stroke:#ffffff;stroke-width:0.48;" x="128.2249" xlink:href="#mb67982012c" y="310.491586"/>
     <use style="fill:#1f77b4;stroke:#ffffff;stroke-width:0.48;" x="256.536917" xlink:href="#mb67982012c" y="312.591737"/>
     <use style="fill:#1f77b4;stroke:#ffffff;stroke-width:0.48;" x="116.125302" xlink:href="#mb67982012c" y="314.691889"/>
     <use style="fill:#1f77b4;stroke:#ffffff;stroke-width:0.48;" x="130.757374" xlink:href="#mb67982012c" y="316.79204"/>
     <use style="fill:#1f77b4;stroke:#ffffff;stroke-width:0.48;" x="217.705649" xlink:href="#mb67982012c" y="318.892191"/>
     <use style="fill:#1f77b4;stroke:#ffffff;stroke-width:0.48;" x="80.670666" xlink:href="#mb67982012c" y="320.992342"/>
     <use style="fill:#1f77b4;stroke:#ffffff;stroke-width:0.48;" x="94.177194" xlink:href="#mb67982012c" y="325.192645"/>
     <use style="fill:#1f77b4;stroke:#ffffff;stroke-width:0.48;" x="165.086466" xlink:href="#mb67982012c" y="327.292796"/>
     <use style="fill:#1f77b4;stroke:#ffffff;stroke-width:0.48;" x="263.852953" xlink:href="#mb67982012c" y="331.493099"/>
     <use style="fill:#1f77b4;stroke:#ffffff;stroke-width:0.48;" x="165.930624" xlink:href="#mb67982012c" y="333.59325"/>
     <use style="fill:#1f77b4;stroke:#ffffff;stroke-width:0.48;" x="276.233937" xlink:href="#mb67982012c" y="335.693401"/>
     <use style="fill:#1f77b4;stroke:#ffffff;stroke-width:0.48;" x="100.649072" xlink:href="#mb67982012c" y="339.893704"/>
     <use style="fill:#1f77b4;stroke:#ffffff;stroke-width:0.48;" x="256.255531" xlink:href="#mb67982012c" y="341.993855"/>
     <use style="fill:#1f77b4;stroke:#ffffff;stroke-width:0.48;" x="76.731262" xlink:href="#mb67982012c" y="344.094006"/>
     <use style="fill:#1f77b4;stroke:#ffffff;stroke-width:0.48;" x="115.843916" xlink:href="#mb67982012c" y="346.194158"/>
     <use style="fill:#1f77b4;stroke:#ffffff;stroke-width:0.48;" x="105.995406" xlink:href="#mb67982012c" y="348.294309"/>
     <use style="fill:#1f77b4;stroke:#ffffff;stroke-width:0.48;" x="100.0863" xlink:href="#mb67982012c" y="350.39446"/>
    </g>
   </g>
   <g id="matplotlib.axis_1">
    <g id="xtick_1">
     <g id="line2d_1">
      <defs>
       <path d="M 0 0 
L 0 3.5 
" id="mb22619d50a" style="stroke:#000000;stroke-width:0.8;"/>
      </defs>
      <g>
       <use style="stroke:#000000;stroke-width:0.8;" x="93.333036" xlink:href="#mb22619d50a" y="366.565625"/>
      </g>
     </g>
     <g id="text_1">
      <!-- 20 -->
      <g transform="translate(86.970536 381.164062)scale(0.1 -0.1)">
       <defs>
        <path d="M 1228 531 
L 3431 531 
L 3431 0 
L 469 0 
L 469 531 
Q 828 903 1448 1529 
Q 2069 2156 2228 2338 
Q 2531 2678 2651 2914 
Q 2772 3150 2772 3378 
Q 2772 3750 2511 3984 
Q 2250 4219 1831 4219 
Q 1534 4219 1204 4116 
Q 875 4013 500 3803 
L 500 4441 
Q 881 4594 1212 4672 
Q 1544 4750 1819 4750 
Q 2544 4750 2975 4387 
Q 3406 4025 3406 3419 
Q 3406 3131 3298 2873 
Q 3191 2616 2906 2266 
Q 2828 2175 2409 1742 
Q 1991 1309 1228 531 
z
" id="DejaVuSans-32" transform="scale(0.015625)"/>
        <path d="M 2034 4250 
Q 1547 4250 1301 3770 
Q 1056 3291 1056 2328 
Q 1056 1369 1301 889 
Q 1547 409 2034 409 
Q 2525 409 2770 889 
Q 3016 1369 3016 2328 
Q 3016 3291 2770 3770 
Q 2525 4250 2034 4250 
z
M 2034 4750 
Q 2819 4750 3233 4129 
Q 3647 3509 3647 2328 
Q 3647 1150 3233 529 
Q 2819 -91 2034 -91 
Q 1250 -91 836 529 
Q 422 1150 422 2328 
Q 422 3509 836 4129 
Q 1250 4750 2034 4750 
z
" id="DejaVuSans-30" transform="scale(0.015625)"/>
       </defs>
       <use xlink:href="#DejaVuSans-32"/>
       <use x="63.623047" xlink:href="#DejaVuSans-30"/>
      </g>
     </g>
    </g>
    <g id="xtick_2">
     <g id="line2d_2">
      <g>
       <use style="stroke:#000000;stroke-width:0.8;" x="149.610236" xlink:href="#mb22619d50a" y="366.565625"/>
      </g>
     </g>
     <g id="text_2">
      <!-- 40 -->
      <g transform="translate(143.247736 381.164062)scale(0.1 -0.1)">
       <defs>
        <path d="M 2419 4116 
L 825 1625 
L 2419 1625 
L 2419 4116 
z
M 2253 4666 
L 3047 4666 
L 3047 1625 
L 3713 1625 
L 3713 1100 
L 3047 1100 
L 3047 0 
L 2419 0 
L 2419 1100 
L 313 1100 
L 313 1709 
L 2253 4666 
z
" id="DejaVuSans-34" transform="scale(0.015625)"/>
       </defs>
       <use xlink:href="#DejaVuSans-34"/>
       <use x="63.623047" xlink:href="#DejaVuSans-30"/>
      </g>
     </g>
    </g>
    <g id="xtick_3">
     <g id="line2d_3">
      <g>
       <use style="stroke:#000000;stroke-width:0.8;" x="205.887437" xlink:href="#mb22619d50a" y="366.565625"/>
      </g>
     </g>
     <g id="text_3">
      <!-- 60 -->
      <g transform="translate(199.524937 381.164062)scale(0.1 -0.1)">
       <defs>
        <path d="M 2113 2584 
Q 1688 2584 1439 2293 
Q 1191 2003 1191 1497 
Q 1191 994 1439 701 
Q 1688 409 2113 409 
Q 2538 409 2786 701 
Q 3034 994 3034 1497 
Q 3034 2003 2786 2293 
Q 2538 2584 2113 2584 
z
M 3366 4563 
L 3366 3988 
Q 3128 4100 2886 4159 
Q 2644 4219 2406 4219 
Q 1781 4219 1451 3797 
Q 1122 3375 1075 2522 
Q 1259 2794 1537 2939 
Q 1816 3084 2150 3084 
Q 2853 3084 3261 2657 
Q 3669 2231 3669 1497 
Q 3669 778 3244 343 
Q 2819 -91 2113 -91 
Q 1303 -91 875 529 
Q 447 1150 447 2328 
Q 447 3434 972 4092 
Q 1497 4750 2381 4750 
Q 2619 4750 2861 4703 
Q 3103 4656 3366 4563 
z
" id="DejaVuSans-36" transform="scale(0.015625)"/>
       </defs>
       <use xlink:href="#DejaVuSans-36"/>
       <use x="63.623047" xlink:href="#DejaVuSans-30"/>
      </g>
     </g>
    </g>
    <g id="xtick_4">
     <g id="line2d_4">
      <g>
       <use style="stroke:#000000;stroke-width:0.8;" x="262.164637" xlink:href="#mb22619d50a" y="366.565625"/>
      </g>
     </g>
     <g id="text_4">
      <!-- 80 -->
      <g transform="translate(255.802137 381.164062)scale(0.1 -0.1)">
       <defs>
        <path d="M 2034 2216 
Q 1584 2216 1326 1975 
Q 1069 1734 1069 1313 
Q 1069 891 1326 650 
Q 1584 409 2034 409 
Q 2484 409 2743 651 
Q 3003 894 3003 1313 
Q 3003 1734 2745 1975 
Q 2488 2216 2034 2216 
z
M 1403 2484 
Q 997 2584 770 2862 
Q 544 3141 544 3541 
Q 544 4100 942 4425 
Q 1341 4750 2034 4750 
Q 2731 4750 3128 4425 
Q 3525 4100 3525 3541 
Q 3525 3141 3298 2862 
Q 3072 2584 2669 2484 
Q 3125 2378 3379 2068 
Q 3634 1759 3634 1313 
Q 3634 634 3220 271 
Q 2806 -91 2034 -91 
Q 1263 -91 848 271 
Q 434 634 434 1313 
Q 434 1759 690 2068 
Q 947 2378 1403 2484 
z
M 1172 3481 
Q 1172 3119 1398 2916 
Q 1625 2713 2034 2713 
Q 2441 2713 2670 2916 
Q 2900 3119 2900 3481 
Q 2900 3844 2670 4047 
Q 2441 4250 2034 4250 
Q 1625 4250 1398 4047 
Q 1172 3844 1172 3481 
z
" id="DejaVuSans-38" transform="scale(0.015625)"/>
       </defs>
       <use xlink:href="#DejaVuSans-38"/>
       <use x="63.623047" xlink:href="#DejaVuSans-30"/>
      </g>
     </g>
    </g>
    <g id="xtick_5">
     <g id="line2d_5">
      <g>
       <use style="stroke:#000000;stroke-width:0.8;" x="318.441837" xlink:href="#mb22619d50a" y="366.565625"/>
      </g>
     </g>
     <g id="text_5">
      <!-- 100 -->
      <g transform="translate(308.898087 381.164062)scale(0.1 -0.1)">
       <defs>
        <path d="M 794 531 
L 1825 531 
L 1825 4091 
L 703 3866 
L 703 4441 
L 1819 4666 
L 2450 4666 
L 2450 531 
L 3481 531 
L 3481 0 
L 794 0 
L 794 531 
z
" id="DejaVuSans-31" transform="scale(0.015625)"/>
       </defs>
       <use xlink:href="#DejaVuSans-31"/>
       <use x="63.623047" xlink:href="#DejaVuSans-30"/>
       <use x="127.246094" xlink:href="#DejaVuSans-30"/>
      </g>
     </g>
    </g>
    <g id="xtick_6">
     <g id="line2d_6">
      <g>
       <use style="stroke:#000000;stroke-width:0.8;" x="374.719037" xlink:href="#mb22619d50a" y="366.565625"/>
      </g>
     </g>
     <g id="text_6">
      <!-- 120 -->
      <g transform="translate(365.175287 381.164062)scale(0.1 -0.1)">
       <use xlink:href="#DejaVuSans-31"/>
       <use x="63.623047" xlink:href="#DejaVuSans-32"/>
       <use x="127.246094" xlink:href="#DejaVuSans-30"/>
      </g>
     </g>
    </g>
    <g id="xtick_7">
     <g id="line2d_7">
      <g>
       <use style="stroke:#000000;stroke-width:0.8;" x="430.996238" xlink:href="#mb22619d50a" y="366.565625"/>
      </g>
     </g>
     <g id="text_7">
      <!-- 140 -->
      <g transform="translate(421.452488 381.164062)scale(0.1 -0.1)">
       <use xlink:href="#DejaVuSans-31"/>
       <use x="63.623047" xlink:href="#DejaVuSans-34"/>
       <use x="127.246094" xlink:href="#DejaVuSans-30"/>
      </g>
     </g>
    </g>
    <g id="xtick_8">
     <g id="line2d_8">
      <g>
       <use style="stroke:#000000;stroke-width:0.8;" x="487.273438" xlink:href="#mb22619d50a" y="366.565625"/>
      </g>
     </g>
     <g id="text_8">
      <!-- 160 -->
      <g transform="translate(477.729688 381.164062)scale(0.1 -0.1)">
       <use xlink:href="#DejaVuSans-31"/>
       <use x="63.623047" xlink:href="#DejaVuSans-36"/>
       <use x="127.246094" xlink:href="#DejaVuSans-30"/>
      </g>
     </g>
    </g>
    <g id="xtick_9">
     <g id="line2d_9">
      <g>
       <use style="stroke:#000000;stroke-width:0.8;" x="543.550638" xlink:href="#mb22619d50a" y="366.565625"/>
      </g>
     </g>
     <g id="text_9">
      <!-- 180 -->
      <g transform="translate(534.006888 381.164062)scale(0.1 -0.1)">
       <use xlink:href="#DejaVuSans-31"/>
       <use x="63.623047" xlink:href="#DejaVuSans-38"/>
       <use x="127.246094" xlink:href="#DejaVuSans-30"/>
      </g>
     </g>
    </g>
    <g id="text_10">
     <!-- grams_sugar_per_day -->
     <g transform="translate(246.718833 394.842188)scale(0.1 -0.1)">
      <defs>
       <path d="M 2906 1791 
Q 2906 2416 2648 2759 
Q 2391 3103 1925 3103 
Q 1463 3103 1205 2759 
Q 947 2416 947 1791 
Q 947 1169 1205 825 
Q 1463 481 1925 481 
Q 2391 481 2648 825 
Q 2906 1169 2906 1791 
z
M 3481 434 
Q 3481 -459 3084 -895 
Q 2688 -1331 1869 -1331 
Q 1566 -1331 1297 -1286 
Q 1028 -1241 775 -1147 
L 775 -588 
Q 1028 -725 1275 -790 
Q 1522 -856 1778 -856 
Q 2344 -856 2625 -561 
Q 2906 -266 2906 331 
L 2906 616 
Q 2728 306 2450 153 
Q 2172 0 1784 0 
Q 1141 0 747 490 
Q 353 981 353 1791 
Q 353 2603 747 3093 
Q 1141 3584 1784 3584 
Q 2172 3584 2450 3431 
Q 2728 3278 2906 2969 
L 2906 3500 
L 3481 3500 
L 3481 434 
z
" id="DejaVuSans-67" transform="scale(0.015625)"/>
       <path d="M 2631 2963 
Q 2534 3019 2420 3045 
Q 2306 3072 2169 3072 
Q 1681 3072 1420 2755 
Q 1159 2438 1159 1844 
L 1159 0 
L 581 0 
L 581 3500 
L 1159 3500 
L 1159 2956 
Q 1341 3275 1631 3429 
Q 1922 3584 2338 3584 
Q 2397 3584 2469 3576 
Q 2541 3569 2628 3553 
L 2631 2963 
z
" id="DejaVuSans-72" transform="scale(0.015625)"/>
       <path d="M 2194 1759 
Q 1497 1759 1228 1600 
Q 959 1441 959 1056 
Q 959 750 1161 570 
Q 1363 391 1709 391 
Q 2188 391 2477 730 
Q 2766 1069 2766 1631 
L 2766 1759 
L 2194 1759 
z
M 3341 1997 
L 3341 0 
L 2766 0 
L 2766 531 
Q 2569 213 2275 61 
Q 1981 -91 1556 -91 
Q 1019 -91 701 211 
Q 384 513 384 1019 
Q 384 1609 779 1909 
Q 1175 2209 1959 2209 
L 2766 2209 
L 2766 2266 
Q 2766 2663 2505 2880 
Q 2244 3097 1772 3097 
Q 1472 3097 1187 3025 
Q 903 2953 641 2809 
L 641 3341 
Q 956 3463 1253 3523 
Q 1550 3584 1831 3584 
Q 2591 3584 2966 3190 
Q 3341 2797 3341 1997 
z
" id="DejaVuSans-61" transform="scale(0.015625)"/>
       <path d="M 3328 2828 
Q 3544 3216 3844 3400 
Q 4144 3584 4550 3584 
Q 5097 3584 5394 3201 
Q 5691 2819 5691 2113 
L 5691 0 
L 5113 0 
L 5113 2094 
Q 5113 2597 4934 2840 
Q 4756 3084 4391 3084 
Q 3944 3084 3684 2787 
Q 3425 2491 3425 1978 
L 3425 0 
L 2847 0 
L 2847 2094 
Q 2847 2600 2669 2842 
Q 2491 3084 2119 3084 
Q 1678 3084 1418 2786 
Q 1159 2488 1159 1978 
L 1159 0 
L 581 0 
L 581 3500 
L 1159 3500 
L 1159 2956 
Q 1356 3278 1631 3431 
Q 1906 3584 2284 3584 
Q 2666 3584 2933 3390 
Q 3200 3197 3328 2828 
z
" id="DejaVuSans-6d" transform="scale(0.015625)"/>
       <path d="M 2834 3397 
L 2834 2853 
Q 2591 2978 2328 3040 
Q 2066 3103 1784 3103 
Q 1356 3103 1142 2972 
Q 928 2841 928 2578 
Q 928 2378 1081 2264 
Q 1234 2150 1697 2047 
L 1894 2003 
Q 2506 1872 2764 1633 
Q 3022 1394 3022 966 
Q 3022 478 2636 193 
Q 2250 -91 1575 -91 
Q 1294 -91 989 -36 
Q 684 19 347 128 
L 347 722 
Q 666 556 975 473 
Q 1284 391 1588 391 
Q 1994 391 2212 530 
Q 2431 669 2431 922 
Q 2431 1156 2273 1281 
Q 2116 1406 1581 1522 
L 1381 1569 
Q 847 1681 609 1914 
Q 372 2147 372 2553 
Q 372 3047 722 3315 
Q 1072 3584 1716 3584 
Q 2034 3584 2315 3537 
Q 2597 3491 2834 3397 
z
" id="DejaVuSans-73" transform="scale(0.015625)"/>
       <path d="M 3263 -1063 
L 3263 -1509 
L -63 -1509 
L -63 -1063 
L 3263 -1063 
z
" id="DejaVuSans-5f" transform="scale(0.015625)"/>
       <path d="M 544 1381 
L 544 3500 
L 1119 3500 
L 1119 1403 
Q 1119 906 1312 657 
Q 1506 409 1894 409 
Q 2359 409 2629 706 
Q 2900 1003 2900 1516 
L 2900 3500 
L 3475 3500 
L 3475 0 
L 2900 0 
L 2900 538 
Q 2691 219 2414 64 
Q 2138 -91 1772 -91 
Q 1169 -91 856 284 
Q 544 659 544 1381 
z
M 1991 3584 
L 1991 3584 
z
" id="DejaVuSans-75" transform="scale(0.015625)"/>
       <path d="M 1159 525 
L 1159 -1331 
L 581 -1331 
L 581 3500 
L 1159 3500 
L 1159 2969 
Q 1341 3281 1617 3432 
Q 1894 3584 2278 3584 
Q 2916 3584 3314 3078 
Q 3713 2572 3713 1747 
Q 3713 922 3314 415 
Q 2916 -91 2278 -91 
Q 1894 -91 1617 61 
Q 1341 213 1159 525 
z
M 3116 1747 
Q 3116 2381 2855 2742 
Q 2594 3103 2138 3103 
Q 1681 3103 1420 2742 
Q 1159 2381 1159 1747 
Q 1159 1113 1420 752 
Q 1681 391 2138 391 
Q 2594 391 2855 752 
Q 3116 1113 3116 1747 
z
" id="DejaVuSans-70" transform="scale(0.015625)"/>
       <path d="M 3597 1894 
L 3597 1613 
L 953 1613 
Q 991 1019 1311 708 
Q 1631 397 2203 397 
Q 2534 397 2845 478 
Q 3156 559 3463 722 
L 3463 178 
Q 3153 47 2828 -22 
Q 2503 -91 2169 -91 
Q 1331 -91 842 396 
Q 353 884 353 1716 
Q 353 2575 817 3079 
Q 1281 3584 2069 3584 
Q 2775 3584 3186 3129 
Q 3597 2675 3597 1894 
z
M 3022 2063 
Q 3016 2534 2758 2815 
Q 2500 3097 2075 3097 
Q 1594 3097 1305 2825 
Q 1016 2553 972 2059 
L 3022 2063 
z
" id="DejaVuSans-65" transform="scale(0.015625)"/>
       <path d="M 2906 2969 
L 2906 4863 
L 3481 4863 
L 3481 0 
L 2906 0 
L 2906 525 
Q 2725 213 2448 61 
Q 2172 -91 1784 -91 
Q 1150 -91 751 415 
Q 353 922 353 1747 
Q 353 2572 751 3078 
Q 1150 3584 1784 3584 
Q 2172 3584 2448 3432 
Q 2725 3281 2906 2969 
z
M 947 1747 
Q 947 1113 1208 752 
Q 1469 391 1925 391 
Q 2381 391 2643 752 
Q 2906 1113 2906 1747 
Q 2906 2381 2643 2742 
Q 2381 3103 1925 3103 
Q 1469 3103 1208 2742 
Q 947 2381 947 1747 
z
" id="DejaVuSans-64" transform="scale(0.015625)"/>
       <path d="M 2059 -325 
Q 1816 -950 1584 -1140 
Q 1353 -1331 966 -1331 
L 506 -1331 
L 506 -850 
L 844 -850 
Q 1081 -850 1212 -737 
Q 1344 -625 1503 -206 
L 1606 56 
L 191 3500 
L 800 3500 
L 1894 763 
L 2988 3500 
L 3597 3500 
L 2059 -325 
z
" id="DejaVuSans-79" transform="scale(0.015625)"/>
      </defs>
      <use xlink:href="#DejaVuSans-67"/>
      <use x="63.476562" xlink:href="#DejaVuSans-72"/>
      <use x="104.589844" xlink:href="#DejaVuSans-61"/>
      <use x="165.869141" xlink:href="#DejaVuSans-6d"/>
      <use x="263.28125" xlink:href="#DejaVuSans-73"/>
      <use x="315.380859" xlink:href="#DejaVuSans-5f"/>
      <use x="365.380859" xlink:href="#DejaVuSans-73"/>
      <use x="417.480469" xlink:href="#DejaVuSans-75"/>
      <use x="480.859375" xlink:href="#DejaVuSans-67"/>
      <use x="544.335938" xlink:href="#DejaVuSans-61"/>
      <use x="605.615234" xlink:href="#DejaVuSans-72"/>
      <use x="646.728516" xlink:href="#DejaVuSans-5f"/>
      <use x="696.728516" xlink:href="#DejaVuSans-70"/>
      <use x="760.205078" xlink:href="#DejaVuSans-65"/>
      <use x="821.728516" xlink:href="#DejaVuSans-72"/>
      <use x="862.841797" xlink:href="#DejaVuSans-5f"/>
      <use x="912.841797" xlink:href="#DejaVuSans-64"/>
      <use x="976.318359" xlink:href="#DejaVuSans-61"/>
      <use x="1037.597656" xlink:href="#DejaVuSans-79"/>
     </g>
    </g>
   </g>
   <g id="matplotlib.axis_2">
    <g id="ytick_1">
     <g id="line2d_10">
      <defs>
       <path d="M 0 0 
L -3.5 0 
" id="m15f07fd013" style="stroke:#000000;stroke-width:0.8;"/>
      </defs>
      <g>
       <use style="stroke:#000000;stroke-width:0.8;" x="50.84375" xlink:href="#m15f07fd013" y="352.494611"/>
      </g>
     </g>
     <g id="text_11">
      <!-- 0 -->
      <g transform="translate(37.48125 356.29383)scale(0.1 -0.1)">
       <use xlink:href="#DejaVuSans-30"/>
      </g>
     </g>
    </g>
    <g id="ytick_2">
     <g id="line2d_11">
      <g>
       <use style="stroke:#000000;stroke-width:0.8;" x="50.84375" xlink:href="#m15f07fd013" y="310.491586"/>
      </g>
     </g>
     <g id="text_12">
      <!-- 20 -->
      <g transform="translate(31.11875 314.290805)scale(0.1 -0.1)">
       <use xlink:href="#DejaVuSans-32"/>
       <use x="63.623047" xlink:href="#DejaVuSans-30"/>
      </g>
     </g>
    </g>
    <g id="ytick_3">
     <g id="line2d_12">
      <g>
       <use style="stroke:#000000;stroke-width:0.8;" x="50.84375" xlink:href="#m15f07fd013" y="268.488561"/>
      </g>
     </g>
     <g id="text_13">
      <!-- 40 -->
      <g transform="translate(31.11875 272.287779)scale(0.1 -0.1)">
       <use xlink:href="#DejaVuSans-34"/>
       <use x="63.623047" xlink:href="#DejaVuSans-30"/>
      </g>
     </g>
    </g>
    <g id="ytick_4">
     <g id="line2d_13">
      <g>
       <use style="stroke:#000000;stroke-width:0.8;" x="50.84375" xlink:href="#m15f07fd013" y="226.485535"/>
      </g>
     </g>
     <g id="text_14">
      <!-- 60 -->
      <g transform="translate(31.11875 230.284754)scale(0.1 -0.1)">
       <use xlink:href="#DejaVuSans-36"/>
       <use x="63.623047" xlink:href="#DejaVuSans-30"/>
      </g>
     </g>
    </g>
    <g id="ytick_5">
     <g id="line2d_14">
      <g>
       <use style="stroke:#000000;stroke-width:0.8;" x="50.84375" xlink:href="#m15f07fd013" y="184.48251"/>
      </g>
     </g>
     <g id="text_15">
      <!-- 80 -->
      <g transform="translate(31.11875 188.281729)scale(0.1 -0.1)">
       <use xlink:href="#DejaVuSans-38"/>
       <use x="63.623047" xlink:href="#DejaVuSans-30"/>
      </g>
     </g>
    </g>
    <g id="ytick_6">
     <g id="line2d_15">
      <g>
       <use style="stroke:#000000;stroke-width:0.8;" x="50.84375" xlink:href="#m15f07fd013" y="142.479485"/>
      </g>
     </g>
     <g id="text_16">
      <!-- 100 -->
      <g transform="translate(24.75625 146.278703)scale(0.1 -0.1)">
       <use xlink:href="#DejaVuSans-31"/>
       <use x="63.623047" xlink:href="#DejaVuSans-30"/>
       <use x="127.246094" xlink:href="#DejaVuSans-30"/>
      </g>
     </g>
    </g>
    <g id="ytick_7">
     <g id="line2d_16">
      <g>
       <use style="stroke:#000000;stroke-width:0.8;" x="50.84375" xlink:href="#m15f07fd013" y="100.476459"/>
      </g>
     </g>
     <g id="text_17">
      <!-- 120 -->
      <g transform="translate(24.75625 104.275678)scale(0.1 -0.1)">
       <use xlink:href="#DejaVuSans-31"/>
       <use x="63.623047" xlink:href="#DejaVuSans-32"/>
       <use x="127.246094" xlink:href="#DejaVuSans-30"/>
      </g>
     </g>
    </g>
    <g id="ytick_8">
     <g id="line2d_17">
      <g>
       <use style="stroke:#000000;stroke-width:0.8;" x="50.84375" xlink:href="#m15f07fd013" y="58.473434"/>
      </g>
     </g>
     <g id="text_18">
      <!-- 140 -->
      <g transform="translate(24.75625 62.272653)scale(0.1 -0.1)">
       <use xlink:href="#DejaVuSans-31"/>
       <use x="63.623047" xlink:href="#DejaVuSans-34"/>
       <use x="127.246094" xlink:href="#DejaVuSans-30"/>
      </g>
     </g>
    </g>
    <g id="ytick_9">
     <g id="line2d_18">
      <g>
       <use style="stroke:#000000;stroke-width:0.8;" x="50.84375" xlink:href="#m15f07fd013" y="16.470408"/>
      </g>
     </g>
     <g id="text_19">
      <!-- 160 -->
      <g transform="translate(24.75625 20.269627)scale(0.1 -0.1)">
       <use xlink:href="#DejaVuSans-31"/>
       <use x="63.623047" xlink:href="#DejaVuSans-36"/>
       <use x="127.246094" xlink:href="#DejaVuSans-30"/>
      </g>
     </g>
    </g>
    <g id="text_20">
     <!-- happiness_score -->
     <g transform="translate(18.398438 230.040625)rotate(-90)scale(0.1 -0.1)">
      <defs>
       <path d="M 3513 2113 
L 3513 0 
L 2938 0 
L 2938 2094 
Q 2938 2591 2744 2837 
Q 2550 3084 2163 3084 
Q 1697 3084 1428 2787 
Q 1159 2491 1159 1978 
L 1159 0 
L 581 0 
L 581 4863 
L 1159 4863 
L 1159 2956 
Q 1366 3272 1645 3428 
Q 1925 3584 2291 3584 
Q 2894 3584 3203 3211 
Q 3513 2838 3513 2113 
z
" id="DejaVuSans-68" transform="scale(0.015625)"/>
       <path d="M 603 3500 
L 1178 3500 
L 1178 0 
L 603 0 
L 603 3500 
z
M 603 4863 
L 1178 4863 
L 1178 4134 
L 603 4134 
L 603 4863 
z
" id="DejaVuSans-69" transform="scale(0.015625)"/>
       <path d="M 3513 2113 
L 3513 0 
L 2938 0 
L 2938 2094 
Q 2938 2591 2744 2837 
Q 2550 3084 2163 3084 
Q 1697 3084 1428 2787 
Q 1159 2491 1159 1978 
L 1159 0 
L 581 0 
L 581 3500 
L 1159 3500 
L 1159 2956 
Q 1366 3272 1645 3428 
Q 1925 3584 2291 3584 
Q 2894 3584 3203 3211 
Q 3513 2838 3513 2113 
z
" id="DejaVuSans-6e" transform="scale(0.015625)"/>
       <path d="M 3122 3366 
L 3122 2828 
Q 2878 2963 2633 3030 
Q 2388 3097 2138 3097 
Q 1578 3097 1268 2742 
Q 959 2388 959 1747 
Q 959 1106 1268 751 
Q 1578 397 2138 397 
Q 2388 397 2633 464 
Q 2878 531 3122 666 
L 3122 134 
Q 2881 22 2623 -34 
Q 2366 -91 2075 -91 
Q 1284 -91 818 406 
Q 353 903 353 1747 
Q 353 2603 823 3093 
Q 1294 3584 2113 3584 
Q 2378 3584 2631 3529 
Q 2884 3475 3122 3366 
z
" id="DejaVuSans-63" transform="scale(0.015625)"/>
       <path d="M 1959 3097 
Q 1497 3097 1228 2736 
Q 959 2375 959 1747 
Q 959 1119 1226 758 
Q 1494 397 1959 397 
Q 2419 397 2687 759 
Q 2956 1122 2956 1747 
Q 2956 2369 2687 2733 
Q 2419 3097 1959 3097 
z
M 1959 3584 
Q 2709 3584 3137 3096 
Q 3566 2609 3566 1747 
Q 3566 888 3137 398 
Q 2709 -91 1959 -91 
Q 1206 -91 779 398 
Q 353 888 353 1747 
Q 353 2609 779 3096 
Q 1206 3584 1959 3584 
z
" id="DejaVuSans-6f" transform="scale(0.015625)"/>
      </defs>
      <use xlink:href="#DejaVuSans-68"/>
      <use x="63.378906" xlink:href="#DejaVuSans-61"/>
      <use x="124.658203" xlink:href="#DejaVuSans-70"/>
      <use x="188.134766" xlink:href="#DejaVuSans-70"/>
      <use x="251.611328" xlink:href="#DejaVuSans-69"/>
      <use x="279.394531" xlink:href="#DejaVuSans-6e"/>
      <use x="342.773438" xlink:href="#DejaVuSans-65"/>
      <use x="404.296875" xlink:href="#DejaVuSans-73"/>
      <use x="456.396484" xlink:href="#DejaVuSans-73"/>
      <use x="508.496094" xlink:href="#DejaVuSans-5f"/>
      <use x="558.496094" xlink:href="#DejaVuSans-73"/>
      <use x="610.595703" xlink:href="#DejaVuSans-63"/>
      <use x="665.576172" xlink:href="#DejaVuSans-6f"/>
      <use x="726.757812" xlink:href="#DejaVuSans-72"/>
      <use x="765.621094" xlink:href="#DejaVuSans-65"/>
     </g>
    </g>
   </g>
   <g id="patch_3">
    <path d="M 50.84375 366.565625 
L 50.84375 10.8 
" style="fill:none;stroke:#000000;stroke-linecap:square;stroke-linejoin:miter;stroke-width:0.8;"/>
   </g>
   <g id="patch_4">
    <path d="M 552.273604 366.565625 
L 552.273604 10.8 
" style="fill:none;stroke:#000000;stroke-linecap:square;stroke-linejoin:miter;stroke-width:0.8;"/>
   </g>
   <g id="patch_5">
    <path d="M 50.84375 366.565625 
L 552.273604 366.565625 
" style="fill:none;stroke:#000000;stroke-linecap:square;stroke-linejoin:miter;stroke-width:0.8;"/>
   </g>
   <g id="patch_6">
    <path d="M 50.84375 10.8 
L 552.273604 10.8 
" style="fill:none;stroke:#000000;stroke-linecap:square;stroke-linejoin:miter;stroke-width:0.8;"/>
   </g>
  </g>
 </g>
 <defs>
  <clipPath id="p103c557468">
   <rect height="355.765625" width="501.429854" x="50.84375" y="10.8"/>
  </clipPath>
 </defs>
</svg>
