<?xml version="1.0" encoding="utf-8" standalone="no"?>
<!DOCTYPE svg PUBLIC "-//W3C//DTD SVG 1.1//EN"
  "http://www.w3.org/Graphics/SVG/1.1/DTD/svg11.dtd">
<svg height="407pt" version="1.1" viewBox="0 0 562 407" width="562pt" xmlns="http://www.w3.org/2000/svg" xmlns:xlink="http://www.w3.org/1999/xlink">
 <metadata>
  <rdf:RDF xmlns:cc="http://creativecommons.org/ns#" xmlns:dc="http://purl.org/dc/elements/1.1/" xmlns:rdf="http://www.w3.org/1999/02/22-rdf-syntax-ns#">
   <cc:Work>
    <dc:type rdf:resource="http://purl.org/dc/dcmitype/StillImage"/>
    <dc:date>2025-02-20T19:08:41.343432</dc:date>
    <dc:format>image/svg+xml</dc:format>
    <dc:creator>
     <cc:Agent>
      <dc:title>Matplotlib v3.4.3, https://matplotlib.org/</dc:title>
     </cc:Agent>
    </dc:creator>
   </cc:Work>
  </rdf:RDF>
 </metadata>
 <defs>
  <style type="text/css">*{stroke-linecap:butt;stroke-linejoin:round;}</style>
 </defs>
 <g id="figure_1">
  <g id="patch_1">
   <path d="M 0 407 
L 562 407 
L 562 0 
L 0 0 
z
" style="fill:#ffffff;"/>
  </g>
  <g id="axes_1">
   <g id="patch_2">
    <path d="M 50.84375 365.565625 
L 551.2 365.565625 
L 551.2 10.8 
L 50.84375 10.8 
z
" style="fill:#ffffff;"/>
   </g>
   <g id="PathCollection_1">
    <defs>
     <path d="M 0 3 
C 0.795609 3 1.55874 2.683901 2.12132 2.12132 
C 2.683901 1.55874 3 0.795609 3 0 
C 3 -0.795609 2.683901 -1.55874 2.12132 -2.12132 
C 1.55874 -2.683901 0.795609 -3 0 -3 
C -0.795609 -3 -1.55874 -2.683901 -2.12132 -2.12132 
C -2.683901 -1.55874 -3 -0.795609 -3 0 
C -3 0.795609 -2.683901 1.55874 -2.12132 2.12132 
C -1.55874 2.683901 -0.795609 3 0 3 
z
" id="m7c90459d24" style="stroke:#ffffff;stroke-width:0.48;"/>
    </defs>
    <g clip-path="url(#pcce9ef392c)">
     <use style="fill:#1f77b4;stroke:#ffffff;stroke-width:0.48;" x="481.839492" xlink:href="#m7c90459d24" y="26.92571"/>
     <use style="fill:#1f77b4;stroke:#ffffff;stroke-width:0.48;" x="470.538391" xlink:href="#m7c90459d24" y="29.006447"/>
     <use style="fill:#1f77b4;stroke:#ffffff;stroke-width:0.48;" x="493.140593" xlink:href="#m7c90459d24" y="31.087184"/>
     <use style="fill:#1f77b4;stroke:#ffffff;stroke-width:0.48;" x="498.791144" xlink:href="#m7c90459d24" y="33.167921"/>
     <use style="fill:#1f77b4;stroke:#ffffff;stroke-width:0.48;" x="481.839492" xlink:href="#m7c90459d24" y="35.248657"/>
     <use style="fill:#1f77b4;stroke:#ffffff;stroke-width:0.48;" x="517.155433" xlink:href="#m7c90459d24" y="37.329394"/>
     <use style="fill:#1f77b4;stroke:#ffffff;stroke-width:0.48;" x="495.965869" xlink:href="#m7c90459d24" y="39.410131"/>
     <use style="fill:#1f77b4;stroke:#ffffff;stroke-width:0.48;" x="483.25213" xlink:href="#m7c90459d24" y="41.490868"/>
     <use style="fill:#1f77b4;stroke:#ffffff;stroke-width:0.48;" x="487.490043" xlink:href="#m7c90459d24" y="43.571605"/>
     <use style="fill:#1f77b4;stroke:#ffffff;stroke-width:0.48;" x="484.664767" xlink:href="#m7c90459d24" y="45.652341"/>
     <use style="fill:#1f77b4;stroke:#ffffff;stroke-width:0.48;" x="494.553231" xlink:href="#m7c90459d24" y="47.733078"/>
     <use style="fill:#1f77b4;stroke:#ffffff;stroke-width:0.48;" x="453.586739" xlink:href="#m7c90459d24" y="49.813815"/>
     <use style="fill:#1f77b4;stroke:#ffffff;stroke-width:0.48;" x="503.029057" xlink:href="#m7c90459d24" y="51.894552"/>
     <use style="fill:#1f77b4;stroke:#ffffff;stroke-width:0.48;" x="484.664767" xlink:href="#m7c90459d24" y="53.975289"/>
     <use style="fill:#1f77b4;stroke:#ffffff;stroke-width:0.48;" x="471.951029" xlink:href="#m7c90459d24" y="56.056025"/>
     <use style="fill:#1f77b4;stroke:#ffffff;stroke-width:0.48;" x="488.90268" xlink:href="#m7c90459d24" y="58.136762"/>
     <use style="fill:#1f77b4;stroke:#ffffff;stroke-width:0.48;" x="469.125753" xlink:href="#m7c90459d24" y="60.217499"/>
     <use style="fill:#1f77b4;stroke:#ffffff;stroke-width:0.48;" x="480.426855" xlink:href="#m7c90459d24" y="62.298236"/>
     <use style="fill:#1f77b4;stroke:#ffffff;stroke-width:0.48;" x="436.635088" xlink:href="#m7c90459d24" y="64.378973"/>
     <use style="fill:#1f77b4;stroke:#ffffff;stroke-width:0.48;" x="449.348827" xlink:href="#m7c90459d24" y="66.459709"/>
     <use style="fill:#1f77b4;stroke:#ffffff;stroke-width:0.48;" x="366.003206" xlink:href="#m7c90459d24" y="68.540446"/>
     <use style="fill:#1f77b4;stroke:#ffffff;stroke-width:0.48;" x="474.776304" xlink:href="#m7c90459d24" y="70.621183"/>
     <use style="fill:#1f77b4;stroke:#ffffff;stroke-width:0.48;" x="394.255959" xlink:href="#m7c90459d24" y="72.70192"/>
     <use style="fill:#1f77b4;stroke:#ffffff;stroke-width:0.48;" x="500.203781" xlink:href="#m7c90459d24" y="74.782657"/>
     <use style="fill:#1f77b4;stroke:#ffffff;stroke-width:0.48;" x="456.412015" xlink:href="#m7c90459d24" y="78.94413"/>
     <use style="fill:#1f77b4;stroke:#ffffff;stroke-width:0.48;" x="358.940018" xlink:href="#m7c90459d24" y="81.024867"/>
     <use style="fill:#1f77b4;stroke:#ffffff;stroke-width:0.48;" x="415.445523" xlink:href="#m7c90459d24" y="83.105604"/>
     <use style="fill:#1f77b4;stroke:#ffffff;stroke-width:0.48;" x="463.475203" xlink:href="#m7c90459d24" y="85.186341"/>
     <use style="fill:#1f77b4;stroke:#ffffff;stroke-width:0.48;" x="503.029057" xlink:href="#m7c90459d24" y="87.267078"/>
     <use style="fill:#1f77b4;stroke:#ffffff;stroke-width:0.48;" x="452.174102" xlink:href="#m7c90459d24" y="89.347814"/>
     <use style="fill:#1f77b4;stroke:#ffffff;stroke-width:0.48;" x="398.493872" xlink:href="#m7c90459d24" y="91.428551"/>
     <use style="fill:#1f77b4;stroke:#ffffff;stroke-width:0.48;" x="418.270799" xlink:href="#m7c90459d24" y="93.509288"/>
     <use style="fill:#1f77b4;stroke:#ffffff;stroke-width:0.48;" x="528.456534" xlink:href="#m7c90459d24" y="95.590025"/>
     <use style="fill:#1f77b4;stroke:#ffffff;stroke-width:0.48;" x="378.716945" xlink:href="#m7c90459d24" y="97.670762"/>
     <use style="fill:#1f77b4;stroke:#ffffff;stroke-width:0.48;" x="505.854332" xlink:href="#m7c90459d24" y="99.751498"/>
     <use style="fill:#1f77b4;stroke:#ffffff;stroke-width:0.48;" x="453.586739" xlink:href="#m7c90459d24" y="101.832235"/>
     <use style="fill:#1f77b4;stroke:#ffffff;stroke-width:0.48;" x="378.716945" xlink:href="#m7c90459d24" y="105.993709"/>
     <use style="fill:#1f77b4;stroke:#ffffff;stroke-width:0.48;" x="433.809813" xlink:href="#m7c90459d24" y="108.074446"/>
     <use style="fill:#1f77b4;stroke:#ffffff;stroke-width:0.48;" x="325.036715" xlink:href="#m7c90459d24" y="110.155182"/>
     <use style="fill:#1f77b4;stroke:#ffffff;stroke-width:0.48;" x="391.430684" xlink:href="#m7c90459d24" y="112.235919"/>
     <use style="fill:#1f77b4;stroke:#ffffff;stroke-width:0.48;" x="463.475203" xlink:href="#m7c90459d24" y="114.316656"/>
     <use style="fill:#1f77b4;stroke:#ffffff;stroke-width:0.48;" x="476.188942" xlink:href="#m7c90459d24" y="116.397393"/>
     <use style="fill:#1f77b4;stroke:#ffffff;stroke-width:0.48;" x="445.110914" xlink:href="#m7c90459d24" y="118.47813"/>
     <use style="fill:#1f77b4;stroke:#ffffff;stroke-width:0.48;" x="414.032886" xlink:href="#m7c90459d24" y="122.639603"/>
     <use style="fill:#1f77b4;stroke:#ffffff;stroke-width:0.48;" x="391.430684" xlink:href="#m7c90459d24" y="124.72034"/>
     <use style="fill:#1f77b4;stroke:#ffffff;stroke-width:0.48;" x="484.664767" xlink:href="#m7c90459d24" y="126.801077"/>
     <use style="fill:#1f77b4;stroke:#ffffff;stroke-width:0.48;" x="416.858161" xlink:href="#m7c90459d24" y="128.881814"/>
     <use style="fill:#1f77b4;stroke:#ffffff;stroke-width:0.48;" x="503.029057" xlink:href="#m7c90459d24" y="130.96255"/>
     <use style="fill:#1f77b4;stroke:#ffffff;stroke-width:0.48;" x="436.635088" xlink:href="#m7c90459d24" y="133.043287"/>
     <use style="fill:#1f77b4;stroke:#ffffff;stroke-width:0.48;" x="391.430684" xlink:href="#m7c90459d24" y="135.124024"/>
     <use style="fill:#1f77b4;stroke:#ffffff;stroke-width:0.48;" x="498.791144" xlink:href="#m7c90459d24" y="137.204761"/>
     <use style="fill:#1f77b4;stroke:#ffffff;stroke-width:0.48;" x="435.22245" xlink:href="#m7c90459d24" y="139.285498"/>
     <use style="fill:#1f77b4;stroke:#ffffff;stroke-width:0.48;" x="384.367495" xlink:href="#m7c90459d24" y="141.366234"/>
     <use style="fill:#1f77b4;stroke:#ffffff;stroke-width:0.48;" x="385.780133" xlink:href="#m7c90459d24" y="143.446971"/>
     <use style="fill:#1f77b4;stroke:#ffffff;stroke-width:0.48;" x="519.980708" xlink:href="#m7c90459d24" y="145.527708"/>
     <use style="fill:#1f77b4;stroke:#ffffff;stroke-width:0.48;" x="375.89167" xlink:href="#m7c90459d24" y="147.608445"/>
     <use style="fill:#1f77b4;stroke:#ffffff;stroke-width:0.48;" x="354.702105" xlink:href="#m7c90459d24" y="149.689182"/>
     <use style="fill:#1f77b4;stroke:#ffffff;stroke-width:0.48;" x="361.765293" xlink:href="#m7c90459d24" y="151.769918"/>
     <use style="fill:#1f77b4;stroke:#ffffff;stroke-width:0.48;" x="416.858161" xlink:href="#m7c90459d24" y="153.850655"/>
     <use style="fill:#1f77b4;stroke:#ffffff;stroke-width:0.48;" x="405.55706" xlink:href="#m7c90459d24" y="155.931392"/>
     <use style="fill:#1f77b4;stroke:#ffffff;stroke-width:0.48;" x="467.713116" xlink:href="#m7c90459d24" y="160.092866"/>
     <use style="fill:#1f77b4;stroke:#ffffff;stroke-width:0.48;" x="481.839492" xlink:href="#m7c90459d24" y="162.173602"/>
     <use style="fill:#1f77b4;stroke:#ffffff;stroke-width:0.48;" x="275.594398" xlink:href="#m7c90459d24" y="164.254339"/>
     <use style="fill:#1f77b4;stroke:#ffffff;stroke-width:0.48;" x="350.464192" xlink:href="#m7c90459d24" y="166.335076"/>
     <use style="fill:#1f77b4;stroke:#ffffff;stroke-width:0.48;" x="315.148251" xlink:href="#m7c90459d24" y="168.415813"/>
     <use style="fill:#1f77b4;stroke:#ffffff;stroke-width:0.48;" x="399.906509" xlink:href="#m7c90459d24" y="170.49655"/>
     <use style="fill:#1f77b4;stroke:#ffffff;stroke-width:0.48;" x="358.940018" xlink:href="#m7c90459d24" y="172.577286"/>
     <use style="fill:#1f77b4;stroke:#ffffff;stroke-width:0.48;" x="361.765293" xlink:href="#m7c90459d24" y="174.658023"/>
     <use style="fill:#1f77b4;stroke:#ffffff;stroke-width:0.48;" x="409.794973" xlink:href="#m7c90459d24" y="176.73876"/>
     <use style="fill:#1f77b4;stroke:#ffffff;stroke-width:0.48;" x="326.449352" xlink:href="#m7c90459d24" y="178.819497"/>
     <use style="fill:#1f77b4;stroke:#ffffff;stroke-width:0.48;" x="439.460363" xlink:href="#m7c90459d24" y="180.900234"/>
     <use style="fill:#1f77b4;stroke:#ffffff;stroke-width:0.48;" x="364.590569" xlink:href="#m7c90459d24" y="185.061707"/>
     <use style="fill:#1f77b4;stroke:#ffffff;stroke-width:0.48;" x="449.348827" xlink:href="#m7c90459d24" y="189.223181"/>
     <use style="fill:#1f77b4;stroke:#ffffff;stroke-width:0.48;" x="385.780133" xlink:href="#m7c90459d24" y="191.303918"/>
     <use style="fill:#1f77b4;stroke:#ffffff;stroke-width:0.48;" x="378.716945" xlink:href="#m7c90459d24" y="193.384655"/>
     <use style="fill:#1f77b4;stroke:#ffffff;stroke-width:0.48;" x="474.776304" xlink:href="#m7c90459d24" y="195.465391"/>
     <use style="fill:#1f77b4;stroke:#ffffff;stroke-width:0.48;" x="305.259788" xlink:href="#m7c90459d24" y="197.546128"/>
     <use style="fill:#1f77b4;stroke:#ffffff;stroke-width:0.48;" x="247.341645" xlink:href="#m7c90459d24" y="201.707602"/>
     <use style="fill:#1f77b4;stroke:#ffffff;stroke-width:0.48;" x="319.386164" xlink:href="#m7c90459d24" y="205.869075"/>
     <use style="fill:#1f77b4;stroke:#ffffff;stroke-width:0.48;" x="429.5719" xlink:href="#m7c90459d24" y="207.949812"/>
     <use style="fill:#1f77b4;stroke:#ffffff;stroke-width:0.48;" x="377.304307" xlink:href="#m7c90459d24" y="210.030549"/>
     <use style="fill:#1f77b4;stroke:#ffffff;stroke-width:0.48;" x="330.687265" xlink:href="#m7c90459d24" y="212.111286"/>
     <use style="fill:#1f77b4;stroke:#ffffff;stroke-width:0.48;" x="429.5719" xlink:href="#m7c90459d24" y="214.192023"/>
     <use style="fill:#1f77b4;stroke:#ffffff;stroke-width:0.48;" x="341.988366" xlink:href="#m7c90459d24" y="216.272759"/>
     <use style="fill:#1f77b4;stroke:#ffffff;stroke-width:0.48;" x="421.096074" xlink:href="#m7c90459d24" y="218.353496"/>
     <use style="fill:#1f77b4;stroke:#ffffff;stroke-width:0.48;" x="381.54222" xlink:href="#m7c90459d24" y="220.434233"/>
     <use style="fill:#1f77b4;stroke:#ffffff;stroke-width:0.48;" x="381.54222" xlink:href="#m7c90459d24" y="222.51497"/>
     <use style="fill:#1f77b4;stroke:#ffffff;stroke-width:0.48;" x="227.564718" xlink:href="#m7c90459d24" y="224.595707"/>
     <use style="fill:#1f77b4;stroke:#ffffff;stroke-width:0.48;" x="387.192771" xlink:href="#m7c90459d24" y="226.676443"/>
     <use style="fill:#1f77b4;stroke:#ffffff;stroke-width:0.48;" x="260.055384" xlink:href="#m7c90459d24" y="228.75718"/>
     <use style="fill:#1f77b4;stroke:#ffffff;stroke-width:0.48;" x="336.337816" xlink:href="#m7c90459d24" y="232.918654"/>
     <use style="fill:#1f77b4;stroke:#ffffff;stroke-width:0.48;" x="450.761464" xlink:href="#m7c90459d24" y="234.999391"/>
     <use style="fill:#1f77b4;stroke:#ffffff;stroke-width:0.48;" x="248.754283" xlink:href="#m7c90459d24" y="237.080127"/>
     <use style="fill:#1f77b4;stroke:#ffffff;stroke-width:0.48;" x="301.021875" xlink:href="#m7c90459d24" y="241.241601"/>
     <use style="fill:#1f77b4;stroke:#ffffff;stroke-width:0.48;" x="271.356485" xlink:href="#m7c90459d24" y="245.403075"/>
     <use style="fill:#1f77b4;stroke:#ffffff;stroke-width:0.48;" x="435.22245" xlink:href="#m7c90459d24" y="247.483811"/>
     <use style="fill:#1f77b4;stroke:#ffffff;stroke-width:0.48;" x="387.192771" xlink:href="#m7c90459d24" y="249.564548"/>
     <use style="fill:#1f77b4;stroke:#ffffff;stroke-width:0.48;" x="320.798802" xlink:href="#m7c90459d24" y="251.645285"/>
     <use style="fill:#1f77b4;stroke:#ffffff;stroke-width:0.48;" x="295.371324" xlink:href="#m7c90459d24" y="255.806759"/>
     <use style="fill:#1f77b4;stroke:#ffffff;stroke-width:0.48;" x="162.583387" xlink:href="#m7c90459d24" y="257.887495"/>
     <use style="fill:#1f77b4;stroke:#ffffff;stroke-width:0.48;" x="275.594398" xlink:href="#m7c90459d24" y="259.968232"/>
     <use style="fill:#1f77b4;stroke:#ffffff;stroke-width:0.48;" x="219.088892" xlink:href="#m7c90459d24" y="262.048969"/>
     <use style="fill:#1f77b4;stroke:#ffffff;stroke-width:0.48;" x="209.200429" xlink:href="#m7c90459d24" y="264.129706"/>
     <use style="fill:#1f77b4;stroke:#ffffff;stroke-width:0.48;" x="398.493872" xlink:href="#m7c90459d24" y="266.210443"/>
     <use style="fill:#1f77b4;stroke:#ffffff;stroke-width:0.48;" x="425.333987" xlink:href="#m7c90459d24" y="268.291179"/>
     <use style="fill:#1f77b4;stroke:#ffffff;stroke-width:0.48;" x="196.48669" xlink:href="#m7c90459d24" y="270.371916"/>
     <use style="fill:#1f77b4;stroke:#ffffff;stroke-width:0.48;" x="360.352656" xlink:href="#m7c90459d24" y="272.452653"/>
     <use style="fill:#1f77b4;stroke:#ffffff;stroke-width:0.48;" x="264.293297" xlink:href="#m7c90459d24" y="274.53339"/>
     <use style="fill:#1f77b4;stroke:#ffffff;stroke-width:0.48;" x="268.531209" xlink:href="#m7c90459d24" y="276.614127"/>
     <use style="fill:#1f77b4;stroke:#ffffff;stroke-width:0.48;" x="329.274628" xlink:href="#m7c90459d24" y="278.694863"/>
     <use style="fill:#1f77b4;stroke:#ffffff;stroke-width:0.48;" x="172.47185" xlink:href="#m7c90459d24" y="280.7756"/>
     <use style="fill:#1f77b4;stroke:#ffffff;stroke-width:0.48;" x="438.047726" xlink:href="#m7c90459d24" y="282.856337"/>
     <use style="fill:#1f77b4;stroke:#ffffff;stroke-width:0.48;" x="367.415844" xlink:href="#m7c90459d24" y="284.937074"/>
     <use style="fill:#1f77b4;stroke:#ffffff;stroke-width:0.48;" x="415.445523" xlink:href="#m7c90459d24" y="287.017811"/>
     <use style="fill:#1f77b4;stroke:#ffffff;stroke-width:0.48;" x="214.850979" xlink:href="#m7c90459d24" y="291.179284"/>
     <use style="fill:#1f77b4;stroke:#ffffff;stroke-width:0.48;" x="192.248777" xlink:href="#m7c90459d24" y="293.260021"/>
     <use style="fill:#1f77b4;stroke:#ffffff;stroke-width:0.48;" x="425.333987" xlink:href="#m7c90459d24" y="295.340758"/>
     <use style="fill:#1f77b4;stroke:#ffffff;stroke-width:0.48;" x="302.434513" xlink:href="#m7c90459d24" y="297.421495"/>
     <use style="fill:#1f77b4;stroke:#ffffff;stroke-width:0.48;" x="182.360314" xlink:href="#m7c90459d24" y="299.502231"/>
     <use style="fill:#1f77b4;stroke:#ffffff;stroke-width:0.48;" x="326.449352" xlink:href="#m7c90459d24" y="301.582968"/>
     <use style="fill:#1f77b4;stroke:#ffffff;stroke-width:0.48;" x="302.434513" xlink:href="#m7c90459d24" y="303.663705"/>
     <use style="fill:#1f77b4;stroke:#ffffff;stroke-width:0.48;" x="199.311965" xlink:href="#m7c90459d24" y="305.744442"/>
     <use style="fill:#1f77b4;stroke:#ffffff;stroke-width:0.48;" x="267.118572" xlink:href="#m7c90459d24" y="307.825179"/>
     <use style="fill:#1f77b4;stroke:#ffffff;stroke-width:0.48;" x="329.274628" xlink:href="#m7c90459d24" y="309.905916"/>
     <use style="fill:#1f77b4;stroke:#ffffff;stroke-width:0.48;" x="230.389993" xlink:href="#m7c90459d24" y="311.986652"/>
     <use style="fill:#1f77b4;stroke:#ffffff;stroke-width:0.48;" x="244.51637" xlink:href="#m7c90459d24" y="314.067389"/>
     <use style="fill:#1f77b4;stroke:#ffffff;stroke-width:0.48;" x="308.085063" xlink:href="#m7c90459d24" y="316.148126"/>
     <use style="fill:#1f77b4;stroke:#ffffff;stroke-width:0.48;" x="247.341645" xlink:href="#m7c90459d24" y="318.228863"/>
     <use style="fill:#1f77b4;stroke:#ffffff;stroke-width:0.48;" x="302.434513" xlink:href="#m7c90459d24" y="320.3096"/>
     <use style="fill:#1f77b4;stroke:#ffffff;stroke-width:0.48;" x="233.215269" xlink:href="#m7c90459d24" y="322.390336"/>
     <use style="fill:#1f77b4;stroke:#ffffff;stroke-width:0.48;" x="118.79162" xlink:href="#m7c90459d24" y="324.471073"/>
     <use style="fill:#1f77b4;stroke:#ffffff;stroke-width:0.48;" x="206.375154" xlink:href="#m7c90459d24" y="326.55181"/>
     <use style="fill:#1f77b4;stroke:#ffffff;stroke-width:0.48;" x="202.137241" xlink:href="#m7c90459d24" y="328.632547"/>
     <use style="fill:#1f77b4;stroke:#ffffff;stroke-width:0.48;" x="254.404833" xlink:href="#m7c90459d24" y="330.713284"/>
     <use style="fill:#1f77b4;stroke:#ffffff;stroke-width:0.48;" x="312.322976" xlink:href="#m7c90459d24" y="332.79402"/>
     <use style="fill:#1f77b4;stroke:#ffffff;stroke-width:0.48;" x="336.337816" xlink:href="#m7c90459d24" y="334.874757"/>
     <use style="fill:#1f77b4;stroke:#ffffff;stroke-width:0.48;" x="233.215269" xlink:href="#m7c90459d24" y="336.955494"/>
     <use style="fill:#1f77b4;stroke:#ffffff;stroke-width:0.48;" x="288.308136" xlink:href="#m7c90459d24" y="339.036231"/>
     <use style="fill:#1f77b4;stroke:#ffffff;stroke-width:0.48;" x="302.434513" xlink:href="#m7c90459d24" y="341.116968"/>
     <use style="fill:#1f77b4;stroke:#ffffff;stroke-width:0.48;" x="282.657586" xlink:href="#m7c90459d24" y="343.197704"/>
     <use style="fill:#1f77b4;stroke:#ffffff;stroke-width:0.48;" x="231.802631" xlink:href="#m7c90459d24" y="345.278441"/>
     <use style="fill:#1f77b4;stroke:#ffffff;stroke-width:0.48;" x="73.587216" xlink:href="#m7c90459d24" y="347.359178"/>
     <use style="fill:#1f77b4;stroke:#ffffff;stroke-width:0.48;" x="169.646575" xlink:href="#m7c90459d24" y="349.439915"/>
    </g>
   </g>
   <g id="matplotlib.axis_1">
    <g id="xtick_1">
     <g id="line2d_1">
      <defs>
       <path d="M 0 0 
L 0 3.5 
" id="m7d965c009a" style="stroke:#000000;stroke-width:0.8;"/>
      </defs>
      <g>
       <use style="stroke:#000000;stroke-width:0.8;" x="103.252606" xlink:href="#m7d965c009a" y="365.565625"/>
      </g>
     </g>
     <g id="text_1">
      <!-- 55 -->
      <g transform="translate(96.890106 380.164062)scale(0.1 -0.1)">
       <defs>
        <path d="M 691 4666 
L 3169 4666 
L 3169 4134 
L 1269 4134 
L 1269 2991 
Q 1406 3038 1543 3061 
Q 1681 3084 1819 3084 
Q 2600 3084 3056 2656 
Q 3513 2228 3513 1497 
Q 3513 744 3044 326 
Q 2575 -91 1722 -91 
Q 1428 -91 1123 -41 
Q 819 9 494 109 
L 494 744 
Q 775 591 1075 516 
Q 1375 441 1709 441 
Q 2250 441 2565 725 
Q 2881 1009 2881 1497 
Q 2881 1984 2565 2268 
Q 2250 2553 1709 2553 
Q 1456 2553 1204 2497 
Q 953 2441 691 2322 
L 691 4666 
z
" id="DejaVuSans-35" transform="scale(0.015625)"/>
       </defs>
       <use xlink:href="#DejaVuSans-35"/>
       <use x="63.623047" xlink:href="#DejaVuSans-35"/>
      </g>
     </g>
    </g>
    <g id="xtick_2">
     <g id="line2d_2">
      <g>
       <use style="stroke:#000000;stroke-width:0.8;" x="173.884488" xlink:href="#m7d965c009a" y="365.565625"/>
      </g>
     </g>
     <g id="text_2">
      <!-- 60 -->
      <g transform="translate(167.521988 380.164062)scale(0.1 -0.1)">
       <defs>
        <path d="M 2113 2584 
Q 1688 2584 1439 2293 
Q 1191 2003 1191 1497 
Q 1191 994 1439 701 
Q 1688 409 2113 409 
Q 2538 409 2786 701 
Q 3034 994 3034 1497 
Q 3034 2003 2786 2293 
Q 2538 2584 2113 2584 
z
M 3366 4563 
L 3366 3988 
Q 3128 4100 2886 4159 
Q 2644 4219 2406 4219 
Q 1781 4219 1451 3797 
Q 1122 3375 1075 2522 
Q 1259 2794 1537 2939 
Q 1816 3084 2150 3084 
Q 2853 3084 3261 2657 
Q 3669 2231 3669 1497 
Q 3669 778 3244 343 
Q 2819 -91 2113 -91 
Q 1303 -91 875 529 
Q 447 1150 447 2328 
Q 447 3434 972 4092 
Q 1497 4750 2381 4750 
Q 2619 4750 2861 4703 
Q 3103 4656 3366 4563 
z
" id="DejaVuSans-36" transform="scale(0.015625)"/>
        <path d="M 2034 4250 
Q 1547 4250 1301 3770 
Q 1056 3291 1056 2328 
Q 1056 1369 1301 889 
Q 1547 409 2034 409 
Q 2525 409 2770 889 
Q 3016 1369 3016 2328 
Q 3016 3291 2770 3770 
Q 2525 4250 2034 4250 
z
M 2034 4750 
Q 2819 4750 3233 4129 
Q 3647 3509 3647 2328 
Q 3647 1150 3233 529 
Q 2819 -91 2034 -91 
Q 1250 -91 836 529 
Q 422 1150 422 2328 
Q 422 3509 836 4129 
Q 1250 4750 2034 4750 
z
" id="DejaVuSans-30" transform="scale(0.015625)"/>
       </defs>
       <use xlink:href="#DejaVuSans-36"/>
       <use x="63.623047" xlink:href="#DejaVuSans-30"/>
      </g>
     </g>
    </g>
    <g id="xtick_3">
     <g id="line2d_3">
      <g>
       <use style="stroke:#000000;stroke-width:0.8;" x="244.51637" xlink:href="#m7d965c009a" y="365.565625"/>
      </g>
     </g>
     <g id="text_3">
      <!-- 65 -->
      <g transform="translate(238.15387 380.164062)scale(0.1 -0.1)">
       <use xlink:href="#DejaVuSans-36"/>
       <use x="63.623047" xlink:href="#DejaVuSans-35"/>
      </g>
     </g>
    </g>
    <g id="xtick_4">
     <g id="line2d_4">
      <g>
       <use style="stroke:#000000;stroke-width:0.8;" x="315.148251" xlink:href="#m7d965c009a" y="365.565625"/>
      </g>
     </g>
     <g id="text_4">
      <!-- 70 -->
      <g transform="translate(308.785751 380.164062)scale(0.1 -0.1)">
       <defs>
        <path d="M 525 4666 
L 3525 4666 
L 3525 4397 
L 1831 0 
L 1172 0 
L 2766 4134 
L 525 4134 
L 525 4666 
z
" id="DejaVuSans-37" transform="scale(0.015625)"/>
       </defs>
       <use xlink:href="#DejaVuSans-37"/>
       <use x="63.623047" xlink:href="#DejaVuSans-30"/>
      </g>
     </g>
    </g>
    <g id="xtick_5">
     <g id="line2d_5">
      <g>
       <use style="stroke:#000000;stroke-width:0.8;" x="385.780133" xlink:href="#m7d965c009a" y="365.565625"/>
      </g>
     </g>
     <g id="text_5">
      <!-- 75 -->
      <g transform="translate(379.417633 380.164062)scale(0.1 -0.1)">
       <use xlink:href="#DejaVuSans-37"/>
       <use x="63.623047" xlink:href="#DejaVuSans-35"/>
      </g>
     </g>
    </g>
    <g id="xtick_6">
     <g id="line2d_6">
      <g>
       <use style="stroke:#000000;stroke-width:0.8;" x="456.412015" xlink:href="#m7d965c009a" y="365.565625"/>
      </g>
     </g>
     <g id="text_6">
      <!-- 80 -->
      <g transform="translate(450.049515 380.164062)scale(0.1 -0.1)">
       <defs>
        <path d="M 2034 2216 
Q 1584 2216 1326 1975 
Q 1069 1734 1069 1313 
Q 1069 891 1326 650 
Q 1584 409 2034 409 
Q 2484 409 2743 651 
Q 3003 894 3003 1313 
Q 3003 1734 2745 1975 
Q 2488 2216 2034 2216 
z
M 1403 2484 
Q 997 2584 770 2862 
Q 544 3141 544 3541 
Q 544 4100 942 4425 
Q 1341 4750 2034 4750 
Q 2731 4750 3128 4425 
Q 3525 4100 3525 3541 
Q 3525 3141 3298 2862 
Q 3072 2584 2669 2484 
Q 3125 2378 3379 2068 
Q 3634 1759 3634 1313 
Q 3634 634 3220 271 
Q 2806 -91 2034 -91 
Q 1263 -91 848 271 
Q 434 634 434 1313 
Q 434 1759 690 2068 
Q 947 2378 1403 2484 
z
M 1172 3481 
Q 1172 3119 1398 2916 
Q 1625 2713 2034 2713 
Q 2441 2713 2670 2916 
Q 2900 3119 2900 3481 
Q 2900 3844 2670 4047 
Q 2441 4250 2034 4250 
Q 1625 4250 1398 4047 
Q 1172 3844 1172 3481 
z
" id="DejaVuSans-38" transform="scale(0.015625)"/>
       </defs>
       <use xlink:href="#DejaVuSans-38"/>
       <use x="63.623047" xlink:href="#DejaVuSans-30"/>
      </g>
     </g>
    </g>
    <g id="xtick_7">
     <g id="line2d_7">
      <g>
       <use style="stroke:#000000;stroke-width:0.8;" x="527.043896" xlink:href="#m7d965c009a" y="365.565625"/>
      </g>
     </g>
     <g id="text_7">
      <!-- 85 -->
      <g transform="translate(520.681396 380.164062)scale(0.1 -0.1)">
       <use xlink:href="#DejaVuSans-38"/>
       <use x="63.623047" xlink:href="#DejaVuSans-35"/>
      </g>
     </g>
    </g>
    <g id="text_8">
     <!-- life_exp -->
     <g transform="translate(281.784375 393.842187)scale(0.1 -0.1)">
      <defs>
       <path d="M 603 4863 
L 1178 4863 
L 1178 0 
L 603 0 
L 603 4863 
z
" id="DejaVuSans-6c" transform="scale(0.015625)"/>
       <path d="M 603 3500 
L 1178 3500 
L 1178 0 
L 603 0 
L 603 3500 
z
M 603 4863 
L 1178 4863 
L 1178 4134 
L 603 4134 
L 603 4863 
z
" id="DejaVuSans-69" transform="scale(0.015625)"/>
       <path d="M 2375 4863 
L 2375 4384 
L 1825 4384 
Q 1516 4384 1395 4259 
Q 1275 4134 1275 3809 
L 1275 3500 
L 2222 3500 
L 2222 3053 
L 1275 3053 
L 1275 0 
L 697 0 
L 697 3053 
L 147 3053 
L 147 3500 
L 697 3500 
L 697 3744 
Q 697 4328 969 4595 
Q 1241 4863 1831 4863 
L 2375 4863 
z
" id="DejaVuSans-66" transform="scale(0.015625)"/>
       <path d="M 3597 1894 
L 3597 1613 
L 953 1613 
Q 991 1019 1311 708 
Q 1631 397 2203 397 
Q 2534 397 2845 478 
Q 3156 559 3463 722 
L 3463 178 
Q 3153 47 2828 -22 
Q 2503 -91 2169 -91 
Q 1331 -91 842 396 
Q 353 884 353 1716 
Q 353 2575 817 3079 
Q 1281 3584 2069 3584 
Q 2775 3584 3186 3129 
Q 3597 2675 3597 1894 
z
M 3022 2063 
Q 3016 2534 2758 2815 
Q 2500 3097 2075 3097 
Q 1594 3097 1305 2825 
Q 1016 2553 972 2059 
L 3022 2063 
z
" id="DejaVuSans-65" transform="scale(0.015625)"/>
       <path d="M 3263 -1063 
L 3263 -1509 
L -63 -1509 
L -63 -1063 
L 3263 -1063 
z
" id="DejaVuSans-5f" transform="scale(0.015625)"/>
       <path d="M 3513 3500 
L 2247 1797 
L 3578 0 
L 2900 0 
L 1881 1375 
L 863 0 
L 184 0 
L 1544 1831 
L 300 3500 
L 978 3500 
L 1906 2253 
L 2834 3500 
L 3513 3500 
z
" id="DejaVuSans-78" transform="scale(0.015625)"/>
       <path d="M 1159 525 
L 1159 -1331 
L 581 -1331 
L 581 3500 
L 1159 3500 
L 1159 2969 
Q 1341 3281 1617 3432 
Q 1894 3584 2278 3584 
Q 2916 3584 3314 3078 
Q 3713 2572 3713 1747 
Q 3713 922 3314 415 
Q 2916 -91 2278 -91 
Q 1894 -91 1617 61 
Q 1341 213 1159 525 
z
M 3116 1747 
Q 3116 2381 2855 2742 
Q 2594 3103 2138 3103 
Q 1681 3103 1420 2742 
Q 1159 2381 1159 1747 
Q 1159 1113 1420 752 
Q 1681 391 2138 391 
Q 2594 391 2855 752 
Q 3116 1113 3116 1747 
z
" id="DejaVuSans-70" transform="scale(0.015625)"/>
      </defs>
      <use xlink:href="#DejaVuSans-6c"/>
      <use x="27.783203" xlink:href="#DejaVuSans-69"/>
      <use x="55.566406" xlink:href="#DejaVuSans-66"/>
      <use x="90.771484" xlink:href="#DejaVuSans-65"/>
      <use x="152.294922" xlink:href="#DejaVuSans-5f"/>
      <use x="202.294922" xlink:href="#DejaVuSans-65"/>
      <use x="262.068359" xlink:href="#DejaVuSans-78"/>
      <use x="321.248047" xlink:href="#DejaVuSans-70"/>
     </g>
    </g>
   </g>
   <g id="matplotlib.axis_2">
    <g id="ytick_1">
     <g id="line2d_8">
      <defs>
       <path d="M 0 0 
L -3.5 0 
" id="m9398548c1d" style="stroke:#000000;stroke-width:0.8;"/>
      </defs>
      <g>
       <use style="stroke:#000000;stroke-width:0.8;" x="50.84375" xlink:href="#m9398548c1d" y="349.439915"/>
      </g>
     </g>
     <g id="text_9">
      <!-- 0 -->
      <g transform="translate(37.48125 353.239134)scale(0.1 -0.1)">
       <use xlink:href="#DejaVuSans-30"/>
      </g>
     </g>
    </g>
    <g id="ytick_2">
     <g id="line2d_9">
      <g>
       <use style="stroke:#000000;stroke-width:0.8;" x="50.84375" xlink:href="#m9398548c1d" y="307.825179"/>
      </g>
     </g>
     <g id="text_10">
      <!-- 20 -->
      <g transform="translate(31.11875 311.624397)scale(0.1 -0.1)">
       <defs>
        <path d="M 1228 531 
L 3431 531 
L 3431 0 
L 469 0 
L 469 531 
Q 828 903 1448 1529 
Q 2069 2156 2228 2338 
Q 2531 2678 2651 2914 
Q 2772 3150 2772 3378 
Q 2772 3750 2511 3984 
Q 2250 4219 1831 4219 
Q 1534 4219 1204 4116 
Q 875 4013 500 3803 
L 500 4441 
Q 881 4594 1212 4672 
Q 1544 4750 1819 4750 
Q 2544 4750 2975 4387 
Q 3406 4025 3406 3419 
Q 3406 3131 3298 2873 
Q 3191 2616 2906 2266 
Q 2828 2175 2409 1742 
Q 1991 1309 1228 531 
z
" id="DejaVuSans-32" transform="scale(0.015625)"/>
       </defs>
       <use xlink:href="#DejaVuSans-32"/>
       <use x="63.623047" xlink:href="#DejaVuSans-30"/>
      </g>
     </g>
    </g>
    <g id="ytick_3">
     <g id="line2d_10">
      <g>
       <use style="stroke:#000000;stroke-width:0.8;" x="50.84375" xlink:href="#m9398548c1d" y="266.210443"/>
      </g>
     </g>
     <g id="text_11">
      <!-- 40 -->
      <g transform="translate(31.11875 270.009661)scale(0.1 -0.1)">
       <defs>
        <path d="M 2419 4116 
L 825 1625 
L 2419 1625 
L 2419 4116 
z
M 2253 4666 
L 3047 4666 
L 3047 1625 
L 3713 1625 
L 3713 1100 
L 3047 1100 
L 3047 0 
L 2419 0 
L 2419 1100 
L 313 1100 
L 313 1709 
L 2253 4666 
z
" id="DejaVuSans-34" transform="scale(0.015625)"/>
       </defs>
       <use xlink:href="#DejaVuSans-34"/>
       <use x="63.623047" xlink:href="#DejaVuSans-30"/>
      </g>
     </g>
    </g>
    <g id="ytick_4">
     <g id="line2d_11">
      <g>
       <use style="stroke:#000000;stroke-width:0.8;" x="50.84375" xlink:href="#m9398548c1d" y="224.595707"/>
      </g>
     </g>
     <g id="text_12">
      <!-- 60 -->
      <g transform="translate(31.11875 228.394925)scale(0.1 -0.1)">
       <use xlink:href="#DejaVuSans-36"/>
       <use x="63.623047" xlink:href="#DejaVuSans-30"/>
      </g>
     </g>
    </g>
    <g id="ytick_5">
     <g id="line2d_12">
      <g>
       <use style="stroke:#000000;stroke-width:0.8;" x="50.84375" xlink:href="#m9398548c1d" y="182.98097"/>
      </g>
     </g>
     <g id="text_13">
      <!-- 80 -->
      <g transform="translate(31.11875 186.780189)scale(0.1 -0.1)">
       <use xlink:href="#DejaVuSans-38"/>
       <use x="63.623047" xlink:href="#DejaVuSans-30"/>
      </g>
     </g>
    </g>
    <g id="ytick_6">
     <g id="line2d_13">
      <g>
       <use style="stroke:#000000;stroke-width:0.8;" x="50.84375" xlink:href="#m9398548c1d" y="141.366234"/>
      </g>
     </g>
     <g id="text_14">
      <!-- 100 -->
      <g transform="translate(24.75625 145.165453)scale(0.1 -0.1)">
       <defs>
        <path d="M 794 531 
L 1825 531 
L 1825 4091 
L 703 3866 
L 703 4441 
L 1819 4666 
L 2450 4666 
L 2450 531 
L 3481 531 
L 3481 0 
L 794 0 
L 794 531 
z
" id="DejaVuSans-31" transform="scale(0.015625)"/>
       </defs>
       <use xlink:href="#DejaVuSans-31"/>
       <use x="63.623047" xlink:href="#DejaVuSans-30"/>
       <use x="127.246094" xlink:href="#DejaVuSans-30"/>
      </g>
     </g>
    </g>
    <g id="ytick_7">
     <g id="line2d_14">
      <g>
       <use style="stroke:#000000;stroke-width:0.8;" x="50.84375" xlink:href="#m9398548c1d" y="99.751498"/>
      </g>
     </g>
     <g id="text_15">
      <!-- 120 -->
      <g transform="translate(24.75625 103.550717)scale(0.1 -0.1)">
       <use xlink:href="#DejaVuSans-31"/>
       <use x="63.623047" xlink:href="#DejaVuSans-32"/>
       <use x="127.246094" xlink:href="#DejaVuSans-30"/>
      </g>
     </g>
    </g>
    <g id="ytick_8">
     <g id="line2d_15">
      <g>
       <use style="stroke:#000000;stroke-width:0.8;" x="50.84375" xlink:href="#m9398548c1d" y="58.136762"/>
      </g>
     </g>
     <g id="text_16">
      <!-- 140 -->
      <g transform="translate(24.75625 61.935981)scale(0.1 -0.1)">
       <use xlink:href="#DejaVuSans-31"/>
       <use x="63.623047" xlink:href="#DejaVuSans-34"/>
       <use x="127.246094" xlink:href="#DejaVuSans-30"/>
      </g>
     </g>
    </g>
    <g id="ytick_9">
     <g id="line2d_16">
      <g>
       <use style="stroke:#000000;stroke-width:0.8;" x="50.84375" xlink:href="#m9398548c1d" y="16.522026"/>
      </g>
     </g>
     <g id="text_17">
      <!-- 160 -->
      <g transform="translate(24.75625 20.321245)scale(0.1 -0.1)">
       <use xlink:href="#DejaVuSans-31"/>
       <use x="63.623047" xlink:href="#DejaVuSans-36"/>
       <use x="127.246094" xlink:href="#DejaVuSans-30"/>
      </g>
     </g>
    </g>
    <g id="text_18">
     <!-- happiness_score -->
     <g transform="translate(18.398438 229.540625)rotate(-90)scale(0.1 -0.1)">
      <defs>
       <path d="M 3513 2113 
L 3513 0 
L 2938 0 
L 2938 2094 
Q 2938 2591 2744 2837 
Q 2550 3084 2163 3084 
Q 1697 3084 1428 2787 
Q 1159 2491 1159 1978 
L 1159 0 
L 581 0 
L 581 4863 
L 1159 4863 
L 1159 2956 
Q 1366 3272 1645 3428 
Q 1925 3584 2291 3584 
Q 2894 3584 3203 3211 
Q 3513 2838 3513 2113 
z
" id="DejaVuSans-68" transform="scale(0.015625)"/>
       <path d="M 2194 1759 
Q 1497 1759 1228 1600 
Q 959 1441 959 1056 
Q 959 750 1161 570 
Q 1363 391 1709 391 
Q 2188 391 2477 730 
Q 2766 1069 2766 1631 
L 2766 1759 
L 2194 1759 
z
M 3341 1997 
L 3341 0 
L 2766 0 
L 2766 531 
Q 2569 213 2275 61 
Q 1981 -91 1556 -91 
Q 1019 -91 701 211 
Q 384 513 384 1019 
Q 384 1609 779 1909 
Q 1175 2209 1959 2209 
L 2766 2209 
L 2766 2266 
Q 2766 2663 2505 2880 
Q 2244 3097 1772 3097 
Q 1472 3097 1187 3025 
Q 903 2953 641 2809 
L 641 3341 
Q 956 3463 1253 3523 
Q 1550 3584 1831 3584 
Q 2591 3584 2966 3190 
Q 3341 2797 3341 1997 
z
" id="DejaVuSans-61" transform="scale(0.015625)"/>
       <path d="M 3513 2113 
L 3513 0 
L 2938 0 
L 2938 2094 
Q 2938 2591 2744 2837 
Q 2550 3084 2163 3084 
Q 1697 3084 1428 2787 
Q 1159 2491 1159 1978 
L 1159 0 
L 581 0 
L 581 3500 
L 1159 3500 
L 1159 2956 
Q 1366 3272 1645 3428 
Q 1925 3584 2291 3584 
Q 2894 3584 3203 3211 
Q 3513 2838 3513 2113 
z
" id="DejaVuSans-6e" transform="scale(0.015625)"/>
       <path d="M 2834 3397 
L 2834 2853 
Q 2591 2978 2328 3040 
Q 2066 3103 1784 3103 
Q 1356 3103 1142 2972 
Q 928 2841 928 2578 
Q 928 2378 1081 2264 
Q 1234 2150 1697 2047 
L 1894 2003 
Q 2506 1872 2764 1633 
Q 3022 1394 3022 966 
Q 3022 478 2636 193 
Q 2250 -91 1575 -91 
Q 1294 -91 989 -36 
Q 684 19 347 128 
L 347 722 
Q 666 556 975 473 
Q 1284 391 1588 391 
Q 1994 391 2212 530 
Q 2431 669 2431 922 
Q 2431 1156 2273 1281 
Q 2116 1406 1581 1522 
L 1381 1569 
Q 847 1681 609 1914 
Q 372 2147 372 2553 
Q 372 3047 722 3315 
Q 1072 3584 1716 3584 
Q 2034 3584 2315 3537 
Q 2597 3491 2834 3397 
z
" id="DejaVuSans-73" transform="scale(0.015625)"/>
       <path d="M 3122 3366 
L 3122 2828 
Q 2878 2963 2633 3030 
Q 2388 3097 2138 3097 
Q 1578 3097 1268 2742 
Q 959 2388 959 1747 
Q 959 1106 1268 751 
Q 1578 397 2138 397 
Q 2388 397 2633 464 
Q 2878 531 3122 666 
L 3122 134 
Q 2881 22 2623 -34 
Q 2366 -91 2075 -91 
Q 1284 -91 818 406 
Q 353 903 353 1747 
Q 353 2603 823 3093 
Q 1294 3584 2113 3584 
Q 2378 3584 2631 3529 
Q 2884 3475 3122 3366 
z
" id="DejaVuSans-63" transform="scale(0.015625)"/>
       <path d="M 1959 3097 
Q 1497 3097 1228 2736 
Q 959 2375 959 1747 
Q 959 1119 1226 758 
Q 1494 397 1959 397 
Q 2419 397 2687 759 
Q 2956 1122 2956 1747 
Q 2956 2369 2687 2733 
Q 2419 3097 1959 3097 
z
M 1959 3584 
Q 2709 3584 3137 3096 
Q 3566 2609 3566 1747 
Q 3566 888 3137 398 
Q 2709 -91 1959 -91 
Q 1206 -91 779 398 
Q 353 888 353 1747 
Q 353 2609 779 3096 
Q 1206 3584 1959 3584 
z
" id="DejaVuSans-6f" transform="scale(0.015625)"/>
       <path d="M 2631 2963 
Q 2534 3019 2420 3045 
Q 2306 3072 2169 3072 
Q 1681 3072 1420 2755 
Q 1159 2438 1159 1844 
L 1159 0 
L 581 0 
L 581 3500 
L 1159 3500 
L 1159 2956 
Q 1341 3275 1631 3429 
Q 1922 3584 2338 3584 
Q 2397 3584 2469 3576 
Q 2541 3569 2628 3553 
L 2631 2963 
z
" id="DejaVuSans-72" transform="scale(0.015625)"/>
      </defs>
      <use xlink:href="#DejaVuSans-68"/>
      <use x="63.378906" xlink:href="#DejaVuSans-61"/>
      <use x="124.658203" xlink:href="#DejaVuSans-70"/>
      <use x="188.134766" xlink:href="#DejaVuSans-70"/>
      <use x="251.611328" xlink:href="#DejaVuSans-69"/>
      <use x="279.394531" xlink:href="#DejaVuSans-6e"/>
      <use x="342.773438" xlink:href="#DejaVuSans-65"/>
      <use x="404.296875" xlink:href="#DejaVuSans-73"/>
      <use x="456.396484" xlink:href="#DejaVuSans-73"/>
      <use x="508.496094" xlink:href="#DejaVuSans-5f"/>
      <use x="558.496094" xlink:href="#DejaVuSans-73"/>
      <use x="610.595703" xlink:href="#DejaVuSans-63"/>
      <use x="665.576172" xlink:href="#DejaVuSans-6f"/>
      <use x="726.757812" xlink:href="#DejaVuSans-72"/>
      <use x="765.621094" xlink:href="#DejaVuSans-65"/>
     </g>
    </g>
   </g>
   <g id="patch_3">
    <path d="M 50.84375 365.565625 
L 50.84375 10.8 
" style="fill:none;stroke:#000000;stroke-linecap:square;stroke-linejoin:miter;stroke-width:0.8;"/>
   </g>
   <g id="patch_4">
    <path d="M 551.2 365.565625 
L 551.2 10.8 
" style="fill:none;stroke:#000000;stroke-linecap:square;stroke-linejoin:miter;stroke-width:0.8;"/>
   </g>
   <g id="patch_5">
    <path d="M 50.84375 365.565625 
L 551.2 365.565625 
" style="fill:none;stroke:#000000;stroke-linecap:square;stroke-linejoin:miter;stroke-width:0.8;"/>
   </g>
   <g id="patch_6">
    <path d="M 50.84375 10.8 
L 551.2 10.8 
" style="fill:none;stroke:#000000;stroke-linecap:square;stroke-linejoin:miter;stroke-width:0.8;"/>
   </g>
  </g>
 </g>
 <defs>
  <clipPath id="pcce9ef392c">
   <rect height="354.765625" width="500.35625" x="50.84375" y="10.8"/>
  </clipPath>
 </defs>
</svg>
