<?xml version="1.0" encoding="utf-8" standalone="no"?>
<!DOCTYPE svg PUBLIC "-//W3C//DTD SVG 1.1//EN"
  "http://www.w3.org/Graphics/SVG/1.1/DTD/svg11.dtd">
<svg height="408pt" version="1.1" viewBox="0 0 276 408" width="276pt" xmlns="http://www.w3.org/2000/svg" xmlns:xlink="http://www.w3.org/1999/xlink">
 <metadata>
  <rdf:RDF xmlns:cc="http://creativecommons.org/ns#" xmlns:dc="http://purl.org/dc/elements/1.1/" xmlns:rdf="http://www.w3.org/1999/02/22-rdf-syntax-ns#">
   <cc:Work>
    <dc:type rdf:resource="http://purl.org/dc/dcmitype/StillImage"/>
    <dc:date>2025-01-16T13:41:34.733969</dc:date>
    <dc:format>image/svg+xml</dc:format>
    <dc:creator>
     <cc:Agent>
      <dc:title>Matplotlib v3.4.3, https://matplotlib.org/</dc:title>
     </cc:Agent>
    </dc:creator>
   </cc:Work>
  </rdf:RDF>
 </metadata>
 <defs>
  <style type="text/css">*{stroke-linecap:butt;stroke-linejoin:round;}</style>
 </defs>
 <g id="figure_1">
  <g id="patch_1">
   <path d="M 0 408 
L 276 408 
L 276 0 
L 0 0 
z
" style="fill:#ffffff;"/>
  </g>
  <g id="axes_1">
   <g id="patch_2">
    <path d="M 30.525 380.521875 
L 265.2 380.521875 
L 265.2 10.8 
L 30.525 10.8 
z
" style="fill:#ffffff;"/>
   </g>
   <g id="PathCollection_1">
    <defs>
     <path d="M 0 3 
C 0.795609 3 1.55874 2.683901 2.12132 2.12132 
C 2.683901 1.55874 3 0.795609 3 0 
C 3 -0.795609 2.683901 -1.55874 2.12132 -2.12132 
C 1.55874 -2.683901 0.795609 -3 0 -3 
C -0.795609 -3 -1.55874 -2.683901 -2.12132 -2.12132 
C -2.683901 -1.55874 -3 -0.795609 -3 0 
C -3 0.795609 -2.683901 1.55874 -2.12132 2.12132 
C -1.55874 2.683901 -0.795609 3 0 3 
z
" id="m229df56dda" style="stroke:#1f77b4;"/>
    </defs>
    <g clip-path="url(#p48542e5907)">
     <use style="fill:#1f77b4;stroke:#1f77b4;" x="92.912707" xlink:href="#m229df56dda" y="330.761997"/>
     <use style="fill:#1f77b4;stroke:#1f77b4;" x="167.321215" xlink:href="#m229df56dda" y="75.922933"/>
     <use style="fill:#1f77b4;stroke:#1f77b4;" x="169.260833" xlink:href="#m229df56dda" y="108.150164"/>
     <use style="fill:#1f77b4;stroke:#1f77b4;" x="158.54311" xlink:href="#m229df56dda" y="339.338725"/>
     <use style="fill:#1f77b4;stroke:#1f77b4;" x="198.889946" xlink:href="#m229df56dda" y="84.546571"/>
     <use style="fill:#1f77b4;stroke:#1f77b4;" x="239.70858" xlink:href="#m229df56dda" y="38.30104"/>
     <use style="fill:#1f77b4;stroke:#1f77b4;" x="241.682792" xlink:href="#m229df56dda" y="49.293638"/>
     <use style="fill:#1f77b4;stroke:#1f77b4;" x="233.749649" xlink:href="#m229df56dda" y="82.083791"/>
     <use style="fill:#1f77b4;stroke:#1f77b4;" x="107.570487" xlink:href="#m229df56dda" y="172.565536"/>
     <use style="fill:#1f77b4;stroke:#1f77b4;" x="238.810642" xlink:href="#m229df56dda" y="52.327157"/>
     <use style="fill:#1f77b4;stroke:#1f77b4;" x="109.025323" xlink:href="#m229df56dda" y="229.905303"/>
     <use style="fill:#1f77b4;stroke:#1f77b4;" x="149.186061" xlink:href="#m229df56dda" y="160.900561"/>
     <use style="fill:#1f77b4;stroke:#1f77b4;" x="176.648572" xlink:href="#m229df56dda" y="88.205558"/>
     <use style="fill:#1f77b4;stroke:#1f77b4;" x="198.20919" xlink:href="#m229df56dda" y="276.815393"/>
     <use style="fill:#1f77b4;stroke:#1f77b4;" x="184.752253" xlink:href="#m229df56dda" y="107.454331"/>
     <use style="fill:#1f77b4;stroke:#1f77b4;" x="191.503035" xlink:href="#m229df56dda" y="102.646047"/>
     <use style="fill:#1f77b4;stroke:#1f77b4;" x="102.061186" xlink:href="#m229df56dda" y="264.564041"/>
     <use style="fill:#1f77b4;stroke:#1f77b4;" x="59.226006" xlink:href="#m229df56dda" y="285.790857"/>
     <use style="fill:#1f77b4;stroke:#1f77b4;" x="116.156095" xlink:href="#m229df56dda" y="206.48935"/>
     <use style="fill:#1f77b4;stroke:#1f77b4;" x="123.373754" xlink:href="#m229df56dda" y="279.145261"/>
     <use style="fill:#1f77b4;stroke:#1f77b4;" x="241.901906" xlink:href="#m229df56dda" y="42.851319"/>
     <use style="fill:#1f77b4;stroke:#1f77b4;" x="79.637936" xlink:href="#m229df56dda" y="323.623845"/>
     <use style="fill:#1f77b4;stroke:#1f77b4;" x="115.921999" xlink:href="#m229df56dda" y="277.417406"/>
     <use style="fill:#1f77b4;stroke:#1f77b4;" x="200.134909" xlink:href="#m229df56dda" y="59.269851"/>
     <use style="fill:#1f77b4;stroke:#1f77b4;" x="159.909769" xlink:href="#m229df56dda" y="102.990055"/>
     <use style="fill:#1f77b4;stroke:#1f77b4;" x="174.142123" xlink:href="#m229df56dda" y="103.552976"/>
     <use style="fill:#1f77b4;stroke:#1f77b4;" x="93.398592" xlink:href="#m229df56dda" y="164.043537"/>
     <use style="fill:#1f77b4;stroke:#1f77b4;" x="41.192045" xlink:href="#m229df56dda" y="310.168467"/>
     <use style="fill:#1f77b4;stroke:#1f77b4;" x="147.09118" xlink:href="#m229df56dda" y="240.897901"/>
     <use style="fill:#1f77b4;stroke:#1f77b4;" x="187.302744" xlink:href="#m229df56dda" y="57.479449"/>
     <use style="fill:#1f77b4;stroke:#1f77b4;" x="111.880139" xlink:href="#m229df56dda" y="295.579429"/>
     <use style="fill:#1f77b4;stroke:#1f77b4;" x="204.428688" xlink:href="#m229df56dda" y="81.200318"/>
     <use style="fill:#1f77b4;stroke:#1f77b4;" x="184.214143" xlink:href="#m229df56dda" y="61.458988"/>
     <use style="fill:#1f77b4;stroke:#1f77b4;" x="222.789662" xlink:href="#m229df56dda" y="75.430377"/>
     <use style="fill:#1f77b4;stroke:#1f77b4;" x="240.704585" xlink:href="#m229df56dda" y="60.997706"/>
     <use style="fill:#1f77b4;stroke:#1f77b4;" x="124.180197" xlink:href="#m229df56dda" y="245.049444"/>
     <use style="fill:#1f77b4;stroke:#1f77b4;" x="167.929459" xlink:href="#m229df56dda" y="108.666175"/>
     <use style="fill:#1f77b4;stroke:#1f77b4;" x="173.351039" xlink:href="#m229df56dda" y="87.095352"/>
     <use style="fill:#1f77b4;stroke:#1f77b4;" x="164.776008" xlink:href="#m229df56dda" y="115.679234"/>
     <use style="fill:#1f77b4;stroke:#1f77b4;" x="165.847802" xlink:href="#m229df56dda" y="111.457326"/>
     <use style="fill:#1f77b4;stroke:#1f77b4;" x="196.824117" xlink:href="#m229df56dda" y="270.161979"/>
     <use style="fill:#1f77b4;stroke:#1f77b4;" x="75.683407" xlink:href="#m229df56dda" y="219.64763"/>
     <use style="fill:#1f77b4;stroke:#1f77b4;" x="78.741049" xlink:href="#m229df56dda" y="259.466478"/>
     <use style="fill:#1f77b4;stroke:#1f77b4;" x="238.212925" xlink:href="#m229df56dda" y="53.327906"/>
     <use style="fill:#1f77b4;stroke:#1f77b4;" x="234.670712" xlink:href="#m229df56dda" y="42.820046"/>
     <use style="fill:#1f77b4;stroke:#1f77b4;" x="200.243705" xlink:href="#m229df56dda" y="229.850575"/>
     <use style="fill:#1f77b4;stroke:#1f77b4;" x="82.277262" xlink:href="#m229df56dda" y="208.639396"/>
     <use style="fill:#1f77b4;stroke:#1f77b4;" x="236.906843" xlink:href="#m229df56dda" y="52.600799"/>
     <use style="fill:#1f77b4;stroke:#1f77b4;" x="105.642251" xlink:href="#m229df56dda" y="204.151664"/>
     <use style="fill:#1f77b4;stroke:#1f77b4;" x="230.505001" xlink:href="#m229df56dda" y="51.998787"/>
     <use style="fill:#1f77b4;stroke:#1f77b4;" x="161.752321" xlink:href="#m229df56dda" y="124.115232"/>
     <use style="fill:#1f77b4;stroke:#1f77b4;" x="91.541144" xlink:href="#m229df56dda" y="235.542332"/>
     <use style="fill:#1f77b4;stroke:#1f77b4;" x="71.487149" xlink:href="#m229df56dda" y="310.747025"/>
     <use style="fill:#1f77b4;stroke:#1f77b4;" x="101.536937" xlink:href="#m229df56dda" y="197.16206"/>
     <use style="fill:#1f77b4;stroke:#1f77b4;" x="146.125134" xlink:href="#m229df56dda" y="124.592151"/>
     <use style="fill:#1f77b4;stroke:#1f77b4;" x="245.592881" xlink:href="#m229df56dda" y="30.693787"/>
     <use style="fill:#1f77b4;stroke:#1f77b4;" x="213.015776" xlink:href="#m229df56dda" y="100.042537"/>
     <use style="fill:#1f77b4;stroke:#1f77b4;" x="241.744635" xlink:href="#m229df56dda" y="34.219862"/>
     <use style="fill:#1f77b4;stroke:#1f77b4;" x="130.910047" xlink:href="#m229df56dda" y="167.593067"/>
     <use style="fill:#1f77b4;stroke:#1f77b4;" x="146.035919" xlink:href="#m229df56dda" y="121.058258"/>
     <use style="fill:#1f77b4;stroke:#1f77b4;" x="194.922964" xlink:href="#m229df56dda" y="118.603296"/>
     <use style="fill:#1f77b4;stroke:#1f77b4;" x="155.643581" xlink:href="#m229df56dda" y="207.881016"/>
     <use style="fill:#1f77b4;stroke:#1f77b4;" x="246.56709" xlink:href="#m229df56dda" y="56.674159"/>
     <use style="fill:#1f77b4;stroke:#1f77b4;" x="227.375776" xlink:href="#m229df56dda" y="42.132031"/>
     <use style="fill:#1f77b4;stroke:#1f77b4;" x="232.018967" xlink:href="#m229df56dda" y="43.687882"/>
     <use style="fill:#1f77b4;stroke:#1f77b4;" x="175.949086" xlink:href="#m229df56dda" y="106.070484"/>
     <use style="fill:#1f77b4;stroke:#1f77b4;" x="236.243199" xlink:href="#m229df56dda" y="27.60554"/>
     <use style="fill:#1f77b4;stroke:#1f77b4;" x="156.086947" xlink:href="#m229df56dda" y="106.320671"/>
     <use style="fill:#1f77b4;stroke:#1f77b4;" x="109.648133" xlink:href="#m229df56dda" y="250.373739"/>
     <use style="fill:#1f77b4;stroke:#1f77b4;" x="113.148366" xlink:href="#m229df56dda" y="147.27318"/>
     <use style="fill:#1f77b4;stroke:#1f77b4;" x="223.707826" xlink:href="#m229df56dda" y="58.722566"/>
     <use style="fill:#1f77b4;stroke:#1f77b4;" x="252.785924" xlink:href="#m229df56dda" y="66.814557"/>
     <use style="fill:#1f77b4;stroke:#1f77b4;" x="190.647033" xlink:href="#m229df56dda" y="110.558216"/>
     <use style="fill:#1f77b4;stroke:#1f77b4;" x="112.530252" xlink:href="#m229df56dda" y="340.425476"/>
     <use style="fill:#1f77b4;stroke:#1f77b4;" x="57.708197" xlink:href="#m229df56dda" y="316.298053"/>
     <use style="fill:#1f77b4;stroke:#1f77b4;" x="196.495554" xlink:href="#m229df56dda" y="95.242071"/>
     <use style="fill:#1f77b4;stroke:#1f77b4;" x="95.776502" xlink:href="#m229df56dda" y="208.678487"/>
     <use style="fill:#1f77b4;stroke:#1f77b4;" x="82.636749" xlink:href="#m229df56dda" y="295.774888"/>
     <use style="fill:#1f77b4;stroke:#1f77b4;" x="197.820147" xlink:href="#m229df56dda" y="92.982569"/>
     <use style="fill:#1f77b4;stroke:#1f77b4;" x="95.690151" xlink:href="#m229df56dda" y="247.582589"/>
     <use style="fill:#1f77b4;stroke:#1f77b4;" x="118.249436" xlink:href="#m229df56dda" y="171.768065"/>
     <use style="fill:#1f77b4;stroke:#1f77b4;" x="192.554359" xlink:href="#m229df56dda" y="104.24099"/>
     <use style="fill:#1f77b4;stroke:#1f77b4;" x="196.221687" xlink:href="#m229df56dda" y="77.705516"/>
     <use style="fill:#1f77b4;stroke:#1f77b4;" x="140.506689" xlink:href="#m229df56dda" y="151.135444"/>
     <use style="fill:#1f77b4;stroke:#1f77b4;" x="185.597882" xlink:href="#m229df56dda" y="90.621427"/>
     <use style="fill:#1f77b4;stroke:#1f77b4;" x="149.164919" xlink:href="#m229df56dda" y="117.039627"/>
     <use style="fill:#1f77b4;stroke:#1f77b4;" x="85.985674" xlink:href="#m229df56dda" y="344.412833"/>
     <use style="fill:#1f77b4;stroke:#1f77b4;" x="91.599891" xlink:href="#m229df56dda" y="188.147505"/>
     <use style="fill:#1f77b4;stroke:#1f77b4;" x="158.661647" xlink:href="#m229df56dda" y="259.787031"/>
     <use style="fill:#1f77b4;stroke:#1f77b4;" x="97.573036" xlink:href="#m229df56dda" y="174.731219"/>
     <use style="fill:#1f77b4;stroke:#1f77b4;" x="242.44111" xlink:href="#m229df56dda" y="49.817467"/>
     <use style="fill:#1f77b4;stroke:#1f77b4;" x="226.826371" xlink:href="#m229df56dda" y="46.361757"/>
     <use style="fill:#1f77b4;stroke:#1f77b4;" x="135.619436" xlink:href="#m229df56dda" y="103.474792"/>
     <use style="fill:#1f77b4;stroke:#1f77b4;" x="74.266541" xlink:href="#m229df56dda" y="228.818553"/>
     <use style="fill:#1f77b4;stroke:#1f77b4;" x="122.802816" xlink:href="#m229df56dda" y="307.064583"/>
     <use style="fill:#1f77b4;stroke:#1f77b4;" x="254.532955" xlink:href="#m229df56dda" y="46.424304"/>
     <use style="fill:#1f77b4;stroke:#1f77b4;" x="221.846344" xlink:href="#m229df56dda" y="82.044699"/>
     <use style="fill:#1f77b4;stroke:#1f77b4;" x="133.413993" xlink:href="#m229df56dda" y="161.455663"/>
     <use style="fill:#1f77b4;stroke:#1f77b4;" x="187.997565" xlink:href="#m229df56dda" y="82.849989"/>
     <use style="fill:#1f77b4;stroke:#1f77b4;" x="152.801024" xlink:href="#m229df56dda" y="112.442438"/>
     <use style="fill:#1f77b4;stroke:#1f77b4;" x="176.441263" xlink:href="#m229df56dda" y="115.030311"/>
     <use style="fill:#1f77b4;stroke:#1f77b4;" x="141.747586" xlink:href="#m229df56dda" y="112.942812"/>
     <use style="fill:#1f77b4;stroke:#1f77b4;" x="206.544286" xlink:href="#m229df56dda" y="82.646712"/>
     <use style="fill:#1f77b4;stroke:#1f77b4;" x="218.370138" xlink:href="#m229df56dda" y="62.827199"/>
     <use style="fill:#1f77b4;stroke:#1f77b4;" x="215.928069" xlink:href="#m229df56dda" y="57.760909"/>
     <use style="fill:#1f77b4;stroke:#1f77b4;" x="177.868106" xlink:href="#m229df56dda" y="75.774384"/>
     <use style="fill:#1f77b4;stroke:#1f77b4;" x="191.992386" xlink:href="#m229df56dda" y="106.781953"/>
     <use style="fill:#1f77b4;stroke:#1f77b4;" x="87.909892" xlink:href="#m229df56dda" y="311.888504"/>
     <use style="fill:#1f77b4;stroke:#1f77b4;" x="113.286931" xlink:href="#m229df56dda" y="161.103838"/>
     <use style="fill:#1f77b4;stroke:#1f77b4;" x="220.60752" xlink:href="#m229df56dda" y="104.428631"/>
     <use style="fill:#1f77b4;stroke:#1f77b4;" x="116.124689" xlink:href="#m229df56dda" y="180.383885"/>
     <use style="fill:#1f77b4;stroke:#1f77b4;" x="187.902367" xlink:href="#m229df56dda" y="94.851154"/>
     <use style="fill:#1f77b4;stroke:#1f77b4;" x="87.883752" xlink:href="#m229df56dda" y="340.613116"/>
     <use style="fill:#1f77b4;stroke:#1f77b4;" x="252.643086" xlink:href="#m229df56dda" y="48.175614"/>
     <use style="fill:#1f77b4;stroke:#1f77b4;" x="214.518585" xlink:href="#m229df56dda" y="89.683226"/>
     <use style="fill:#1f77b4;stroke:#1f77b4;" x="227.76914" xlink:href="#m229df56dda" y="64.171955"/>
     <use style="fill:#1f77b4;stroke:#1f77b4;" x="90.813391" xlink:href="#m229df56dda" y="296.90073"/>
     <use style="fill:#1f77b4;stroke:#1f77b4;" x="185.66796" xlink:href="#m229df56dda" y="287.675079"/>
     <use style="fill:#1f77b4;stroke:#1f77b4;" x="232.379656" xlink:href="#m229df56dda" y="40.599635"/>
     <use style="fill:#1f77b4;stroke:#1f77b4;" x="150.750053" xlink:href="#m229df56dda" y="107.407421"/>
     <use style="fill:#1f77b4;stroke:#1f77b4;" x="133.357817" xlink:href="#m229df56dda" y="215.613362"/>
     <use style="fill:#1f77b4;stroke:#1f77b4;" x="156.032419" xlink:href="#m229df56dda" y="363.716335"/>
     <use style="fill:#1f77b4;stroke:#1f77b4;" x="239.014419" xlink:href="#m229df56dda" y="41.045281"/>
     <use style="fill:#1f77b4;stroke:#1f77b4;" x="243.226409" xlink:href="#m229df56dda" y="34.65769"/>
     <use style="fill:#1f77b4;stroke:#1f77b4;" x="152.916416" xlink:href="#m229df56dda" y="93.748767"/>
     <use style="fill:#1f77b4;stroke:#1f77b4;" x="232.232534" xlink:href="#m229df56dda" y="60.466058"/>
     <use style="fill:#1f77b4;stroke:#1f77b4;" x="98.176913" xlink:href="#m229df56dda" y="262.828368"/>
     <use style="fill:#1f77b4;stroke:#1f77b4;" x="176.715419" xlink:href="#m229df56dda" y="121.324081"/>
     <use style="fill:#1f77b4;stroke:#1f77b4;" x="88.847699" xlink:href="#m229df56dda" y="216.676658"/>
     <use style="fill:#1f77b4;stroke:#1f77b4;" x="213.014781" xlink:href="#m229df56dda" y="127.555305"/>
     <use style="fill:#1f77b4;stroke:#1f77b4;" x="174.646472" xlink:href="#m229df56dda" y="95.468803"/>
     <use style="fill:#1f77b4;stroke:#1f77b4;" x="181.89593" xlink:href="#m229df56dda" y="112.246979"/>
     <use style="fill:#1f77b4;stroke:#1f77b4;" x="96.231578" xlink:href="#m229df56dda" y="270.451258"/>
     <use style="fill:#1f77b4;stroke:#1f77b4;" x="238.208184" xlink:href="#m229df56dda" y="52.452251"/>
     <use style="fill:#1f77b4;stroke:#1f77b4;" x="248.808745" xlink:href="#m229df56dda" y="61.701357"/>
     <use style="fill:#1f77b4;stroke:#1f77b4;" x="191.234868" xlink:href="#m229df56dda" y="76.227848"/>
     <use style="fill:#1f77b4;stroke:#1f77b4;" x="194.243564" xlink:href="#m229df56dda" y="96.844833"/>
     <use style="fill:#1f77b4;stroke:#1f77b4;" x="130.731087" xlink:href="#m229df56dda" y="92.920022"/>
     <use style="fill:#1f77b4;stroke:#1f77b4;" x="139.559135" xlink:href="#m229df56dda" y="99.385796"/>
     <use style="fill:#1f77b4;stroke:#1f77b4;" x="127.925534" xlink:href="#m229df56dda" y="183.229764"/>
     <use style="fill:#1f77b4;stroke:#1f77b4;" x="103.854713" xlink:href="#m229df56dda" y="342.051692"/>
     <use style="fill:#1f77b4;stroke:#1f77b4;" x="62.856519" xlink:href="#m229df56dda" y="333.428054"/>
    </g>
   </g>
   <g id="matplotlib.axis_1">
    <g id="xtick_1">
     <g id="line2d_1">
      <defs>
       <path d="M 0 0 
L 0 3.5 
" id="mb43700fdc1" style="stroke:#000000;stroke-width:0.8;"/>
      </defs>
      <g>
       <use style="stroke:#000000;stroke-width:0.8;" x="93.972994" xlink:href="#mb43700fdc1" y="380.521875"/>
      </g>
     </g>
     <g id="text_1">
      <!-- $\mathdefault{10^{3}}$ -->
      <g transform="translate(85.172994 395.120313)scale(0.1 -0.1)">
       <defs>
        <path d="M 794 531 
L 1825 531 
L 1825 4091 
L 703 3866 
L 703 4441 
L 1819 4666 
L 2450 4666 
L 2450 531 
L 3481 531 
L 3481 0 
L 794 0 
L 794 531 
z
" id="DejaVuSans-31" transform="scale(0.015625)"/>
        <path d="M 2034 4250 
Q 1547 4250 1301 3770 
Q 1056 3291 1056 2328 
Q 1056 1369 1301 889 
Q 1547 409 2034 409 
Q 2525 409 2770 889 
Q 3016 1369 3016 2328 
Q 3016 3291 2770 3770 
Q 2525 4250 2034 4250 
z
M 2034 4750 
Q 2819 4750 3233 4129 
Q 3647 3509 3647 2328 
Q 3647 1150 3233 529 
Q 2819 -91 2034 -91 
Q 1250 -91 836 529 
Q 422 1150 422 2328 
Q 422 3509 836 4129 
Q 1250 4750 2034 4750 
z
" id="DejaVuSans-30" transform="scale(0.015625)"/>
        <path d="M 2597 2516 
Q 3050 2419 3304 2112 
Q 3559 1806 3559 1356 
Q 3559 666 3084 287 
Q 2609 -91 1734 -91 
Q 1441 -91 1130 -33 
Q 819 25 488 141 
L 488 750 
Q 750 597 1062 519 
Q 1375 441 1716 441 
Q 2309 441 2620 675 
Q 2931 909 2931 1356 
Q 2931 1769 2642 2001 
Q 2353 2234 1838 2234 
L 1294 2234 
L 1294 2753 
L 1863 2753 
Q 2328 2753 2575 2939 
Q 2822 3125 2822 3475 
Q 2822 3834 2567 4026 
Q 2313 4219 1838 4219 
Q 1578 4219 1281 4162 
Q 984 4106 628 3988 
L 628 4550 
Q 988 4650 1302 4700 
Q 1616 4750 1894 4750 
Q 2613 4750 3031 4423 
Q 3450 4097 3450 3541 
Q 3450 3153 3228 2886 
Q 3006 2619 2597 2516 
z
" id="DejaVuSans-33" transform="scale(0.015625)"/>
       </defs>
       <use transform="translate(0 0.765625)" xlink:href="#DejaVuSans-31"/>
       <use transform="translate(63.623047 0.765625)" xlink:href="#DejaVuSans-30"/>
       <use transform="translate(128.203125 39.046875)scale(0.7)" xlink:href="#DejaVuSans-33"/>
      </g>
     </g>
    </g>
    <g id="xtick_2">
     <g id="line2d_2">
      <g>
       <use style="stroke:#000000;stroke-width:0.8;" x="188.790911" xlink:href="#mb43700fdc1" y="380.521875"/>
      </g>
     </g>
     <g id="text_2">
      <!-- $\mathdefault{10^{4}}$ -->
      <g transform="translate(179.990911 395.120313)scale(0.1 -0.1)">
       <defs>
        <path d="M 2419 4116 
L 825 1625 
L 2419 1625 
L 2419 4116 
z
M 2253 4666 
L 3047 4666 
L 3047 1625 
L 3713 1625 
L 3713 1100 
L 3047 1100 
L 3047 0 
L 2419 0 
L 2419 1100 
L 313 1100 
L 313 1709 
L 2253 4666 
z
" id="DejaVuSans-34" transform="scale(0.015625)"/>
       </defs>
       <use transform="translate(0 0.684375)" xlink:href="#DejaVuSans-31"/>
       <use transform="translate(63.623047 0.684375)" xlink:href="#DejaVuSans-30"/>
       <use transform="translate(128.203125 38.965625)scale(0.7)" xlink:href="#DejaVuSans-34"/>
      </g>
     </g>
    </g>
    <g id="xtick_3">
     <g id="line2d_3">
      <defs>
       <path d="M 0 0 
L 0 2 
" id="md1f72976cb" style="stroke:#000000;stroke-width:0.6;"/>
      </defs>
      <g>
       <use style="stroke:#000000;stroke-width:0.6;" x="44.394721" xlink:href="#md1f72976cb" y="380.521875"/>
      </g>
     </g>
    </g>
    <g id="xtick_4">
     <g id="line2d_4">
      <g>
       <use style="stroke:#000000;stroke-width:0.6;" x="56.241152" xlink:href="#md1f72976cb" y="380.521875"/>
      </g>
     </g>
    </g>
    <g id="xtick_5">
     <g id="line2d_5">
      <g>
       <use style="stroke:#000000;stroke-width:0.6;" x="65.429957" xlink:href="#md1f72976cb" y="380.521875"/>
      </g>
     </g>
    </g>
    <g id="xtick_6">
     <g id="line2d_6">
      <g>
       <use style="stroke:#000000;stroke-width:0.6;" x="72.937758" xlink:href="#md1f72976cb" y="380.521875"/>
      </g>
     </g>
    </g>
    <g id="xtick_7">
     <g id="line2d_7">
      <g>
       <use style="stroke:#000000;stroke-width:0.6;" x="79.285513" xlink:href="#md1f72976cb" y="380.521875"/>
      </g>
     </g>
    </g>
    <g id="xtick_8">
     <g id="line2d_8">
      <g>
       <use style="stroke:#000000;stroke-width:0.6;" x="84.784189" xlink:href="#md1f72976cb" y="380.521875"/>
      </g>
     </g>
    </g>
    <g id="xtick_9">
     <g id="line2d_9">
      <g>
       <use style="stroke:#000000;stroke-width:0.6;" x="89.634365" xlink:href="#md1f72976cb" y="380.521875"/>
      </g>
     </g>
    </g>
    <g id="xtick_10">
     <g id="line2d_10">
      <g>
       <use style="stroke:#000000;stroke-width:0.6;" x="122.516032" xlink:href="#md1f72976cb" y="380.521875"/>
      </g>
     </g>
    </g>
    <g id="xtick_11">
     <g id="line2d_11">
      <g>
       <use style="stroke:#000000;stroke-width:0.6;" x="139.212638" xlink:href="#md1f72976cb" y="380.521875"/>
      </g>
     </g>
    </g>
    <g id="xtick_12">
     <g id="line2d_12">
      <g>
       <use style="stroke:#000000;stroke-width:0.6;" x="151.059069" xlink:href="#md1f72976cb" y="380.521875"/>
      </g>
     </g>
    </g>
    <g id="xtick_13">
     <g id="line2d_13">
      <g>
       <use style="stroke:#000000;stroke-width:0.6;" x="160.247874" xlink:href="#md1f72976cb" y="380.521875"/>
      </g>
     </g>
    </g>
    <g id="xtick_14">
     <g id="line2d_14">
      <g>
       <use style="stroke:#000000;stroke-width:0.6;" x="167.755675" xlink:href="#md1f72976cb" y="380.521875"/>
      </g>
     </g>
    </g>
    <g id="xtick_15">
     <g id="line2d_15">
      <g>
       <use style="stroke:#000000;stroke-width:0.6;" x="174.10343" xlink:href="#md1f72976cb" y="380.521875"/>
      </g>
     </g>
    </g>
    <g id="xtick_16">
     <g id="line2d_16">
      <g>
       <use style="stroke:#000000;stroke-width:0.6;" x="179.602106" xlink:href="#md1f72976cb" y="380.521875"/>
      </g>
     </g>
    </g>
    <g id="xtick_17">
     <g id="line2d_17">
      <g>
       <use style="stroke:#000000;stroke-width:0.6;" x="184.452281" xlink:href="#md1f72976cb" y="380.521875"/>
      </g>
     </g>
    </g>
    <g id="xtick_18">
     <g id="line2d_18">
      <g>
       <use style="stroke:#000000;stroke-width:0.6;" x="217.333948" xlink:href="#md1f72976cb" y="380.521875"/>
      </g>
     </g>
    </g>
    <g id="xtick_19">
     <g id="line2d_19">
      <g>
       <use style="stroke:#000000;stroke-width:0.6;" x="234.030555" xlink:href="#md1f72976cb" y="380.521875"/>
      </g>
     </g>
    </g>
    <g id="xtick_20">
     <g id="line2d_20">
      <g>
       <use style="stroke:#000000;stroke-width:0.6;" x="245.876986" xlink:href="#md1f72976cb" y="380.521875"/>
      </g>
     </g>
    </g>
    <g id="xtick_21">
     <g id="line2d_21">
      <g>
       <use style="stroke:#000000;stroke-width:0.6;" x="255.065791" xlink:href="#md1f72976cb" y="380.521875"/>
      </g>
     </g>
    </g>
    <g id="xtick_22">
     <g id="line2d_22">
      <g>
       <use style="stroke:#000000;stroke-width:0.6;" x="262.573592" xlink:href="#md1f72976cb" y="380.521875"/>
      </g>
     </g>
    </g>
   </g>
   <g id="matplotlib.axis_2">
    <g id="ytick_1">
     <g id="line2d_23">
      <defs>
       <path d="M 0 0 
L -3.5 0 
" id="m811076d63e" style="stroke:#000000;stroke-width:0.8;"/>
      </defs>
      <g>
       <use style="stroke:#000000;stroke-width:0.8;" x="30.525" xlink:href="#m811076d63e" y="360.690634"/>
      </g>
     </g>
     <g id="text_3">
      <!-- 40 -->
      <g transform="translate(10.8 364.489853)scale(0.1 -0.1)">
       <use xlink:href="#DejaVuSans-34"/>
       <use x="63.623047" xlink:href="#DejaVuSans-30"/>
      </g>
     </g>
    </g>
    <g id="ytick_2">
     <g id="line2d_24">
      <g>
       <use style="stroke:#000000;stroke-width:0.8;" x="30.525" xlink:href="#m811076d63e" y="282.507151"/>
      </g>
     </g>
     <g id="text_4">
      <!-- 50 -->
      <g transform="translate(10.8 286.30637)scale(0.1 -0.1)">
       <defs>
        <path d="M 691 4666 
L 3169 4666 
L 3169 4134 
L 1269 4134 
L 1269 2991 
Q 1406 3038 1543 3061 
Q 1681 3084 1819 3084 
Q 2600 3084 3056 2656 
Q 3513 2228 3513 1497 
Q 3513 744 3044 326 
Q 2575 -91 1722 -91 
Q 1428 -91 1123 -41 
Q 819 9 494 109 
L 494 744 
Q 775 591 1075 516 
Q 1375 441 1709 441 
Q 2250 441 2565 725 
Q 2881 1009 2881 1497 
Q 2881 1984 2565 2268 
Q 2250 2553 1709 2553 
Q 1456 2553 1204 2497 
Q 953 2441 691 2322 
L 691 4666 
z
" id="DejaVuSans-35" transform="scale(0.015625)"/>
       </defs>
       <use xlink:href="#DejaVuSans-35"/>
       <use x="63.623047" xlink:href="#DejaVuSans-30"/>
      </g>
     </g>
    </g>
    <g id="ytick_3">
     <g id="line2d_25">
      <g>
       <use style="stroke:#000000;stroke-width:0.8;" x="30.525" xlink:href="#m811076d63e" y="204.323667"/>
      </g>
     </g>
     <g id="text_5">
      <!-- 60 -->
      <g transform="translate(10.8 208.122886)scale(0.1 -0.1)">
       <defs>
        <path d="M 2113 2584 
Q 1688 2584 1439 2293 
Q 1191 2003 1191 1497 
Q 1191 994 1439 701 
Q 1688 409 2113 409 
Q 2538 409 2786 701 
Q 3034 994 3034 1497 
Q 3034 2003 2786 2293 
Q 2538 2584 2113 2584 
z
M 3366 4563 
L 3366 3988 
Q 3128 4100 2886 4159 
Q 2644 4219 2406 4219 
Q 1781 4219 1451 3797 
Q 1122 3375 1075 2522 
Q 1259 2794 1537 2939 
Q 1816 3084 2150 3084 
Q 2853 3084 3261 2657 
Q 3669 2231 3669 1497 
Q 3669 778 3244 343 
Q 2819 -91 2113 -91 
Q 1303 -91 875 529 
Q 447 1150 447 2328 
Q 447 3434 972 4092 
Q 1497 4750 2381 4750 
Q 2619 4750 2861 4703 
Q 3103 4656 3366 4563 
z
" id="DejaVuSans-36" transform="scale(0.015625)"/>
       </defs>
       <use xlink:href="#DejaVuSans-36"/>
       <use x="63.623047" xlink:href="#DejaVuSans-30"/>
      </g>
     </g>
    </g>
    <g id="ytick_4">
     <g id="line2d_26">
      <g>
       <use style="stroke:#000000;stroke-width:0.8;" x="30.525" xlink:href="#m811076d63e" y="126.140184"/>
      </g>
     </g>
     <g id="text_6">
      <!-- 70 -->
      <g transform="translate(10.8 129.939403)scale(0.1 -0.1)">
       <defs>
        <path d="M 525 4666 
L 3525 4666 
L 3525 4397 
L 1831 0 
L 1172 0 
L 2766 4134 
L 525 4134 
L 525 4666 
z
" id="DejaVuSans-37" transform="scale(0.015625)"/>
       </defs>
       <use xlink:href="#DejaVuSans-37"/>
       <use x="63.623047" xlink:href="#DejaVuSans-30"/>
      </g>
     </g>
    </g>
    <g id="ytick_5">
     <g id="line2d_27">
      <g>
       <use style="stroke:#000000;stroke-width:0.8;" x="30.525" xlink:href="#m811076d63e" y="47.956701"/>
      </g>
     </g>
     <g id="text_7">
      <!-- 80 -->
      <g transform="translate(10.8 51.755919)scale(0.1 -0.1)">
       <defs>
        <path d="M 2034 2216 
Q 1584 2216 1326 1975 
Q 1069 1734 1069 1313 
Q 1069 891 1326 650 
Q 1584 409 2034 409 
Q 2484 409 2743 651 
Q 3003 894 3003 1313 
Q 3003 1734 2745 1975 
Q 2488 2216 2034 2216 
z
M 1403 2484 
Q 997 2584 770 2862 
Q 544 3141 544 3541 
Q 544 4100 942 4425 
Q 1341 4750 2034 4750 
Q 2731 4750 3128 4425 
Q 3525 4100 3525 3541 
Q 3525 3141 3298 2862 
Q 3072 2584 2669 2484 
Q 3125 2378 3379 2068 
Q 3634 1759 3634 1313 
Q 3634 634 3220 271 
Q 2806 -91 2034 -91 
Q 1263 -91 848 271 
Q 434 634 434 1313 
Q 434 1759 690 2068 
Q 947 2378 1403 2484 
z
M 1172 3481 
Q 1172 3119 1398 2916 
Q 1625 2713 2034 2713 
Q 2441 2713 2670 2916 
Q 2900 3119 2900 3481 
Q 2900 3844 2670 4047 
Q 2441 4250 2034 4250 
Q 1625 4250 1398 4047 
Q 1172 3844 1172 3481 
z
" id="DejaVuSans-38" transform="scale(0.015625)"/>
       </defs>
       <use xlink:href="#DejaVuSans-38"/>
       <use x="63.623047" xlink:href="#DejaVuSans-30"/>
      </g>
     </g>
    </g>
   </g>
   <g id="patch_3">
    <path d="M 30.525 380.521875 
L 30.525 10.8 
" style="fill:none;stroke:#000000;stroke-linecap:square;stroke-linejoin:miter;stroke-width:0.8;"/>
   </g>
   <g id="patch_4">
    <path d="M 265.2 380.521875 
L 265.2 10.8 
" style="fill:none;stroke:#000000;stroke-linecap:square;stroke-linejoin:miter;stroke-width:0.8;"/>
   </g>
   <g id="patch_5">
    <path d="M 30.525 380.521875 
L 265.2 380.521875 
" style="fill:none;stroke:#000000;stroke-linecap:square;stroke-linejoin:miter;stroke-width:0.8;"/>
   </g>
   <g id="patch_6">
    <path d="M 30.525 10.8 
L 265.2 10.8 
" style="fill:none;stroke:#000000;stroke-linecap:square;stroke-linejoin:miter;stroke-width:0.8;"/>
   </g>
  </g>
 </g>
 <defs>
  <clipPath id="p48542e5907">
   <rect height="369.721875" width="234.675" x="30.525" y="10.8"/>
  </clipPath>
 </defs>
</svg>
