<?xml version="1.0" encoding="utf-8" standalone="no"?>
<!DOCTYPE svg PUBLIC "-//W3C//DTD SVG 1.1//EN"
  "http://www.w3.org/Graphics/SVG/1.1/DTD/svg11.dtd">
<svg height="407pt" version="1.1" viewBox="0 0 562 407" width="562pt" xmlns="http://www.w3.org/2000/svg" xmlns:xlink="http://www.w3.org/1999/xlink">
 <metadata>
  <rdf:RDF xmlns:cc="http://creativecommons.org/ns#" xmlns:dc="http://purl.org/dc/elements/1.1/" xmlns:rdf="http://www.w3.org/1999/02/22-rdf-syntax-ns#">
   <cc:Work>
    <dc:type rdf:resource="http://purl.org/dc/dcmitype/StillImage"/>
    <dc:date>2025-02-21T21:33:24.222999</dc:date>
    <dc:format>image/svg+xml</dc:format>
    <dc:creator>
     <cc:Agent>
      <dc:title>Matplotlib v3.4.3, https://matplotlib.org/</dc:title>
     </cc:Agent>
    </dc:creator>
   </cc:Work>
  </rdf:RDF>
 </metadata>
 <defs>
  <style type="text/css">*{stroke-linecap:butt;stroke-linejoin:round;}</style>
 </defs>
 <g id="figure_1">
  <g id="patch_1">
   <path d="M 0 407 
L 562 407 
L 562 0 
L 0 0 
z
" style="fill:#ffffff;"/>
  </g>
  <g id="axes_1">
   <g id="patch_2">
    <path d="M 36.8875 379.521875 
L 551.2 379.521875 
L 551.2 10.8 
L 36.8875 10.8 
z
" style="fill:#ffffff;"/>
   </g>
   <g id="PathCollection_1">
    <defs>
     <path d="M 0 3 
C 0.795609 3 1.55874 2.683901 2.12132 2.12132 
C 2.683901 1.55874 3 0.795609 3 0 
C 3 -0.795609 2.683901 -1.55874 2.12132 -2.12132 
C 1.55874 -2.683901 0.795609 -3 0 -3 
C -0.795609 -3 -1.55874 -2.683901 -2.12132 -2.12132 
C -2.683901 -1.55874 -3 -0.795609 -3 0 
C -3 0.795609 -2.683901 1.55874 -2.12132 2.12132 
C -1.55874 2.683901 -0.795609 3 0 3 
z
" id="m4e49f60eb5" style="stroke:#ffffff;stroke-width:0.48;"/>
    </defs>
    <g clip-path="url(#p704cf5215c)">
     <use style="fill:#1f77b4;stroke:#ffffff;stroke-width:0.48;" x="61.978003" xlink:href="#m4e49f60eb5" y="287.910924"/>
     <use style="fill:#1f77b4;stroke:#ffffff;stroke-width:0.48;" x="94.518588" xlink:href="#m4e49f60eb5" y="82.47784"/>
     <use style="fill:#1f77b4;stroke:#ffffff;stroke-width:0.48;" x="107.363555" xlink:href="#m4e49f60eb5" y="149.599541"/>
     <use style="fill:#1f77b4;stroke:#ffffff;stroke-width:0.48;" x="124.490179" xlink:href="#m4e49f60eb5" y="39.764031"/>
     <use style="fill:#1f77b4;stroke:#ffffff;stroke-width:0.48;" x="218.686607" xlink:href="#m4e49f60eb5" y="27.560085"/>
     <use style="fill:#1f77b4;stroke:#ffffff;stroke-width:0.48;" x="72.253977" xlink:href="#m4e49f60eb5" y="263.503033"/>
     <use style="fill:#1f77b4;stroke:#ffffff;stroke-width:0.48;" x="129.628166" xlink:href="#m4e49f60eb5" y="47.899994"/>
     <use style="fill:#1f77b4;stroke:#ffffff;stroke-width:0.48;" x="150.180114" xlink:href="#m4e49f60eb5" y="72.307886"/>
     <use style="fill:#1f77b4;stroke:#ffffff;stroke-width:0.48;" x="151.892776" xlink:href="#m4e49f60eb5" y="39.357233"/>
     <use style="fill:#1f77b4;stroke:#ffffff;stroke-width:0.48;" x="85.955276" xlink:href="#m4e49f60eb5" y="33.25526"/>
     <use style="fill:#1f77b4;stroke:#ffffff;stroke-width:0.48;" x="295.756412" xlink:href="#m4e49f60eb5" y="39.764031"/>
     <use style="fill:#1f77b4;stroke:#ffffff;stroke-width:0.48;" x="304.319724" xlink:href="#m4e49f60eb5" y="27.560085"/>
     <use style="fill:#1f77b4;stroke:#ffffff;stroke-width:0.48;" x="312.883036" xlink:href="#m4e49f60eb5" y="35.696049"/>
     <use style="fill:#1f77b4;stroke:#ffffff;stroke-width:0.48;" x="85.098945" xlink:href="#m4e49f60eb5" y="39.764031"/>
     <use style="fill:#1f77b4;stroke:#ffffff;stroke-width:0.48;" x="198.99099" xlink:href="#m4e49f60eb5" y="45.459205"/>
     <use style="fill:#1f77b4;stroke:#ffffff;stroke-width:0.48;" x="200.703653" xlink:href="#m4e49f60eb5" y="71.901087"/>
     <use style="fill:#1f77b4;stroke:#ffffff;stroke-width:0.48;" x="72.253977" xlink:href="#m4e49f60eb5" y="259.028253"/>
     <use style="fill:#1f77b4;stroke:#ffffff;stroke-width:0.48;" x="190.427679" xlink:href="#m4e49f60eb5" y="38.136838"/>
     <use style="fill:#1f77b4;stroke:#ffffff;stroke-width:0.48;" x="108.219886" xlink:href="#m4e49f60eb5" y="29.187278"/>
     <use style="fill:#1f77b4;stroke:#ffffff;stroke-width:0.48;" x="305.176055" xlink:href="#m4e49f60eb5" y="35.696049"/>
     <use style="fill:#1f77b4;stroke:#ffffff;stroke-width:0.48;" x="97.943912" xlink:href="#m4e49f60eb5" y="51.561178"/>
     <use style="fill:#1f77b4;stroke:#ffffff;stroke-width:0.48;" x="65.403328" xlink:href="#m4e49f60eb5" y="267.977813"/>
     <use style="fill:#1f77b4;stroke:#ffffff;stroke-width:0.48;" x="364.262906" xlink:href="#m4e49f60eb5" y="35.696049"/>
     <use style="fill:#1f77b4;stroke:#ffffff;stroke-width:0.48;" x="67.11599" xlink:href="#m4e49f60eb5" y="262.689436"/>
     <use style="fill:#1f77b4;stroke:#ffffff;stroke-width:0.48;" x="76.535633" xlink:href="#m4e49f60eb5" y="79.630253"/>
     <use style="fill:#1f77b4;stroke:#ffffff;stroke-width:0.48;" x="133.05349" xlink:href="#m4e49f60eb5" y="109.733319"/>
     <use style="fill:#1f77b4;stroke:#ffffff;stroke-width:0.48;" x="121.064854" xlink:href="#m4e49f60eb5" y="82.884638"/>
     <use style="fill:#1f77b4;stroke:#ffffff;stroke-width:0.48;" x="192.996672" xlink:href="#m4e49f60eb5" y="36.509645"/>
     <use style="fill:#1f77b4;stroke:#ffffff;stroke-width:0.48;" x="215.261282" xlink:href="#m4e49f60eb5" y="52.374775"/>
     <use style="fill:#1f77b4;stroke:#ffffff;stroke-width:0.48;" x="121.064854" xlink:href="#m4e49f60eb5" y="33.25526"/>
     <use style="fill:#1f77b4;stroke:#ffffff;stroke-width:0.48;" x="65.403328" xlink:href="#m4e49f60eb5" y="326.149953"/>
     <use style="fill:#1f77b4;stroke:#ffffff;stroke-width:0.48;" x="71.397646" xlink:href="#m4e49f60eb5" y="87.359418"/>
     <use style="fill:#1f77b4;stroke:#ffffff;stroke-width:0.48;" x="61.121672" xlink:href="#m4e49f60eb5" y="224.450407"/>
     <use style="fill:#1f77b4;stroke:#ffffff;stroke-width:0.48;" x="72.253977" xlink:href="#m4e49f60eb5" y="152.04033"/>
     <use style="fill:#1f77b4;stroke:#ffffff;stroke-width:0.48;" x="71.397646" xlink:href="#m4e49f60eb5" y="112.987704"/>
     <use style="fill:#1f77b4;stroke:#ffffff;stroke-width:0.48;" x="311.170373" xlink:href="#m4e49f60eb5" y="39.764031"/>
     <use style="fill:#1f77b4;stroke:#ffffff;stroke-width:0.48;" x="67.972321" xlink:href="#m4e49f60eb5" y="122.750861"/>
     <use style="fill:#1f77b4;stroke:#ffffff;stroke-width:0.48;" x="355.699594" xlink:href="#m4e49f60eb5" y="35.696049"/>
     <use style="fill:#1f77b4;stroke:#ffffff;stroke-width:0.48;" x="65.403328" xlink:href="#m4e49f60eb5" y="226.891196"/>
     <use style="fill:#1f77b4;stroke:#ffffff;stroke-width:0.48;" x="66.259659" xlink:href="#m4e49f60eb5" y="241.129132"/>
     <use style="fill:#1f77b4;stroke:#ffffff;stroke-width:0.48;" x="140.760471" xlink:href="#m4e49f60eb5" y="43.018416"/>
     <use style="fill:#1f77b4;stroke:#ffffff;stroke-width:0.48;" x="98.800244" xlink:href="#m4e49f60eb5" y="64.57872"/>
     <use style="fill:#1f77b4;stroke:#ffffff;stroke-width:0.48;" x="109.932549" xlink:href="#m4e49f60eb5" y="58.069949"/>
     <use style="fill:#1f77b4;stroke:#ffffff;stroke-width:0.48;" x="61.978003" xlink:href="#m4e49f60eb5" y="204.517296"/>
     <use style="fill:#1f77b4;stroke:#ffffff;stroke-width:0.48;" x="61.978003" xlink:href="#m4e49f60eb5" y="167.905459"/>
     <use style="fill:#1f77b4;stroke:#ffffff;stroke-width:0.48;" x="61.978003" xlink:href="#m4e49f60eb5" y="93.461391"/>
     <use style="fill:#1f77b4;stroke:#ffffff;stroke-width:0.48;" x="98.800244" xlink:href="#m4e49f60eb5" y="47.899994"/>
     <use style="fill:#1f77b4;stroke:#ffffff;stroke-width:0.48;" x="133.909821" xlink:href="#m4e49f60eb5" y="43.832013"/>
     <use style="fill:#1f77b4;stroke:#ffffff;stroke-width:0.48;" x="67.972321" xlink:href="#m4e49f60eb5" y="227.297994"/>
     <use style="fill:#1f77b4;stroke:#ffffff;stroke-width:0.48;" x="146.754789" xlink:href="#m4e49f60eb5" y="33.662058"/>
     <use style="fill:#1f77b4;stroke:#ffffff;stroke-width:0.48;" x="80.817289" xlink:href="#m4e49f60eb5" y="39.764031"/>
     <use style="fill:#1f77b4;stroke:#ffffff;stroke-width:0.48;" x="220.399269" xlink:href="#m4e49f60eb5" y="37.323242"/>
     <use style="fill:#1f77b4;stroke:#ffffff;stroke-width:0.48;" x="190.427679" xlink:href="#m4e49f60eb5" y="27.966883"/>
     <use style="fill:#1f77b4;stroke:#ffffff;stroke-width:0.48;" x="322.302679" xlink:href="#m4e49f60eb5" y="27.560085"/>
     <use style="fill:#1f77b4;stroke:#ffffff;stroke-width:0.48;" x="67.11599" xlink:href="#m4e49f60eb5" y="158.142303"/>
     <use style="fill:#1f77b4;stroke:#ffffff;stroke-width:0.48;" x="102.225568" xlink:href="#m4e49f60eb5" y="51.967976"/>
     <use style="fill:#1f77b4;stroke:#ffffff;stroke-width:0.48;" x="107.363555" xlink:href="#m4e49f60eb5" y="89.800208"/>
     <use style="fill:#1f77b4;stroke:#ffffff;stroke-width:0.48;" x="60.265341" xlink:href="#m4e49f60eb5" y="195.974534"/>
     <use style="fill:#1f77b4;stroke:#ffffff;stroke-width:0.48;" x="84.242614" xlink:href="#m4e49f60eb5" y="58.069949"/>
     <use style="fill:#1f77b4;stroke:#ffffff;stroke-width:0.48;" x="90.236932" xlink:href="#m4e49f60eb5" y="199.635718"/>
     <use style="fill:#1f77b4;stroke:#ffffff;stroke-width:0.48;" x="97.087581" xlink:href="#m4e49f60eb5" y="108.106126"/>
     <use style="fill:#1f77b4;stroke:#ffffff;stroke-width:0.48;" x="79.104627" xlink:href="#m4e49f60eb5" y="85.732226"/>
     <use style="fill:#1f77b4;stroke:#ffffff;stroke-width:0.48;" x="61.978003" xlink:href="#m4e49f60eb5" y="195.974534"/>
     <use style="fill:#1f77b4;stroke:#ffffff;stroke-width:0.48;" x="161.312419" xlink:href="#m4e49f60eb5" y="28.373682"/>
     <use style="fill:#1f77b4;stroke:#ffffff;stroke-width:0.48;" x="61.978003" xlink:href="#m4e49f60eb5" y="260.655445"/>
     <use style="fill:#1f77b4;stroke:#ffffff;stroke-width:0.48;" x="105.650893" xlink:href="#m4e49f60eb5" y="53.188371"/>
     <use style="fill:#1f77b4;stroke:#ffffff;stroke-width:0.48;" x="290.618425" xlink:href="#m4e49f60eb5" y="27.560085"/>
     <use style="fill:#1f77b4;stroke:#ffffff;stroke-width:0.48;" x="292.331088" xlink:href="#m4e49f60eb5" y="31.628067"/>
     <use style="fill:#1f77b4;stroke:#ffffff;stroke-width:0.48;" x="127.059172" xlink:href="#m4e49f60eb5" y="96.715777"/>
     <use style="fill:#1f77b4;stroke:#ffffff;stroke-width:0.48;" x="205.84164" xlink:href="#m4e49f60eb5" y="35.696049"/>
     <use style="fill:#1f77b4;stroke:#ffffff;stroke-width:0.48;" x="103.081899" xlink:href="#m4e49f60eb5" y="177.261817"/>
     <use style="fill:#1f77b4;stroke:#ffffff;stroke-width:0.48;" x="70.541315" xlink:href="#m4e49f60eb5" y="271.232198"/>
     <use style="fill:#1f77b4;stroke:#ffffff;stroke-width:0.48;" x="77.391964" xlink:href="#m4e49f60eb5" y="31.628067"/>
     <use style="fill:#1f77b4;stroke:#ffffff;stroke-width:0.48;" x="292.331088" xlink:href="#m4e49f60eb5" y="31.628067"/>
     <use style="fill:#1f77b4;stroke:#ffffff;stroke-width:0.48;" x="74.822971" xlink:href="#m4e49f60eb5" y="130.073228"/>
     <use style="fill:#1f77b4;stroke:#ffffff;stroke-width:0.48;" x="227.249919" xlink:href="#m4e49f60eb5" y="37.73004"/>
     <use style="fill:#1f77b4;stroke:#ffffff;stroke-width:0.48;" x="98.800244" xlink:href="#m4e49f60eb5" y="35.696049"/>
     <use style="fill:#1f77b4;stroke:#ffffff;stroke-width:0.48;" x="124.490179" xlink:href="#m4e49f60eb5" y="68.239904"/>
     <use style="fill:#1f77b4;stroke:#ffffff;stroke-width:0.48;" x="235.813231" xlink:href="#m4e49f60eb5" y="31.628067"/>
     <use style="fill:#1f77b4;stroke:#ffffff;stroke-width:0.48;" x="91.093263" xlink:href="#m4e49f60eb5" y="147.158752"/>
     <use style="fill:#1f77b4;stroke:#ffffff;stroke-width:0.48;" x="73.96664" xlink:href="#m4e49f60eb5" y="288.317722"/>
     <use style="fill:#1f77b4;stroke:#ffffff;stroke-width:0.48;" x="62.834334" xlink:href="#m4e49f60eb5" y="261.87584"/>
     <use style="fill:#1f77b4;stroke:#ffffff;stroke-width:0.48;" x="90.236932" xlink:href="#m4e49f60eb5" y="32.441663"/>
     <use style="fill:#1f77b4;stroke:#ffffff;stroke-width:0.48;" x="69.684984" xlink:href="#m4e49f60eb5" y="219.16203"/>
     <use style="fill:#1f77b4;stroke:#ffffff;stroke-width:0.48;" x="78.248295" xlink:href="#m4e49f60eb5" y="124.378053"/>
     <use style="fill:#1f77b4;stroke:#ffffff;stroke-width:0.48;" x="302.607062" xlink:href="#m4e49f60eb5" y="54.001967"/>
     <use style="fill:#1f77b4;stroke:#ffffff;stroke-width:0.48;" x="175.013718" xlink:href="#m4e49f60eb5" y="30.000874"/>
     <use style="fill:#1f77b4;stroke:#ffffff;stroke-width:0.48;" x="320.590016" xlink:href="#m4e49f60eb5" y="27.966883"/>
     <use style="fill:#1f77b4;stroke:#ffffff;stroke-width:0.48;" x="80.817289" xlink:href="#m4e49f60eb5" y="192.31335"/>
     <use style="fill:#1f77b4;stroke:#ffffff;stroke-width:0.48;" x="83.386282" xlink:href="#m4e49f60eb5" y="76.782666"/>
     <use style="fill:#1f77b4;stroke:#ffffff;stroke-width:0.48;" x="115.926867" xlink:href="#m4e49f60eb5" y="111.360511"/>
     <use style="fill:#1f77b4;stroke:#ffffff;stroke-width:0.48;" x="68.828653" xlink:href="#m4e49f60eb5" y="270.011804"/>
     <use style="fill:#1f77b4;stroke:#ffffff;stroke-width:0.48;" x="309.457711" xlink:href="#m4e49f60eb5" y="35.696049"/>
     <use style="fill:#1f77b4;stroke:#ffffff;stroke-width:0.48;" x="225.537256" xlink:href="#m4e49f60eb5" y="46.272802"/>
     <use style="fill:#1f77b4;stroke:#ffffff;stroke-width:0.48;" x="284.624107" xlink:href="#m4e49f60eb5" y="33.25526"/>
     <use style="fill:#1f77b4;stroke:#ffffff;stroke-width:0.48;" x="89.380601" xlink:href="#m4e49f60eb5" y="76.782666"/>
     <use style="fill:#1f77b4;stroke:#ffffff;stroke-width:0.48;" x="297.469075" xlink:href="#m4e49f60eb5" y="31.628067"/>
     <use style="fill:#1f77b4;stroke:#ffffff;stroke-width:0.48;" x="92.805925" xlink:href="#m4e49f60eb5" y="62.951527"/>
     <use style="fill:#1f77b4;stroke:#ffffff;stroke-width:0.48;" x="109.932549" xlink:href="#m4e49f60eb5" y="34.068856"/>
     <use style="fill:#1f77b4;stroke:#ffffff;stroke-width:0.48;" x="64.546997" xlink:href="#m4e49f60eb5" y="88.173015"/>
     <use style="fill:#1f77b4;stroke:#ffffff;stroke-width:0.48;" x="67.11599" xlink:href="#m4e49f60eb5" y="31.628067"/>
     <use style="fill:#1f77b4;stroke:#ffffff;stroke-width:0.48;" x="208.410633" xlink:href="#m4e49f60eb5" y="36.102847"/>
     <use style="fill:#1f77b4;stroke:#ffffff;stroke-width:0.48;" x="218.686607" xlink:href="#m4e49f60eb5" y="94.681786"/>
     <use style="fill:#1f77b4;stroke:#ffffff;stroke-width:0.48;" x="69.684984" xlink:href="#m4e49f60eb5" y="39.764031"/>
     <use style="fill:#1f77b4;stroke:#ffffff;stroke-width:0.48;" x="70.541315" xlink:href="#m4e49f60eb5" y="164.244275"/>
     <use style="fill:#1f77b4;stroke:#ffffff;stroke-width:0.48;" x="143.329464" xlink:href="#m4e49f60eb5" y="28.373682"/>
     <use style="fill:#1f77b4;stroke:#ffffff;stroke-width:0.48;" x="97.087581" xlink:href="#m4e49f60eb5" y="78.816657"/>
     <use style="fill:#1f77b4;stroke:#ffffff;stroke-width:0.48;" x="81.67362" xlink:href="#m4e49f60eb5" y="89.393409"/>
     <use style="fill:#1f77b4;stroke:#ffffff;stroke-width:0.48;" x="64.546997" xlink:href="#m4e49f60eb5" y="200.449314"/>
     <use style="fill:#1f77b4;stroke:#ffffff;stroke-width:0.48;" x="110.78888" xlink:href="#m4e49f60eb5" y="98.342969"/>
     <use style="fill:#1f77b4;stroke:#ffffff;stroke-width:0.48;" x="270.066477" xlink:href="#m4e49f60eb5" y="27.560085"/>
     <use style="fill:#1f77b4;stroke:#ffffff;stroke-width:0.48;" x="153.605438" xlink:href="#m4e49f60eb5" y="29.187278"/>
     <use style="fill:#1f77b4;stroke:#ffffff;stroke-width:0.48;" x="527.822159" xlink:href="#m4e49f60eb5" y="27.560085"/>
     <use style="fill:#1f77b4;stroke:#ffffff;stroke-width:0.48;" x="222.111932" xlink:href="#m4e49f60eb5" y="49.933985"/>
     <use style="fill:#1f77b4;stroke:#ffffff;stroke-width:0.48;" x="62.834334" xlink:href="#m4e49f60eb5" y="154.074321"/>
     <use style="fill:#1f77b4;stroke:#ffffff;stroke-width:0.48;" x="61.121672" xlink:href="#m4e49f60eb5" y="179.295808"/>
     <use style="fill:#1f77b4;stroke:#ffffff;stroke-width:0.48;" x="133.05349" xlink:href="#m4e49f60eb5" y="73.52828"/>
     <use style="fill:#1f77b4;stroke:#ffffff;stroke-width:0.48;" x="89.380601" xlink:href="#m4e49f60eb5" y="38.950434"/>
     <use style="fill:#1f77b4;stroke:#ffffff;stroke-width:0.48;" x="63.690666" xlink:href="#m4e49f60eb5" y="245.603912"/>
     <use style="fill:#1f77b4;stroke:#ffffff;stroke-width:0.48;" x="207.554302" xlink:href="#m4e49f60eb5" y="56.849555"/>
     <use style="fill:#1f77b4;stroke:#ffffff;stroke-width:0.48;" x="69.684984" xlink:href="#m4e49f60eb5" y="53.188371"/>
     <use style="fill:#1f77b4;stroke:#ffffff;stroke-width:0.48;" x="179.295373" xlink:href="#m4e49f60eb5" y="36.916443"/>
     <use style="fill:#1f77b4;stroke:#ffffff;stroke-width:0.48;" x="71.397646" xlink:href="#m4e49f60eb5" y="264.723427"/>
     <use style="fill:#1f77b4;stroke:#ffffff;stroke-width:0.48;" x="153.605438" xlink:href="#m4e49f60eb5" y="86.139024"/>
     <use style="fill:#1f77b4;stroke:#ffffff;stroke-width:0.48;" x="133.05349" xlink:href="#m4e49f60eb5" y="59.290344"/>
     <use style="fill:#1f77b4;stroke:#ffffff;stroke-width:0.48;" x="73.110308" xlink:href="#m4e49f60eb5" y="72.307886"/>
     <use style="fill:#1f77b4;stroke:#ffffff;stroke-width:0.48;" x="71.397646" xlink:href="#m4e49f60eb5" y="31.221269"/>
     <use style="fill:#1f77b4;stroke:#ffffff;stroke-width:0.48;" x="287.193101" xlink:href="#m4e49f60eb5" y="31.628067"/>
     <use style="fill:#1f77b4;stroke:#ffffff;stroke-width:0.48;" x="71.397646" xlink:href="#m4e49f60eb5" y="36.509645"/>
     <use style="fill:#1f77b4;stroke:#ffffff;stroke-width:0.48;" x="85.098945" xlink:href="#m4e49f60eb5" y="39.764031"/>
     <use style="fill:#1f77b4;stroke:#ffffff;stroke-width:0.48;" x="90.236932" xlink:href="#m4e49f60eb5" y="224.043609"/>
     <use style="fill:#1f77b4;stroke:#ffffff;stroke-width:0.48;" x="66.259659" xlink:href="#m4e49f60eb5" y="239.908738"/>
     <use style="fill:#1f77b4;stroke:#ffffff;stroke-width:0.48;" x="117.639529" xlink:href="#m4e49f60eb5" y="92.647795"/>
     <use style="fill:#1f77b4;stroke:#ffffff;stroke-width:0.48;" x="67.972321" xlink:href="#m4e49f60eb5" y="250.485491"/>
     <use style="fill:#1f77b4;stroke:#ffffff;stroke-width:0.48;" x="300.894399" xlink:href="#m4e49f60eb5" y="31.628067"/>
     <use style="fill:#1f77b4;stroke:#ffffff;stroke-width:0.48;" x="153.605438" xlink:href="#m4e49f60eb5" y="40.984425"/>
     <use style="fill:#1f77b4;stroke:#ffffff;stroke-width:0.48;" x="184.43336" xlink:href="#m4e49f60eb5" y="64.171922"/>
     <use style="fill:#1f77b4;stroke:#ffffff;stroke-width:0.48;" x="240.951218" xlink:href="#m4e49f60eb5" y="31.628067"/>
     <use style="fill:#1f77b4;stroke:#ffffff;stroke-width:0.48;" x="75.679302" xlink:href="#m4e49f60eb5" y="159.769495"/>
     <use style="fill:#1f77b4;stroke:#ffffff;stroke-width:0.48;" x="62.834334" xlink:href="#m4e49f60eb5" y="362.76179"/>
     <use style="fill:#1f77b4;stroke:#ffffff;stroke-width:0.48;" x="63.690666" xlink:href="#m4e49f60eb5" y="157.735504"/>
     <use style="fill:#1f77b4;stroke:#ffffff;stroke-width:0.48;" x="163.025081" xlink:href="#m4e49f60eb5" y="39.764031"/>
     <use style="fill:#1f77b4;stroke:#ffffff;stroke-width:0.48;" x="379.676867" xlink:href="#m4e49f60eb5" y="27.560085"/>
     <use style="fill:#1f77b4;stroke:#ffffff;stroke-width:0.48;" x="168.163068" xlink:href="#m4e49f60eb5" y="126.005246"/>
     <use style="fill:#1f77b4;stroke:#ffffff;stroke-width:0.48;" x="73.96664" xlink:href="#m4e49f60eb5" y="248.4515"/>
     <use style="fill:#1f77b4;stroke:#ffffff;stroke-width:0.48;" x="133.05349" xlink:href="#m4e49f60eb5" y="60.10394"/>
     <use style="fill:#1f77b4;stroke:#ffffff;stroke-width:0.48;" x="109.932549" xlink:href="#m4e49f60eb5" y="57.663151"/>
     <use style="fill:#1f77b4;stroke:#ffffff;stroke-width:0.48;" x="74.822971" xlink:href="#m4e49f60eb5" y="171.566643"/>
     <use style="fill:#1f77b4;stroke:#ffffff;stroke-width:0.48;" x="96.23125" xlink:href="#m4e49f60eb5" y="51.967976"/>
     <use style="fill:#1f77b4;stroke:#ffffff;stroke-width:0.48;" x="99.656575" xlink:href="#m4e49f60eb5" y="64.57872"/>
     <use style="fill:#1f77b4;stroke:#ffffff;stroke-width:0.48;" x="95.374919" xlink:href="#m4e49f60eb5" y="57.663151"/>
     <use style="fill:#1f77b4;stroke:#ffffff;stroke-width:0.48;" x="151.036445" xlink:href="#m4e49f60eb5" y="28.373682"/>
     <use style="fill:#1f77b4;stroke:#ffffff;stroke-width:0.48;" x="210.123295" xlink:href="#m4e49f60eb5" y="54.815564"/>
     <use style="fill:#1f77b4;stroke:#ffffff;stroke-width:0.48;" x="199.847321" xlink:href="#m4e49f60eb5" y="51.561178"/>
     <use style="fill:#1f77b4;stroke:#ffffff;stroke-width:0.48;" x="240.094886" xlink:href="#m4e49f60eb5" y="98.749768"/>
     <use style="fill:#1f77b4;stroke:#ffffff;stroke-width:0.48;" x="105.650893" xlink:href="#m4e49f60eb5" y="72.714684"/>
     <use style="fill:#1f77b4;stroke:#ffffff;stroke-width:0.48;" x="115.926867" xlink:href="#m4e49f60eb5" y="34.068856"/>
     <use style="fill:#1f77b4;stroke:#ffffff;stroke-width:0.48;" x="132.197159" xlink:href="#m4e49f60eb5" y="29.187278"/>
     <use style="fill:#1f77b4;stroke:#ffffff;stroke-width:0.48;" x="67.11599" xlink:href="#m4e49f60eb5" y="147.972348"/>
     <use style="fill:#1f77b4;stroke:#ffffff;stroke-width:0.48;" x="77.391964" xlink:href="#m4e49f60eb5" y="39.764031"/>
     <use style="fill:#1f77b4;stroke:#ffffff;stroke-width:0.48;" x="131.340828" xlink:href="#m4e49f60eb5" y="39.764031"/>
     <use style="fill:#1f77b4;stroke:#ffffff;stroke-width:0.48;" x="102.225568" xlink:href="#m4e49f60eb5" y="161.803486"/>
     <use style="fill:#1f77b4;stroke:#ffffff;stroke-width:0.48;" x="115.070536" xlink:href="#m4e49f60eb5" y="31.628067"/>
     <use style="fill:#1f77b4;stroke:#ffffff;stroke-width:0.48;" x="80.817289" xlink:href="#m4e49f60eb5" y="43.832013"/>
     <use style="fill:#1f77b4;stroke:#ffffff;stroke-width:0.48;" x="103.938231" xlink:href="#m4e49f60eb5" y="28.78048"/>
     <use style="fill:#1f77b4;stroke:#ffffff;stroke-width:0.48;" x="352.274269" xlink:href="#m4e49f60eb5" y="43.832013"/>
     <use style="fill:#1f77b4;stroke:#ffffff;stroke-width:0.48;" x="66.259659" xlink:href="#m4e49f60eb5" y="111.76731"/>
     <use style="fill:#1f77b4;stroke:#ffffff;stroke-width:0.48;" x="157.030763" xlink:href="#m4e49f60eb5" y="113.8013"/>
     <use style="fill:#1f77b4;stroke:#ffffff;stroke-width:0.48;" x="69.684984" xlink:href="#m4e49f60eb5" y="270.8254"/>
     <use style="fill:#1f77b4;stroke:#ffffff;stroke-width:0.48;" x="74.822971" xlink:href="#m4e49f60eb5" y="56.035958"/>
     <use style="fill:#1f77b4;stroke:#ffffff;stroke-width:0.48;" x="122.777516" xlink:href="#m4e49f60eb5" y="198.415323"/>
     <use style="fill:#1f77b4;stroke:#ffffff;stroke-width:0.48;" x="60.265341" xlink:href="#m4e49f60eb5" y="306.62364"/>
     <use style="fill:#1f77b4;stroke:#ffffff;stroke-width:0.48;" x="258.934172" xlink:href="#m4e49f60eb5" y="58.069949"/>
     <use style="fill:#1f77b4;stroke:#ffffff;stroke-width:0.48;" x="218.686607" xlink:href="#m4e49f60eb5" y="28.78048"/>
     <use style="fill:#1f77b4;stroke:#ffffff;stroke-width:0.48;" x="60.265341" xlink:href="#m4e49f60eb5" y="280.588556"/>
     <use style="fill:#1f77b4;stroke:#ffffff;stroke-width:0.48;" x="147.61112" xlink:href="#m4e49f60eb5" y="82.884638"/>
     <use style="fill:#1f77b4;stroke:#ffffff;stroke-width:0.48;" x="244.376542" xlink:href="#m4e49f60eb5" y="36.102847"/>
     <use style="fill:#1f77b4;stroke:#ffffff;stroke-width:0.48;" x="87.667938" xlink:href="#m4e49f60eb5" y="58.883545"/>
     <use style="fill:#1f77b4;stroke:#ffffff;stroke-width:0.48;" x="72.253977" xlink:href="#m4e49f60eb5" y="185.804579"/>
     <use style="fill:#1f77b4;stroke:#ffffff;stroke-width:0.48;" x="90.236932" xlink:href="#m4e49f60eb5" y="56.035958"/>
     <use style="fill:#1f77b4;stroke:#ffffff;stroke-width:0.48;" x="97.943912" xlink:href="#m4e49f60eb5" y="102.410951"/>
     <use style="fill:#1f77b4;stroke:#ffffff;stroke-width:0.48;" x="285.480438" xlink:href="#m4e49f60eb5" y="31.628067"/>
     <use style="fill:#1f77b4;stroke:#ffffff;stroke-width:0.48;" x="336.003977" xlink:href="#m4e49f60eb5" y="31.628067"/>
     <use style="fill:#1f77b4;stroke:#ffffff;stroke-width:0.48;" x="84.242614" xlink:href="#m4e49f60eb5" y="121.530466"/>
     <use style="fill:#1f77b4;stroke:#ffffff;stroke-width:0.48;" x="256.365179" xlink:href="#m4e49f60eb5" y="43.425214"/>
     <use style="fill:#1f77b4;stroke:#ffffff;stroke-width:0.48;" x="64.546997" xlink:href="#m4e49f60eb5" y="30.000874"/>
     <use style="fill:#1f77b4;stroke:#ffffff;stroke-width:0.48;" x="61.121672" xlink:href="#m4e49f60eb5" y="116.24209"/>
     <use style="fill:#1f77b4;stroke:#ffffff;stroke-width:0.48;" x="119.352192" xlink:href="#m4e49f60eb5" y="57.663151"/>
     <use style="fill:#1f77b4;stroke:#ffffff;stroke-width:0.48;" x="68.828653" xlink:href="#m4e49f60eb5" y="186.618176"/>
     <use style="fill:#1f77b4;stroke:#ffffff;stroke-width:0.48;" x="74.822971" xlink:href="#m4e49f60eb5" y="33.662058"/>
     <use style="fill:#1f77b4;stroke:#ffffff;stroke-width:0.48;" x="137.335146" xlink:href="#m4e49f60eb5" y="33.25526"/>
     <use style="fill:#1f77b4;stroke:#ffffff;stroke-width:0.48;" x="115.070536" xlink:href="#m4e49f60eb5" y="132.514017"/>
     <use style="fill:#1f77b4;stroke:#ffffff;stroke-width:0.48;" x="113.357873" xlink:href="#m4e49f60eb5" y="82.47784"/>
     <use style="fill:#1f77b4;stroke:#ffffff;stroke-width:0.48;" x="105.650893" xlink:href="#m4e49f60eb5" y="35.696049"/>
     <use style="fill:#1f77b4;stroke:#ffffff;stroke-width:0.48;" x="138.191477" xlink:href="#m4e49f60eb5" y="35.696049"/>
     <use style="fill:#1f77b4;stroke:#ffffff;stroke-width:0.48;" x="67.972321" xlink:href="#m4e49f60eb5" y="150.006339"/>
     <use style="fill:#1f77b4;stroke:#ffffff;stroke-width:0.48;" x="102.225568" xlink:href="#m4e49f60eb5" y="28.78048"/>
     <use style="fill:#1f77b4;stroke:#ffffff;stroke-width:0.48;" x="254.652516" xlink:href="#m4e49f60eb5" y="117.462484"/>
     <use style="fill:#1f77b4;stroke:#ffffff;stroke-width:0.48;" x="293.187419" xlink:href="#m4e49f60eb5" y="31.628067"/>
     <use style="fill:#1f77b4;stroke:#ffffff;stroke-width:0.48;" x="379.676867" xlink:href="#m4e49f60eb5" y="39.764031"/>
     <use style="fill:#1f77b4;stroke:#ffffff;stroke-width:0.48;" x="165.594075" xlink:href="#m4e49f60eb5" y="35.696049"/>
     <use style="fill:#1f77b4;stroke:#ffffff;stroke-width:0.48;" x="70.541315" xlink:href="#m4e49f60eb5" y="30.407673"/>
     <use style="fill:#1f77b4;stroke:#ffffff;stroke-width:0.48;" x="80.817289" xlink:href="#m4e49f60eb5" y="218.755232"/>
     <use style="fill:#1f77b4;stroke:#ffffff;stroke-width:0.48;" x="97.087581" xlink:href="#m4e49f60eb5" y="54.408765"/>
     <use style="fill:#1f77b4;stroke:#ffffff;stroke-width:0.48;" x="77.391964" xlink:href="#m4e49f60eb5" y="67.019509"/>
     <use style="fill:#1f77b4;stroke:#ffffff;stroke-width:0.48;" x="87.667938" xlink:href="#m4e49f60eb5" y="230.959178"/>
     <use style="fill:#1f77b4;stroke:#ffffff;stroke-width:0.48;" x="62.834334" xlink:href="#m4e49f60eb5" y="230.145581"/>
     <use style="fill:#1f77b4;stroke:#ffffff;stroke-width:0.48;" x="62.834334" xlink:href="#m4e49f60eb5" y="106.478933"/>
     <use style="fill:#1f77b4;stroke:#ffffff;stroke-width:0.48;" x="72.253977" xlink:href="#m4e49f60eb5" y="65.392316"/>
    </g>
   </g>
   <g id="matplotlib.axis_1">
    <g id="xtick_1">
     <g id="line2d_1">
      <defs>
       <path d="M 0 0 
L 0 3.5 
" id="m6dc4ce3047" style="stroke:#000000;stroke-width:0.8;"/>
      </defs>
      <g>
       <use style="stroke:#000000;stroke-width:0.8;" x="55.983685" xlink:href="#m6dc4ce3047" y="379.521875"/>
      </g>
     </g>
     <g id="text_1">
      <!-- 0 -->
      <g transform="translate(52.802435 394.120313)scale(0.1 -0.1)">
       <defs>
        <path d="M 2034 4250 
Q 1547 4250 1301 3770 
Q 1056 3291 1056 2328 
Q 1056 1369 1301 889 
Q 1547 409 2034 409 
Q 2525 409 2770 889 
Q 3016 1369 3016 2328 
Q 3016 3291 2770 3770 
Q 2525 4250 2034 4250 
z
M 2034 4750 
Q 2819 4750 3233 4129 
Q 3647 3509 3647 2328 
Q 3647 1150 3233 529 
Q 2819 -91 2034 -91 
Q 1250 -91 836 529 
Q 422 1150 422 2328 
Q 422 3509 836 4129 
Q 1250 4750 2034 4750 
z
" id="DejaVuSans-30" transform="scale(0.015625)"/>
       </defs>
       <use xlink:href="#DejaVuSans-30"/>
      </g>
     </g>
    </g>
    <g id="xtick_2">
     <g id="line2d_2">
      <g>
       <use style="stroke:#000000;stroke-width:0.8;" x="141.616802" xlink:href="#m6dc4ce3047" y="379.521875"/>
      </g>
     </g>
     <g id="text_2">
      <!-- 10000 -->
      <g transform="translate(125.710552 394.120313)scale(0.1 -0.1)">
       <defs>
        <path d="M 794 531 
L 1825 531 
L 1825 4091 
L 703 3866 
L 703 4441 
L 1819 4666 
L 2450 4666 
L 2450 531 
L 3481 531 
L 3481 0 
L 794 0 
L 794 531 
z
" id="DejaVuSans-31" transform="scale(0.015625)"/>
       </defs>
       <use xlink:href="#DejaVuSans-31"/>
       <use x="63.623047" xlink:href="#DejaVuSans-30"/>
       <use x="127.246094" xlink:href="#DejaVuSans-30"/>
       <use x="190.869141" xlink:href="#DejaVuSans-30"/>
       <use x="254.492188" xlink:href="#DejaVuSans-30"/>
      </g>
     </g>
    </g>
    <g id="xtick_3">
     <g id="line2d_3">
      <g>
       <use style="stroke:#000000;stroke-width:0.8;" x="227.249919" xlink:href="#m6dc4ce3047" y="379.521875"/>
      </g>
     </g>
     <g id="text_3">
      <!-- 20000 -->
      <g transform="translate(211.343669 394.120313)scale(0.1 -0.1)">
       <defs>
        <path d="M 1228 531 
L 3431 531 
L 3431 0 
L 469 0 
L 469 531 
Q 828 903 1448 1529 
Q 2069 2156 2228 2338 
Q 2531 2678 2651 2914 
Q 2772 3150 2772 3378 
Q 2772 3750 2511 3984 
Q 2250 4219 1831 4219 
Q 1534 4219 1204 4116 
Q 875 4013 500 3803 
L 500 4441 
Q 881 4594 1212 4672 
Q 1544 4750 1819 4750 
Q 2544 4750 2975 4387 
Q 3406 4025 3406 3419 
Q 3406 3131 3298 2873 
Q 3191 2616 2906 2266 
Q 2828 2175 2409 1742 
Q 1991 1309 1228 531 
z
" id="DejaVuSans-32" transform="scale(0.015625)"/>
       </defs>
       <use xlink:href="#DejaVuSans-32"/>
       <use x="63.623047" xlink:href="#DejaVuSans-30"/>
       <use x="127.246094" xlink:href="#DejaVuSans-30"/>
       <use x="190.869141" xlink:href="#DejaVuSans-30"/>
       <use x="254.492188" xlink:href="#DejaVuSans-30"/>
      </g>
     </g>
    </g>
    <g id="xtick_4">
     <g id="line2d_4">
      <g>
       <use style="stroke:#000000;stroke-width:0.8;" x="312.883036" xlink:href="#m6dc4ce3047" y="379.521875"/>
      </g>
     </g>
     <g id="text_4">
      <!-- 30000 -->
      <g transform="translate(296.976786 394.120313)scale(0.1 -0.1)">
       <defs>
        <path d="M 2597 2516 
Q 3050 2419 3304 2112 
Q 3559 1806 3559 1356 
Q 3559 666 3084 287 
Q 2609 -91 1734 -91 
Q 1441 -91 1130 -33 
Q 819 25 488 141 
L 488 750 
Q 750 597 1062 519 
Q 1375 441 1716 441 
Q 2309 441 2620 675 
Q 2931 909 2931 1356 
Q 2931 1769 2642 2001 
Q 2353 2234 1838 2234 
L 1294 2234 
L 1294 2753 
L 1863 2753 
Q 2328 2753 2575 2939 
Q 2822 3125 2822 3475 
Q 2822 3834 2567 4026 
Q 2313 4219 1838 4219 
Q 1578 4219 1281 4162 
Q 984 4106 628 3988 
L 628 4550 
Q 988 4650 1302 4700 
Q 1616 4750 1894 4750 
Q 2613 4750 3031 4423 
Q 3450 4097 3450 3541 
Q 3450 3153 3228 2886 
Q 3006 2619 2597 2516 
z
" id="DejaVuSans-33" transform="scale(0.015625)"/>
       </defs>
       <use xlink:href="#DejaVuSans-33"/>
       <use x="63.623047" xlink:href="#DejaVuSans-30"/>
       <use x="127.246094" xlink:href="#DejaVuSans-30"/>
       <use x="190.869141" xlink:href="#DejaVuSans-30"/>
       <use x="254.492188" xlink:href="#DejaVuSans-30"/>
      </g>
     </g>
    </g>
    <g id="xtick_5">
     <g id="line2d_5">
      <g>
       <use style="stroke:#000000;stroke-width:0.8;" x="398.516153" xlink:href="#m6dc4ce3047" y="379.521875"/>
      </g>
     </g>
     <g id="text_5">
      <!-- 40000 -->
      <g transform="translate(382.609903 394.120313)scale(0.1 -0.1)">
       <defs>
        <path d="M 2419 4116 
L 825 1625 
L 2419 1625 
L 2419 4116 
z
M 2253 4666 
L 3047 4666 
L 3047 1625 
L 3713 1625 
L 3713 1100 
L 3047 1100 
L 3047 0 
L 2419 0 
L 2419 1100 
L 313 1100 
L 313 1709 
L 2253 4666 
z
" id="DejaVuSans-34" transform="scale(0.015625)"/>
       </defs>
       <use xlink:href="#DejaVuSans-34"/>
       <use x="63.623047" xlink:href="#DejaVuSans-30"/>
       <use x="127.246094" xlink:href="#DejaVuSans-30"/>
       <use x="190.869141" xlink:href="#DejaVuSans-30"/>
       <use x="254.492188" xlink:href="#DejaVuSans-30"/>
      </g>
     </g>
    </g>
    <g id="xtick_6">
     <g id="line2d_6">
      <g>
       <use style="stroke:#000000;stroke-width:0.8;" x="484.149269" xlink:href="#m6dc4ce3047" y="379.521875"/>
      </g>
     </g>
     <g id="text_6">
      <!-- 50000 -->
      <g transform="translate(468.243019 394.120313)scale(0.1 -0.1)">
       <defs>
        <path d="M 691 4666 
L 3169 4666 
L 3169 4134 
L 1269 4134 
L 1269 2991 
Q 1406 3038 1543 3061 
Q 1681 3084 1819 3084 
Q 2600 3084 3056 2656 
Q 3513 2228 3513 1497 
Q 3513 744 3044 326 
Q 2575 -91 1722 -91 
Q 1428 -91 1123 -41 
Q 819 9 494 109 
L 494 744 
Q 775 591 1075 516 
Q 1375 441 1709 441 
Q 2250 441 2565 725 
Q 2881 1009 2881 1497 
Q 2881 1984 2565 2268 
Q 2250 2553 1709 2553 
Q 1456 2553 1204 2497 
Q 953 2441 691 2322 
L 691 4666 
z
" id="DejaVuSans-35" transform="scale(0.015625)"/>
       </defs>
       <use xlink:href="#DejaVuSans-35"/>
       <use x="63.623047" xlink:href="#DejaVuSans-30"/>
       <use x="127.246094" xlink:href="#DejaVuSans-30"/>
       <use x="190.869141" xlink:href="#DejaVuSans-30"/>
       <use x="254.492188" xlink:href="#DejaVuSans-30"/>
      </g>
     </g>
    </g>
   </g>
   <g id="matplotlib.axis_2">
    <g id="ytick_1">
     <g id="line2d_7">
      <defs>
       <path d="M 0 0 
L -3.5 0 
" id="mdccd59dd66" style="stroke:#000000;stroke-width:0.8;"/>
      </defs>
      <g>
       <use style="stroke:#000000;stroke-width:0.8;" x="36.8875" xlink:href="#mdccd59dd66" y="352.998633"/>
      </g>
     </g>
     <g id="text_7">
      <!-- 20 -->
      <g transform="translate(17.1625 356.797852)scale(0.1 -0.1)">
       <use xlink:href="#DejaVuSans-32"/>
       <use x="63.623047" xlink:href="#DejaVuSans-30"/>
      </g>
     </g>
    </g>
    <g id="ytick_2">
     <g id="line2d_8">
      <g>
       <use style="stroke:#000000;stroke-width:0.8;" x="36.8875" xlink:href="#mdccd59dd66" y="271.638996"/>
      </g>
     </g>
     <g id="text_8">
      <!-- 40 -->
      <g transform="translate(17.1625 275.438215)scale(0.1 -0.1)">
       <use xlink:href="#DejaVuSans-34"/>
       <use x="63.623047" xlink:href="#DejaVuSans-30"/>
      </g>
     </g>
    </g>
    <g id="ytick_3">
     <g id="line2d_9">
      <g>
       <use style="stroke:#000000;stroke-width:0.8;" x="36.8875" xlink:href="#mdccd59dd66" y="190.279359"/>
      </g>
     </g>
     <g id="text_9">
      <!-- 60 -->
      <g transform="translate(17.1625 194.078578)scale(0.1 -0.1)">
       <defs>
        <path d="M 2113 2584 
Q 1688 2584 1439 2293 
Q 1191 2003 1191 1497 
Q 1191 994 1439 701 
Q 1688 409 2113 409 
Q 2538 409 2786 701 
Q 3034 994 3034 1497 
Q 3034 2003 2786 2293 
Q 2538 2584 2113 2584 
z
M 3366 4563 
L 3366 3988 
Q 3128 4100 2886 4159 
Q 2644 4219 2406 4219 
Q 1781 4219 1451 3797 
Q 1122 3375 1075 2522 
Q 1259 2794 1537 2939 
Q 1816 3084 2150 3084 
Q 2853 3084 3261 2657 
Q 3669 2231 3669 1497 
Q 3669 778 3244 343 
Q 2819 -91 2113 -91 
Q 1303 -91 875 529 
Q 447 1150 447 2328 
Q 447 3434 972 4092 
Q 1497 4750 2381 4750 
Q 2619 4750 2861 4703 
Q 3103 4656 3366 4563 
z
" id="DejaVuSans-36" transform="scale(0.015625)"/>
       </defs>
       <use xlink:href="#DejaVuSans-36"/>
       <use x="63.623047" xlink:href="#DejaVuSans-30"/>
      </g>
     </g>
    </g>
    <g id="ytick_4">
     <g id="line2d_10">
      <g>
       <use style="stroke:#000000;stroke-width:0.8;" x="36.8875" xlink:href="#mdccd59dd66" y="108.919722"/>
      </g>
     </g>
     <g id="text_10">
      <!-- 80 -->
      <g transform="translate(17.1625 112.718941)scale(0.1 -0.1)">
       <defs>
        <path d="M 2034 2216 
Q 1584 2216 1326 1975 
Q 1069 1734 1069 1313 
Q 1069 891 1326 650 
Q 1584 409 2034 409 
Q 2484 409 2743 651 
Q 3003 894 3003 1313 
Q 3003 1734 2745 1975 
Q 2488 2216 2034 2216 
z
M 1403 2484 
Q 997 2584 770 2862 
Q 544 3141 544 3541 
Q 544 4100 942 4425 
Q 1341 4750 2034 4750 
Q 2731 4750 3128 4425 
Q 3525 4100 3525 3541 
Q 3525 3141 3298 2862 
Q 3072 2584 2669 2484 
Q 3125 2378 3379 2068 
Q 3634 1759 3634 1313 
Q 3634 634 3220 271 
Q 2806 -91 2034 -91 
Q 1263 -91 848 271 
Q 434 634 434 1313 
Q 434 1759 690 2068 
Q 947 2378 1403 2484 
z
M 1172 3481 
Q 1172 3119 1398 2916 
Q 1625 2713 2034 2713 
Q 2441 2713 2670 2916 
Q 2900 3119 2900 3481 
Q 2900 3844 2670 4047 
Q 2441 4250 2034 4250 
Q 1625 4250 1398 4047 
Q 1172 3844 1172 3481 
z
" id="DejaVuSans-38" transform="scale(0.015625)"/>
       </defs>
       <use xlink:href="#DejaVuSans-38"/>
       <use x="63.623047" xlink:href="#DejaVuSans-30"/>
      </g>
     </g>
    </g>
    <g id="ytick_5">
     <g id="line2d_11">
      <g>
       <use style="stroke:#000000;stroke-width:0.8;" x="36.8875" xlink:href="#mdccd59dd66" y="27.560085"/>
      </g>
     </g>
     <g id="text_11">
      <!-- 100 -->
      <g transform="translate(10.8 31.359304)scale(0.1 -0.1)">
       <use xlink:href="#DejaVuSans-31"/>
       <use x="63.623047" xlink:href="#DejaVuSans-30"/>
       <use x="127.246094" xlink:href="#DejaVuSans-30"/>
      </g>
     </g>
    </g>
   </g>
   <g id="patch_3">
    <path d="M 36.8875 379.521875 
L 36.8875 10.8 
" style="fill:none;stroke:#000000;stroke-linecap:square;stroke-linejoin:miter;stroke-width:0.8;"/>
   </g>
   <g id="patch_4">
    <path d="M 551.2 379.521875 
L 551.2 10.8 
" style="fill:none;stroke:#000000;stroke-linecap:square;stroke-linejoin:miter;stroke-width:0.8;"/>
   </g>
   <g id="patch_5">
    <path d="M 36.8875 379.521875 
L 551.2 379.521875 
" style="fill:none;stroke:#000000;stroke-linecap:square;stroke-linejoin:miter;stroke-width:0.8;"/>
   </g>
   <g id="patch_6">
    <path d="M 36.8875 10.8 
L 551.2 10.8 
" style="fill:none;stroke:#000000;stroke-linecap:square;stroke-linejoin:miter;stroke-width:0.8;"/>
   </g>
  </g>
 </g>
 <defs>
  <clipPath id="p704cf5215c">
   <rect height="368.721875" width="514.3125" x="36.8875" y="10.8"/>
  </clipPath>
 </defs>
</svg>
